G04 #@! TF.GenerationSoftware,KiCad,Pcbnew,(6.0.0-rc1-dev-1291-g61b749f0b)*
G04 #@! TF.CreationDate,2018-12-05T20:39:08+02:00
G04 #@! TF.ProjectId,TS48_right,54533438-5f72-4696-9768-742e6b696361,rev?*
G04 #@! TF.SameCoordinates,Original*
G04 #@! TF.FileFunction,Legend,Top*
G04 #@! TF.FilePolarity,Positive*
%FSLAX46Y46*%
G04 Gerber Fmt 4.6, Leading zero omitted, Abs format (unit mm)*
G04 Created by KiCad (PCBNEW (6.0.0-rc1-dev-1291-g61b749f0b)) date 12/5/2018 8:39:08 PM*
%MOMM*%
%LPD*%
G01*
G04 APERTURE LIST*
%ADD10C,0.100000*%
%ADD11C,0.010000*%
G04 APERTURE END LIST*
D10*
X183769000Y-67945000D02*
X92075000Y-67945000D01*
X195072000Y-67945000D02*
X214122000Y-67945000D01*
X184150000Y-67437000D02*
X183769000Y-67945000D01*
X194691000Y-67437000D02*
X195072000Y-67945000D01*
X215138000Y-143256000D02*
X215138000Y-68961000D01*
X96901000Y-144272000D02*
X214122000Y-144272000D01*
X95885000Y-126238000D02*
X95885000Y-143256000D01*
X99568000Y-125222000D02*
X96901000Y-125222000D01*
X100584000Y-107188000D02*
X100584000Y-124206000D01*
X96901000Y-106172000D02*
X99568000Y-106172000D01*
X95885000Y-88265000D02*
X95885000Y-105156000D01*
X92075000Y-87249000D02*
X94869000Y-87249000D01*
X91059000Y-68961000D02*
X91059000Y-86233000D01*
X193675000Y-66421000D02*
X185166000Y-66421000D01*
X193673731Y-66419731D02*
G75*
G02X194691000Y-67437000I0J-1017269D01*
G01*
X184148731Y-67438269D02*
G75*
G02X185166000Y-66421000I1017269J0D01*
G01*
X91059000Y-68961000D02*
G75*
G02X92076269Y-67943731I1017269J0D01*
G01*
X92075000Y-87249000D02*
G75*
G02X91057731Y-86231731I0J1017269D01*
G01*
X94869000Y-87249000D02*
G75*
G02X95886269Y-88266269I0J-1017269D01*
G01*
X96901000Y-106172000D02*
G75*
G02X95883731Y-105154731I0J1017269D01*
G01*
X99568000Y-106172000D02*
G75*
G02X100585269Y-107189269I0J-1017269D01*
G01*
X100584000Y-124206000D02*
G75*
G02X99566731Y-125223269I-1017269J0D01*
G01*
X95883731Y-126239269D02*
G75*
G02X96901000Y-125222000I1017269J0D01*
G01*
X96901000Y-144272000D02*
G75*
G02X95883731Y-143254731I0J1017269D01*
G01*
X215138000Y-143256000D02*
G75*
G02X214120731Y-144273269I-1017269J0D01*
G01*
X214122000Y-67945000D02*
G75*
G02X215139269Y-68962269I0J-1017269D01*
G01*
D11*
G04 #@! TO.C,G\002A\002A\002A*
G36*
X183604301Y-90917986D02*
X184558156Y-92015545D01*
X185404218Y-93203204D01*
X186109167Y-94434094D01*
X186121787Y-94459208D01*
X186425003Y-95098731D01*
X186664278Y-95693085D01*
X186870160Y-96323707D01*
X187009516Y-96825567D01*
X187221779Y-97631252D01*
X186991667Y-98051774D01*
X186746145Y-98471745D01*
X186422581Y-98984107D01*
X186051534Y-99543807D01*
X185663563Y-100105793D01*
X185289230Y-100625012D01*
X184959094Y-101056410D01*
X184924104Y-101099883D01*
X184635125Y-101438739D01*
X184265430Y-101846567D01*
X183862132Y-102272572D01*
X183472344Y-102665955D01*
X183464193Y-102673941D01*
X183152659Y-102985974D01*
X182900105Y-103252603D01*
X182726472Y-103451659D01*
X182651703Y-103560972D01*
X182654013Y-103574626D01*
X182760661Y-103627196D01*
X182982864Y-103747163D01*
X183284280Y-103914670D01*
X183515459Y-104045321D01*
X184689544Y-104799866D01*
X185837483Y-105705309D01*
X186936928Y-106737417D01*
X187965534Y-107871954D01*
X188900952Y-109084688D01*
X189720837Y-110351385D01*
X190270255Y-111370408D01*
X190754723Y-112356796D01*
X190642923Y-112771788D01*
X190353859Y-113708326D01*
X189975330Y-114723918D01*
X189524653Y-115784037D01*
X189019143Y-116854162D01*
X188476117Y-117899769D01*
X187912891Y-118886333D01*
X187346783Y-119779332D01*
X186795107Y-120544242D01*
X186659071Y-120714343D01*
X186332130Y-121113331D01*
X163842263Y-121113331D01*
X163279664Y-120346952D01*
X162456546Y-119152689D01*
X161651985Y-117846288D01*
X160902145Y-116489896D01*
X160243189Y-115145660D01*
X160208296Y-115068883D01*
X159972390Y-114532501D01*
X159736427Y-113969227D01*
X159510179Y-113405248D01*
X159303422Y-112866754D01*
X159125927Y-112379931D01*
X158987468Y-111970968D01*
X158897820Y-111666053D01*
X158866756Y-111491372D01*
X158867875Y-111477261D01*
X158941475Y-111337309D01*
X159122673Y-111095418D01*
X159393140Y-110771419D01*
X159625268Y-110508785D01*
X169047808Y-110508785D01*
X169069414Y-111185501D01*
X169138499Y-111780633D01*
X169219534Y-112135745D01*
X169584224Y-113054493D01*
X170104720Y-113897497D01*
X170782183Y-114666092D01*
X171617773Y-115361611D01*
X172525261Y-115937027D01*
X173046185Y-116193774D01*
X173661780Y-116441990D01*
X174325711Y-116667694D01*
X174991644Y-116856900D01*
X175613245Y-116995628D01*
X176144179Y-117069893D01*
X176306683Y-117078203D01*
X176639100Y-117084366D01*
X176578961Y-116755917D01*
X176356964Y-115900761D01*
X175997686Y-114977113D01*
X175514193Y-114006382D01*
X174919546Y-113009979D01*
X174226809Y-112009312D01*
X173449047Y-111025791D01*
X172599322Y-110080825D01*
X172350895Y-109826674D01*
X171862982Y-109348740D01*
X171380105Y-108897690D01*
X170919251Y-108487391D01*
X170497405Y-108131706D01*
X170131552Y-107844502D01*
X169838677Y-107639643D01*
X169635766Y-107530993D01*
X169539975Y-107532138D01*
X169489606Y-107662809D01*
X169411858Y-107920850D01*
X169319268Y-108263063D01*
X169262033Y-108489893D01*
X169144702Y-109110905D01*
X169073099Y-109800561D01*
X169047808Y-110508785D01*
X159625268Y-110508785D01*
X159734548Y-110385144D01*
X160128569Y-109956423D01*
X160556874Y-109505088D01*
X161001136Y-109050971D01*
X161443025Y-108613904D01*
X161864215Y-108213717D01*
X161995176Y-108093460D01*
X163193986Y-107045152D01*
X164378577Y-106098353D01*
X165616444Y-105199631D01*
X165876705Y-105020712D01*
X166902593Y-104321460D01*
X166259787Y-103419873D01*
X165267502Y-101947017D01*
X164327736Y-100393181D01*
X163474825Y-98817840D01*
X162836055Y-97489172D01*
X162348819Y-96407608D01*
X163050622Y-95381676D01*
X163707263Y-94471614D01*
X172076680Y-94471614D01*
X172110313Y-94631897D01*
X172200710Y-94910869D01*
X172332116Y-95267761D01*
X172488773Y-95661804D01*
X172654927Y-96052232D01*
X172814822Y-96398276D01*
X172844284Y-96457814D01*
X173327121Y-97317934D01*
X173889439Y-98117443D01*
X174565844Y-98902960D01*
X174957785Y-99305181D01*
X175356922Y-99685081D01*
X175785640Y-100067214D01*
X176196382Y-100410681D01*
X176541587Y-100674584D01*
X176587369Y-100706560D01*
X176939241Y-100937588D01*
X177334594Y-101180406D01*
X177740291Y-101416610D01*
X178123192Y-101627800D01*
X178450161Y-101795572D01*
X178688059Y-101901524D01*
X178789411Y-101929395D01*
X178881242Y-101857237D01*
X178989984Y-101673661D01*
X179023812Y-101595981D01*
X179248897Y-100803571D01*
X179317773Y-99964073D01*
X179233120Y-99104154D01*
X178997619Y-98250476D01*
X178613951Y-97429705D01*
X178603036Y-97410789D01*
X178329685Y-97022723D01*
X177949841Y-96593891D01*
X177510076Y-96168712D01*
X177056962Y-95791603D01*
X176637072Y-95506981D01*
X176565050Y-95467107D01*
X175558883Y-95026005D01*
X174420417Y-94697546D01*
X173152046Y-94482375D01*
X172755473Y-94440821D01*
X172363807Y-94416105D01*
X172139252Y-94428946D01*
X172076680Y-94471614D01*
X163707263Y-94471614D01*
X164225130Y-93753884D01*
X165405554Y-92295390D01*
X166171225Y-91443504D01*
X167096982Y-90458159D01*
X183162319Y-90458159D01*
X183604301Y-90917986D01*
X183604301Y-90917986D01*
G37*
X183604301Y-90917986D02*
X184558156Y-92015545D01*
X185404218Y-93203204D01*
X186109167Y-94434094D01*
X186121787Y-94459208D01*
X186425003Y-95098731D01*
X186664278Y-95693085D01*
X186870160Y-96323707D01*
X187009516Y-96825567D01*
X187221779Y-97631252D01*
X186991667Y-98051774D01*
X186746145Y-98471745D01*
X186422581Y-98984107D01*
X186051534Y-99543807D01*
X185663563Y-100105793D01*
X185289230Y-100625012D01*
X184959094Y-101056410D01*
X184924104Y-101099883D01*
X184635125Y-101438739D01*
X184265430Y-101846567D01*
X183862132Y-102272572D01*
X183472344Y-102665955D01*
X183464193Y-102673941D01*
X183152659Y-102985974D01*
X182900105Y-103252603D01*
X182726472Y-103451659D01*
X182651703Y-103560972D01*
X182654013Y-103574626D01*
X182760661Y-103627196D01*
X182982864Y-103747163D01*
X183284280Y-103914670D01*
X183515459Y-104045321D01*
X184689544Y-104799866D01*
X185837483Y-105705309D01*
X186936928Y-106737417D01*
X187965534Y-107871954D01*
X188900952Y-109084688D01*
X189720837Y-110351385D01*
X190270255Y-111370408D01*
X190754723Y-112356796D01*
X190642923Y-112771788D01*
X190353859Y-113708326D01*
X189975330Y-114723918D01*
X189524653Y-115784037D01*
X189019143Y-116854162D01*
X188476117Y-117899769D01*
X187912891Y-118886333D01*
X187346783Y-119779332D01*
X186795107Y-120544242D01*
X186659071Y-120714343D01*
X186332130Y-121113331D01*
X163842263Y-121113331D01*
X163279664Y-120346952D01*
X162456546Y-119152689D01*
X161651985Y-117846288D01*
X160902145Y-116489896D01*
X160243189Y-115145660D01*
X160208296Y-115068883D01*
X159972390Y-114532501D01*
X159736427Y-113969227D01*
X159510179Y-113405248D01*
X159303422Y-112866754D01*
X159125927Y-112379931D01*
X158987468Y-111970968D01*
X158897820Y-111666053D01*
X158866756Y-111491372D01*
X158867875Y-111477261D01*
X158941475Y-111337309D01*
X159122673Y-111095418D01*
X159393140Y-110771419D01*
X159625268Y-110508785D01*
X169047808Y-110508785D01*
X169069414Y-111185501D01*
X169138499Y-111780633D01*
X169219534Y-112135745D01*
X169584224Y-113054493D01*
X170104720Y-113897497D01*
X170782183Y-114666092D01*
X171617773Y-115361611D01*
X172525261Y-115937027D01*
X173046185Y-116193774D01*
X173661780Y-116441990D01*
X174325711Y-116667694D01*
X174991644Y-116856900D01*
X175613245Y-116995628D01*
X176144179Y-117069893D01*
X176306683Y-117078203D01*
X176639100Y-117084366D01*
X176578961Y-116755917D01*
X176356964Y-115900761D01*
X175997686Y-114977113D01*
X175514193Y-114006382D01*
X174919546Y-113009979D01*
X174226809Y-112009312D01*
X173449047Y-111025791D01*
X172599322Y-110080825D01*
X172350895Y-109826674D01*
X171862982Y-109348740D01*
X171380105Y-108897690D01*
X170919251Y-108487391D01*
X170497405Y-108131706D01*
X170131552Y-107844502D01*
X169838677Y-107639643D01*
X169635766Y-107530993D01*
X169539975Y-107532138D01*
X169489606Y-107662809D01*
X169411858Y-107920850D01*
X169319268Y-108263063D01*
X169262033Y-108489893D01*
X169144702Y-109110905D01*
X169073099Y-109800561D01*
X169047808Y-110508785D01*
X159625268Y-110508785D01*
X159734548Y-110385144D01*
X160128569Y-109956423D01*
X160556874Y-109505088D01*
X161001136Y-109050971D01*
X161443025Y-108613904D01*
X161864215Y-108213717D01*
X161995176Y-108093460D01*
X163193986Y-107045152D01*
X164378577Y-106098353D01*
X165616444Y-105199631D01*
X165876705Y-105020712D01*
X166902593Y-104321460D01*
X166259787Y-103419873D01*
X165267502Y-101947017D01*
X164327736Y-100393181D01*
X163474825Y-98817840D01*
X162836055Y-97489172D01*
X162348819Y-96407608D01*
X163050622Y-95381676D01*
X163707263Y-94471614D01*
X172076680Y-94471614D01*
X172110313Y-94631897D01*
X172200710Y-94910869D01*
X172332116Y-95267761D01*
X172488773Y-95661804D01*
X172654927Y-96052232D01*
X172814822Y-96398276D01*
X172844284Y-96457814D01*
X173327121Y-97317934D01*
X173889439Y-98117443D01*
X174565844Y-98902960D01*
X174957785Y-99305181D01*
X175356922Y-99685081D01*
X175785640Y-100067214D01*
X176196382Y-100410681D01*
X176541587Y-100674584D01*
X176587369Y-100706560D01*
X176939241Y-100937588D01*
X177334594Y-101180406D01*
X177740291Y-101416610D01*
X178123192Y-101627800D01*
X178450161Y-101795572D01*
X178688059Y-101901524D01*
X178789411Y-101929395D01*
X178881242Y-101857237D01*
X178989984Y-101673661D01*
X179023812Y-101595981D01*
X179248897Y-100803571D01*
X179317773Y-99964073D01*
X179233120Y-99104154D01*
X178997619Y-98250476D01*
X178613951Y-97429705D01*
X178603036Y-97410789D01*
X178329685Y-97022723D01*
X177949841Y-96593891D01*
X177510076Y-96168712D01*
X177056962Y-95791603D01*
X176637072Y-95506981D01*
X176565050Y-95467107D01*
X175558883Y-95026005D01*
X174420417Y-94697546D01*
X173152046Y-94482375D01*
X172755473Y-94440821D01*
X172363807Y-94416105D01*
X172139252Y-94428946D01*
X172076680Y-94471614D01*
X163707263Y-94471614D01*
X164225130Y-93753884D01*
X165405554Y-92295390D01*
X166171225Y-91443504D01*
X167096982Y-90458159D01*
X183162319Y-90458159D01*
X183604301Y-90917986D01*
G36*
X141650010Y-90458673D02*
X142656488Y-90460163D01*
X143597046Y-90462546D01*
X144458185Y-90465741D01*
X145226410Y-90469667D01*
X145888222Y-90474242D01*
X146430126Y-90479385D01*
X146838625Y-90485015D01*
X147100220Y-90491050D01*
X147201416Y-90497408D01*
X147202197Y-90498023D01*
X147169120Y-90589933D01*
X147079899Y-90806087D01*
X146949553Y-91110659D01*
X146844213Y-91351989D01*
X146127471Y-92827018D01*
X145256797Y-94347520D01*
X144242480Y-95898003D01*
X143094809Y-97462973D01*
X141824073Y-99026941D01*
X141488380Y-99415944D01*
X140888072Y-100082302D01*
X140168937Y-100844611D01*
X139347277Y-101687352D01*
X138439391Y-102595002D01*
X137461578Y-103552041D01*
X136430139Y-104542946D01*
X135361374Y-105552198D01*
X134271583Y-106564273D01*
X133177066Y-107563652D01*
X132094122Y-108534813D01*
X131039051Y-109462234D01*
X130028155Y-110330394D01*
X130012250Y-110343869D01*
X129611622Y-110690713D01*
X129288442Y-110985574D01*
X129058477Y-111213059D01*
X128937489Y-111357777D01*
X128927749Y-111402742D01*
X129089311Y-111460592D01*
X129390759Y-111540522D01*
X129799251Y-111635450D01*
X130281945Y-111738298D01*
X130805999Y-111841986D01*
X131338571Y-111939433D01*
X131699438Y-112000236D01*
X132735864Y-112146665D01*
X133905562Y-112274649D01*
X135167259Y-112380519D01*
X136479679Y-112460605D01*
X137253442Y-112493999D01*
X138909860Y-112554292D01*
X138849693Y-110812260D01*
X138815619Y-110057334D01*
X138764603Y-109236454D01*
X138699735Y-108381099D01*
X138624108Y-107522745D01*
X138540813Y-106692869D01*
X138452940Y-105922950D01*
X138363580Y-105244464D01*
X138275826Y-104688889D01*
X138220602Y-104406262D01*
X138177480Y-104209193D01*
X153508404Y-104209193D01*
X153508093Y-104406262D01*
X153501338Y-104625940D01*
X153482479Y-104998157D01*
X153452980Y-105500806D01*
X153414308Y-106111780D01*
X153367927Y-106808971D01*
X153315303Y-107570272D01*
X153257901Y-108373578D01*
X153197187Y-109196779D01*
X153145213Y-109880799D01*
X153097740Y-110520905D01*
X153058124Y-111103085D01*
X153027614Y-111604784D01*
X153007458Y-112003448D01*
X152998908Y-112276520D01*
X153003210Y-112401447D01*
X153005341Y-112406360D01*
X153115548Y-112412525D01*
X153360086Y-112371757D01*
X153707060Y-112292387D01*
X154124576Y-112182748D01*
X154580740Y-112051173D01*
X155043655Y-111905993D01*
X155441700Y-111769867D01*
X155884466Y-111598936D01*
X156405305Y-111379409D01*
X156927350Y-111144412D01*
X157234776Y-110997150D01*
X157602981Y-110817437D01*
X157908717Y-110672683D01*
X158121104Y-110577190D01*
X158209263Y-110545260D01*
X158209836Y-110545568D01*
X158181599Y-110627389D01*
X158092721Y-110847626D01*
X157952685Y-111184169D01*
X157770973Y-111614909D01*
X157557067Y-112117736D01*
X157320448Y-112670542D01*
X157070600Y-113251218D01*
X156817004Y-113837653D01*
X156569142Y-114407738D01*
X156336497Y-114939365D01*
X156128550Y-115410424D01*
X155997844Y-115703234D01*
X155654266Y-116467965D01*
X154113568Y-116469614D01*
X152572871Y-116471262D01*
X152334363Y-118507642D01*
X152264052Y-119102708D01*
X152197738Y-119654195D01*
X152138971Y-120133327D01*
X152091304Y-120511331D01*
X152058287Y-120759432D01*
X152047899Y-120828676D01*
X151999943Y-121113331D01*
X144996892Y-121113331D01*
X143724208Y-121113175D01*
X142615524Y-121112544D01*
X141659670Y-121111191D01*
X140845474Y-121108871D01*
X140161764Y-121105336D01*
X139597368Y-121100341D01*
X139141117Y-121093641D01*
X138781836Y-121084988D01*
X138508357Y-121074136D01*
X138309506Y-121060840D01*
X138174113Y-121044854D01*
X138091005Y-121025930D01*
X138049012Y-121003824D01*
X138036962Y-120978289D01*
X138039798Y-120960055D01*
X138072070Y-120802467D01*
X138120694Y-120502174D01*
X138181578Y-120090446D01*
X138250627Y-119598553D01*
X138323748Y-119057767D01*
X138396848Y-118499357D01*
X138465832Y-117954593D01*
X138526608Y-117454746D01*
X138575082Y-117031086D01*
X138607160Y-116714883D01*
X138618749Y-116537489D01*
X138533364Y-116527102D01*
X138286017Y-116517216D01*
X137889916Y-116507957D01*
X137358271Y-116499451D01*
X136704290Y-116491826D01*
X135941183Y-116485209D01*
X135082159Y-116479725D01*
X134140428Y-116475502D01*
X133129198Y-116472666D01*
X132061679Y-116471345D01*
X131716518Y-116471262D01*
X124814287Y-116471262D01*
X124704176Y-115792469D01*
X124654294Y-115504703D01*
X124576629Y-115081146D01*
X124477980Y-114557732D01*
X124365148Y-113970394D01*
X124244933Y-113355065D01*
X124197827Y-113116824D01*
X123801588Y-111119973D01*
X124462232Y-110428484D01*
X125152023Y-109663323D01*
X125881780Y-108775612D01*
X126622700Y-107803912D01*
X127345985Y-106786785D01*
X128022832Y-105762791D01*
X128387758Y-105172642D01*
X129307561Y-103555843D01*
X130181595Y-101848236D01*
X130997808Y-100080316D01*
X131744146Y-98282578D01*
X132408554Y-96485518D01*
X132978981Y-94719632D01*
X133443371Y-93015415D01*
X133753638Y-91596779D01*
X133823780Y-91231415D01*
X133885954Y-90912543D01*
X133929549Y-90694425D01*
X133937745Y-90655228D01*
X133980017Y-90458159D01*
X140591107Y-90458159D01*
X141650010Y-90458673D01*
X141650010Y-90458673D01*
G37*
X141650010Y-90458673D02*
X142656488Y-90460163D01*
X143597046Y-90462546D01*
X144458185Y-90465741D01*
X145226410Y-90469667D01*
X145888222Y-90474242D01*
X146430126Y-90479385D01*
X146838625Y-90485015D01*
X147100220Y-90491050D01*
X147201416Y-90497408D01*
X147202197Y-90498023D01*
X147169120Y-90589933D01*
X147079899Y-90806087D01*
X146949553Y-91110659D01*
X146844213Y-91351989D01*
X146127471Y-92827018D01*
X145256797Y-94347520D01*
X144242480Y-95898003D01*
X143094809Y-97462973D01*
X141824073Y-99026941D01*
X141488380Y-99415944D01*
X140888072Y-100082302D01*
X140168937Y-100844611D01*
X139347277Y-101687352D01*
X138439391Y-102595002D01*
X137461578Y-103552041D01*
X136430139Y-104542946D01*
X135361374Y-105552198D01*
X134271583Y-106564273D01*
X133177066Y-107563652D01*
X132094122Y-108534813D01*
X131039051Y-109462234D01*
X130028155Y-110330394D01*
X130012250Y-110343869D01*
X129611622Y-110690713D01*
X129288442Y-110985574D01*
X129058477Y-111213059D01*
X128937489Y-111357777D01*
X128927749Y-111402742D01*
X129089311Y-111460592D01*
X129390759Y-111540522D01*
X129799251Y-111635450D01*
X130281945Y-111738298D01*
X130805999Y-111841986D01*
X131338571Y-111939433D01*
X131699438Y-112000236D01*
X132735864Y-112146665D01*
X133905562Y-112274649D01*
X135167259Y-112380519D01*
X136479679Y-112460605D01*
X137253442Y-112493999D01*
X138909860Y-112554292D01*
X138849693Y-110812260D01*
X138815619Y-110057334D01*
X138764603Y-109236454D01*
X138699735Y-108381099D01*
X138624108Y-107522745D01*
X138540813Y-106692869D01*
X138452940Y-105922950D01*
X138363580Y-105244464D01*
X138275826Y-104688889D01*
X138220602Y-104406262D01*
X138177480Y-104209193D01*
X153508404Y-104209193D01*
X153508093Y-104406262D01*
X153501338Y-104625940D01*
X153482479Y-104998157D01*
X153452980Y-105500806D01*
X153414308Y-106111780D01*
X153367927Y-106808971D01*
X153315303Y-107570272D01*
X153257901Y-108373578D01*
X153197187Y-109196779D01*
X153145213Y-109880799D01*
X153097740Y-110520905D01*
X153058124Y-111103085D01*
X153027614Y-111604784D01*
X153007458Y-112003448D01*
X152998908Y-112276520D01*
X153003210Y-112401447D01*
X153005341Y-112406360D01*
X153115548Y-112412525D01*
X153360086Y-112371757D01*
X153707060Y-112292387D01*
X154124576Y-112182748D01*
X154580740Y-112051173D01*
X155043655Y-111905993D01*
X155441700Y-111769867D01*
X155884466Y-111598936D01*
X156405305Y-111379409D01*
X156927350Y-111144412D01*
X157234776Y-110997150D01*
X157602981Y-110817437D01*
X157908717Y-110672683D01*
X158121104Y-110577190D01*
X158209263Y-110545260D01*
X158209836Y-110545568D01*
X158181599Y-110627389D01*
X158092721Y-110847626D01*
X157952685Y-111184169D01*
X157770973Y-111614909D01*
X157557067Y-112117736D01*
X157320448Y-112670542D01*
X157070600Y-113251218D01*
X156817004Y-113837653D01*
X156569142Y-114407738D01*
X156336497Y-114939365D01*
X156128550Y-115410424D01*
X155997844Y-115703234D01*
X155654266Y-116467965D01*
X154113568Y-116469614D01*
X152572871Y-116471262D01*
X152334363Y-118507642D01*
X152264052Y-119102708D01*
X152197738Y-119654195D01*
X152138971Y-120133327D01*
X152091304Y-120511331D01*
X152058287Y-120759432D01*
X152047899Y-120828676D01*
X151999943Y-121113331D01*
X144996892Y-121113331D01*
X143724208Y-121113175D01*
X142615524Y-121112544D01*
X141659670Y-121111191D01*
X140845474Y-121108871D01*
X140161764Y-121105336D01*
X139597368Y-121100341D01*
X139141117Y-121093641D01*
X138781836Y-121084988D01*
X138508357Y-121074136D01*
X138309506Y-121060840D01*
X138174113Y-121044854D01*
X138091005Y-121025930D01*
X138049012Y-121003824D01*
X138036962Y-120978289D01*
X138039798Y-120960055D01*
X138072070Y-120802467D01*
X138120694Y-120502174D01*
X138181578Y-120090446D01*
X138250627Y-119598553D01*
X138323748Y-119057767D01*
X138396848Y-118499357D01*
X138465832Y-117954593D01*
X138526608Y-117454746D01*
X138575082Y-117031086D01*
X138607160Y-116714883D01*
X138618749Y-116537489D01*
X138533364Y-116527102D01*
X138286017Y-116517216D01*
X137889916Y-116507957D01*
X137358271Y-116499451D01*
X136704290Y-116491826D01*
X135941183Y-116485209D01*
X135082159Y-116479725D01*
X134140428Y-116475502D01*
X133129198Y-116472666D01*
X132061679Y-116471345D01*
X131716518Y-116471262D01*
X124814287Y-116471262D01*
X124704176Y-115792469D01*
X124654294Y-115504703D01*
X124576629Y-115081146D01*
X124477980Y-114557732D01*
X124365148Y-113970394D01*
X124244933Y-113355065D01*
X124197827Y-113116824D01*
X123801588Y-111119973D01*
X124462232Y-110428484D01*
X125152023Y-109663323D01*
X125881780Y-108775612D01*
X126622700Y-107803912D01*
X127345985Y-106786785D01*
X128022832Y-105762791D01*
X128387758Y-105172642D01*
X129307561Y-103555843D01*
X130181595Y-101848236D01*
X130997808Y-100080316D01*
X131744146Y-98282578D01*
X132408554Y-96485518D01*
X132978981Y-94719632D01*
X133443371Y-93015415D01*
X133753638Y-91596779D01*
X133823780Y-91231415D01*
X133885954Y-90912543D01*
X133929549Y-90694425D01*
X133937745Y-90655228D01*
X133980017Y-90458159D01*
X140591107Y-90458159D01*
X141650010Y-90458673D01*
G04 #@! TD*
M02*
