G04 #@! TF.GenerationSoftware,KiCad,Pcbnew,(6.0.0-rc1-dev-1291-g61b749f0b)*
G04 #@! TF.CreationDate,2018-12-05T20:39:08+02:00
G04 #@! TF.ProjectId,TS48_right,54533438-5f72-4696-9768-742e6b696361,rev?*
G04 #@! TF.SameCoordinates,Original*
G04 #@! TF.FileFunction,Soldermask,Top*
G04 #@! TF.FilePolarity,Negative*
%FSLAX46Y46*%
G04 Gerber Fmt 4.6, Leading zero omitted, Abs format (unit mm)*
G04 Created by KiCad (PCBNEW (6.0.0-rc1-dev-1291-g61b749f0b)) date 12/5/2018 8:39:08 PM*
%MOMM*%
%LPD*%
G01*
G04 APERTURE LIST*
%ADD10C,0.100000*%
G04 APERTURE END LIST*
D10*
X183769000Y-67945000D02*
X92075000Y-67945000D01*
X195072000Y-67945000D02*
X214122000Y-67945000D01*
X184150000Y-67437000D02*
X183769000Y-67945000D01*
X194691000Y-67437000D02*
X195072000Y-67945000D01*
X215138000Y-143256000D02*
X215138000Y-68961000D01*
X96901000Y-144272000D02*
X214122000Y-144272000D01*
X95885000Y-126238000D02*
X95885000Y-143256000D01*
X99568000Y-125222000D02*
X96901000Y-125222000D01*
X100584000Y-107188000D02*
X100584000Y-124206000D01*
X96901000Y-106172000D02*
X99568000Y-106172000D01*
X95885000Y-88265000D02*
X95885000Y-105156000D01*
X92075000Y-87249000D02*
X94869000Y-87249000D01*
X91059000Y-68961000D02*
X91059000Y-86233000D01*
X193675000Y-66421000D02*
X185166000Y-66421000D01*
X193673731Y-66419731D02*
G75*
G02X194691000Y-67437000I0J-1017269D01*
G01*
X184148731Y-67438269D02*
G75*
G02X185166000Y-66421000I1017269J0D01*
G01*
X91059000Y-68961000D02*
G75*
G02X92076269Y-67943731I1017269J0D01*
G01*
X92075000Y-87249000D02*
G75*
G02X91057731Y-86231731I0J1017269D01*
G01*
X94869000Y-87249000D02*
G75*
G02X95886269Y-88266269I0J-1017269D01*
G01*
X96901000Y-106172000D02*
G75*
G02X95883731Y-105154731I0J1017269D01*
G01*
X99568000Y-106172000D02*
G75*
G02X100585269Y-107189269I0J-1017269D01*
G01*
X100584000Y-124206000D02*
G75*
G02X99566731Y-125223269I-1017269J0D01*
G01*
X95883731Y-126239269D02*
G75*
G02X96901000Y-125222000I1017269J0D01*
G01*
X96901000Y-144272000D02*
G75*
G02X95883731Y-143254731I0J1017269D01*
G01*
X215138000Y-143256000D02*
G75*
G02X214120731Y-144273269I-1017269J0D01*
G01*
X214122000Y-67945000D02*
G75*
G02X215139269Y-68962269I0J-1017269D01*
G01*
G36*
X129831032Y-140087192D02*
X130144779Y-140217150D01*
X130427149Y-140405824D01*
X130667276Y-140645951D01*
X130855950Y-140928321D01*
X130985908Y-141242068D01*
X131052160Y-141575139D01*
X131052160Y-141914741D01*
X130985908Y-142247812D01*
X130855950Y-142561559D01*
X130667276Y-142843929D01*
X130427149Y-143084056D01*
X130144779Y-143272730D01*
X129831032Y-143402688D01*
X129497961Y-143468940D01*
X129158359Y-143468940D01*
X128825288Y-143402688D01*
X128511541Y-143272730D01*
X128229171Y-143084056D01*
X127989044Y-142843929D01*
X127800370Y-142561559D01*
X127670412Y-142247812D01*
X127604160Y-141914741D01*
X127604160Y-141575139D01*
X127670412Y-141242068D01*
X127800370Y-140928321D01*
X127989044Y-140645951D01*
X128229171Y-140405824D01*
X128511541Y-140217150D01*
X128825288Y-140087192D01*
X129158359Y-140020940D01*
X129497961Y-140020940D01*
X129831032Y-140087192D01*
X129831032Y-140087192D01*
G37*
G36*
X105955032Y-140087192D02*
X106268779Y-140217150D01*
X106551149Y-140405824D01*
X106791276Y-140645951D01*
X106979950Y-140928321D01*
X107109908Y-141242068D01*
X107176160Y-141575139D01*
X107176160Y-141914741D01*
X107109908Y-142247812D01*
X106979950Y-142561559D01*
X106791276Y-142843929D01*
X106551149Y-143084056D01*
X106268779Y-143272730D01*
X105955032Y-143402688D01*
X105621961Y-143468940D01*
X105282359Y-143468940D01*
X104949288Y-143402688D01*
X104635541Y-143272730D01*
X104353171Y-143084056D01*
X104113044Y-142843929D01*
X103924370Y-142561559D01*
X103794412Y-142247812D01*
X103728160Y-141914741D01*
X103728160Y-141575139D01*
X103794412Y-141242068D01*
X103924370Y-140928321D01*
X104113044Y-140645951D01*
X104353171Y-140405824D01*
X104635541Y-140217150D01*
X104949288Y-140087192D01*
X105282359Y-140020940D01*
X105621961Y-140020940D01*
X105955032Y-140087192D01*
X105955032Y-140087192D01*
G37*
G36*
X156131114Y-132651270D02*
X156131116Y-132651271D01*
X156131117Y-132651271D01*
X156530381Y-132816651D01*
X156889710Y-133056747D01*
X157195293Y-133362330D01*
X157435389Y-133721659D01*
X157600769Y-134120923D01*
X157685080Y-134544780D01*
X157685080Y-134976940D01*
X157600769Y-135400797D01*
X157435389Y-135800061D01*
X157195293Y-136159390D01*
X156889710Y-136464973D01*
X156530381Y-136705069D01*
X156131117Y-136870449D01*
X156131116Y-136870449D01*
X156131114Y-136870450D01*
X155707262Y-136954760D01*
X155275098Y-136954760D01*
X154851246Y-136870450D01*
X154851244Y-136870449D01*
X154851243Y-136870449D01*
X154451979Y-136705069D01*
X154092650Y-136464973D01*
X153787067Y-136159390D01*
X153607409Y-135890513D01*
X153591864Y-135871572D01*
X153572922Y-135856026D01*
X153551311Y-135844475D01*
X153527862Y-135837362D01*
X153503476Y-135834960D01*
X153321082Y-135834960D01*
X153113394Y-135793648D01*
X152917757Y-135712613D01*
X152741685Y-135594965D01*
X152591955Y-135445235D01*
X152474307Y-135269163D01*
X152393272Y-135073526D01*
X152351960Y-134865838D01*
X152351960Y-134654082D01*
X152393272Y-134446394D01*
X152474307Y-134250757D01*
X152591955Y-134074685D01*
X152741685Y-133924955D01*
X152917757Y-133807307D01*
X153113394Y-133726272D01*
X153321082Y-133684960D01*
X153504679Y-133684960D01*
X153529065Y-133682558D01*
X153552514Y-133675445D01*
X153574125Y-133663894D01*
X153593067Y-133648348D01*
X153608610Y-133629409D01*
X153787067Y-133362330D01*
X154092650Y-133056747D01*
X154451979Y-132816651D01*
X154851243Y-132651271D01*
X154851244Y-132651271D01*
X154851246Y-132651270D01*
X155275098Y-132566960D01*
X155707262Y-132566960D01*
X156131114Y-132651270D01*
X156131114Y-132651270D01*
G37*
G36*
X110887114Y-132651270D02*
X110887116Y-132651271D01*
X110887117Y-132651271D01*
X111286381Y-132816651D01*
X111645710Y-133056747D01*
X111951293Y-133362330D01*
X112129734Y-133629386D01*
X112145280Y-133648328D01*
X112164222Y-133663874D01*
X112185833Y-133675425D01*
X112209282Y-133682538D01*
X112233668Y-133684940D01*
X112416038Y-133684940D01*
X112623726Y-133726252D01*
X112819363Y-133807287D01*
X112995435Y-133924935D01*
X113145165Y-134074665D01*
X113262813Y-134250737D01*
X113343848Y-134446374D01*
X113385160Y-134654062D01*
X113385160Y-134865818D01*
X113343848Y-135073506D01*
X113262813Y-135269143D01*
X113145165Y-135445215D01*
X112995435Y-135594945D01*
X112819363Y-135712593D01*
X112630051Y-135791008D01*
X112623726Y-135793628D01*
X112416038Y-135834940D01*
X112234897Y-135834940D01*
X112210511Y-135837342D01*
X112187062Y-135844455D01*
X112165451Y-135856006D01*
X112146509Y-135871552D01*
X112130966Y-135890490D01*
X111951293Y-136159390D01*
X111645710Y-136464973D01*
X111286381Y-136705069D01*
X110887117Y-136870449D01*
X110887116Y-136870449D01*
X110887114Y-136870450D01*
X110463262Y-136954760D01*
X110031098Y-136954760D01*
X109607246Y-136870450D01*
X109607244Y-136870449D01*
X109607243Y-136870449D01*
X109207979Y-136705069D01*
X108848650Y-136464973D01*
X108543067Y-136159390D01*
X108302971Y-135800061D01*
X108137591Y-135400797D01*
X108053280Y-134976940D01*
X108053280Y-134544780D01*
X108137591Y-134120923D01*
X108302971Y-133721659D01*
X108543067Y-133362330D01*
X108848650Y-133056747D01*
X109207979Y-132816651D01*
X109607243Y-132651271D01*
X109607244Y-132651271D01*
X109607246Y-132651270D01*
X110031098Y-132566960D01*
X110463262Y-132566960D01*
X110887114Y-132651270D01*
X110887114Y-132651270D01*
G37*
G36*
X179944114Y-132651270D02*
X179944116Y-132651271D01*
X179944117Y-132651271D01*
X180343381Y-132816651D01*
X180702710Y-133056747D01*
X181008293Y-133362330D01*
X181186750Y-133629409D01*
X181202293Y-133648348D01*
X181221235Y-133663894D01*
X181242846Y-133675445D01*
X181266295Y-133682558D01*
X181290681Y-133684960D01*
X181472838Y-133684960D01*
X181680526Y-133726272D01*
X181876163Y-133807307D01*
X182052235Y-133924955D01*
X182201965Y-134074685D01*
X182319613Y-134250757D01*
X182400648Y-134446394D01*
X182441960Y-134654082D01*
X182441960Y-134865838D01*
X182400648Y-135073526D01*
X182319613Y-135269163D01*
X182201965Y-135445235D01*
X182052235Y-135594965D01*
X181876163Y-135712613D01*
X181681101Y-135793410D01*
X181680526Y-135793648D01*
X181472838Y-135834960D01*
X181291884Y-135834960D01*
X181267498Y-135837362D01*
X181244049Y-135844475D01*
X181222438Y-135856026D01*
X181203496Y-135871572D01*
X181187951Y-135890513D01*
X181008293Y-136159390D01*
X180702710Y-136464973D01*
X180343381Y-136705069D01*
X179944117Y-136870449D01*
X179944116Y-136870449D01*
X179944114Y-136870450D01*
X179520262Y-136954760D01*
X179088098Y-136954760D01*
X178664246Y-136870450D01*
X178664244Y-136870449D01*
X178664243Y-136870449D01*
X178264979Y-136705069D01*
X177905650Y-136464973D01*
X177600067Y-136159390D01*
X177359971Y-135800061D01*
X177194591Y-135400797D01*
X177110280Y-134976940D01*
X177110280Y-134544780D01*
X177194591Y-134120923D01*
X177359971Y-133721659D01*
X177600067Y-133362330D01*
X177905650Y-133056747D01*
X178264979Y-132816651D01*
X178664243Y-132651271D01*
X178664244Y-132651271D01*
X178664246Y-132651270D01*
X179088098Y-132566960D01*
X179520262Y-132566960D01*
X179944114Y-132651270D01*
X179944114Y-132651270D01*
G37*
G36*
X206136894Y-132650370D02*
X206136896Y-132650371D01*
X206136897Y-132650371D01*
X206536161Y-132815751D01*
X206895490Y-133055847D01*
X207201073Y-133361430D01*
X207441169Y-133720759D01*
X207464325Y-133776663D01*
X207464536Y-133777173D01*
X207476088Y-133798784D01*
X207491633Y-133817726D01*
X207510575Y-133833271D01*
X207532186Y-133844822D01*
X207555635Y-133851935D01*
X207580021Y-133854337D01*
X207604408Y-133851935D01*
X207627857Y-133844822D01*
X207649467Y-133833271D01*
X207686978Y-133808207D01*
X207882614Y-133727172D01*
X208090302Y-133685860D01*
X208302058Y-133685860D01*
X208509746Y-133727172D01*
X208705383Y-133808207D01*
X208881455Y-133925855D01*
X209031185Y-134075585D01*
X209148833Y-134251657D01*
X209229868Y-134447295D01*
X209263882Y-134618294D01*
X209270995Y-134641744D01*
X209282546Y-134663354D01*
X209298092Y-134682296D01*
X209317034Y-134697842D01*
X209338645Y-134709393D01*
X209362094Y-134716506D01*
X209386480Y-134718908D01*
X209410866Y-134716506D01*
X209434316Y-134709393D01*
X209455926Y-134697842D01*
X209474868Y-134682296D01*
X209490414Y-134663354D01*
X209501965Y-134641743D01*
X209509078Y-134618295D01*
X209543272Y-134446394D01*
X209624307Y-134250757D01*
X209741955Y-134074685D01*
X209891685Y-133924955D01*
X210067757Y-133807307D01*
X210263394Y-133726272D01*
X210471082Y-133684960D01*
X210682838Y-133684960D01*
X210890526Y-133726272D01*
X211086163Y-133807307D01*
X211262235Y-133924955D01*
X211411965Y-134074685D01*
X211529613Y-134250757D01*
X211610648Y-134446394D01*
X211651960Y-134654082D01*
X211651960Y-134865838D01*
X211610648Y-135073526D01*
X211529613Y-135269163D01*
X211411965Y-135445235D01*
X211262235Y-135594965D01*
X211086163Y-135712613D01*
X210891101Y-135793410D01*
X210890526Y-135793648D01*
X210682838Y-135834960D01*
X210471082Y-135834960D01*
X210263394Y-135793648D01*
X210262819Y-135793410D01*
X210067757Y-135712613D01*
X209891685Y-135594965D01*
X209741955Y-135445235D01*
X209624307Y-135269163D01*
X209543272Y-135073525D01*
X209509258Y-134902526D01*
X209502145Y-134879076D01*
X209490594Y-134857466D01*
X209475048Y-134838524D01*
X209456106Y-134822978D01*
X209434495Y-134811427D01*
X209411046Y-134804314D01*
X209386660Y-134801912D01*
X209362274Y-134804314D01*
X209338824Y-134811427D01*
X209317214Y-134822978D01*
X209298272Y-134838524D01*
X209282726Y-134857466D01*
X209271175Y-134879077D01*
X209264062Y-134902525D01*
X209229868Y-135074426D01*
X209148833Y-135270063D01*
X209031185Y-135446135D01*
X208881455Y-135595865D01*
X208705383Y-135713513D01*
X208518292Y-135791008D01*
X208509746Y-135794548D01*
X208302058Y-135835860D01*
X208090302Y-135835860D01*
X207882614Y-135794548D01*
X207874068Y-135791008D01*
X207686977Y-135713513D01*
X207648883Y-135688059D01*
X207627272Y-135676508D01*
X207603823Y-135669395D01*
X207579437Y-135666993D01*
X207555051Y-135669395D01*
X207531601Y-135676508D01*
X207509991Y-135688059D01*
X207491049Y-135703605D01*
X207475503Y-135722547D01*
X207463953Y-135744154D01*
X207441169Y-135799161D01*
X207201073Y-136158490D01*
X206895490Y-136464073D01*
X206536161Y-136704169D01*
X206136897Y-136869549D01*
X206136896Y-136869549D01*
X206136894Y-136869550D01*
X205713042Y-136953860D01*
X205280878Y-136953860D01*
X204857026Y-136869550D01*
X204857024Y-136869549D01*
X204857023Y-136869549D01*
X204457759Y-136704169D01*
X204376689Y-136650000D01*
X204355078Y-136638449D01*
X204331629Y-136631336D01*
X204307242Y-136628934D01*
X204282856Y-136631336D01*
X204259407Y-136638449D01*
X204237800Y-136649998D01*
X204155381Y-136705069D01*
X203756117Y-136870449D01*
X203756116Y-136870449D01*
X203756114Y-136870450D01*
X203332262Y-136954760D01*
X202900098Y-136954760D01*
X202476246Y-136870450D01*
X202476244Y-136870449D01*
X202476243Y-136870449D01*
X202076979Y-136705069D01*
X201717650Y-136464973D01*
X201412067Y-136159390D01*
X201171971Y-135800061D01*
X201148602Y-135743644D01*
X201137052Y-135722036D01*
X201121507Y-135703094D01*
X201102565Y-135687549D01*
X201080954Y-135675998D01*
X201057505Y-135668885D01*
X201033119Y-135666483D01*
X201008732Y-135668885D01*
X200985283Y-135675998D01*
X200963673Y-135687549D01*
X200926162Y-135712613D01*
X200731101Y-135793410D01*
X200730526Y-135793648D01*
X200522838Y-135834960D01*
X200311082Y-135834960D01*
X200103394Y-135793648D01*
X200102819Y-135793410D01*
X199907757Y-135712613D01*
X199731685Y-135594965D01*
X199581955Y-135445235D01*
X199464307Y-135269163D01*
X199383272Y-135073525D01*
X199349258Y-134902526D01*
X199342145Y-134879076D01*
X199330594Y-134857466D01*
X199315048Y-134838524D01*
X199296106Y-134822978D01*
X199274495Y-134811427D01*
X199251046Y-134804314D01*
X199226660Y-134801912D01*
X199202274Y-134804314D01*
X199178824Y-134811427D01*
X199157214Y-134822978D01*
X199138272Y-134838524D01*
X199122726Y-134857466D01*
X199111175Y-134879077D01*
X199104062Y-134902525D01*
X199069868Y-135074426D01*
X198988833Y-135270063D01*
X198871185Y-135446135D01*
X198721455Y-135595865D01*
X198545383Y-135713513D01*
X198358292Y-135791008D01*
X198349746Y-135794548D01*
X198142058Y-135835860D01*
X197930302Y-135835860D01*
X197722614Y-135794548D01*
X197714068Y-135791008D01*
X197526977Y-135713513D01*
X197350905Y-135595865D01*
X197201175Y-135446135D01*
X197083527Y-135270063D01*
X197002492Y-135074426D01*
X196961180Y-134866738D01*
X196961180Y-134654982D01*
X197002492Y-134447294D01*
X197083527Y-134251657D01*
X197201175Y-134075585D01*
X197350905Y-133925855D01*
X197526977Y-133808207D01*
X197722614Y-133727172D01*
X197930302Y-133685860D01*
X198142058Y-133685860D01*
X198349746Y-133727172D01*
X198545383Y-133808207D01*
X198721455Y-133925855D01*
X198871185Y-134075585D01*
X198988833Y-134251657D01*
X199069868Y-134447295D01*
X199103882Y-134618294D01*
X199110995Y-134641744D01*
X199122546Y-134663354D01*
X199138092Y-134682296D01*
X199157034Y-134697842D01*
X199178645Y-134709393D01*
X199202094Y-134716506D01*
X199226480Y-134718908D01*
X199250866Y-134716506D01*
X199274316Y-134709393D01*
X199295926Y-134697842D01*
X199314868Y-134682296D01*
X199330414Y-134663354D01*
X199341965Y-134641743D01*
X199349078Y-134618295D01*
X199383272Y-134446394D01*
X199464307Y-134250757D01*
X199581955Y-134074685D01*
X199731685Y-133924955D01*
X199907757Y-133807307D01*
X200103394Y-133726272D01*
X200311082Y-133684960D01*
X200522838Y-133684960D01*
X200730526Y-133726272D01*
X200926163Y-133807307D01*
X200964257Y-133832761D01*
X200985868Y-133844312D01*
X201009317Y-133851425D01*
X201033703Y-133853827D01*
X201058089Y-133851425D01*
X201081539Y-133844312D01*
X201103149Y-133832761D01*
X201122091Y-133817215D01*
X201137637Y-133798273D01*
X201149188Y-133776663D01*
X201171971Y-133721659D01*
X201412067Y-133362330D01*
X201717650Y-133056747D01*
X202076979Y-132816651D01*
X202476243Y-132651271D01*
X202476244Y-132651271D01*
X202476246Y-132651270D01*
X202900098Y-132566960D01*
X203332262Y-132566960D01*
X203756114Y-132651270D01*
X203756116Y-132651271D01*
X203756117Y-132651271D01*
X204155381Y-132816651D01*
X204155382Y-132816652D01*
X204236451Y-132870820D01*
X204258062Y-132882371D01*
X204281511Y-132889484D01*
X204305898Y-132891886D01*
X204330284Y-132889484D01*
X204353733Y-132882371D01*
X204375340Y-132870822D01*
X204457759Y-132815751D01*
X204857023Y-132650371D01*
X204857024Y-132650371D01*
X204857026Y-132650370D01*
X205280878Y-132566060D01*
X205713042Y-132566060D01*
X206136894Y-132650370D01*
X206136894Y-132650370D01*
G37*
G36*
X134699114Y-132651270D02*
X134699116Y-132651271D01*
X134699117Y-132651271D01*
X135098381Y-132816651D01*
X135457710Y-133056747D01*
X135763293Y-133362330D01*
X136003389Y-133721659D01*
X136168769Y-134120923D01*
X136253080Y-134544780D01*
X136253080Y-134976940D01*
X136168769Y-135400797D01*
X136003389Y-135800061D01*
X135763293Y-136159390D01*
X135457710Y-136464973D01*
X135098381Y-136705069D01*
X134699117Y-136870449D01*
X134699116Y-136870449D01*
X134699114Y-136870450D01*
X134275262Y-136954760D01*
X133843098Y-136954760D01*
X133419246Y-136870450D01*
X133419244Y-136870449D01*
X133419243Y-136870449D01*
X133019979Y-136705069D01*
X132660650Y-136464973D01*
X132355067Y-136159390D01*
X132175250Y-135890275D01*
X132159709Y-135871339D01*
X132140767Y-135855793D01*
X132119157Y-135844242D01*
X132095707Y-135837129D01*
X132071321Y-135834727D01*
X132068956Y-135834960D01*
X131846082Y-135834960D01*
X131638394Y-135793648D01*
X131637819Y-135793410D01*
X131442757Y-135712613D01*
X131266685Y-135594965D01*
X131116955Y-135445235D01*
X130999307Y-135269163D01*
X130918272Y-135073526D01*
X130876960Y-134865838D01*
X130876960Y-134654082D01*
X130918272Y-134446394D01*
X130999307Y-134250757D01*
X131116955Y-134074685D01*
X131266685Y-133924955D01*
X131442757Y-133807307D01*
X131638394Y-133726272D01*
X131846082Y-133684960D01*
X132067873Y-133684960D01*
X132072381Y-133685404D01*
X132096767Y-133683002D01*
X132120216Y-133675890D01*
X132141827Y-133664339D01*
X132160769Y-133648793D01*
X132176316Y-133629850D01*
X132355067Y-133362330D01*
X132660650Y-133056747D01*
X133019979Y-132816651D01*
X133419243Y-132651271D01*
X133419244Y-132651271D01*
X133419246Y-132651270D01*
X133843098Y-132566960D01*
X134275262Y-132566960D01*
X134699114Y-132651270D01*
X134699114Y-132651270D01*
G37*
G36*
X127511894Y-132650370D02*
X127511896Y-132650371D01*
X127511897Y-132650371D01*
X127911161Y-132815751D01*
X128270490Y-133055847D01*
X128576073Y-133361430D01*
X128755890Y-133630545D01*
X128771431Y-133649481D01*
X128790373Y-133665027D01*
X128811983Y-133676578D01*
X128835433Y-133683691D01*
X128859819Y-133686093D01*
X128862184Y-133685860D01*
X129085058Y-133685860D01*
X129292746Y-133727172D01*
X129488383Y-133808207D01*
X129664455Y-133925855D01*
X129814185Y-134075585D01*
X129931833Y-134251657D01*
X130012868Y-134447294D01*
X130054180Y-134654982D01*
X130054180Y-134866738D01*
X130012868Y-135074426D01*
X129931833Y-135270063D01*
X129814185Y-135446135D01*
X129664455Y-135595865D01*
X129488383Y-135713513D01*
X129301292Y-135791008D01*
X129292746Y-135794548D01*
X129085058Y-135835860D01*
X128863267Y-135835860D01*
X128858759Y-135835416D01*
X128834373Y-135837818D01*
X128810924Y-135844930D01*
X128789313Y-135856481D01*
X128770371Y-135872027D01*
X128754825Y-135890969D01*
X128576073Y-136158490D01*
X128270490Y-136464073D01*
X127911161Y-136704169D01*
X127511897Y-136869549D01*
X127511896Y-136869549D01*
X127511894Y-136869550D01*
X127088042Y-136953860D01*
X126655878Y-136953860D01*
X126232026Y-136869550D01*
X126232024Y-136869549D01*
X126232023Y-136869549D01*
X125832759Y-136704169D01*
X125473430Y-136464073D01*
X125167847Y-136158490D01*
X124927751Y-135799161D01*
X124762371Y-135399897D01*
X124678060Y-134976040D01*
X124678060Y-134543880D01*
X124762371Y-134120023D01*
X124927751Y-133720759D01*
X125167847Y-133361430D01*
X125473430Y-133055847D01*
X125832759Y-132815751D01*
X126232023Y-132650371D01*
X126232024Y-132650371D01*
X126232026Y-132650370D01*
X126655878Y-132566060D01*
X127088042Y-132566060D01*
X127511894Y-132650370D01*
X127511894Y-132650370D01*
G37*
G36*
X106084894Y-132650370D02*
X106084896Y-132650371D01*
X106084897Y-132650371D01*
X106484161Y-132815751D01*
X106843490Y-133055847D01*
X107149073Y-133361430D01*
X107389169Y-133720759D01*
X107554549Y-134120023D01*
X107638860Y-134543880D01*
X107638860Y-134976040D01*
X107554549Y-135399897D01*
X107389169Y-135799161D01*
X107149073Y-136158490D01*
X106843490Y-136464073D01*
X106484161Y-136704169D01*
X106084897Y-136869549D01*
X106084896Y-136869549D01*
X106084894Y-136869550D01*
X105661042Y-136953860D01*
X105228878Y-136953860D01*
X104805026Y-136869550D01*
X104805024Y-136869549D01*
X104805023Y-136869549D01*
X104405759Y-136704169D01*
X104046430Y-136464073D01*
X103740847Y-136158490D01*
X103500751Y-135799161D01*
X103335371Y-135399897D01*
X103251060Y-134976040D01*
X103251060Y-134543880D01*
X103335371Y-134120023D01*
X103500751Y-133720759D01*
X103740847Y-133361430D01*
X104046430Y-133055847D01*
X104405759Y-132815751D01*
X104805023Y-132650371D01*
X104805024Y-132650371D01*
X104805026Y-132650370D01*
X105228878Y-132566060D01*
X105661042Y-132566060D01*
X106084894Y-132650370D01*
X106084894Y-132650370D01*
G37*
G36*
X148986894Y-132650370D02*
X148986896Y-132650371D01*
X148986897Y-132650371D01*
X149386161Y-132815751D01*
X149745490Y-133055847D01*
X150051073Y-133361430D01*
X150230730Y-133630306D01*
X150246276Y-133649248D01*
X150265218Y-133664794D01*
X150286829Y-133676345D01*
X150310278Y-133683458D01*
X150334664Y-133685860D01*
X150517058Y-133685860D01*
X150724746Y-133727172D01*
X150920383Y-133808207D01*
X151096455Y-133925855D01*
X151246185Y-134075585D01*
X151363833Y-134251657D01*
X151444868Y-134447294D01*
X151486180Y-134654982D01*
X151486180Y-134866738D01*
X151444868Y-135074426D01*
X151363833Y-135270063D01*
X151246185Y-135446135D01*
X151096455Y-135595865D01*
X150920383Y-135713513D01*
X150733292Y-135791008D01*
X150724746Y-135794548D01*
X150517058Y-135835860D01*
X150333461Y-135835860D01*
X150309075Y-135838262D01*
X150285626Y-135845375D01*
X150264015Y-135856926D01*
X150245073Y-135872472D01*
X150229530Y-135891411D01*
X150051073Y-136158490D01*
X149745490Y-136464073D01*
X149386161Y-136704169D01*
X148986897Y-136869549D01*
X148986896Y-136869549D01*
X148986894Y-136869550D01*
X148563042Y-136953860D01*
X148130878Y-136953860D01*
X147707026Y-136869550D01*
X147707024Y-136869549D01*
X147707023Y-136869549D01*
X147307759Y-136704169D01*
X146948430Y-136464073D01*
X146642847Y-136158490D01*
X146402751Y-135799161D01*
X146237371Y-135399897D01*
X146153060Y-134976040D01*
X146153060Y-134543880D01*
X146237371Y-134120023D01*
X146402751Y-133720759D01*
X146642847Y-133361430D01*
X146948430Y-133055847D01*
X147307759Y-132815751D01*
X147707023Y-132650371D01*
X147707024Y-132650371D01*
X147707026Y-132650370D01*
X148130878Y-132566060D01*
X148563042Y-132566060D01*
X148986894Y-132650370D01*
X148986894Y-132650370D01*
G37*
G36*
X168036894Y-132650370D02*
X168036896Y-132650371D01*
X168036897Y-132650371D01*
X168436161Y-132815751D01*
X168795490Y-133055847D01*
X169101073Y-133361430D01*
X169341169Y-133720759D01*
X169506549Y-134120023D01*
X169590860Y-134543880D01*
X169590860Y-134976040D01*
X169506549Y-135399897D01*
X169341169Y-135799161D01*
X169101073Y-136158490D01*
X168795490Y-136464073D01*
X168436161Y-136704169D01*
X168036897Y-136869549D01*
X168036896Y-136869549D01*
X168036894Y-136869550D01*
X167613042Y-136953860D01*
X167180878Y-136953860D01*
X166757026Y-136869550D01*
X166757024Y-136869549D01*
X166757023Y-136869549D01*
X166357759Y-136704169D01*
X165998430Y-136464073D01*
X165692847Y-136158490D01*
X165452751Y-135799161D01*
X165287371Y-135399897D01*
X165203060Y-134976040D01*
X165203060Y-134543880D01*
X165287371Y-134120023D01*
X165452751Y-133720759D01*
X165692847Y-133361430D01*
X165998430Y-133055847D01*
X166357759Y-132815751D01*
X166757023Y-132650371D01*
X166757024Y-132650371D01*
X166757026Y-132650370D01*
X167180878Y-132566060D01*
X167613042Y-132566060D01*
X168036894Y-132650370D01*
X168036894Y-132650370D01*
G37*
G36*
X187086894Y-132650370D02*
X187086896Y-132650371D01*
X187086897Y-132650371D01*
X187486161Y-132815751D01*
X187845490Y-133055847D01*
X188151073Y-133361430D01*
X188391169Y-133720759D01*
X188556549Y-134120023D01*
X188640860Y-134543880D01*
X188640860Y-134976040D01*
X188556549Y-135399897D01*
X188391169Y-135799161D01*
X188151073Y-136158490D01*
X187845490Y-136464073D01*
X187486161Y-136704169D01*
X187086897Y-136869549D01*
X187086896Y-136869549D01*
X187086894Y-136869550D01*
X186663042Y-136953860D01*
X186230878Y-136953860D01*
X185807026Y-136869550D01*
X185807024Y-136869549D01*
X185807023Y-136869549D01*
X185407759Y-136704169D01*
X185048430Y-136464073D01*
X184742847Y-136158490D01*
X184564390Y-135891411D01*
X184548847Y-135872472D01*
X184529905Y-135856926D01*
X184508294Y-135845375D01*
X184484845Y-135838262D01*
X184460459Y-135835860D01*
X184278302Y-135835860D01*
X184070614Y-135794548D01*
X183874977Y-135713513D01*
X183698905Y-135595865D01*
X183549175Y-135446135D01*
X183431527Y-135270063D01*
X183350492Y-135074426D01*
X183309180Y-134866738D01*
X183309180Y-134654982D01*
X183350492Y-134447294D01*
X183431527Y-134251657D01*
X183549175Y-134075585D01*
X183698905Y-133925855D01*
X183874977Y-133808207D01*
X184070614Y-133727172D01*
X184278302Y-133685860D01*
X184459256Y-133685860D01*
X184483642Y-133683458D01*
X184507091Y-133676345D01*
X184528702Y-133664794D01*
X184547644Y-133649248D01*
X184563190Y-133630306D01*
X184742847Y-133361430D01*
X185048430Y-133055847D01*
X185407759Y-132815751D01*
X185807023Y-132650371D01*
X185807024Y-132650371D01*
X185807026Y-132650370D01*
X186230878Y-132566060D01*
X186663042Y-132566060D01*
X187086894Y-132650370D01*
X187086894Y-132650370D01*
G37*
G36*
X118030094Y-132650350D02*
X118030096Y-132650351D01*
X118030097Y-132650351D01*
X118429361Y-132815731D01*
X118788690Y-133055827D01*
X119094273Y-133361410D01*
X119334369Y-133720739D01*
X119499749Y-134120003D01*
X119584060Y-134543860D01*
X119584060Y-134976020D01*
X119499749Y-135399877D01*
X119334369Y-135799141D01*
X119094273Y-136158470D01*
X118788690Y-136464053D01*
X118429361Y-136704149D01*
X118030097Y-136869529D01*
X118030096Y-136869529D01*
X118030094Y-136869530D01*
X117606242Y-136953840D01*
X117174078Y-136953840D01*
X116750226Y-136869530D01*
X116750224Y-136869529D01*
X116750223Y-136869529D01*
X116350959Y-136704149D01*
X115991630Y-136464053D01*
X115686047Y-136158470D01*
X115507605Y-135891413D01*
X115492060Y-135872472D01*
X115473118Y-135856926D01*
X115451507Y-135845375D01*
X115428058Y-135838262D01*
X115403672Y-135835860D01*
X115221302Y-135835860D01*
X115013614Y-135794548D01*
X114817977Y-135713513D01*
X114641905Y-135595865D01*
X114492175Y-135446135D01*
X114374527Y-135270063D01*
X114293492Y-135074426D01*
X114252180Y-134866738D01*
X114252180Y-134654982D01*
X114293492Y-134447294D01*
X114374527Y-134251657D01*
X114492175Y-134075585D01*
X114641905Y-133925855D01*
X114817977Y-133808207D01*
X115013614Y-133727172D01*
X115221302Y-133685860D01*
X115402443Y-133685860D01*
X115426829Y-133683458D01*
X115450278Y-133676345D01*
X115471889Y-133664794D01*
X115490831Y-133649248D01*
X115506374Y-133630310D01*
X115686047Y-133361410D01*
X115991630Y-133055827D01*
X116350959Y-132815731D01*
X116750223Y-132650351D01*
X116750224Y-132650351D01*
X116750226Y-132650350D01*
X117174078Y-132566040D01*
X117606242Y-132566040D01*
X118030094Y-132650350D01*
X118030094Y-132650350D01*
G37*
G36*
X162630526Y-133726272D02*
X162826163Y-133807307D01*
X163002235Y-133924955D01*
X163151965Y-134074685D01*
X163269613Y-134250757D01*
X163350648Y-134446394D01*
X163391960Y-134654082D01*
X163391960Y-134865838D01*
X163350648Y-135073526D01*
X163269613Y-135269163D01*
X163151965Y-135445235D01*
X163002235Y-135594965D01*
X162826163Y-135712613D01*
X162631101Y-135793410D01*
X162630526Y-135793648D01*
X162422838Y-135834960D01*
X162211082Y-135834960D01*
X162003394Y-135793648D01*
X162002819Y-135793410D01*
X161807757Y-135712613D01*
X161631685Y-135594965D01*
X161532908Y-135496188D01*
X161513966Y-135480642D01*
X161492355Y-135469091D01*
X161468906Y-135461978D01*
X161444520Y-135459576D01*
X161420134Y-135461978D01*
X161396685Y-135469091D01*
X161375074Y-135480642D01*
X161356132Y-135496188D01*
X161256455Y-135595865D01*
X161080383Y-135713513D01*
X160893292Y-135791008D01*
X160884746Y-135794548D01*
X160677058Y-135835860D01*
X160465302Y-135835860D01*
X160257614Y-135794548D01*
X160249068Y-135791008D01*
X160061977Y-135713513D01*
X159885905Y-135595865D01*
X159736175Y-135446135D01*
X159618527Y-135270063D01*
X159537492Y-135074426D01*
X159496180Y-134866738D01*
X159496180Y-134654982D01*
X159537492Y-134447294D01*
X159618527Y-134251657D01*
X159736175Y-134075585D01*
X159885905Y-133925855D01*
X160061977Y-133808207D01*
X160257614Y-133727172D01*
X160465302Y-133685860D01*
X160677058Y-133685860D01*
X160884746Y-133727172D01*
X161080383Y-133808207D01*
X161256455Y-133925855D01*
X161355232Y-134024632D01*
X161374174Y-134040178D01*
X161395785Y-134051729D01*
X161419234Y-134058842D01*
X161443620Y-134061244D01*
X161468006Y-134058842D01*
X161491455Y-134051729D01*
X161513066Y-134040178D01*
X161532008Y-134024632D01*
X161631685Y-133924955D01*
X161807757Y-133807307D01*
X162003394Y-133726272D01*
X162211082Y-133684960D01*
X162422838Y-133684960D01*
X162630526Y-133726272D01*
X162630526Y-133726272D01*
G37*
G36*
X172790526Y-133726272D02*
X172986163Y-133807307D01*
X173162235Y-133924955D01*
X173262632Y-134025352D01*
X173281574Y-134040898D01*
X173303185Y-134052449D01*
X173326634Y-134059562D01*
X173351020Y-134061964D01*
X173375406Y-134059562D01*
X173398855Y-134052449D01*
X173420466Y-134040898D01*
X173439408Y-134025352D01*
X173538905Y-133925855D01*
X173714977Y-133808207D01*
X173910614Y-133727172D01*
X174118302Y-133685860D01*
X174330058Y-133685860D01*
X174537746Y-133727172D01*
X174733383Y-133808207D01*
X174909455Y-133925855D01*
X175059185Y-134075585D01*
X175176833Y-134251657D01*
X175257868Y-134447294D01*
X175299180Y-134654982D01*
X175299180Y-134866738D01*
X175257868Y-135074426D01*
X175176833Y-135270063D01*
X175059185Y-135446135D01*
X174909455Y-135595865D01*
X174733383Y-135713513D01*
X174546292Y-135791008D01*
X174537746Y-135794548D01*
X174330058Y-135835860D01*
X174118302Y-135835860D01*
X173910614Y-135794548D01*
X173902068Y-135791008D01*
X173714977Y-135713513D01*
X173538905Y-135595865D01*
X173438508Y-135495468D01*
X173419566Y-135479922D01*
X173397955Y-135468371D01*
X173374506Y-135461258D01*
X173350120Y-135458856D01*
X173325734Y-135461258D01*
X173302285Y-135468371D01*
X173280674Y-135479922D01*
X173261732Y-135495468D01*
X173162235Y-135594965D01*
X172986163Y-135712613D01*
X172791101Y-135793410D01*
X172790526Y-135793648D01*
X172582838Y-135834960D01*
X172371082Y-135834960D01*
X172163394Y-135793648D01*
X172162819Y-135793410D01*
X171967757Y-135712613D01*
X171791685Y-135594965D01*
X171641955Y-135445235D01*
X171524307Y-135269163D01*
X171443272Y-135073526D01*
X171401960Y-134865838D01*
X171401960Y-134654082D01*
X171443272Y-134446394D01*
X171524307Y-134250757D01*
X171641955Y-134074685D01*
X171791685Y-133924955D01*
X171967757Y-133807307D01*
X172163394Y-133726272D01*
X172371082Y-133684960D01*
X172582838Y-133684960D01*
X172790526Y-133726272D01*
X172790526Y-133726272D01*
G37*
G36*
X139452746Y-133727172D02*
X139648383Y-133808207D01*
X139824455Y-133925855D01*
X139974185Y-134075585D01*
X140091833Y-134251657D01*
X140172868Y-134447294D01*
X140214180Y-134654982D01*
X140214180Y-134866738D01*
X140172868Y-135074426D01*
X140091833Y-135270063D01*
X139974185Y-135446135D01*
X139824455Y-135595865D01*
X139648383Y-135713513D01*
X139461292Y-135791008D01*
X139452746Y-135794548D01*
X139245058Y-135835860D01*
X139033302Y-135835860D01*
X138825614Y-135794548D01*
X138817068Y-135791008D01*
X138629977Y-135713513D01*
X138453905Y-135595865D01*
X138304175Y-135446135D01*
X138186527Y-135270063D01*
X138105492Y-135074426D01*
X138064180Y-134866738D01*
X138064180Y-134654982D01*
X138105492Y-134447294D01*
X138186527Y-134251657D01*
X138304175Y-134075585D01*
X138453905Y-133925855D01*
X138629977Y-133808207D01*
X138825614Y-133727172D01*
X139033302Y-133685860D01*
X139245058Y-133685860D01*
X139452746Y-133727172D01*
X139452746Y-133727172D01*
G37*
G36*
X143580526Y-133726272D02*
X143776163Y-133807307D01*
X143952235Y-133924955D01*
X144101965Y-134074685D01*
X144219613Y-134250757D01*
X144300648Y-134446394D01*
X144341960Y-134654082D01*
X144341960Y-134865838D01*
X144300648Y-135073526D01*
X144219613Y-135269163D01*
X144101965Y-135445235D01*
X143952235Y-135594965D01*
X143776163Y-135712613D01*
X143581101Y-135793410D01*
X143580526Y-135793648D01*
X143372838Y-135834960D01*
X143161082Y-135834960D01*
X142953394Y-135793648D01*
X142952819Y-135793410D01*
X142757757Y-135712613D01*
X142581685Y-135594965D01*
X142431955Y-135445235D01*
X142314307Y-135269163D01*
X142233272Y-135073526D01*
X142191960Y-134865838D01*
X142191960Y-134654082D01*
X142233272Y-134446394D01*
X142314307Y-134250757D01*
X142431955Y-134074685D01*
X142581685Y-133924955D01*
X142757757Y-133807307D01*
X142953394Y-133726272D01*
X143161082Y-133684960D01*
X143372838Y-133684960D01*
X143580526Y-133726272D01*
X143580526Y-133726272D01*
G37*
G36*
X191840526Y-133726272D02*
X192036163Y-133807307D01*
X192212235Y-133924955D01*
X192361965Y-134074685D01*
X192479613Y-134250757D01*
X192560648Y-134446394D01*
X192601960Y-134654082D01*
X192601960Y-134865838D01*
X192560648Y-135073526D01*
X192479613Y-135269163D01*
X192361965Y-135445235D01*
X192212235Y-135594965D01*
X192036163Y-135712613D01*
X191840526Y-135793648D01*
X191632838Y-135834960D01*
X191421082Y-135834960D01*
X191213394Y-135793648D01*
X191017757Y-135712613D01*
X190841685Y-135594965D01*
X190691955Y-135445235D01*
X190574307Y-135269163D01*
X190493272Y-135073526D01*
X190451960Y-134865838D01*
X190451960Y-134654082D01*
X190493272Y-134446394D01*
X190574307Y-134250757D01*
X190691955Y-134074685D01*
X190841685Y-133924955D01*
X191017757Y-133807307D01*
X191213394Y-133726272D01*
X191421082Y-133684960D01*
X191632838Y-133684960D01*
X191840526Y-133726272D01*
X191840526Y-133726272D01*
G37*
G36*
X100678526Y-133726272D02*
X100874163Y-133807307D01*
X101050235Y-133924955D01*
X101199965Y-134074685D01*
X101317613Y-134250757D01*
X101398648Y-134446394D01*
X101439960Y-134654082D01*
X101439960Y-134865838D01*
X101398648Y-135073526D01*
X101317613Y-135269163D01*
X101199965Y-135445235D01*
X101050235Y-135594965D01*
X100874163Y-135712613D01*
X100679101Y-135793410D01*
X100678526Y-135793648D01*
X100470838Y-135834960D01*
X100259082Y-135834960D01*
X100051394Y-135793648D01*
X100050819Y-135793410D01*
X99855757Y-135712613D01*
X99679685Y-135594965D01*
X99529955Y-135445235D01*
X99412307Y-135269163D01*
X99331272Y-135073526D01*
X99289960Y-134865838D01*
X99289960Y-134654082D01*
X99331272Y-134446394D01*
X99412307Y-134250757D01*
X99529955Y-134074685D01*
X99679685Y-133924955D01*
X99855757Y-133807307D01*
X100051394Y-133726272D01*
X100259082Y-133684960D01*
X100470838Y-133684960D01*
X100678526Y-133726272D01*
X100678526Y-133726272D01*
G37*
G36*
X122783726Y-133726252D02*
X122979363Y-133807287D01*
X123155435Y-133924935D01*
X123305165Y-134074665D01*
X123422813Y-134250737D01*
X123503848Y-134446374D01*
X123545160Y-134654062D01*
X123545160Y-134865818D01*
X123503848Y-135073506D01*
X123422813Y-135269143D01*
X123305165Y-135445215D01*
X123155435Y-135594945D01*
X122979363Y-135712593D01*
X122783726Y-135793628D01*
X122576038Y-135834940D01*
X122364280Y-135834940D01*
X122155496Y-135793410D01*
X122131110Y-135791008D01*
X122106724Y-135793410D01*
X121897840Y-135834960D01*
X121686082Y-135834960D01*
X121478394Y-135793648D01*
X121477819Y-135793410D01*
X121282757Y-135712613D01*
X121106685Y-135594965D01*
X120956955Y-135445235D01*
X120839307Y-135269163D01*
X120758272Y-135073526D01*
X120716960Y-134865838D01*
X120716960Y-134654082D01*
X120758272Y-134446394D01*
X120839307Y-134250757D01*
X120956955Y-134074685D01*
X121106685Y-133924955D01*
X121282757Y-133807307D01*
X121478394Y-133726272D01*
X121686082Y-133684960D01*
X121897840Y-133684960D01*
X122106624Y-133726490D01*
X122131010Y-133728892D01*
X122155396Y-133726490D01*
X122364280Y-133684940D01*
X122576038Y-133684940D01*
X122783726Y-133726252D01*
X122783726Y-133726252D01*
G37*
G36*
X106092094Y-124395350D02*
X106092096Y-124395351D01*
X106092097Y-124395351D01*
X106491361Y-124560731D01*
X106850690Y-124800827D01*
X107156273Y-125106410D01*
X107396369Y-125465739D01*
X107561749Y-125865003D01*
X107646060Y-126288860D01*
X107646060Y-126721020D01*
X107561749Y-127144877D01*
X107396369Y-127544141D01*
X107156273Y-127903470D01*
X106850690Y-128209053D01*
X106491361Y-128449149D01*
X106092097Y-128614529D01*
X106092096Y-128614529D01*
X106092094Y-128614530D01*
X105668242Y-128698840D01*
X105236078Y-128698840D01*
X104812226Y-128614530D01*
X104812224Y-128614529D01*
X104812223Y-128614529D01*
X104412959Y-128449149D01*
X104053630Y-128209053D01*
X103748047Y-127903470D01*
X103507951Y-127544141D01*
X103342571Y-127144877D01*
X103258260Y-126721020D01*
X103258260Y-126288860D01*
X103342571Y-125865003D01*
X103507951Y-125465739D01*
X103748047Y-125106410D01*
X104053630Y-124800827D01*
X104412959Y-124560731D01*
X104812223Y-124395351D01*
X104812224Y-124395351D01*
X104812226Y-124395350D01*
X105236078Y-124311040D01*
X105668242Y-124311040D01*
X106092094Y-124395350D01*
X106092094Y-124395350D01*
G37*
G36*
X129968094Y-124395350D02*
X129968096Y-124395351D01*
X129968097Y-124395351D01*
X130367361Y-124560731D01*
X130726690Y-124800827D01*
X131032273Y-125106410D01*
X131272369Y-125465739D01*
X131437749Y-125865003D01*
X131522060Y-126288860D01*
X131522060Y-126721020D01*
X131437749Y-127144877D01*
X131272369Y-127544141D01*
X131032273Y-127903470D01*
X130726690Y-128209053D01*
X130367361Y-128449149D01*
X129968097Y-128614529D01*
X129968096Y-128614529D01*
X129968094Y-128614530D01*
X129544242Y-128698840D01*
X129112078Y-128698840D01*
X128688226Y-128614530D01*
X128688224Y-128614529D01*
X128688223Y-128614529D01*
X128288959Y-128449149D01*
X127929630Y-128209053D01*
X127624047Y-127903470D01*
X127383951Y-127544141D01*
X127218571Y-127144877D01*
X127134260Y-126721020D01*
X127134260Y-126288860D01*
X127218571Y-125865003D01*
X127383951Y-125465739D01*
X127624047Y-125106410D01*
X127929630Y-124800827D01*
X128288959Y-124560731D01*
X128688223Y-124395351D01*
X128688224Y-124395351D01*
X128688226Y-124395350D01*
X129112078Y-124311040D01*
X129544242Y-124311040D01*
X129968094Y-124395350D01*
X129968094Y-124395350D01*
G37*
G36*
X206136894Y-113601370D02*
X206136896Y-113601371D01*
X206136897Y-113601371D01*
X206536161Y-113766751D01*
X206895490Y-114006847D01*
X207201073Y-114312430D01*
X207441169Y-114671759D01*
X207606549Y-115071023D01*
X207690860Y-115494880D01*
X207690860Y-115927040D01*
X207606549Y-116350897D01*
X207441169Y-116750161D01*
X207201073Y-117109490D01*
X206895490Y-117415073D01*
X206536161Y-117655169D01*
X206136897Y-117820549D01*
X206136896Y-117820549D01*
X206136894Y-117820550D01*
X205713042Y-117904860D01*
X205280878Y-117904860D01*
X204857026Y-117820550D01*
X204857024Y-117820549D01*
X204857023Y-117820549D01*
X204457759Y-117655169D01*
X204098430Y-117415073D01*
X203792847Y-117109490D01*
X203552751Y-116750161D01*
X203387371Y-116350897D01*
X203303060Y-115927040D01*
X203303060Y-115494880D01*
X203387371Y-115071023D01*
X203552751Y-114671759D01*
X203792847Y-114312430D01*
X204098430Y-114006847D01*
X204457759Y-113766751D01*
X204857023Y-113601371D01*
X204857024Y-113601371D01*
X204857026Y-113601370D01*
X205280878Y-113517060D01*
X205713042Y-113517060D01*
X206136894Y-113601370D01*
X206136894Y-113601370D01*
G37*
G36*
X110834894Y-113601370D02*
X110834896Y-113601371D01*
X110834897Y-113601371D01*
X111234161Y-113766751D01*
X111593490Y-114006847D01*
X111899073Y-114312430D01*
X112139169Y-114671759D01*
X112304549Y-115071023D01*
X112388860Y-115494880D01*
X112388860Y-115927040D01*
X112304549Y-116350897D01*
X112139169Y-116750161D01*
X111899073Y-117109490D01*
X111593490Y-117415073D01*
X111234161Y-117655169D01*
X110834897Y-117820549D01*
X110834896Y-117820549D01*
X110834894Y-117820550D01*
X110411042Y-117904860D01*
X109978878Y-117904860D01*
X109555026Y-117820550D01*
X109555024Y-117820549D01*
X109555023Y-117820549D01*
X109155759Y-117655169D01*
X108796430Y-117415073D01*
X108490847Y-117109490D01*
X108250751Y-116750161D01*
X108085371Y-116350897D01*
X108001060Y-115927040D01*
X108001060Y-115494880D01*
X108085371Y-115071023D01*
X108250751Y-114671759D01*
X108490847Y-114312430D01*
X108796430Y-114006847D01*
X109155759Y-113766751D01*
X109555023Y-113601371D01*
X109555024Y-113601371D01*
X109555026Y-113601370D01*
X109978878Y-113517060D01*
X110411042Y-113517060D01*
X110834894Y-113601370D01*
X110834894Y-113601370D01*
G37*
G36*
X129886894Y-113601370D02*
X129886896Y-113601371D01*
X129886897Y-113601371D01*
X130286161Y-113766751D01*
X130645490Y-114006847D01*
X130951073Y-114312430D01*
X131191169Y-114671759D01*
X131356549Y-115071023D01*
X131440860Y-115494880D01*
X131440860Y-115927040D01*
X131356549Y-116350897D01*
X131191169Y-116750161D01*
X130951073Y-117109490D01*
X130645490Y-117415073D01*
X130286161Y-117655169D01*
X129886897Y-117820549D01*
X129886896Y-117820549D01*
X129886894Y-117820550D01*
X129463042Y-117904860D01*
X129030878Y-117904860D01*
X128607026Y-117820550D01*
X128607024Y-117820549D01*
X128607023Y-117820549D01*
X128207759Y-117655169D01*
X127848430Y-117415073D01*
X127542847Y-117109490D01*
X127302751Y-116750161D01*
X127137371Y-116350897D01*
X127053060Y-115927040D01*
X127053060Y-115494880D01*
X127137371Y-115071023D01*
X127302751Y-114671759D01*
X127542847Y-114312430D01*
X127848430Y-114006847D01*
X128207759Y-113766751D01*
X128607023Y-113601371D01*
X128607024Y-113601371D01*
X128607026Y-113601370D01*
X129030878Y-113517060D01*
X129463042Y-113517060D01*
X129886894Y-113601370D01*
X129886894Y-113601370D01*
G37*
G36*
X148986894Y-113601370D02*
X148986896Y-113601371D01*
X148986897Y-113601371D01*
X149386161Y-113766751D01*
X149745490Y-114006847D01*
X150051073Y-114312430D01*
X150291169Y-114671759D01*
X150456549Y-115071023D01*
X150540860Y-115494880D01*
X150540860Y-115927040D01*
X150456549Y-116350897D01*
X150291169Y-116750161D01*
X150051073Y-117109490D01*
X149745490Y-117415073D01*
X149386161Y-117655169D01*
X148986897Y-117820549D01*
X148986896Y-117820549D01*
X148986894Y-117820550D01*
X148563042Y-117904860D01*
X148130878Y-117904860D01*
X147707026Y-117820550D01*
X147707024Y-117820549D01*
X147707023Y-117820549D01*
X147307759Y-117655169D01*
X146948430Y-117415073D01*
X146642847Y-117109490D01*
X146402751Y-116750161D01*
X146237371Y-116350897D01*
X146153060Y-115927040D01*
X146153060Y-115494880D01*
X146237371Y-115071023D01*
X146402751Y-114671759D01*
X146642847Y-114312430D01*
X146948430Y-114006847D01*
X147307759Y-113766751D01*
X147707023Y-113601371D01*
X147707024Y-113601371D01*
X147707026Y-113601370D01*
X148130878Y-113517060D01*
X148563042Y-113517060D01*
X148986894Y-113601370D01*
X148986894Y-113601370D01*
G37*
G36*
X168036894Y-113601370D02*
X168036896Y-113601371D01*
X168036897Y-113601371D01*
X168436161Y-113766751D01*
X168795490Y-114006847D01*
X169101073Y-114312430D01*
X169341169Y-114671759D01*
X169506549Y-115071023D01*
X169590860Y-115494880D01*
X169590860Y-115927040D01*
X169506549Y-116350897D01*
X169341169Y-116750161D01*
X169101073Y-117109490D01*
X168795490Y-117415073D01*
X168436161Y-117655169D01*
X168036897Y-117820549D01*
X168036896Y-117820549D01*
X168036894Y-117820550D01*
X167613042Y-117904860D01*
X167180878Y-117904860D01*
X166757026Y-117820550D01*
X166757024Y-117820549D01*
X166757023Y-117820549D01*
X166357759Y-117655169D01*
X165998430Y-117415073D01*
X165692847Y-117109490D01*
X165452751Y-116750161D01*
X165287371Y-116350897D01*
X165203060Y-115927040D01*
X165203060Y-115494880D01*
X165287371Y-115071023D01*
X165452751Y-114671759D01*
X165692847Y-114312430D01*
X165998430Y-114006847D01*
X166357759Y-113766751D01*
X166757023Y-113601371D01*
X166757024Y-113601371D01*
X166757026Y-113601370D01*
X167180878Y-113517060D01*
X167613042Y-113517060D01*
X168036894Y-113601370D01*
X168036894Y-113601370D01*
G37*
G36*
X187086894Y-113601370D02*
X187086896Y-113601371D01*
X187086897Y-113601371D01*
X187486161Y-113766751D01*
X187845490Y-114006847D01*
X188151073Y-114312430D01*
X188391169Y-114671759D01*
X188556549Y-115071023D01*
X188640860Y-115494880D01*
X188640860Y-115927040D01*
X188556549Y-116350897D01*
X188391169Y-116750161D01*
X188151073Y-117109490D01*
X187845490Y-117415073D01*
X187486161Y-117655169D01*
X187086897Y-117820549D01*
X187086896Y-117820549D01*
X187086894Y-117820550D01*
X186663042Y-117904860D01*
X186230878Y-117904860D01*
X185807026Y-117820550D01*
X185807024Y-117820549D01*
X185807023Y-117820549D01*
X185407759Y-117655169D01*
X185048430Y-117415073D01*
X184742847Y-117109490D01*
X184502751Y-116750161D01*
X184337371Y-116350897D01*
X184253060Y-115927040D01*
X184253060Y-115494880D01*
X184337371Y-115071023D01*
X184502751Y-114671759D01*
X184742847Y-114312430D01*
X185048430Y-114006847D01*
X185407759Y-113766751D01*
X185807023Y-113601371D01*
X185807024Y-113601371D01*
X185807026Y-113601370D01*
X186230878Y-113517060D01*
X186663042Y-113517060D01*
X187086894Y-113601370D01*
X187086894Y-113601370D01*
G37*
G36*
X134640526Y-114677272D02*
X134836163Y-114758307D01*
X135012235Y-114875955D01*
X135161965Y-115025685D01*
X135279613Y-115201757D01*
X135360648Y-115397394D01*
X135401960Y-115605082D01*
X135401960Y-115816838D01*
X135360648Y-116024526D01*
X135279613Y-116220163D01*
X135161965Y-116396235D01*
X135012235Y-116545965D01*
X134836163Y-116663613D01*
X134640526Y-116744648D01*
X134432838Y-116785960D01*
X134221082Y-116785960D01*
X134013394Y-116744648D01*
X133817757Y-116663613D01*
X133641685Y-116545965D01*
X133491955Y-116396235D01*
X133374307Y-116220163D01*
X133293272Y-116024526D01*
X133251960Y-115816838D01*
X133251960Y-115605082D01*
X133293272Y-115397394D01*
X133374307Y-115201757D01*
X133491955Y-115025685D01*
X133641685Y-114875955D01*
X133817757Y-114758307D01*
X134013394Y-114677272D01*
X134221082Y-114635960D01*
X134432838Y-114635960D01*
X134640526Y-114677272D01*
X134640526Y-114677272D01*
G37*
G36*
X143580526Y-114677272D02*
X143776163Y-114758307D01*
X143952235Y-114875955D01*
X144101965Y-115025685D01*
X144219613Y-115201757D01*
X144300648Y-115397394D01*
X144341960Y-115605082D01*
X144341960Y-115816838D01*
X144300648Y-116024526D01*
X144219613Y-116220163D01*
X144101965Y-116396235D01*
X143952235Y-116545965D01*
X143776163Y-116663613D01*
X143580526Y-116744648D01*
X143372838Y-116785960D01*
X143161082Y-116785960D01*
X142953394Y-116744648D01*
X142757757Y-116663613D01*
X142581685Y-116545965D01*
X142431955Y-116396235D01*
X142314307Y-116220163D01*
X142233272Y-116024526D01*
X142191960Y-115816838D01*
X142191960Y-115605082D01*
X142233272Y-115397394D01*
X142314307Y-115201757D01*
X142431955Y-115025685D01*
X142581685Y-114875955D01*
X142757757Y-114758307D01*
X142953394Y-114677272D01*
X143161082Y-114635960D01*
X143372838Y-114635960D01*
X143580526Y-114677272D01*
X143580526Y-114677272D01*
G37*
G36*
X153740526Y-114677272D02*
X153936163Y-114758307D01*
X154112235Y-114875955D01*
X154261965Y-115025685D01*
X154379613Y-115201757D01*
X154460648Y-115397394D01*
X154501960Y-115605082D01*
X154501960Y-115816838D01*
X154460648Y-116024526D01*
X154379613Y-116220163D01*
X154261965Y-116396235D01*
X154112235Y-116545965D01*
X153936163Y-116663613D01*
X153740526Y-116744648D01*
X153532838Y-116785960D01*
X153321082Y-116785960D01*
X153113394Y-116744648D01*
X152917757Y-116663613D01*
X152741685Y-116545965D01*
X152591955Y-116396235D01*
X152474307Y-116220163D01*
X152393272Y-116024526D01*
X152351960Y-115816838D01*
X152351960Y-115605082D01*
X152393272Y-115397394D01*
X152474307Y-115201757D01*
X152591955Y-115025685D01*
X152741685Y-114875955D01*
X152917757Y-114758307D01*
X153113394Y-114677272D01*
X153321082Y-114635960D01*
X153532838Y-114635960D01*
X153740526Y-114677272D01*
X153740526Y-114677272D01*
G37*
G36*
X181680526Y-114677272D02*
X181876163Y-114758307D01*
X182052235Y-114875955D01*
X182201965Y-115025685D01*
X182319613Y-115201757D01*
X182400648Y-115397394D01*
X182441960Y-115605082D01*
X182441960Y-115816838D01*
X182400648Y-116024526D01*
X182319613Y-116220163D01*
X182201965Y-116396235D01*
X182052235Y-116545965D01*
X181876163Y-116663613D01*
X181680526Y-116744648D01*
X181472838Y-116785960D01*
X181261082Y-116785960D01*
X181053394Y-116744648D01*
X180857757Y-116663613D01*
X180681685Y-116545965D01*
X180531955Y-116396235D01*
X180414307Y-116220163D01*
X180333272Y-116024526D01*
X180291960Y-115816838D01*
X180291960Y-115605082D01*
X180333272Y-115397394D01*
X180414307Y-115201757D01*
X180531955Y-115025685D01*
X180681685Y-114875955D01*
X180857757Y-114758307D01*
X181053394Y-114677272D01*
X181261082Y-114635960D01*
X181472838Y-114635960D01*
X181680526Y-114677272D01*
X181680526Y-114677272D01*
G37*
G36*
X162630526Y-114677272D02*
X162826163Y-114758307D01*
X163002235Y-114875955D01*
X163151965Y-115025685D01*
X163269613Y-115201757D01*
X163350648Y-115397394D01*
X163391960Y-115605082D01*
X163391960Y-115816838D01*
X163350648Y-116024526D01*
X163269613Y-116220163D01*
X163151965Y-116396235D01*
X163002235Y-116545965D01*
X162826163Y-116663613D01*
X162630526Y-116744648D01*
X162422838Y-116785960D01*
X162211082Y-116785960D01*
X162003394Y-116744648D01*
X161807757Y-116663613D01*
X161631685Y-116545965D01*
X161481955Y-116396235D01*
X161364307Y-116220163D01*
X161283272Y-116024526D01*
X161241960Y-115816838D01*
X161241960Y-115605082D01*
X161283272Y-115397394D01*
X161364307Y-115201757D01*
X161481955Y-115025685D01*
X161631685Y-114875955D01*
X161807757Y-114758307D01*
X162003394Y-114677272D01*
X162211082Y-114635960D01*
X162422838Y-114635960D01*
X162630526Y-114677272D01*
X162630526Y-114677272D01*
G37*
G36*
X210890526Y-114677272D02*
X211086163Y-114758307D01*
X211262235Y-114875955D01*
X211411965Y-115025685D01*
X211529613Y-115201757D01*
X211610648Y-115397394D01*
X211651960Y-115605082D01*
X211651960Y-115816838D01*
X211610648Y-116024526D01*
X211529613Y-116220163D01*
X211411965Y-116396235D01*
X211262235Y-116545965D01*
X211086163Y-116663613D01*
X210890526Y-116744648D01*
X210682838Y-116785960D01*
X210471082Y-116785960D01*
X210263394Y-116744648D01*
X210067757Y-116663613D01*
X209891685Y-116545965D01*
X209741955Y-116396235D01*
X209624307Y-116220163D01*
X209543272Y-116024526D01*
X209501960Y-115816838D01*
X209501960Y-115605082D01*
X209543272Y-115397394D01*
X209624307Y-115201757D01*
X209741955Y-115025685D01*
X209891685Y-114875955D01*
X210067757Y-114758307D01*
X210263394Y-114677272D01*
X210471082Y-114635960D01*
X210682838Y-114635960D01*
X210890526Y-114677272D01*
X210890526Y-114677272D01*
G37*
G36*
X105428526Y-114677272D02*
X105624163Y-114758307D01*
X105800235Y-114875955D01*
X105949965Y-115025685D01*
X106067613Y-115201757D01*
X106148648Y-115397394D01*
X106189960Y-115605082D01*
X106189960Y-115816838D01*
X106148648Y-116024526D01*
X106067613Y-116220163D01*
X105949965Y-116396235D01*
X105800235Y-116545965D01*
X105624163Y-116663613D01*
X105428526Y-116744648D01*
X105220838Y-116785960D01*
X105009082Y-116785960D01*
X104801394Y-116744648D01*
X104605757Y-116663613D01*
X104429685Y-116545965D01*
X104279955Y-116396235D01*
X104162307Y-116220163D01*
X104081272Y-116024526D01*
X104039960Y-115816838D01*
X104039960Y-115605082D01*
X104081272Y-115397394D01*
X104162307Y-115201757D01*
X104279955Y-115025685D01*
X104429685Y-114875955D01*
X104605757Y-114758307D01*
X104801394Y-114677272D01*
X105009082Y-114635960D01*
X105220838Y-114635960D01*
X105428526Y-114677272D01*
X105428526Y-114677272D01*
G37*
G36*
X124480526Y-114677272D02*
X124676163Y-114758307D01*
X124852235Y-114875955D01*
X125001965Y-115025685D01*
X125119613Y-115201757D01*
X125200648Y-115397394D01*
X125241960Y-115605082D01*
X125241960Y-115816838D01*
X125200648Y-116024526D01*
X125119613Y-116220163D01*
X125001965Y-116396235D01*
X124852235Y-116545965D01*
X124676163Y-116663613D01*
X124480526Y-116744648D01*
X124272838Y-116785960D01*
X124061082Y-116785960D01*
X123853394Y-116744648D01*
X123657757Y-116663613D01*
X123481685Y-116545965D01*
X123331955Y-116396235D01*
X123214307Y-116220163D01*
X123133272Y-116024526D01*
X123091960Y-115816838D01*
X123091960Y-115605082D01*
X123133272Y-115397394D01*
X123214307Y-115201757D01*
X123331955Y-115025685D01*
X123481685Y-114875955D01*
X123657757Y-114758307D01*
X123853394Y-114677272D01*
X124061082Y-114635960D01*
X124272838Y-114635960D01*
X124480526Y-114677272D01*
X124480526Y-114677272D01*
G37*
G36*
X115588526Y-114677272D02*
X115784163Y-114758307D01*
X115960235Y-114875955D01*
X116109965Y-115025685D01*
X116227613Y-115201757D01*
X116308648Y-115397394D01*
X116349960Y-115605082D01*
X116349960Y-115816838D01*
X116308648Y-116024526D01*
X116227613Y-116220163D01*
X116109965Y-116396235D01*
X115960235Y-116545965D01*
X115784163Y-116663613D01*
X115588526Y-116744648D01*
X115380838Y-116785960D01*
X115169082Y-116785960D01*
X114961394Y-116744648D01*
X114765757Y-116663613D01*
X114589685Y-116545965D01*
X114439955Y-116396235D01*
X114322307Y-116220163D01*
X114241272Y-116024526D01*
X114199960Y-115816838D01*
X114199960Y-115605082D01*
X114241272Y-115397394D01*
X114322307Y-115201757D01*
X114439955Y-115025685D01*
X114589685Y-114875955D01*
X114765757Y-114758307D01*
X114961394Y-114677272D01*
X115169082Y-114635960D01*
X115380838Y-114635960D01*
X115588526Y-114677272D01*
X115588526Y-114677272D01*
G37*
G36*
X172790526Y-114677272D02*
X172986163Y-114758307D01*
X173162235Y-114875955D01*
X173311965Y-115025685D01*
X173429613Y-115201757D01*
X173510648Y-115397394D01*
X173551960Y-115605082D01*
X173551960Y-115816838D01*
X173510648Y-116024526D01*
X173429613Y-116220163D01*
X173311965Y-116396235D01*
X173162235Y-116545965D01*
X172986163Y-116663613D01*
X172790526Y-116744648D01*
X172582838Y-116785960D01*
X172371082Y-116785960D01*
X172163394Y-116744648D01*
X171967757Y-116663613D01*
X171791685Y-116545965D01*
X171641955Y-116396235D01*
X171524307Y-116220163D01*
X171443272Y-116024526D01*
X171401960Y-115816838D01*
X171401960Y-115605082D01*
X171443272Y-115397394D01*
X171524307Y-115201757D01*
X171641955Y-115025685D01*
X171791685Y-114875955D01*
X171967757Y-114758307D01*
X172163394Y-114677272D01*
X172371082Y-114635960D01*
X172582838Y-114635960D01*
X172790526Y-114677272D01*
X172790526Y-114677272D01*
G37*
G36*
X191840526Y-114677272D02*
X192036163Y-114758307D01*
X192212235Y-114875955D01*
X192361965Y-115025685D01*
X192479613Y-115201757D01*
X192560648Y-115397394D01*
X192601960Y-115605082D01*
X192601960Y-115816838D01*
X192560648Y-116024526D01*
X192479613Y-116220163D01*
X192361965Y-116396235D01*
X192212235Y-116545965D01*
X192036163Y-116663613D01*
X191840526Y-116744648D01*
X191632838Y-116785960D01*
X191421082Y-116785960D01*
X191213394Y-116744648D01*
X191017757Y-116663613D01*
X190841685Y-116545965D01*
X190691955Y-116396235D01*
X190574307Y-116220163D01*
X190493272Y-116024526D01*
X190451960Y-115816838D01*
X190451960Y-115605082D01*
X190493272Y-115397394D01*
X190574307Y-115201757D01*
X190691955Y-115025685D01*
X190841685Y-114875955D01*
X191017757Y-114758307D01*
X191213394Y-114677272D01*
X191421082Y-114635960D01*
X191632838Y-114635960D01*
X191840526Y-114677272D01*
X191840526Y-114677272D01*
G37*
G36*
X200730526Y-114677272D02*
X200926163Y-114758307D01*
X201102235Y-114875955D01*
X201251965Y-115025685D01*
X201369613Y-115201757D01*
X201450648Y-115397394D01*
X201491960Y-115605082D01*
X201491960Y-115816838D01*
X201450648Y-116024526D01*
X201369613Y-116220163D01*
X201251965Y-116396235D01*
X201102235Y-116545965D01*
X200926163Y-116663613D01*
X200730526Y-116744648D01*
X200522838Y-116785960D01*
X200311082Y-116785960D01*
X200103394Y-116744648D01*
X199907757Y-116663613D01*
X199731685Y-116545965D01*
X199581955Y-116396235D01*
X199464307Y-116220163D01*
X199383272Y-116024526D01*
X199341960Y-115816838D01*
X199341960Y-115605082D01*
X199383272Y-115397394D01*
X199464307Y-115201757D01*
X199581955Y-115025685D01*
X199731685Y-114875955D01*
X199907757Y-114758307D01*
X200103394Y-114677272D01*
X200311082Y-114635960D01*
X200522838Y-114635960D01*
X200730526Y-114677272D01*
X200730526Y-114677272D01*
G37*
G36*
X144236894Y-94550370D02*
X144236896Y-94550371D01*
X144236897Y-94550371D01*
X144636161Y-94715751D01*
X144995490Y-94955847D01*
X145301073Y-95261430D01*
X145541169Y-95620759D01*
X145706549Y-96020023D01*
X145790860Y-96443880D01*
X145790860Y-96876040D01*
X145706549Y-97299897D01*
X145541169Y-97699161D01*
X145301073Y-98058490D01*
X144995490Y-98364073D01*
X144636161Y-98604169D01*
X144236897Y-98769549D01*
X144236896Y-98769549D01*
X144236894Y-98769550D01*
X143813042Y-98853860D01*
X143380878Y-98853860D01*
X142957026Y-98769550D01*
X142957024Y-98769549D01*
X142957023Y-98769549D01*
X142557759Y-98604169D01*
X142198430Y-98364073D01*
X141892847Y-98058490D01*
X141652751Y-97699161D01*
X141487371Y-97299897D01*
X141403060Y-96876040D01*
X141403060Y-96443880D01*
X141487371Y-96020023D01*
X141652751Y-95620759D01*
X141892847Y-95261430D01*
X142198430Y-94955847D01*
X142557759Y-94715751D01*
X142957023Y-94550371D01*
X142957024Y-94550371D01*
X142957026Y-94550370D01*
X143380878Y-94466060D01*
X143813042Y-94466060D01*
X144236894Y-94550370D01*
X144236894Y-94550370D01*
G37*
G36*
X203761894Y-94550370D02*
X203761896Y-94550371D01*
X203761897Y-94550371D01*
X204161161Y-94715751D01*
X204520490Y-94955847D01*
X204826073Y-95261430D01*
X205066169Y-95620759D01*
X205231549Y-96020023D01*
X205315860Y-96443880D01*
X205315860Y-96876040D01*
X205231549Y-97299897D01*
X205066169Y-97699161D01*
X204826073Y-98058490D01*
X204520490Y-98364073D01*
X204161161Y-98604169D01*
X203761897Y-98769549D01*
X203761896Y-98769549D01*
X203761894Y-98769550D01*
X203338042Y-98853860D01*
X202905878Y-98853860D01*
X202482026Y-98769550D01*
X202482024Y-98769549D01*
X202482023Y-98769549D01*
X202082759Y-98604169D01*
X201723430Y-98364073D01*
X201417847Y-98058490D01*
X201177751Y-97699161D01*
X201012371Y-97299897D01*
X200928060Y-96876040D01*
X200928060Y-96443880D01*
X201012371Y-96020023D01*
X201177751Y-95620759D01*
X201417847Y-95261430D01*
X201723430Y-94955847D01*
X202082759Y-94715751D01*
X202482023Y-94550371D01*
X202482024Y-94550371D01*
X202482026Y-94550370D01*
X202905878Y-94466060D01*
X203338042Y-94466060D01*
X203761894Y-94550370D01*
X203761894Y-94550370D01*
G37*
G36*
X182336894Y-94550370D02*
X182336896Y-94550371D01*
X182336897Y-94550371D01*
X182736161Y-94715751D01*
X183095490Y-94955847D01*
X183401073Y-95261430D01*
X183641169Y-95620759D01*
X183806549Y-96020023D01*
X183890860Y-96443880D01*
X183890860Y-96876040D01*
X183806549Y-97299897D01*
X183641169Y-97699161D01*
X183401073Y-98058490D01*
X183095490Y-98364073D01*
X182736161Y-98604169D01*
X182336897Y-98769549D01*
X182336896Y-98769549D01*
X182336894Y-98769550D01*
X181913042Y-98853860D01*
X181480878Y-98853860D01*
X181057026Y-98769550D01*
X181057024Y-98769549D01*
X181057023Y-98769549D01*
X180657759Y-98604169D01*
X180298430Y-98364073D01*
X179992847Y-98058490D01*
X179752751Y-97699161D01*
X179587371Y-97299897D01*
X179503060Y-96876040D01*
X179503060Y-96443880D01*
X179587371Y-96020023D01*
X179752751Y-95620759D01*
X179992847Y-95261430D01*
X180298430Y-94955847D01*
X180657759Y-94715751D01*
X181057023Y-94550371D01*
X181057024Y-94550371D01*
X181057026Y-94550370D01*
X181480878Y-94466060D01*
X181913042Y-94466060D01*
X182336894Y-94550370D01*
X182336894Y-94550370D01*
G37*
G36*
X106084894Y-94550370D02*
X106084896Y-94550371D01*
X106084897Y-94550371D01*
X106484161Y-94715751D01*
X106843490Y-94955847D01*
X107149073Y-95261430D01*
X107389169Y-95620759D01*
X107554549Y-96020023D01*
X107638860Y-96443880D01*
X107638860Y-96876040D01*
X107554549Y-97299897D01*
X107389169Y-97699161D01*
X107149073Y-98058490D01*
X106843490Y-98364073D01*
X106484161Y-98604169D01*
X106084897Y-98769549D01*
X106084896Y-98769549D01*
X106084894Y-98769550D01*
X105661042Y-98853860D01*
X105228878Y-98853860D01*
X104805026Y-98769550D01*
X104805024Y-98769549D01*
X104805023Y-98769549D01*
X104405759Y-98604169D01*
X104046430Y-98364073D01*
X103740847Y-98058490D01*
X103500751Y-97699161D01*
X103335371Y-97299897D01*
X103251060Y-96876040D01*
X103251060Y-96443880D01*
X103335371Y-96020023D01*
X103500751Y-95620759D01*
X103740847Y-95261430D01*
X104046430Y-94955847D01*
X104405759Y-94715751D01*
X104805023Y-94550371D01*
X104805024Y-94550371D01*
X104805026Y-94550370D01*
X105228878Y-94466060D01*
X105661042Y-94466060D01*
X106084894Y-94550370D01*
X106084894Y-94550370D01*
G37*
G36*
X125136894Y-94550370D02*
X125136896Y-94550371D01*
X125136897Y-94550371D01*
X125536161Y-94715751D01*
X125895490Y-94955847D01*
X126201073Y-95261430D01*
X126441169Y-95620759D01*
X126606549Y-96020023D01*
X126690860Y-96443880D01*
X126690860Y-96876040D01*
X126606549Y-97299897D01*
X126441169Y-97699161D01*
X126201073Y-98058490D01*
X125895490Y-98364073D01*
X125536161Y-98604169D01*
X125136897Y-98769549D01*
X125136896Y-98769549D01*
X125136894Y-98769550D01*
X124713042Y-98853860D01*
X124280878Y-98853860D01*
X123857026Y-98769550D01*
X123857024Y-98769549D01*
X123857023Y-98769549D01*
X123457759Y-98604169D01*
X123098430Y-98364073D01*
X122792847Y-98058490D01*
X122552751Y-97699161D01*
X122387371Y-97299897D01*
X122303060Y-96876040D01*
X122303060Y-96443880D01*
X122387371Y-96020023D01*
X122552751Y-95620759D01*
X122792847Y-95261430D01*
X123098430Y-94955847D01*
X123457759Y-94715751D01*
X123857023Y-94550371D01*
X123857024Y-94550371D01*
X123857026Y-94550370D01*
X124280878Y-94466060D01*
X124713042Y-94466060D01*
X125136894Y-94550370D01*
X125136894Y-94550370D01*
G37*
G36*
X163286894Y-94550370D02*
X163286896Y-94550371D01*
X163286897Y-94550371D01*
X163686161Y-94715751D01*
X164045490Y-94955847D01*
X164351073Y-95261430D01*
X164591169Y-95620759D01*
X164756549Y-96020023D01*
X164840860Y-96443880D01*
X164840860Y-96876040D01*
X164756549Y-97299897D01*
X164591169Y-97699161D01*
X164351073Y-98058490D01*
X164045490Y-98364073D01*
X163686161Y-98604169D01*
X163286897Y-98769549D01*
X163286896Y-98769549D01*
X163286894Y-98769550D01*
X162863042Y-98853860D01*
X162430878Y-98853860D01*
X162007026Y-98769550D01*
X162007024Y-98769549D01*
X162007023Y-98769549D01*
X161607759Y-98604169D01*
X161248430Y-98364073D01*
X160942847Y-98058490D01*
X160702751Y-97699161D01*
X160537371Y-97299897D01*
X160453060Y-96876040D01*
X160453060Y-96443880D01*
X160537371Y-96020023D01*
X160702751Y-95620759D01*
X160942847Y-95261430D01*
X161248430Y-94955847D01*
X161607759Y-94715751D01*
X162007023Y-94550371D01*
X162007024Y-94550371D01*
X162007026Y-94550370D01*
X162430878Y-94466060D01*
X162863042Y-94466060D01*
X163286894Y-94550370D01*
X163286894Y-94550370D01*
G37*
G36*
X138830526Y-95626272D02*
X139026163Y-95707307D01*
X139202235Y-95824955D01*
X139351965Y-95974685D01*
X139469613Y-96150757D01*
X139550648Y-96346394D01*
X139591960Y-96554082D01*
X139591960Y-96765838D01*
X139550648Y-96973526D01*
X139469613Y-97169163D01*
X139351965Y-97345235D01*
X139202235Y-97494965D01*
X139026163Y-97612613D01*
X138830526Y-97693648D01*
X138622838Y-97734960D01*
X138411082Y-97734960D01*
X138203394Y-97693648D01*
X138007757Y-97612613D01*
X137831685Y-97494965D01*
X137681955Y-97345235D01*
X137564307Y-97169163D01*
X137483272Y-96973526D01*
X137441960Y-96765838D01*
X137441960Y-96554082D01*
X137483272Y-96346394D01*
X137564307Y-96150757D01*
X137681955Y-95974685D01*
X137831685Y-95824955D01*
X138007757Y-95707307D01*
X138203394Y-95626272D01*
X138411082Y-95584960D01*
X138622838Y-95584960D01*
X138830526Y-95626272D01*
X138830526Y-95626272D01*
G37*
G36*
X198355526Y-95626272D02*
X198551163Y-95707307D01*
X198727235Y-95824955D01*
X198876965Y-95974685D01*
X198994613Y-96150757D01*
X199075648Y-96346394D01*
X199116960Y-96554082D01*
X199116960Y-96765838D01*
X199075648Y-96973526D01*
X198994613Y-97169163D01*
X198876965Y-97345235D01*
X198727235Y-97494965D01*
X198551163Y-97612613D01*
X198355526Y-97693648D01*
X198147838Y-97734960D01*
X197936082Y-97734960D01*
X197728394Y-97693648D01*
X197532757Y-97612613D01*
X197356685Y-97494965D01*
X197206955Y-97345235D01*
X197089307Y-97169163D01*
X197008272Y-96973526D01*
X196966960Y-96765838D01*
X196966960Y-96554082D01*
X197008272Y-96346394D01*
X197089307Y-96150757D01*
X197206955Y-95974685D01*
X197356685Y-95824955D01*
X197532757Y-95707307D01*
X197728394Y-95626272D01*
X197936082Y-95584960D01*
X198147838Y-95584960D01*
X198355526Y-95626272D01*
X198355526Y-95626272D01*
G37*
G36*
X187090526Y-95626272D02*
X187286163Y-95707307D01*
X187462235Y-95824955D01*
X187611965Y-95974685D01*
X187729613Y-96150757D01*
X187810648Y-96346394D01*
X187851960Y-96554082D01*
X187851960Y-96765838D01*
X187810648Y-96973526D01*
X187729613Y-97169163D01*
X187611965Y-97345235D01*
X187462235Y-97494965D01*
X187286163Y-97612613D01*
X187090526Y-97693648D01*
X186882838Y-97734960D01*
X186671082Y-97734960D01*
X186463394Y-97693648D01*
X186267757Y-97612613D01*
X186091685Y-97494965D01*
X185941955Y-97345235D01*
X185824307Y-97169163D01*
X185743272Y-96973526D01*
X185701960Y-96765838D01*
X185701960Y-96554082D01*
X185743272Y-96346394D01*
X185824307Y-96150757D01*
X185941955Y-95974685D01*
X186091685Y-95824955D01*
X186267757Y-95707307D01*
X186463394Y-95626272D01*
X186671082Y-95584960D01*
X186882838Y-95584960D01*
X187090526Y-95626272D01*
X187090526Y-95626272D01*
G37*
G36*
X176930526Y-95626272D02*
X177126163Y-95707307D01*
X177302235Y-95824955D01*
X177451965Y-95974685D01*
X177569613Y-96150757D01*
X177650648Y-96346394D01*
X177691960Y-96554082D01*
X177691960Y-96765838D01*
X177650648Y-96973526D01*
X177569613Y-97169163D01*
X177451965Y-97345235D01*
X177302235Y-97494965D01*
X177126163Y-97612613D01*
X176930526Y-97693648D01*
X176722838Y-97734960D01*
X176511082Y-97734960D01*
X176303394Y-97693648D01*
X176107757Y-97612613D01*
X175931685Y-97494965D01*
X175781955Y-97345235D01*
X175664307Y-97169163D01*
X175583272Y-96973526D01*
X175541960Y-96765838D01*
X175541960Y-96554082D01*
X175583272Y-96346394D01*
X175664307Y-96150757D01*
X175781955Y-95974685D01*
X175931685Y-95824955D01*
X176107757Y-95707307D01*
X176303394Y-95626272D01*
X176511082Y-95584960D01*
X176722838Y-95584960D01*
X176930526Y-95626272D01*
X176930526Y-95626272D01*
G37*
G36*
X168040526Y-95626272D02*
X168236163Y-95707307D01*
X168412235Y-95824955D01*
X168561965Y-95974685D01*
X168679613Y-96150757D01*
X168760648Y-96346394D01*
X168801960Y-96554082D01*
X168801960Y-96765838D01*
X168760648Y-96973526D01*
X168679613Y-97169163D01*
X168561965Y-97345235D01*
X168412235Y-97494965D01*
X168236163Y-97612613D01*
X168040526Y-97693648D01*
X167832838Y-97734960D01*
X167621082Y-97734960D01*
X167413394Y-97693648D01*
X167217757Y-97612613D01*
X167041685Y-97494965D01*
X166891955Y-97345235D01*
X166774307Y-97169163D01*
X166693272Y-96973526D01*
X166651960Y-96765838D01*
X166651960Y-96554082D01*
X166693272Y-96346394D01*
X166774307Y-96150757D01*
X166891955Y-95974685D01*
X167041685Y-95824955D01*
X167217757Y-95707307D01*
X167413394Y-95626272D01*
X167621082Y-95584960D01*
X167832838Y-95584960D01*
X168040526Y-95626272D01*
X168040526Y-95626272D01*
G37*
G36*
X157880526Y-95626272D02*
X158076163Y-95707307D01*
X158252235Y-95824955D01*
X158401965Y-95974685D01*
X158519613Y-96150757D01*
X158600648Y-96346394D01*
X158641960Y-96554082D01*
X158641960Y-96765838D01*
X158600648Y-96973526D01*
X158519613Y-97169163D01*
X158401965Y-97345235D01*
X158252235Y-97494965D01*
X158076163Y-97612613D01*
X157880526Y-97693648D01*
X157672838Y-97734960D01*
X157461082Y-97734960D01*
X157253394Y-97693648D01*
X157057757Y-97612613D01*
X156881685Y-97494965D01*
X156731955Y-97345235D01*
X156614307Y-97169163D01*
X156533272Y-96973526D01*
X156491960Y-96765838D01*
X156491960Y-96554082D01*
X156533272Y-96346394D01*
X156614307Y-96150757D01*
X156731955Y-95974685D01*
X156881685Y-95824955D01*
X157057757Y-95707307D01*
X157253394Y-95626272D01*
X157461082Y-95584960D01*
X157672838Y-95584960D01*
X157880526Y-95626272D01*
X157880526Y-95626272D01*
G37*
G36*
X148990526Y-95626272D02*
X149186163Y-95707307D01*
X149362235Y-95824955D01*
X149511965Y-95974685D01*
X149629613Y-96150757D01*
X149710648Y-96346394D01*
X149751960Y-96554082D01*
X149751960Y-96765838D01*
X149710648Y-96973526D01*
X149629613Y-97169163D01*
X149511965Y-97345235D01*
X149362235Y-97494965D01*
X149186163Y-97612613D01*
X148990526Y-97693648D01*
X148782838Y-97734960D01*
X148571082Y-97734960D01*
X148363394Y-97693648D01*
X148167757Y-97612613D01*
X147991685Y-97494965D01*
X147841955Y-97345235D01*
X147724307Y-97169163D01*
X147643272Y-96973526D01*
X147601960Y-96765838D01*
X147601960Y-96554082D01*
X147643272Y-96346394D01*
X147724307Y-96150757D01*
X147841955Y-95974685D01*
X147991685Y-95824955D01*
X148167757Y-95707307D01*
X148363394Y-95626272D01*
X148571082Y-95584960D01*
X148782838Y-95584960D01*
X148990526Y-95626272D01*
X148990526Y-95626272D01*
G37*
G36*
X129890526Y-95626272D02*
X130086163Y-95707307D01*
X130262235Y-95824955D01*
X130411965Y-95974685D01*
X130529613Y-96150757D01*
X130610648Y-96346394D01*
X130651960Y-96554082D01*
X130651960Y-96765838D01*
X130610648Y-96973526D01*
X130529613Y-97169163D01*
X130411965Y-97345235D01*
X130262235Y-97494965D01*
X130086163Y-97612613D01*
X129890526Y-97693648D01*
X129682838Y-97734960D01*
X129471082Y-97734960D01*
X129263394Y-97693648D01*
X129067757Y-97612613D01*
X128891685Y-97494965D01*
X128741955Y-97345235D01*
X128624307Y-97169163D01*
X128543272Y-96973526D01*
X128501960Y-96765838D01*
X128501960Y-96554082D01*
X128543272Y-96346394D01*
X128624307Y-96150757D01*
X128741955Y-95974685D01*
X128891685Y-95824955D01*
X129067757Y-95707307D01*
X129263394Y-95626272D01*
X129471082Y-95584960D01*
X129682838Y-95584960D01*
X129890526Y-95626272D01*
X129890526Y-95626272D01*
G37*
G36*
X119730526Y-95626272D02*
X119926163Y-95707307D01*
X120102235Y-95824955D01*
X120251965Y-95974685D01*
X120369613Y-96150757D01*
X120450648Y-96346394D01*
X120491960Y-96554082D01*
X120491960Y-96765838D01*
X120450648Y-96973526D01*
X120369613Y-97169163D01*
X120251965Y-97345235D01*
X120102235Y-97494965D01*
X119926163Y-97612613D01*
X119730526Y-97693648D01*
X119522838Y-97734960D01*
X119311082Y-97734960D01*
X119103394Y-97693648D01*
X118907757Y-97612613D01*
X118731685Y-97494965D01*
X118581955Y-97345235D01*
X118464307Y-97169163D01*
X118383272Y-96973526D01*
X118341960Y-96765838D01*
X118341960Y-96554082D01*
X118383272Y-96346394D01*
X118464307Y-96150757D01*
X118581955Y-95974685D01*
X118731685Y-95824955D01*
X118907757Y-95707307D01*
X119103394Y-95626272D01*
X119311082Y-95584960D01*
X119522838Y-95584960D01*
X119730526Y-95626272D01*
X119730526Y-95626272D01*
G37*
G36*
X110838526Y-95626272D02*
X111034163Y-95707307D01*
X111210235Y-95824955D01*
X111359965Y-95974685D01*
X111477613Y-96150757D01*
X111558648Y-96346394D01*
X111599960Y-96554082D01*
X111599960Y-96765838D01*
X111558648Y-96973526D01*
X111477613Y-97169163D01*
X111359965Y-97345235D01*
X111210235Y-97494965D01*
X111034163Y-97612613D01*
X110838526Y-97693648D01*
X110630838Y-97734960D01*
X110419082Y-97734960D01*
X110211394Y-97693648D01*
X110015757Y-97612613D01*
X109839685Y-97494965D01*
X109689955Y-97345235D01*
X109572307Y-97169163D01*
X109491272Y-96973526D01*
X109449960Y-96765838D01*
X109449960Y-96554082D01*
X109491272Y-96346394D01*
X109572307Y-96150757D01*
X109689955Y-95974685D01*
X109839685Y-95824955D01*
X110015757Y-95707307D01*
X110211394Y-95626272D01*
X110419082Y-95584960D01*
X110630838Y-95584960D01*
X110838526Y-95626272D01*
X110838526Y-95626272D01*
G37*
G36*
X208515526Y-95626272D02*
X208711163Y-95707307D01*
X208887235Y-95824955D01*
X209036965Y-95974685D01*
X209154613Y-96150757D01*
X209235648Y-96346394D01*
X209276960Y-96554082D01*
X209276960Y-96765838D01*
X209235648Y-96973526D01*
X209154613Y-97169163D01*
X209036965Y-97345235D01*
X208887235Y-97494965D01*
X208711163Y-97612613D01*
X208515526Y-97693648D01*
X208307838Y-97734960D01*
X208096082Y-97734960D01*
X207888394Y-97693648D01*
X207692757Y-97612613D01*
X207516685Y-97494965D01*
X207366955Y-97345235D01*
X207249307Y-97169163D01*
X207168272Y-96973526D01*
X207126960Y-96765838D01*
X207126960Y-96554082D01*
X207168272Y-96346394D01*
X207249307Y-96150757D01*
X207366955Y-95974685D01*
X207516685Y-95824955D01*
X207692757Y-95707307D01*
X207888394Y-95626272D01*
X208096082Y-95584960D01*
X208307838Y-95584960D01*
X208515526Y-95626272D01*
X208515526Y-95626272D01*
G37*
G36*
X100678526Y-95626272D02*
X100874163Y-95707307D01*
X101050235Y-95824955D01*
X101199965Y-95974685D01*
X101317613Y-96150757D01*
X101398648Y-96346394D01*
X101439960Y-96554082D01*
X101439960Y-96765838D01*
X101398648Y-96973526D01*
X101317613Y-97169163D01*
X101199965Y-97345235D01*
X101050235Y-97494965D01*
X100874163Y-97612613D01*
X100678526Y-97693648D01*
X100470838Y-97734960D01*
X100259082Y-97734960D01*
X100051394Y-97693648D01*
X99855757Y-97612613D01*
X99679685Y-97494965D01*
X99529955Y-97345235D01*
X99412307Y-97169163D01*
X99331272Y-96973526D01*
X99289960Y-96765838D01*
X99289960Y-96554082D01*
X99331272Y-96346394D01*
X99412307Y-96150757D01*
X99529955Y-95974685D01*
X99679685Y-95824955D01*
X99855757Y-95707307D01*
X100051394Y-95626272D01*
X100259082Y-95584960D01*
X100470838Y-95584960D01*
X100678526Y-95626272D01*
X100678526Y-95626272D01*
G37*
G36*
X212941035Y-90508318D02*
X212965068Y-90513098D01*
X213017864Y-90518298D01*
X213099730Y-90526361D01*
X213209689Y-90559717D01*
X213264669Y-90576395D01*
X213315337Y-90603478D01*
X213416676Y-90657644D01*
X213549912Y-90766988D01*
X213659256Y-90900224D01*
X213713422Y-91001563D01*
X213740505Y-91052231D01*
X213740505Y-91052232D01*
X213790539Y-91217170D01*
X213807433Y-91388700D01*
X213790539Y-91560230D01*
X213757183Y-91670189D01*
X213740505Y-91725169D01*
X213713422Y-91775837D01*
X213659256Y-91877176D01*
X213549912Y-92010412D01*
X213416676Y-92119756D01*
X213315337Y-92173922D01*
X213264669Y-92201005D01*
X213209689Y-92217683D01*
X213099730Y-92251039D01*
X213014029Y-92259480D01*
X212971180Y-92263700D01*
X212885220Y-92263700D01*
X212842371Y-92259480D01*
X212756670Y-92251039D01*
X212646711Y-92217683D01*
X212591731Y-92201005D01*
X212541063Y-92173922D01*
X212439724Y-92119756D01*
X212306488Y-92010412D01*
X212197144Y-91877176D01*
X212142978Y-91775837D01*
X212115895Y-91725169D01*
X212099217Y-91670189D01*
X212065861Y-91560230D01*
X212052598Y-91425568D01*
X212047817Y-91401534D01*
X212042718Y-91389224D01*
X212043685Y-91387415D01*
X212052598Y-91351832D01*
X212065861Y-91217172D01*
X212065861Y-91217170D01*
X212115895Y-91052232D01*
X212115895Y-91052231D01*
X212142978Y-91001563D01*
X212197144Y-90900224D01*
X212306488Y-90766988D01*
X212439724Y-90657644D01*
X212541063Y-90603478D01*
X212591731Y-90576395D01*
X212646711Y-90559717D01*
X212756670Y-90526361D01*
X212838536Y-90518298D01*
X212891332Y-90513098D01*
X212915366Y-90508317D01*
X212928200Y-90503001D01*
X212941035Y-90508318D01*
X212941035Y-90508318D01*
G37*
G36*
X210941035Y-90508318D02*
X210977320Y-90513700D01*
X211803200Y-90513700D01*
X211803200Y-91339580D01*
X211805602Y-91363966D01*
X211812715Y-91387415D01*
X211813682Y-91389224D01*
X211808582Y-91401535D01*
X211803200Y-91437820D01*
X211803200Y-92263700D01*
X210053200Y-92263700D01*
X210053200Y-90513700D01*
X210879080Y-90513700D01*
X210903466Y-90511298D01*
X210926915Y-90504185D01*
X210928724Y-90503218D01*
X210941035Y-90508318D01*
X210941035Y-90508318D01*
G37*
G36*
X212941035Y-88508318D02*
X212965068Y-88513098D01*
X213017864Y-88518298D01*
X213099730Y-88526361D01*
X213209689Y-88559717D01*
X213264669Y-88576395D01*
X213315337Y-88603478D01*
X213416676Y-88657644D01*
X213549912Y-88766988D01*
X213659256Y-88900224D01*
X213713422Y-89001563D01*
X213740505Y-89052231D01*
X213740505Y-89052232D01*
X213790539Y-89217170D01*
X213807433Y-89388700D01*
X213790539Y-89560230D01*
X213757183Y-89670189D01*
X213740505Y-89725169D01*
X213713422Y-89775837D01*
X213659256Y-89877176D01*
X213549912Y-90010412D01*
X213416676Y-90119756D01*
X213315337Y-90173922D01*
X213264669Y-90201005D01*
X213209689Y-90217683D01*
X213099730Y-90251039D01*
X213017864Y-90259102D01*
X212965068Y-90264302D01*
X212941034Y-90269083D01*
X212928200Y-90274399D01*
X212915365Y-90269082D01*
X212891332Y-90264302D01*
X212838536Y-90259102D01*
X212756670Y-90251039D01*
X212646711Y-90217683D01*
X212591731Y-90201005D01*
X212541063Y-90173922D01*
X212439724Y-90119756D01*
X212306488Y-90010412D01*
X212197144Y-89877176D01*
X212142978Y-89775837D01*
X212115895Y-89725169D01*
X212099217Y-89670189D01*
X212065861Y-89560230D01*
X212052598Y-89425568D01*
X212047817Y-89401534D01*
X212042501Y-89388700D01*
X212047818Y-89375865D01*
X212052598Y-89351832D01*
X212065861Y-89217172D01*
X212065861Y-89217170D01*
X212115895Y-89052232D01*
X212115895Y-89052231D01*
X212142978Y-89001563D01*
X212197144Y-88900224D01*
X212306488Y-88766988D01*
X212439724Y-88657644D01*
X212541063Y-88603478D01*
X212591731Y-88576395D01*
X212646711Y-88559717D01*
X212756670Y-88526361D01*
X212838536Y-88518298D01*
X212891332Y-88513098D01*
X212915366Y-88508317D01*
X212928200Y-88503001D01*
X212941035Y-88508318D01*
X212941035Y-88508318D01*
G37*
G36*
X210941035Y-88508318D02*
X210965068Y-88513098D01*
X211017864Y-88518298D01*
X211099730Y-88526361D01*
X211209689Y-88559717D01*
X211264669Y-88576395D01*
X211315337Y-88603478D01*
X211416676Y-88657644D01*
X211549912Y-88766988D01*
X211659256Y-88900224D01*
X211713422Y-89001563D01*
X211740505Y-89052231D01*
X211740505Y-89052232D01*
X211790539Y-89217170D01*
X211790539Y-89217172D01*
X211803802Y-89351832D01*
X211808583Y-89375866D01*
X211813899Y-89388700D01*
X211808582Y-89401535D01*
X211803802Y-89425568D01*
X211790539Y-89560230D01*
X211757183Y-89670189D01*
X211740505Y-89725169D01*
X211713422Y-89775837D01*
X211659256Y-89877176D01*
X211549912Y-90010412D01*
X211416676Y-90119756D01*
X211315337Y-90173922D01*
X211264669Y-90201005D01*
X211209689Y-90217683D01*
X211099730Y-90251039D01*
X211017864Y-90259102D01*
X210965068Y-90264302D01*
X210941034Y-90269083D01*
X210928724Y-90274182D01*
X210926915Y-90273215D01*
X210891332Y-90264302D01*
X210838536Y-90259102D01*
X210756670Y-90251039D01*
X210646711Y-90217683D01*
X210591731Y-90201005D01*
X210541063Y-90173922D01*
X210439724Y-90119756D01*
X210306488Y-90010412D01*
X210197144Y-89877176D01*
X210142978Y-89775837D01*
X210115895Y-89725169D01*
X210099217Y-89670189D01*
X210065861Y-89560230D01*
X210048967Y-89388700D01*
X210065861Y-89217170D01*
X210115895Y-89052232D01*
X210115895Y-89052231D01*
X210142978Y-89001563D01*
X210197144Y-88900224D01*
X210306488Y-88766988D01*
X210439724Y-88657644D01*
X210541063Y-88603478D01*
X210591731Y-88576395D01*
X210646711Y-88559717D01*
X210756670Y-88526361D01*
X210838536Y-88518298D01*
X210891332Y-88513098D01*
X210915366Y-88508317D01*
X210928200Y-88503001D01*
X210941035Y-88508318D01*
X210941035Y-88508318D01*
G37*
G36*
X211014029Y-86517920D02*
X211099730Y-86526361D01*
X211209689Y-86559717D01*
X211264669Y-86576395D01*
X211315337Y-86603478D01*
X211416676Y-86657644D01*
X211549912Y-86766988D01*
X211659256Y-86900224D01*
X211713422Y-87001563D01*
X211740505Y-87052231D01*
X211740505Y-87052232D01*
X211790539Y-87217170D01*
X211790539Y-87217172D01*
X211803802Y-87351832D01*
X211808583Y-87375866D01*
X211813899Y-87388700D01*
X211808582Y-87401535D01*
X211803802Y-87425568D01*
X211790539Y-87560230D01*
X211757183Y-87670189D01*
X211740505Y-87725169D01*
X211713422Y-87775837D01*
X211659256Y-87877176D01*
X211549912Y-88010412D01*
X211416676Y-88119756D01*
X211315337Y-88173922D01*
X211264669Y-88201005D01*
X211209689Y-88217683D01*
X211099730Y-88251039D01*
X211017864Y-88259102D01*
X210965068Y-88264302D01*
X210941034Y-88269083D01*
X210928200Y-88274399D01*
X210915365Y-88269082D01*
X210891332Y-88264302D01*
X210838536Y-88259102D01*
X210756670Y-88251039D01*
X210646711Y-88217683D01*
X210591731Y-88201005D01*
X210541063Y-88173922D01*
X210439724Y-88119756D01*
X210306488Y-88010412D01*
X210197144Y-87877176D01*
X210142978Y-87775837D01*
X210115895Y-87725169D01*
X210099217Y-87670189D01*
X210065861Y-87560230D01*
X210048967Y-87388700D01*
X210065861Y-87217170D01*
X210115895Y-87052232D01*
X210115895Y-87052231D01*
X210142978Y-87001563D01*
X210197144Y-86900224D01*
X210306488Y-86766988D01*
X210439724Y-86657644D01*
X210541063Y-86603478D01*
X210591731Y-86576395D01*
X210646711Y-86559717D01*
X210756670Y-86526361D01*
X210842371Y-86517920D01*
X210885220Y-86513700D01*
X210971180Y-86513700D01*
X211014029Y-86517920D01*
X211014029Y-86517920D01*
G37*
G36*
X213014029Y-86517920D02*
X213099730Y-86526361D01*
X213209689Y-86559717D01*
X213264669Y-86576395D01*
X213315337Y-86603478D01*
X213416676Y-86657644D01*
X213549912Y-86766988D01*
X213659256Y-86900224D01*
X213713422Y-87001563D01*
X213740505Y-87052231D01*
X213740505Y-87052232D01*
X213790539Y-87217170D01*
X213807433Y-87388700D01*
X213790539Y-87560230D01*
X213757183Y-87670189D01*
X213740505Y-87725169D01*
X213713422Y-87775837D01*
X213659256Y-87877176D01*
X213549912Y-88010412D01*
X213416676Y-88119756D01*
X213315337Y-88173922D01*
X213264669Y-88201005D01*
X213209689Y-88217683D01*
X213099730Y-88251039D01*
X213017864Y-88259102D01*
X212965068Y-88264302D01*
X212941034Y-88269083D01*
X212928200Y-88274399D01*
X212915365Y-88269082D01*
X212891332Y-88264302D01*
X212838536Y-88259102D01*
X212756670Y-88251039D01*
X212646711Y-88217683D01*
X212591731Y-88201005D01*
X212541063Y-88173922D01*
X212439724Y-88119756D01*
X212306488Y-88010412D01*
X212197144Y-87877176D01*
X212142978Y-87775837D01*
X212115895Y-87725169D01*
X212099217Y-87670189D01*
X212065861Y-87560230D01*
X212052598Y-87425568D01*
X212047817Y-87401534D01*
X212042501Y-87388700D01*
X212047818Y-87375865D01*
X212052598Y-87351832D01*
X212065861Y-87217172D01*
X212065861Y-87217170D01*
X212115895Y-87052232D01*
X212115895Y-87052231D01*
X212142978Y-87001563D01*
X212197144Y-86900224D01*
X212306488Y-86766988D01*
X212439724Y-86657644D01*
X212541063Y-86603478D01*
X212591731Y-86576395D01*
X212646711Y-86559717D01*
X212756670Y-86526361D01*
X212842371Y-86517920D01*
X212885220Y-86513700D01*
X212971180Y-86513700D01*
X213014029Y-86517920D01*
X213014029Y-86517920D01*
G37*
G36*
X114980526Y-76576272D02*
X115176163Y-76657307D01*
X115352235Y-76774955D01*
X115501965Y-76924685D01*
X115619613Y-77100757D01*
X115700648Y-77296394D01*
X115741960Y-77504082D01*
X115741960Y-77715838D01*
X115700648Y-77923526D01*
X115619613Y-78119163D01*
X115501965Y-78295235D01*
X115352235Y-78444965D01*
X115176163Y-78562613D01*
X114980526Y-78643648D01*
X114772838Y-78684960D01*
X114561082Y-78684960D01*
X114353394Y-78643648D01*
X114157757Y-78562613D01*
X113981685Y-78444965D01*
X113831955Y-78295235D01*
X113752098Y-78175720D01*
X113736553Y-78156778D01*
X113717611Y-78141232D01*
X113696000Y-78129681D01*
X113672551Y-78122568D01*
X113648164Y-78120166D01*
X113623778Y-78122568D01*
X113600329Y-78129681D01*
X113578718Y-78141232D01*
X113559776Y-78156777D01*
X113544230Y-78175719D01*
X113532679Y-78197330D01*
X113525566Y-78220779D01*
X113523766Y-78257418D01*
X113536000Y-78381637D01*
X113536000Y-78879884D01*
X113521531Y-79026790D01*
X113464348Y-79215297D01*
X113371491Y-79389020D01*
X113246528Y-79541288D01*
X113094258Y-79666253D01*
X112920539Y-79759107D01*
X112920536Y-79759108D01*
X112920534Y-79759109D01*
X112732033Y-79816290D01*
X112732032Y-79816290D01*
X112732029Y-79816291D01*
X112536000Y-79835598D01*
X112339970Y-79816291D01*
X112339967Y-79816290D01*
X112339966Y-79816290D01*
X112151465Y-79759109D01*
X112077455Y-79719550D01*
X111977740Y-79666251D01*
X111825472Y-79541288D01*
X111700507Y-79389018D01*
X111607653Y-79215299D01*
X111550471Y-79026794D01*
X111550470Y-79026793D01*
X111550470Y-79026792D01*
X111550469Y-79026789D01*
X111536000Y-78879883D01*
X111536000Y-78381636D01*
X111550469Y-78234730D01*
X111584493Y-78122568D01*
X111607651Y-78046225D01*
X111631701Y-78001231D01*
X111700509Y-77872501D01*
X111825473Y-77720232D01*
X111977741Y-77595269D01*
X112151464Y-77502412D01*
X112151466Y-77502411D01*
X112339967Y-77445230D01*
X112339968Y-77445230D01*
X112339971Y-77445229D01*
X112536000Y-77425922D01*
X112732030Y-77445229D01*
X112732033Y-77445230D01*
X112732034Y-77445230D01*
X112920535Y-77502411D01*
X112920537Y-77502412D01*
X113094260Y-77595269D01*
X113246528Y-77720232D01*
X113371493Y-77872502D01*
X113375029Y-77879118D01*
X113388643Y-77899493D01*
X113405970Y-77916820D01*
X113426344Y-77930434D01*
X113448983Y-77939811D01*
X113473017Y-77944592D01*
X113497521Y-77944592D01*
X113521554Y-77939812D01*
X113544193Y-77930434D01*
X113564568Y-77916820D01*
X113581895Y-77899493D01*
X113595509Y-77879119D01*
X113604886Y-77856480D01*
X113609667Y-77832446D01*
X113609667Y-77807942D01*
X113607867Y-77795807D01*
X113591960Y-77715838D01*
X113591960Y-77504082D01*
X113633272Y-77296394D01*
X113714307Y-77100757D01*
X113831955Y-76924685D01*
X113981685Y-76774955D01*
X114157757Y-76657307D01*
X114353394Y-76576272D01*
X114561082Y-76534960D01*
X114772838Y-76534960D01*
X114980526Y-76576272D01*
X114980526Y-76576272D01*
G37*
G36*
X158536894Y-75500370D02*
X158536896Y-75500371D01*
X158536897Y-75500371D01*
X158936161Y-75665751D01*
X159295490Y-75905847D01*
X159601073Y-76211430D01*
X159841169Y-76570759D01*
X159996692Y-76946227D01*
X160006550Y-76970026D01*
X160090860Y-77393878D01*
X160090860Y-77826042D01*
X160017006Y-78197330D01*
X160006549Y-78249897D01*
X159841169Y-78649161D01*
X159601073Y-79008490D01*
X159295490Y-79314073D01*
X158936161Y-79554169D01*
X158536897Y-79719549D01*
X158536896Y-79719549D01*
X158536894Y-79719550D01*
X158113042Y-79803860D01*
X157680878Y-79803860D01*
X157257026Y-79719550D01*
X157257024Y-79719549D01*
X157257023Y-79719549D01*
X156857759Y-79554169D01*
X156498430Y-79314073D01*
X156192847Y-79008490D01*
X155952751Y-78649161D01*
X155787371Y-78249897D01*
X155776915Y-78197330D01*
X155703060Y-77826042D01*
X155703060Y-77393878D01*
X155787370Y-76970026D01*
X155797228Y-76946227D01*
X155952751Y-76570759D01*
X156192847Y-76211430D01*
X156498430Y-75905847D01*
X156857759Y-75665751D01*
X157257023Y-75500371D01*
X157257024Y-75500371D01*
X157257026Y-75500370D01*
X157680878Y-75416060D01*
X158113042Y-75416060D01*
X158536894Y-75500370D01*
X158536894Y-75500370D01*
G37*
G36*
X139486894Y-75500370D02*
X139486896Y-75500371D01*
X139486897Y-75500371D01*
X139886161Y-75665751D01*
X140245490Y-75905847D01*
X140551073Y-76211430D01*
X140791169Y-76570759D01*
X140946692Y-76946227D01*
X140956550Y-76970026D01*
X141040860Y-77393878D01*
X141040860Y-77826042D01*
X140967006Y-78197330D01*
X140956549Y-78249897D01*
X140791169Y-78649161D01*
X140551073Y-79008490D01*
X140245490Y-79314073D01*
X139886161Y-79554169D01*
X139486897Y-79719549D01*
X139486896Y-79719549D01*
X139486894Y-79719550D01*
X139063042Y-79803860D01*
X138630878Y-79803860D01*
X138207026Y-79719550D01*
X138207024Y-79719549D01*
X138207023Y-79719549D01*
X137807759Y-79554169D01*
X137448430Y-79314073D01*
X137142847Y-79008490D01*
X136902751Y-78649161D01*
X136737371Y-78249897D01*
X136726915Y-78197330D01*
X136653060Y-77826042D01*
X136653060Y-77393878D01*
X136737370Y-76970026D01*
X136747228Y-76946227D01*
X136902751Y-76570759D01*
X137142847Y-76211430D01*
X137448430Y-75905847D01*
X137807759Y-75665751D01*
X138207023Y-75500371D01*
X138207024Y-75500371D01*
X138207026Y-75500370D01*
X138630878Y-75416060D01*
X139063042Y-75416060D01*
X139486894Y-75500370D01*
X139486894Y-75500370D01*
G37*
G36*
X120386894Y-75500370D02*
X120386896Y-75500371D01*
X120386897Y-75500371D01*
X120786161Y-75665751D01*
X121145490Y-75905847D01*
X121451073Y-76211430D01*
X121691169Y-76570759D01*
X121846692Y-76946227D01*
X121856550Y-76970026D01*
X121940860Y-77393878D01*
X121940860Y-77826042D01*
X121867006Y-78197330D01*
X121856549Y-78249897D01*
X121691169Y-78649161D01*
X121451073Y-79008490D01*
X121145490Y-79314073D01*
X120786161Y-79554169D01*
X120386897Y-79719549D01*
X120386896Y-79719549D01*
X120386894Y-79719550D01*
X119963042Y-79803860D01*
X119530878Y-79803860D01*
X119107026Y-79719550D01*
X119107024Y-79719549D01*
X119107023Y-79719549D01*
X118707759Y-79554169D01*
X118348430Y-79314073D01*
X118042847Y-79008490D01*
X117802751Y-78649161D01*
X117637371Y-78249897D01*
X117626915Y-78197330D01*
X117553060Y-77826042D01*
X117553060Y-77393878D01*
X117637370Y-76970026D01*
X117647228Y-76946227D01*
X117802751Y-76570759D01*
X118042847Y-76211430D01*
X118348430Y-75905847D01*
X118707759Y-75665751D01*
X119107023Y-75500371D01*
X119107024Y-75500371D01*
X119107026Y-75500370D01*
X119530878Y-75416060D01*
X119963042Y-75416060D01*
X120386894Y-75500370D01*
X120386894Y-75500370D01*
G37*
G36*
X101334894Y-75500370D02*
X101334896Y-75500371D01*
X101334897Y-75500371D01*
X101734161Y-75665751D01*
X102093490Y-75905847D01*
X102399073Y-76211430D01*
X102639169Y-76570759D01*
X102794692Y-76946227D01*
X102804550Y-76970026D01*
X102888860Y-77393878D01*
X102888860Y-77826042D01*
X102815006Y-78197330D01*
X102804549Y-78249897D01*
X102639169Y-78649161D01*
X102399073Y-79008490D01*
X102093490Y-79314073D01*
X101734161Y-79554169D01*
X101334897Y-79719549D01*
X101334896Y-79719549D01*
X101334894Y-79719550D01*
X100911042Y-79803860D01*
X100478878Y-79803860D01*
X100055026Y-79719550D01*
X100055024Y-79719549D01*
X100055023Y-79719549D01*
X99655759Y-79554169D01*
X99296430Y-79314073D01*
X98990847Y-79008490D01*
X98750751Y-78649161D01*
X98585371Y-78249897D01*
X98574915Y-78197330D01*
X98501060Y-77826042D01*
X98501060Y-77393878D01*
X98585370Y-76970026D01*
X98595228Y-76946227D01*
X98750751Y-76570759D01*
X98990847Y-76211430D01*
X99296430Y-75905847D01*
X99655759Y-75665751D01*
X100055023Y-75500371D01*
X100055024Y-75500371D01*
X100055026Y-75500370D01*
X100478878Y-75416060D01*
X100911042Y-75416060D01*
X101334894Y-75500370D01*
X101334894Y-75500370D01*
G37*
G36*
X177586894Y-75500370D02*
X177586896Y-75500371D01*
X177586897Y-75500371D01*
X177986161Y-75665751D01*
X178345490Y-75905847D01*
X178651073Y-76211430D01*
X178891169Y-76570759D01*
X179046692Y-76946227D01*
X179056550Y-76970026D01*
X179140860Y-77393878D01*
X179140860Y-77826042D01*
X179067006Y-78197330D01*
X179056549Y-78249897D01*
X178891169Y-78649161D01*
X178651073Y-79008490D01*
X178345490Y-79314073D01*
X177986161Y-79554169D01*
X177586897Y-79719549D01*
X177586896Y-79719549D01*
X177586894Y-79719550D01*
X177163042Y-79803860D01*
X176730878Y-79803860D01*
X176307026Y-79719550D01*
X176307024Y-79719549D01*
X176307023Y-79719549D01*
X175907759Y-79554169D01*
X175548430Y-79314073D01*
X175242847Y-79008490D01*
X175002751Y-78649161D01*
X174837371Y-78249897D01*
X174826915Y-78197330D01*
X174753060Y-77826042D01*
X174753060Y-77393878D01*
X174837370Y-76970026D01*
X174847228Y-76946227D01*
X175002751Y-76570759D01*
X175242847Y-76211430D01*
X175548430Y-75905847D01*
X175907759Y-75665751D01*
X176307023Y-75500371D01*
X176307024Y-75500371D01*
X176307026Y-75500370D01*
X176730878Y-75416060D01*
X177163042Y-75416060D01*
X177586894Y-75500370D01*
X177586894Y-75500370D01*
G37*
G36*
X201386894Y-75500370D02*
X201386896Y-75500371D01*
X201386897Y-75500371D01*
X201786161Y-75665751D01*
X202145490Y-75905847D01*
X202451073Y-76211430D01*
X202691169Y-76570759D01*
X202846692Y-76946227D01*
X202856550Y-76970026D01*
X202940860Y-77393878D01*
X202940860Y-77826042D01*
X202867006Y-78197330D01*
X202856549Y-78249897D01*
X202691169Y-78649161D01*
X202451073Y-79008490D01*
X202145490Y-79314073D01*
X201786161Y-79554169D01*
X201386897Y-79719549D01*
X201386896Y-79719549D01*
X201386894Y-79719550D01*
X200963042Y-79803860D01*
X200530878Y-79803860D01*
X200107026Y-79719550D01*
X200107024Y-79719549D01*
X200107023Y-79719549D01*
X199707759Y-79554169D01*
X199348430Y-79314073D01*
X199042847Y-79008490D01*
X198802751Y-78649161D01*
X198637371Y-78249897D01*
X198626915Y-78197330D01*
X198553060Y-77826042D01*
X198553060Y-77393878D01*
X198637370Y-76970026D01*
X198647228Y-76946227D01*
X198802751Y-76570759D01*
X199042847Y-76211430D01*
X199348430Y-75905847D01*
X199707759Y-75665751D01*
X200107023Y-75500371D01*
X200107024Y-75500371D01*
X200107026Y-75500370D01*
X200530878Y-75416060D01*
X200963042Y-75416060D01*
X201386894Y-75500370D01*
X201386894Y-75500370D01*
G37*
G36*
X108132030Y-76345229D02*
X108132033Y-76345230D01*
X108132034Y-76345230D01*
X108320535Y-76402411D01*
X108320537Y-76402412D01*
X108494260Y-76495269D01*
X108646528Y-76620232D01*
X108771493Y-76772502D01*
X108852836Y-76924685D01*
X108864349Y-76946225D01*
X108921530Y-77134727D01*
X108921531Y-77134731D01*
X108936000Y-77281637D01*
X108936000Y-77779884D01*
X108921531Y-77926790D01*
X108921530Y-77926793D01*
X108921530Y-77926794D01*
X108880646Y-78061572D01*
X108864348Y-78115297D01*
X108771491Y-78289020D01*
X108646528Y-78441288D01*
X108494258Y-78566253D01*
X108320539Y-78659107D01*
X108320536Y-78659108D01*
X108320534Y-78659109D01*
X108132033Y-78716290D01*
X108132032Y-78716290D01*
X108132029Y-78716291D01*
X107936000Y-78735598D01*
X107739970Y-78716291D01*
X107739967Y-78716290D01*
X107739966Y-78716290D01*
X107551465Y-78659109D01*
X107532855Y-78649162D01*
X107377740Y-78566251D01*
X107225472Y-78441288D01*
X107100507Y-78289018D01*
X107007652Y-78115298D01*
X106991355Y-78061572D01*
X106981978Y-78038933D01*
X106968364Y-78018558D01*
X106951037Y-78001231D01*
X106930662Y-77987617D01*
X106908023Y-77978240D01*
X106883990Y-77973459D01*
X106859486Y-77973459D01*
X106835452Y-77978239D01*
X106812813Y-77987616D01*
X106792438Y-78001230D01*
X106775111Y-78018557D01*
X106761497Y-78038932D01*
X106756252Y-78050021D01*
X106727612Y-78119164D01*
X106609965Y-78295235D01*
X106460235Y-78444965D01*
X106284163Y-78562613D01*
X106088526Y-78643648D01*
X105880838Y-78684960D01*
X105669082Y-78684960D01*
X105461394Y-78643648D01*
X105265757Y-78562613D01*
X105089685Y-78444965D01*
X104939955Y-78295235D01*
X104822307Y-78119163D01*
X104741272Y-77923526D01*
X104699960Y-77715838D01*
X104699960Y-77504082D01*
X104741272Y-77296394D01*
X104822307Y-77100757D01*
X104939955Y-76924685D01*
X105089685Y-76774955D01*
X105265757Y-76657307D01*
X105461394Y-76576272D01*
X105669082Y-76534960D01*
X105880838Y-76534960D01*
X106088526Y-76576272D01*
X106284163Y-76657307D01*
X106460235Y-76774955D01*
X106609965Y-76924685D01*
X106727613Y-77100757D01*
X106728513Y-77102931D01*
X106740063Y-77124543D01*
X106755608Y-77143485D01*
X106774550Y-77159031D01*
X106796161Y-77170583D01*
X106819609Y-77177697D01*
X106843996Y-77180099D01*
X106868382Y-77177698D01*
X106891831Y-77170585D01*
X106913443Y-77159035D01*
X106932385Y-77143490D01*
X106947931Y-77124548D01*
X106959483Y-77102937D01*
X106963616Y-77091385D01*
X107007650Y-76946227D01*
X107100509Y-76772501D01*
X107225473Y-76620232D01*
X107377741Y-76495269D01*
X107551464Y-76402412D01*
X107551466Y-76402411D01*
X107739967Y-76345230D01*
X107739968Y-76345230D01*
X107739971Y-76345229D01*
X107936000Y-76325922D01*
X108132030Y-76345229D01*
X108132030Y-76345229D01*
G37*
G36*
X125140526Y-76576272D02*
X125336163Y-76657307D01*
X125512235Y-76774955D01*
X125661965Y-76924685D01*
X125779613Y-77100757D01*
X125860648Y-77296394D01*
X125901960Y-77504082D01*
X125901960Y-77715838D01*
X125860648Y-77923526D01*
X125779613Y-78119163D01*
X125661965Y-78295235D01*
X125512235Y-78444965D01*
X125336163Y-78562613D01*
X125140526Y-78643648D01*
X124932838Y-78684960D01*
X124721082Y-78684960D01*
X124513394Y-78643648D01*
X124317757Y-78562613D01*
X124141685Y-78444965D01*
X123991955Y-78295235D01*
X123874307Y-78119163D01*
X123793272Y-77923526D01*
X123751960Y-77715838D01*
X123751960Y-77504082D01*
X123793272Y-77296394D01*
X123874307Y-77100757D01*
X123991955Y-76924685D01*
X124141685Y-76774955D01*
X124317757Y-76657307D01*
X124513394Y-76576272D01*
X124721082Y-76534960D01*
X124932838Y-76534960D01*
X125140526Y-76576272D01*
X125140526Y-76576272D01*
G37*
G36*
X134080526Y-76576272D02*
X134276163Y-76657307D01*
X134452235Y-76774955D01*
X134601965Y-76924685D01*
X134719613Y-77100757D01*
X134800648Y-77296394D01*
X134841960Y-77504082D01*
X134841960Y-77715838D01*
X134800648Y-77923526D01*
X134719613Y-78119163D01*
X134601965Y-78295235D01*
X134452235Y-78444965D01*
X134276163Y-78562613D01*
X134080526Y-78643648D01*
X133872838Y-78684960D01*
X133661082Y-78684960D01*
X133453394Y-78643648D01*
X133257757Y-78562613D01*
X133081685Y-78444965D01*
X132931955Y-78295235D01*
X132814307Y-78119163D01*
X132733272Y-77923526D01*
X132691960Y-77715838D01*
X132691960Y-77504082D01*
X132733272Y-77296394D01*
X132814307Y-77100757D01*
X132931955Y-76924685D01*
X133081685Y-76774955D01*
X133257757Y-76657307D01*
X133453394Y-76576272D01*
X133661082Y-76534960D01*
X133872838Y-76534960D01*
X134080526Y-76576272D01*
X134080526Y-76576272D01*
G37*
G36*
X144240526Y-76576272D02*
X144436163Y-76657307D01*
X144612235Y-76774955D01*
X144761965Y-76924685D01*
X144879613Y-77100757D01*
X144960648Y-77296394D01*
X145001960Y-77504082D01*
X145001960Y-77715838D01*
X144960648Y-77923526D01*
X144879613Y-78119163D01*
X144761965Y-78295235D01*
X144612235Y-78444965D01*
X144436163Y-78562613D01*
X144240526Y-78643648D01*
X144032838Y-78684960D01*
X143821082Y-78684960D01*
X143613394Y-78643648D01*
X143417757Y-78562613D01*
X143241685Y-78444965D01*
X143091955Y-78295235D01*
X142974307Y-78119163D01*
X142893272Y-77923526D01*
X142851960Y-77715838D01*
X142851960Y-77504082D01*
X142893272Y-77296394D01*
X142974307Y-77100757D01*
X143091955Y-76924685D01*
X143241685Y-76774955D01*
X143417757Y-76657307D01*
X143613394Y-76576272D01*
X143821082Y-76534960D01*
X144032838Y-76534960D01*
X144240526Y-76576272D01*
X144240526Y-76576272D01*
G37*
G36*
X153130526Y-76576272D02*
X153326163Y-76657307D01*
X153502235Y-76774955D01*
X153651965Y-76924685D01*
X153769613Y-77100757D01*
X153850648Y-77296394D01*
X153891960Y-77504082D01*
X153891960Y-77715838D01*
X153850648Y-77923526D01*
X153769613Y-78119163D01*
X153651965Y-78295235D01*
X153502235Y-78444965D01*
X153326163Y-78562613D01*
X153130526Y-78643648D01*
X152922838Y-78684960D01*
X152711082Y-78684960D01*
X152503394Y-78643648D01*
X152307757Y-78562613D01*
X152131685Y-78444965D01*
X151981955Y-78295235D01*
X151864307Y-78119163D01*
X151783272Y-77923526D01*
X151741960Y-77715838D01*
X151741960Y-77504082D01*
X151783272Y-77296394D01*
X151864307Y-77100757D01*
X151981955Y-76924685D01*
X152131685Y-76774955D01*
X152307757Y-76657307D01*
X152503394Y-76576272D01*
X152711082Y-76534960D01*
X152922838Y-76534960D01*
X153130526Y-76576272D01*
X153130526Y-76576272D01*
G37*
G36*
X163290526Y-76576272D02*
X163486163Y-76657307D01*
X163662235Y-76774955D01*
X163811965Y-76924685D01*
X163929613Y-77100757D01*
X164010648Y-77296394D01*
X164051960Y-77504082D01*
X164051960Y-77715838D01*
X164010648Y-77923526D01*
X163929613Y-78119163D01*
X163811965Y-78295235D01*
X163662235Y-78444965D01*
X163486163Y-78562613D01*
X163290526Y-78643648D01*
X163082838Y-78684960D01*
X162871082Y-78684960D01*
X162663394Y-78643648D01*
X162467757Y-78562613D01*
X162291685Y-78444965D01*
X162141955Y-78295235D01*
X162024307Y-78119163D01*
X161943272Y-77923526D01*
X161901960Y-77715838D01*
X161901960Y-77504082D01*
X161943272Y-77296394D01*
X162024307Y-77100757D01*
X162141955Y-76924685D01*
X162291685Y-76774955D01*
X162467757Y-76657307D01*
X162663394Y-76576272D01*
X162871082Y-76534960D01*
X163082838Y-76534960D01*
X163290526Y-76576272D01*
X163290526Y-76576272D01*
G37*
G36*
X172180526Y-76576272D02*
X172376163Y-76657307D01*
X172552235Y-76774955D01*
X172701965Y-76924685D01*
X172819613Y-77100757D01*
X172900648Y-77296394D01*
X172941960Y-77504082D01*
X172941960Y-77715838D01*
X172900648Y-77923526D01*
X172819613Y-78119163D01*
X172701965Y-78295235D01*
X172552235Y-78444965D01*
X172376163Y-78562613D01*
X172180526Y-78643648D01*
X171972838Y-78684960D01*
X171761082Y-78684960D01*
X171553394Y-78643648D01*
X171357757Y-78562613D01*
X171181685Y-78444965D01*
X171031955Y-78295235D01*
X170914307Y-78119163D01*
X170833272Y-77923526D01*
X170791960Y-77715838D01*
X170791960Y-77504082D01*
X170833272Y-77296394D01*
X170914307Y-77100757D01*
X171031955Y-76924685D01*
X171181685Y-76774955D01*
X171357757Y-76657307D01*
X171553394Y-76576272D01*
X171761082Y-76534960D01*
X171972838Y-76534960D01*
X172180526Y-76576272D01*
X172180526Y-76576272D01*
G37*
G36*
X182340526Y-76576272D02*
X182536163Y-76657307D01*
X182712235Y-76774955D01*
X182861965Y-76924685D01*
X182979613Y-77100757D01*
X183060648Y-77296394D01*
X183101960Y-77504082D01*
X183101960Y-77715838D01*
X183060648Y-77923526D01*
X182979613Y-78119163D01*
X182861965Y-78295235D01*
X182712235Y-78444965D01*
X182536163Y-78562613D01*
X182340526Y-78643648D01*
X182132838Y-78684960D01*
X181921082Y-78684960D01*
X181713394Y-78643648D01*
X181517757Y-78562613D01*
X181341685Y-78444965D01*
X181191955Y-78295235D01*
X181074307Y-78119163D01*
X180993272Y-77923526D01*
X180951960Y-77715838D01*
X180951960Y-77504082D01*
X180993272Y-77296394D01*
X181074307Y-77100757D01*
X181191955Y-76924685D01*
X181341685Y-76774955D01*
X181517757Y-76657307D01*
X181713394Y-76576272D01*
X181921082Y-76534960D01*
X182132838Y-76534960D01*
X182340526Y-76576272D01*
X182340526Y-76576272D01*
G37*
G36*
X195980526Y-76576272D02*
X196176163Y-76657307D01*
X196352235Y-76774955D01*
X196501965Y-76924685D01*
X196619613Y-77100757D01*
X196700648Y-77296394D01*
X196741960Y-77504082D01*
X196741960Y-77715838D01*
X196700648Y-77923526D01*
X196619613Y-78119163D01*
X196501965Y-78295235D01*
X196352235Y-78444965D01*
X196176163Y-78562613D01*
X195980526Y-78643648D01*
X195772838Y-78684960D01*
X195561082Y-78684960D01*
X195353394Y-78643648D01*
X195157757Y-78562613D01*
X194981685Y-78444965D01*
X194831955Y-78295235D01*
X194714307Y-78119163D01*
X194633272Y-77923526D01*
X194591960Y-77715838D01*
X194591960Y-77504082D01*
X194633272Y-77296394D01*
X194714307Y-77100757D01*
X194831955Y-76924685D01*
X194981685Y-76774955D01*
X195157757Y-76657307D01*
X195353394Y-76576272D01*
X195561082Y-76534960D01*
X195772838Y-76534960D01*
X195980526Y-76576272D01*
X195980526Y-76576272D01*
G37*
G36*
X206140526Y-76576272D02*
X206336163Y-76657307D01*
X206512235Y-76774955D01*
X206661965Y-76924685D01*
X206779613Y-77100757D01*
X206860648Y-77296394D01*
X206901960Y-77504082D01*
X206901960Y-77715838D01*
X206860648Y-77923526D01*
X206779613Y-78119163D01*
X206661965Y-78295235D01*
X206512235Y-78444965D01*
X206336163Y-78562613D01*
X206140526Y-78643648D01*
X205932838Y-78684960D01*
X205721082Y-78684960D01*
X205513394Y-78643648D01*
X205317757Y-78562613D01*
X205141685Y-78444965D01*
X204991955Y-78295235D01*
X204874307Y-78119163D01*
X204793272Y-77923526D01*
X204751960Y-77715838D01*
X204751960Y-77504082D01*
X204793272Y-77296394D01*
X204874307Y-77100757D01*
X204991955Y-76924685D01*
X205141685Y-76774955D01*
X205317757Y-76657307D01*
X205513394Y-76576272D01*
X205721082Y-76534960D01*
X205932838Y-76534960D01*
X206140526Y-76576272D01*
X206140526Y-76576272D01*
G37*
G36*
X95928526Y-76576272D02*
X96124163Y-76657307D01*
X96300235Y-76774955D01*
X96449965Y-76924685D01*
X96567613Y-77100757D01*
X96648648Y-77296394D01*
X96689960Y-77504082D01*
X96689960Y-77715838D01*
X96648648Y-77923526D01*
X96567613Y-78119163D01*
X96449965Y-78295235D01*
X96300235Y-78444965D01*
X96124163Y-78562613D01*
X95928526Y-78643648D01*
X95720838Y-78684960D01*
X95509082Y-78684960D01*
X95301394Y-78643648D01*
X95105757Y-78562613D01*
X94929685Y-78444965D01*
X94779955Y-78295235D01*
X94662307Y-78119163D01*
X94581272Y-77923526D01*
X94539960Y-77715838D01*
X94539960Y-77504082D01*
X94581272Y-77296394D01*
X94662307Y-77100757D01*
X94779955Y-76924685D01*
X94929685Y-76774955D01*
X95105757Y-76657307D01*
X95301394Y-76576272D01*
X95509082Y-76534960D01*
X95720838Y-76534960D01*
X95928526Y-76576272D01*
X95928526Y-76576272D01*
G37*
G36*
X110411012Y-75353817D02*
X110520207Y-75399047D01*
X110618481Y-75464712D01*
X110702048Y-75548279D01*
X110767713Y-75646553D01*
X110812943Y-75755748D01*
X110836000Y-75871664D01*
X110836000Y-75989856D01*
X110812943Y-76105772D01*
X110767713Y-76214967D01*
X110702048Y-76313241D01*
X110618481Y-76396808D01*
X110520207Y-76462473D01*
X110411012Y-76507703D01*
X110295096Y-76530760D01*
X110176904Y-76530760D01*
X110060988Y-76507703D01*
X109951793Y-76462473D01*
X109853519Y-76396808D01*
X109769952Y-76313241D01*
X109704287Y-76214967D01*
X109659057Y-76105772D01*
X109636000Y-75989856D01*
X109636000Y-75871664D01*
X109659057Y-75755748D01*
X109704287Y-75646553D01*
X109769952Y-75548279D01*
X109853519Y-75464712D01*
X109951793Y-75399047D01*
X110060988Y-75353817D01*
X110176904Y-75330760D01*
X110295096Y-75330760D01*
X110411012Y-75353817D01*
X110411012Y-75353817D01*
G37*
G36*
X108132030Y-72345229D02*
X108132033Y-72345230D01*
X108132034Y-72345230D01*
X108320535Y-72402411D01*
X108320537Y-72402412D01*
X108494260Y-72495269D01*
X108646528Y-72620232D01*
X108771493Y-72772502D01*
X108783705Y-72795350D01*
X108864349Y-72946225D01*
X108921530Y-73134727D01*
X108921531Y-73134731D01*
X108936000Y-73281637D01*
X108936000Y-73779884D01*
X108921531Y-73926790D01*
X108864348Y-74115297D01*
X108771491Y-74289020D01*
X108646528Y-74441288D01*
X108494258Y-74566253D01*
X108320539Y-74659107D01*
X108320536Y-74659108D01*
X108320534Y-74659109D01*
X108132033Y-74716290D01*
X108132032Y-74716290D01*
X108132029Y-74716291D01*
X107936000Y-74735598D01*
X107739970Y-74716291D01*
X107739967Y-74716290D01*
X107739966Y-74716290D01*
X107551465Y-74659109D01*
X107377742Y-74566252D01*
X107377740Y-74566251D01*
X107225472Y-74441288D01*
X107100507Y-74289018D01*
X107007653Y-74115299D01*
X106950471Y-73926794D01*
X106950470Y-73926793D01*
X106950470Y-73926792D01*
X106950469Y-73926789D01*
X106936000Y-73779883D01*
X106936000Y-73281636D01*
X106950469Y-73134730D01*
X106990924Y-73001367D01*
X107007651Y-72946225D01*
X107088296Y-72795350D01*
X107100509Y-72772501D01*
X107225473Y-72620232D01*
X107377741Y-72495269D01*
X107551464Y-72402412D01*
X107551466Y-72402411D01*
X107739967Y-72345230D01*
X107739968Y-72345230D01*
X107739971Y-72345229D01*
X107936000Y-72325922D01*
X108132030Y-72345229D01*
X108132030Y-72345229D01*
G37*
G36*
X193877723Y-70508108D02*
X194009674Y-70548135D01*
X194131280Y-70613135D01*
X194237869Y-70700610D01*
X194325345Y-70807199D01*
X194390345Y-70928805D01*
X194430372Y-71060756D01*
X194440500Y-71163590D01*
X194440500Y-72332370D01*
X194430372Y-72435204D01*
X194390345Y-72567155D01*
X194325345Y-72688761D01*
X194237870Y-72795350D01*
X194131281Y-72882825D01*
X194009675Y-72947825D01*
X193877724Y-72987852D01*
X193740500Y-73001367D01*
X193603277Y-72987852D01*
X193471326Y-72947825D01*
X193349720Y-72882825D01*
X193243131Y-72795350D01*
X193155656Y-72688761D01*
X193090656Y-72567155D01*
X193050629Y-72435204D01*
X193040501Y-72332370D01*
X193040500Y-71455912D01*
X193038098Y-71431526D01*
X193030985Y-71408076D01*
X193019434Y-71386466D01*
X193003888Y-71367524D01*
X192984946Y-71351978D01*
X192963335Y-71340427D01*
X192939886Y-71333314D01*
X192915500Y-71330912D01*
X192891114Y-71333314D01*
X192867664Y-71340427D01*
X192846054Y-71351978D01*
X192827112Y-71367524D01*
X192811566Y-71386466D01*
X192800016Y-71408073D01*
X192775749Y-71466661D01*
X192718552Y-71552262D01*
X192718292Y-71552651D01*
X192645171Y-71625772D01*
X192645168Y-71625774D01*
X192559181Y-71683229D01*
X192463637Y-71722804D01*
X192463636Y-71722804D01*
X192463634Y-71722805D01*
X192362209Y-71742980D01*
X192258791Y-71742980D01*
X192157366Y-71722805D01*
X192157364Y-71722804D01*
X192157363Y-71722804D01*
X192061819Y-71683229D01*
X191975832Y-71625774D01*
X191975829Y-71625772D01*
X191902708Y-71552651D01*
X191902448Y-71552262D01*
X191845251Y-71466661D01*
X191805676Y-71371117D01*
X191797679Y-71330912D01*
X191785500Y-71269689D01*
X191785500Y-71166271D01*
X191805675Y-71064846D01*
X191807368Y-71060758D01*
X191845251Y-70969299D01*
X191902706Y-70883312D01*
X191902708Y-70883309D01*
X191975829Y-70810188D01*
X191980302Y-70807199D01*
X192061819Y-70752731D01*
X192157363Y-70713156D01*
X192157364Y-70713156D01*
X192157366Y-70713155D01*
X192258791Y-70692980D01*
X192362209Y-70692980D01*
X192463634Y-70713155D01*
X192463636Y-70713156D01*
X192463637Y-70713156D01*
X192559181Y-70752731D01*
X192640698Y-70807199D01*
X192645171Y-70810188D01*
X192718292Y-70883309D01*
X192718294Y-70883312D01*
X192775749Y-70969299D01*
X192813632Y-71060758D01*
X192816748Y-71068281D01*
X192828300Y-71089892D01*
X192843845Y-71108834D01*
X192862787Y-71124379D01*
X192884398Y-71135930D01*
X192907847Y-71143043D01*
X192932233Y-71145445D01*
X192956620Y-71143043D01*
X192980069Y-71135930D01*
X193001680Y-71124378D01*
X193020622Y-71108833D01*
X193036167Y-71089891D01*
X193051846Y-71056741D01*
X193090655Y-70928806D01*
X193155655Y-70807200D01*
X193243130Y-70700611D01*
X193349719Y-70613135D01*
X193471325Y-70548135D01*
X193603276Y-70508108D01*
X193740500Y-70494593D01*
X193877723Y-70508108D01*
X193877723Y-70508108D01*
G37*
G36*
X185237723Y-70508108D02*
X185369674Y-70548135D01*
X185491280Y-70613135D01*
X185597869Y-70700610D01*
X185685345Y-70807199D01*
X185750345Y-70928805D01*
X185789155Y-71056746D01*
X185798527Y-71079369D01*
X185812141Y-71099743D01*
X185829468Y-71117070D01*
X185849842Y-71130684D01*
X185872481Y-71140062D01*
X185896515Y-71144842D01*
X185921019Y-71144842D01*
X185945053Y-71140062D01*
X185967692Y-71130684D01*
X185988066Y-71117070D01*
X186005393Y-71099743D01*
X186024252Y-71068280D01*
X186035332Y-71041532D01*
X186065251Y-70969299D01*
X186122706Y-70883312D01*
X186122708Y-70883309D01*
X186195829Y-70810188D01*
X186200302Y-70807199D01*
X186281819Y-70752731D01*
X186377363Y-70713156D01*
X186377364Y-70713156D01*
X186377366Y-70713155D01*
X186478791Y-70692980D01*
X186582209Y-70692980D01*
X186683634Y-70713155D01*
X186683636Y-70713156D01*
X186683637Y-70713156D01*
X186779181Y-70752731D01*
X186860698Y-70807199D01*
X186865171Y-70810188D01*
X186938292Y-70883309D01*
X186938294Y-70883312D01*
X186995749Y-70969299D01*
X187033632Y-71060758D01*
X187035325Y-71064846D01*
X187055500Y-71166271D01*
X187055500Y-71269689D01*
X187043322Y-71330912D01*
X187035324Y-71371117D01*
X186995749Y-71466661D01*
X186938552Y-71552262D01*
X186938292Y-71552651D01*
X186865171Y-71625772D01*
X186865168Y-71625774D01*
X186779181Y-71683229D01*
X186683637Y-71722804D01*
X186683636Y-71722804D01*
X186683634Y-71722805D01*
X186582209Y-71742980D01*
X186478791Y-71742980D01*
X186377366Y-71722805D01*
X186377364Y-71722804D01*
X186377363Y-71722804D01*
X186281819Y-71683229D01*
X186195832Y-71625774D01*
X186195829Y-71625772D01*
X186122708Y-71552651D01*
X186122448Y-71552262D01*
X186065251Y-71466661D01*
X186040984Y-71408073D01*
X186029433Y-71386465D01*
X186013888Y-71367523D01*
X185994946Y-71351978D01*
X185973335Y-71340427D01*
X185949886Y-71333314D01*
X185925499Y-71330912D01*
X185901113Y-71333314D01*
X185877664Y-71340427D01*
X185856053Y-71351979D01*
X185837111Y-71367524D01*
X185821566Y-71386466D01*
X185810015Y-71408077D01*
X185802902Y-71431526D01*
X185800500Y-71455912D01*
X185800500Y-72332370D01*
X185790372Y-72435204D01*
X185750345Y-72567155D01*
X185685345Y-72688761D01*
X185597870Y-72795350D01*
X185491281Y-72882825D01*
X185369675Y-72947825D01*
X185237724Y-72987852D01*
X185100500Y-73001367D01*
X184963277Y-72987852D01*
X184831326Y-72947825D01*
X184709720Y-72882825D01*
X184603131Y-72795350D01*
X184515656Y-72688761D01*
X184450656Y-72567155D01*
X184410629Y-72435204D01*
X184400501Y-72332370D01*
X184400500Y-71163591D01*
X184410628Y-71060757D01*
X184450655Y-70928806D01*
X184515655Y-70807200D01*
X184603130Y-70700611D01*
X184709719Y-70613135D01*
X184831325Y-70548135D01*
X184963276Y-70508108D01*
X185100500Y-70494593D01*
X185237723Y-70508108D01*
X185237723Y-70508108D01*
G37*
G36*
X108132030Y-69345229D02*
X108132033Y-69345230D01*
X108132034Y-69345230D01*
X108320535Y-69402411D01*
X108320537Y-69402412D01*
X108494260Y-69495269D01*
X108646528Y-69620232D01*
X108771493Y-69772502D01*
X108864347Y-69946221D01*
X108864349Y-69946225D01*
X108921530Y-70134727D01*
X108921531Y-70134731D01*
X108936000Y-70281637D01*
X108936000Y-70779884D01*
X108921531Y-70926790D01*
X108921530Y-70926793D01*
X108921530Y-70926794D01*
X108869067Y-71099743D01*
X108864348Y-71115297D01*
X108771491Y-71289020D01*
X108646528Y-71441288D01*
X108494258Y-71566253D01*
X108320539Y-71659107D01*
X108320536Y-71659108D01*
X108320534Y-71659109D01*
X108132033Y-71716290D01*
X108132032Y-71716290D01*
X108132029Y-71716291D01*
X107936000Y-71735598D01*
X107739970Y-71716291D01*
X107739967Y-71716290D01*
X107739966Y-71716290D01*
X107551465Y-71659109D01*
X107377742Y-71566252D01*
X107377740Y-71566251D01*
X107225472Y-71441288D01*
X107100507Y-71289018D01*
X107007653Y-71115299D01*
X107005692Y-71108834D01*
X106950470Y-70926793D01*
X106950470Y-70926792D01*
X106950469Y-70926789D01*
X106936000Y-70779883D01*
X106936000Y-70281636D01*
X106950469Y-70134730D01*
X107007652Y-69946223D01*
X107100509Y-69772501D01*
X107225473Y-69620232D01*
X107377741Y-69495269D01*
X107551464Y-69402412D01*
X107551466Y-69402411D01*
X107739967Y-69345230D01*
X107739968Y-69345230D01*
X107739971Y-69345229D01*
X107936000Y-69325922D01*
X108132030Y-69345229D01*
X108132030Y-69345229D01*
G37*
G36*
X110411012Y-68353817D02*
X110520207Y-68399047D01*
X110618481Y-68464712D01*
X110702048Y-68548279D01*
X110767713Y-68646553D01*
X110812943Y-68755748D01*
X110836000Y-68871664D01*
X110836000Y-68989856D01*
X110812943Y-69105772D01*
X110767713Y-69214967D01*
X110702048Y-69313241D01*
X110618481Y-69396808D01*
X110520207Y-69462473D01*
X110411012Y-69507703D01*
X110295096Y-69530760D01*
X110176904Y-69530760D01*
X110060988Y-69507703D01*
X109951793Y-69462473D01*
X109853519Y-69396808D01*
X109769952Y-69313241D01*
X109704287Y-69214967D01*
X109659057Y-69105772D01*
X109636000Y-68989856D01*
X109636000Y-68871664D01*
X109659057Y-68755748D01*
X109704287Y-68646553D01*
X109769952Y-68548279D01*
X109853519Y-68464712D01*
X109951793Y-68399047D01*
X110060988Y-68353817D01*
X110176904Y-68330760D01*
X110295096Y-68330760D01*
X110411012Y-68353817D01*
X110411012Y-68353817D01*
G37*
G36*
X185237723Y-66578108D02*
X185369674Y-66618135D01*
X185491280Y-66683135D01*
X185597869Y-66770610D01*
X185685345Y-66877199D01*
X185750345Y-66998805D01*
X185790372Y-67130756D01*
X185800500Y-67233590D01*
X185800500Y-67902370D01*
X185790372Y-68005204D01*
X185750345Y-68137155D01*
X185685345Y-68258761D01*
X185597870Y-68365350D01*
X185491281Y-68452825D01*
X185369675Y-68517825D01*
X185237724Y-68557852D01*
X185100500Y-68571367D01*
X184963277Y-68557852D01*
X184831326Y-68517825D01*
X184709720Y-68452825D01*
X184603131Y-68365350D01*
X184515656Y-68258761D01*
X184450655Y-68137155D01*
X184410628Y-68005204D01*
X184400500Y-67902370D01*
X184400500Y-67233591D01*
X184410628Y-67130757D01*
X184450655Y-66998806D01*
X184515655Y-66877200D01*
X184603130Y-66770611D01*
X184709719Y-66683135D01*
X184831325Y-66618135D01*
X184963276Y-66578108D01*
X185100500Y-66564593D01*
X185237723Y-66578108D01*
X185237723Y-66578108D01*
G37*
G36*
X193877723Y-66578108D02*
X194009674Y-66618135D01*
X194131280Y-66683135D01*
X194237869Y-66770610D01*
X194325345Y-66877199D01*
X194390345Y-66998805D01*
X194430372Y-67130756D01*
X194440500Y-67233590D01*
X194440500Y-67902370D01*
X194430372Y-68005204D01*
X194390345Y-68137155D01*
X194325345Y-68258761D01*
X194237870Y-68365350D01*
X194131281Y-68452825D01*
X194009675Y-68517825D01*
X193877724Y-68557852D01*
X193740500Y-68571367D01*
X193603277Y-68557852D01*
X193471326Y-68517825D01*
X193349720Y-68452825D01*
X193243131Y-68365350D01*
X193155656Y-68258761D01*
X193090655Y-68137155D01*
X193050628Y-68005204D01*
X193040500Y-67902370D01*
X193040500Y-67233591D01*
X193050628Y-67130757D01*
X193090655Y-66998806D01*
X193155655Y-66877200D01*
X193243130Y-66770611D01*
X193349719Y-66683135D01*
X193471325Y-66618135D01*
X193603276Y-66578108D01*
X193740500Y-66564593D01*
X193877723Y-66578108D01*
X193877723Y-66578108D01*
G37*
M02*
