M48
; DRILL file {KiCad (6.0.0-rc1-dev-1291-g61b749f0b)} date 12/5/2018 8:39:06 PM
; FORMAT={-:-/ absolute / metric / decimal}
; #@! TF.CreationDate,2018-12-05T20:39:06+02:00
; #@! TF.GenerationSoftware,Kicad,Pcbnew,(6.0.0-rc1-dev-1291-g61b749f0b)
FMAT,2
METRIC
T1C0.400
T2C0.600
T3C0.800
T4C0.900
T5C1.040
T6C1.470
T7C0.650
T8C0.800
T9C1.750
T10C3.048
T11C3.988
%
G90
G05
T1
X97.688Y-83.82
X98.135Y-86.284
X98.532Y-128.077
X99.339Y-84.76
X99.822Y-71.882
X100.518Y-99.827
X100.543Y-80.325
X100.65Y-74.325
X101.219Y-103.48
X101.351Y-88.422
X101.676Y-140.767
X102.057Y-104.47
X102.235Y-102.768
X103.2Y-123.546
X104.038Y-80.34
X104.064Y-104.927
X105.41Y-108.077
X106.76Y-104.902
X107.808Y-137.018
X109.163Y-126.759
X109.626Y-99.365
X109.648Y-142.494
X111.531Y-93.675
X111.586Y-123.952
X112.339Y-104.785
X112.578Y-81.895
X113.543Y-136.241
X113.807Y-133.142
X114.346Y-126.858
X114.706Y-103.887
X114.844Y-94.361
X115.032Y-101.387
X115.037Y-118.694
X115.372Y-79.278
X116.129Y-112.573
X116.662Y-126.67
X117.221Y-87.732
X117.246Y-85.7
X117.323Y-100.889
X117.947Y-120.97
X118.994Y-127.01
X119.344Y-101.559
X119.35Y-141.473
X120.355Y-87.269
X120.411Y-120.99
X122.032Y-142.707
X123.342Y-85.446
X123.495Y-140.599
X123.947Y-136.825
X124.104Y-79.629
X124.877Y-127.452
X125.019Y-123.637
X126.009Y-74.549
X126.009Y-74.549
X126.009Y-74.549
X126.919Y-131.14
X129.235Y-99.593
X129.347Y-83.602
X129.52Y-136.642
X130.581Y-93.599
X131.013Y-85.966
X133.056Y-126.594
X133.883Y-118.491
X135.128Y-112.674
X135.199Y-83.972
X137.084Y-101.763
X141.549Y-120.68
X141.889Y-124.145
X143.734Y-139.954
X143.967Y-80.188
X144.958Y-74.6
X145.11Y-121.437
X147.193Y-124.257
X148.285Y-99.695
X149.657Y-93.701
X149.94Y-124.206
X150.297Y-82.601
X151.017Y-126.947
X151.983Y-139.289
X152.756Y-118.339
X153.467Y-121.417
X154.305Y-70.434
X154.305Y-112.674
X154.711Y-84.049
X156.291Y-102.093
X156.486Y-86.868
X159.156Y-86.817
X160.249Y-123.465
X160.325Y-126.822
X160.909Y-79.273
X161.102Y-84.775
X161.971Y-87.447
X163.17Y-81.966
X164.074Y-139.898
X164.164Y-104.902
X164.338Y-122.58
X165.414Y-79.066
X165.608Y-80.95
X166.421Y-83.124
X167.208Y-99.695
X167.523Y-101.996
X167.574Y-75.575
X167.726Y-83.784
X167.924Y-70.211
X168.783Y-93.624
X169.316Y-88.346
X169.484Y-72.106
X169.875Y-88.925
X170.358Y-89.56
X170.79Y-90.272
X170.891Y-87.132
X171.224Y-101.484
X171.374Y-87.859
X171.679Y-118.542
X171.983Y-88.519
X171.983Y-95.743
X171.983Y-98.527
X172.298Y-91.826
X172.568Y-89.103
X172.771Y-70.211
X173.558Y-83.21
X173.609Y-112.7
X174.122Y-92.578
X174.437Y-142.728
X174.483Y-70.211
X175.464Y-85.12
X175.727Y-89.505
X175.839Y-139.634
X176.428Y-88.113
X177.114Y-103.708
X177.114Y-103.708
X177.114Y-103.708
X177.785Y-88.621
X178.164Y-85.12
X178.562Y-112.7
X178.892Y-100.559
X179.07Y-80.848
X179.451Y-118.313
X179.679Y-127.439
X179.7Y-120.884
X180.061Y-84.557
X181.178Y-90.297
X181.463Y-84.933
X182.042Y-90.424
X182.321Y-74.803
X182.321Y-74.803
X182.321Y-74.803
X182.763Y-82.271
X182.997Y-139.558
X183.057Y-122.051
X183.21Y-88.712
X183.214Y-105.156
X184.958Y-75.113
X185.039Y-123.952
X185.293Y-79.558
X185.466Y-99.477
X185.852Y-126.365
X186.091Y-90.724
X186.436Y-101.219
X186.715Y-93.04
X186.817Y-84.75
X186.888Y-87.94
X186.944Y-83.134
X187.49Y-70.841
X187.681Y-92.939
X187.786Y-123.952
X188.112Y-76.606
X188.239Y-118.288
X188.874Y-93.091
X189.713Y-90.043
X190.5Y-90.043
X190.708Y-85.618
X191.094Y-78.135
X191.364Y-70.866
X191.452Y-102.908
X191.465Y-83.403
X191.506Y-87.391
X191.811Y-121.387
X192.613Y-85.263
X193.03Y-132.019
X193.187Y-73.604
X193.434Y-107.189
X193.98Y-76.022
X194.549Y-84.054
X194.864Y-87.559
X195.271Y-83.255
X195.986Y-69.748
X196.063Y-118.897
X197.505Y-78.364
X197.536Y-139.847
X197.886Y-123.571
X197.942Y-126.949
X198.222Y-107.189
X198.984Y-86.309
X200.325Y-107.005
X200.823Y-73.396
X202.786Y-142.494
X203.835Y-77.897
X204.376Y-105.156
X204.881Y-69.733
X205.435Y-142.494
X205.557Y-82.626
X206.842Y-102.189
X207.899Y-73.807
X208.382Y-118.516
X208.62Y-107.168
X208.712Y-100.989
X208.763Y-89.992
X209.723Y-75.905
X210.155Y-100.279
X210.835Y-95.651
X211.074Y-79.676
X211.15Y-93.64
X211.303Y-84.303
X211.658Y-76.032
X211.709Y-113.283
X211.78Y-117.892
X212.649Y-119.355
X212.852Y-103.099
X213.279Y-82.748
X214.097Y-103.886
X214.097Y-120.828
X214.163Y-75.519
T3
X210.928Y-87.389
X210.928Y-89.389
X210.928Y-91.389
X212.928Y-87.389
X212.928Y-89.389
X212.928Y-91.389
T5
X201.852Y-101.74
X204.392Y-101.74
X125.602Y-139.84
X128.142Y-139.84
X199.477Y-82.69
X202.017Y-82.69
X104.175Y-139.84
X106.715Y-139.84
X204.227Y-139.84
X206.767Y-139.84
X137.577Y-82.69
X140.117Y-82.69
X104.175Y-101.74
X106.715Y-101.74
X147.077Y-120.791
X149.617Y-120.791
X142.327Y-101.74
X144.867Y-101.74
X185.177Y-120.791
X187.717Y-120.791
X166.127Y-139.84
X168.667Y-139.84
X185.177Y-139.84
X187.717Y-139.84
X147.077Y-139.84
X149.617Y-139.84
X204.227Y-120.791
X206.767Y-120.791
X175.677Y-82.69
X178.217Y-82.69
X156.627Y-82.69
X159.167Y-82.69
X108.925Y-120.791
X111.465Y-120.791
X166.127Y-120.791
X168.667Y-120.791
X99.425Y-82.69
X101.965Y-82.69
X161.377Y-101.74
X163.917Y-101.74
X180.427Y-101.74
X182.967Y-101.74
X127.977Y-120.791
X130.517Y-120.791
X123.227Y-101.74
X125.767Y-101.74
X118.477Y-82.69
X121.017Y-82.69
X201.846Y-139.841
X204.386Y-139.841
X178.034Y-139.841
X180.574Y-139.841
X154.221Y-139.841
X156.761Y-139.841
X132.789Y-139.841
X135.329Y-139.841
X116.12Y-129.68
X118.66Y-129.68
X108.977Y-139.841
X111.517Y-139.841
T6
X199.312Y-94.12
X200.622Y-92.66
X205.622Y-92.16
X205.662Y-91.58
X123.062Y-132.22
X124.372Y-130.76
X129.372Y-130.26
X129.412Y-129.68
X196.937Y-75.07
X198.247Y-73.61
X203.247Y-73.11
X203.287Y-72.53
X101.635Y-132.22
X102.945Y-130.76
X107.945Y-130.26
X107.985Y-129.68
X201.687Y-132.22
X202.997Y-130.76
X207.997Y-130.26
X208.037Y-129.68
X135.037Y-75.07
X136.347Y-73.61
X141.347Y-73.11
X141.387Y-72.53
X101.635Y-94.12
X102.945Y-92.66
X107.945Y-92.16
X107.985Y-91.58
X144.537Y-113.171
X145.847Y-111.711
X150.847Y-111.211
X150.887Y-110.631
X139.787Y-94.12
X141.097Y-92.66
X146.097Y-92.16
X146.137Y-91.58
X182.637Y-113.171
X183.947Y-111.711
X188.947Y-111.211
X188.987Y-110.631
X163.587Y-132.22
X164.897Y-130.76
X169.897Y-130.26
X169.937Y-129.68
X182.637Y-132.22
X183.947Y-130.76
X188.947Y-130.26
X188.987Y-129.68
X144.537Y-132.22
X145.847Y-130.76
X150.847Y-130.26
X150.887Y-129.68
X201.687Y-113.171
X202.997Y-111.711
X207.997Y-111.211
X208.037Y-110.631
X173.137Y-75.07
X174.447Y-73.61
X179.447Y-73.11
X179.487Y-72.53
X154.087Y-75.07
X155.397Y-73.61
X160.397Y-73.11
X160.437Y-72.53
X106.385Y-113.171
X107.695Y-111.711
X112.695Y-111.211
X112.735Y-110.631
X163.587Y-113.171
X164.897Y-111.711
X169.897Y-111.211
X169.937Y-110.631
X96.885Y-75.07
X98.195Y-73.61
X103.195Y-73.11
X103.235Y-72.53
X158.837Y-94.12
X160.147Y-92.66
X165.147Y-92.16
X165.187Y-91.58
X177.887Y-94.12
X179.197Y-92.66
X184.197Y-92.16
X184.237Y-91.58
X125.437Y-113.171
X126.747Y-111.711
X131.747Y-111.211
X131.787Y-110.631
X120.687Y-94.12
X121.997Y-92.66
X126.997Y-92.16
X127.037Y-91.58
X115.937Y-75.07
X117.247Y-73.61
X122.247Y-73.11
X122.287Y-72.53
X199.306Y-132.221
X200.616Y-130.761
X205.616Y-130.261
X205.656Y-129.681
X175.494Y-132.221
X176.804Y-130.761
X181.804Y-130.261
X181.844Y-129.681
X151.681Y-132.221
X152.991Y-130.761
X157.991Y-130.261
X158.031Y-129.681
X130.249Y-132.221
X131.559Y-130.761
X136.559Y-130.261
X136.599Y-129.681
X114.85Y-139.84
X114.89Y-139.26
X119.89Y-138.76
X121.2Y-137.3
X106.437Y-132.221
X107.747Y-130.761
X112.747Y-130.261
X112.787Y-129.681
T7
X186.53Y-71.218
X192.31Y-71.218
T8
X110.236Y-68.931
X110.236Y-75.931
T9
X198.042Y-96.66
X208.202Y-96.66
X121.792Y-134.76
X131.952Y-134.76
X195.667Y-77.61
X205.827Y-77.61
X100.365Y-134.76
X110.525Y-134.76
X200.417Y-134.76
X210.577Y-134.76
X133.767Y-77.61
X143.927Y-77.61
X100.365Y-96.66
X110.525Y-96.66
X143.267Y-115.711
X153.427Y-115.711
X138.517Y-96.66
X148.677Y-96.66
X181.367Y-115.711
X191.527Y-115.711
X162.317Y-134.76
X172.477Y-134.76
X181.367Y-134.76
X191.527Y-134.76
X143.267Y-134.76
X153.427Y-134.76
X200.417Y-115.711
X210.577Y-115.711
X171.867Y-77.61
X182.027Y-77.61
X152.817Y-77.61
X162.977Y-77.61
X105.115Y-115.711
X115.275Y-115.711
X162.317Y-115.711
X172.477Y-115.711
X95.615Y-77.61
X105.775Y-77.61
X157.567Y-96.66
X167.727Y-96.66
X176.617Y-96.66
X186.777Y-96.66
X124.167Y-115.711
X134.327Y-115.711
X119.417Y-96.66
X129.577Y-96.66
X114.667Y-77.61
X124.827Y-77.61
X198.036Y-134.761
X208.196Y-134.761
X174.224Y-134.761
X184.384Y-134.761
X150.411Y-134.761
X160.571Y-134.761
X128.979Y-134.761
X139.139Y-134.761
X112.31Y-134.76
X122.47Y-134.76
X105.167Y-134.761
X115.327Y-134.761
T10
X105.452Y-141.745
X129.328Y-141.745
T11
X203.122Y-96.66
X126.872Y-134.76
X200.747Y-77.61
X105.445Y-134.76
X205.497Y-134.76
X138.847Y-77.61
X105.445Y-96.66
X148.347Y-115.711
X143.597Y-96.66
X186.447Y-115.711
X167.397Y-134.76
X186.447Y-134.76
X148.347Y-134.76
X205.497Y-115.711
X176.947Y-77.61
X157.897Y-77.61
X110.195Y-115.711
X167.397Y-115.711
X100.695Y-77.61
X162.647Y-96.66
X181.697Y-96.66
X129.247Y-115.711
X124.497Y-96.66
X119.747Y-77.61
X203.116Y-134.761
X179.304Y-134.761
X155.491Y-134.761
X134.059Y-134.761
X105.452Y-126.505
X117.39Y-134.76
X129.328Y-126.505
X110.247Y-134.761
T2
G00X185.1Y-67.268
M15
G01X185.1Y-67.868
M16
G05
G00X185.1Y-71.198
M15
G01X185.1Y-72.298
M16
G05
G00X193.74Y-67.268
M15
G01X193.74Y-67.868
M16
G05
G00X193.74Y-71.198
M15
G01X193.74Y-72.298
M16
G05
T4
G00X107.936Y-70.731
M15
G01X107.936Y-70.331
M16
G05
G00X107.936Y-73.731
M15
G01X107.936Y-73.331
M16
G05
G00X107.936Y-77.731
M15
G01X107.936Y-77.331
M16
G05
G00X112.536Y-78.831
M15
G01X112.536Y-78.431
M16
G05
T0
M30
