%TF.GenerationSoftware,KiCad,Pcbnew,(6.0.0-rc1-dev-1291-g61b749f0b)*%
%TF.CreationDate,2018-12-05T20:52:08+02:00*%
%TF.ProjectId,TS48_left,54533438-5f6c-4656-9674-2e6b69636164,rev?*%
%TF.SameCoordinates,Original*%
%TF.FileFunction,Profile,NP*%
%FSLAX46Y46*%
G04 Gerber Fmt 4.6, Leading zero omitted, Abs format (unit mm)*
G04 Created by KiCad (PCBNEW (6.0.0-rc1-dev-1291-g61b749f0b)) date 12/5/2018 8:52:08 PM*
%MOMM*%
%LPD*%
G01*
G04 APERTURE LIST*
%ADD10C,0.100000*%
G04 APERTURE END LIST*
D10*
X90995500Y-142938500D02*
X208153000Y-142938500D01*
X89979500Y-67627500D02*
X89979500Y-141922500D01*
X103886000Y-66611500D02*
X90995500Y-66611500D01*
X114173000Y-66611500D02*
X203390500Y-66611500D01*
X204406500Y-84645500D02*
X204406500Y-67627500D01*
X208153000Y-85661500D02*
X205422500Y-85661500D01*
X209169000Y-103695500D02*
X209169000Y-86677500D01*
X212915500Y-104711500D02*
X210185000Y-104711500D01*
X213931500Y-122872500D02*
X213931500Y-105727500D01*
X212915500Y-123888500D02*
X210185000Y-123888500D01*
X209169000Y-141922500D02*
X209169000Y-124904500D01*
X209169000Y-141922500D02*
G75*
G02X208151731Y-142939769I-1017269J0D01*
G01*
X90995500Y-142938500D02*
G75*
G02X89978231Y-141921231I0J1017269D01*
G01*
X89979500Y-67627500D02*
G75*
G02X90996769Y-66610231I1017269J0D01*
G01*
X114173000Y-66040000D02*
X114173000Y-66611500D01*
X104902000Y-65024000D02*
X113157000Y-65024000D01*
X103886000Y-66040000D02*
X103886000Y-66611500D01*
X103884731Y-66041269D02*
G75*
G02X104902000Y-65024000I1017269J0D01*
G01*
X113155731Y-65022731D02*
G75*
G02X114173000Y-66040000I0J-1017269D01*
G01*
X203389231Y-66610231D02*
G75*
G02X204406500Y-67627500I0J-1017269D01*
G01*
X205422500Y-85661500D02*
G75*
G02X204405231Y-84644231I0J1017269D01*
G01*
X208153000Y-85661500D02*
G75*
G02X209170269Y-86678769I0J-1017269D01*
G01*
X210185000Y-104711500D02*
G75*
G02X209167731Y-103694231I0J1017269D01*
G01*
X212915500Y-104711500D02*
G75*
G02X213932769Y-105728769I0J-1017269D01*
G01*
X209167731Y-124905769D02*
G75*
G02X210185000Y-123888500I1017269J0D01*
G01*
X213931500Y-122872500D02*
G75*
G02X212914231Y-123889769I-1017269J0D01*
G01*
M02*
