M48
; DRILL file {KiCad (6.0.0-rc1-dev-1291-g61b749f0b)} date 12/5/2018 8:52:06 PM
; FORMAT={-:-/ absolute / metric / decimal}
; #@! TF.CreationDate,2018-12-05T20:52:06+02:00
; #@! TF.GenerationSoftware,Kicad,Pcbnew,(6.0.0-rc1-dev-1291-g61b749f0b)
FMAT,2
METRIC
T1C0.400
T2C0.600
T3C0.900
T4C1.000
T5C1.040
T6C1.470
T7C0.650
T8C0.800
T9C1.750
T10C3.048
T11C3.988
%
G90
G05
T1
X92.253Y-68.925
X92.954Y-100.396
X93.741Y-113.299
X95.301Y-114.864
X95.758Y-71.628
X96.52Y-74.803
X96.55Y-110.917
X97.138Y-119.444
X97.295Y-68.466
X98.115Y-97.653
X98.445Y-106.949
X98.501Y-109.896
X98.923Y-100.223
X98.963Y-87.752
X99.43Y-68.453
X100.132Y-83.251
X100.584Y-103.505
X101.813Y-116.281
X102.616Y-72.072
X102.997Y-106.553
X103.124Y-97.82
X103.81Y-74.178
X104.17Y-72.39
X104.191Y-84.775
X104.968Y-106.157
X104.988Y-103.459
X105.415Y-87.173
X105.893Y-92.807
X105.923Y-98.547
X105.969Y-73.68
X106.258Y-77.328
X107.412Y-98.593
X107.422Y-68.605
X107.615Y-138.699
X107.645Y-115.794
X108.032Y-75.961
X108.14Y-82.947
X108.555Y-66.97
X108.565Y-103.348
X110.032Y-76.161
X110.109Y-82.964
X110.19Y-100.213
X111.264Y-110.409
X111.313Y-106.472
X111.349Y-105.024
X111.658Y-73.68
X111.827Y-108.891
X111.872Y-77.617
X111.887Y-75.565
X111.887Y-80.772
X112.428Y-108.29
X113.472Y-91.267
X113.65Y-72.989
X113.909Y-115.296
X113.949Y-110.815
X114.003Y-86.563
X114.122Y-106.502
X114.59Y-107.993
X114.747Y-74.026
X114.869Y-110.642
X115.125Y-71.501
X115.407Y-75.524
X115.57Y-104.267
X116.398Y-110.83
X116.459Y-102.616
X116.608Y-86.563
X117.119Y-83.998
X117.411Y-102.616
X117.536Y-124.201
X117.602Y-88.646
X117.792Y-110.617
X117.856Y-116.078
X118.364Y-68.453
X118.598Y-97.439
X118.618Y-106.553
X118.674Y-99.009
X118.755Y-81.651
X119.746Y-108.158
X120.269Y-68.453
X120.68Y-98.054
X121.285Y-111.633
X122.682Y-102.616
X122.712Y-118.684
X122.937Y-125.095
X124.46Y-106.299
X124.46Y-106.299
X124.46Y-106.299
X124.714Y-81.534
X125.095Y-97.409
X125.349Y-122.364
X125.857Y-76.2
X126.544Y-81.546
X127.198Y-92.201
X127.305Y-98.298
X127.787Y-68.827
X127.787Y-73.007
X128.011Y-78.674
X128.27Y-110.871
X129.261Y-92.201
X130.114Y-69.245
X131.374Y-69.134
X131.897Y-138.476
X132.466Y-81.295
X132.507Y-77.902
X132.715Y-116.703
X134.036Y-108.027
X134.036Y-111.327
X134.838Y-80.305
X135.382Y-98.171
X135.484Y-117.602
X136.545Y-100.259
X137.587Y-116.738
X139.294Y-79.349
X139.334Y-141.387
X141.442Y-119.461
X143.51Y-73.278
X146.304Y-98.044
X146.368Y-79.311
X147.34Y-81.432
X147.447Y-125.349
X148.285Y-92.201
X149.039Y-123.154
X149.589Y-79.304
X151.13Y-117.094
X151.623Y-103.022
X152.311Y-125.323
X153.005Y-111.327
X153.69Y-100.183
X155.23Y-120.503
X155.448Y-122.448
X155.448Y-124.841
X159.751Y-119.192
X160.274Y-80.772
X160.655Y-79.121
X162.56Y-73.151
X164.745Y-82.004
X165.354Y-97.917
X166.939Y-138.044
X167.02Y-123.708
X167.361Y-71.821
X167.373Y-92.303
X170.622Y-97.643
X170.879Y-80.962
X173.228Y-117.094
X173.761Y-100.325
X174.041Y-113.054
X175.26Y-103.06
X177.013Y-119.456
X178.638Y-104.17
X179.578Y-78.994
X180.848Y-126.047
X180.899Y-73.481
X181.102Y-105.346
X181.864Y-122.364
X184.404Y-97.917
X184.709Y-82.57
X185.052Y-121.888
X185.166Y-125.222
X186.411Y-92.315
X186.842Y-122.85
X186.888Y-141.077
X187.193Y-81.234
X187.452Y-139.065
X187.99Y-117.246
X188.15Y-136.207
X188.341Y-104.14
X189.852Y-125.188
X191.135Y-111.378
X192.161Y-97.617
X192.75Y-115.743
X194.056Y-124.841
X194.691Y-128.524
X195.702Y-119.217
X197.485Y-136.017
X197.803Y-103.074
X197.993Y-106.426
X198.166Y-79.212
X199.151Y-109.311
X200.152Y-130.048
X200.736Y-73.202
X201.375Y-81.343
X202.603Y-106.374
X202.712Y-121.58
X202.819Y-125.73
X202.946Y-140.208
X203.541Y-98.181
X204.379Y-135.697
X205.191Y-101.615
X205.461Y-92.277
X205.82Y-100.393
X205.994Y-105.791
X206.43Y-138.43
X208.265Y-117.262
X210.185Y-111.251
X210.646Y-119.444
T4
X92.151Y-86.573
X92.151Y-89.113
X92.151Y-91.653
X94.691Y-86.573
X94.691Y-89.113
X94.691Y-91.653
T5
X117.359Y-71.12
X119.899Y-71.12
X136.409Y-81.28
X138.949Y-81.28
X155.459Y-81.28
X157.999Y-81.28
X174.509Y-81.28
X177.049Y-81.28
X193.559Y-81.28
X196.099Y-81.28
X98.309Y-71.12
X100.849Y-71.12
X145.93Y-119.38
X148.47Y-119.38
X186.407Y-128.27
X188.947Y-128.27
X160.22Y-100.33
X162.76Y-100.33
X198.32Y-100.33
X200.86Y-100.33
X184.03Y-119.38
X186.57Y-119.38
X117.357Y-138.43
X119.897Y-138.43
X98.307Y-138.43
X100.847Y-138.43
X176.887Y-138.43
X179.427Y-138.43
X198.317Y-138.43
X200.857Y-138.43
X179.27Y-100.33
X181.81Y-100.33
X126.88Y-119.38
X129.42Y-119.38
X124.5Y-138.43
X127.04Y-138.43
X141.17Y-100.33
X143.71Y-100.33
X164.98Y-119.38
X167.52Y-119.38
X100.69Y-138.43
X103.23Y-138.43
X169.74Y-138.43
X172.28Y-138.43
X203.08Y-119.38
X205.62Y-119.38
X148.31Y-138.43
X150.85Y-138.43
X122.12Y-100.33
X124.66Y-100.33
X103.07Y-119.38
X105.61Y-119.38
X100.69Y-100.33
X103.23Y-100.33
X155.457Y-138.43
X157.997Y-138.43
X193.56Y-138.43
X196.1Y-138.43
X136.407Y-138.43
X138.947Y-138.43
T6
X116.089Y-81.28
X116.129Y-80.7
X121.129Y-80.2
X122.439Y-78.74
X133.869Y-73.66
X135.179Y-72.2
X140.179Y-71.7
X140.219Y-71.12
X152.919Y-73.66
X154.229Y-72.2
X159.229Y-71.7
X159.269Y-71.12
X171.969Y-73.66
X173.279Y-72.2
X178.279Y-71.7
X178.319Y-71.12
X191.019Y-73.66
X192.329Y-72.2
X197.329Y-71.7
X197.369Y-71.12
X97.039Y-81.28
X97.079Y-80.7
X102.079Y-80.2
X103.389Y-78.74
X143.39Y-111.76
X144.7Y-110.3
X149.7Y-109.8
X149.74Y-109.22
X185.137Y-138.43
X185.177Y-137.85
X190.177Y-137.35
X191.487Y-135.89
X157.68Y-92.71
X158.99Y-91.25
X163.99Y-90.75
X164.03Y-90.17
X195.78Y-92.71
X197.09Y-91.25
X202.09Y-90.75
X202.13Y-90.17
X181.49Y-111.76
X182.8Y-110.3
X187.8Y-109.8
X187.84Y-109.22
X114.817Y-130.81
X116.127Y-129.35
X121.127Y-128.85
X121.167Y-128.27
X95.767Y-130.81
X97.077Y-129.35
X102.077Y-128.85
X102.117Y-128.27
X174.347Y-130.81
X175.657Y-129.35
X180.657Y-128.85
X180.697Y-128.27
X195.777Y-130.81
X197.087Y-129.35
X202.087Y-128.85
X202.127Y-128.27
X176.73Y-92.71
X178.04Y-91.25
X183.04Y-90.75
X183.08Y-90.17
X124.34Y-111.76
X125.65Y-110.3
X130.65Y-109.8
X130.69Y-109.22
X121.96Y-130.81
X123.27Y-129.35
X128.27Y-128.85
X128.31Y-128.27
X138.63Y-92.71
X139.94Y-91.25
X144.94Y-90.75
X144.98Y-90.17
X162.44Y-111.76
X163.75Y-110.3
X168.75Y-109.8
X168.79Y-109.22
X98.15Y-130.81
X99.46Y-129.35
X104.46Y-128.85
X104.5Y-128.27
X167.2Y-130.81
X168.51Y-129.35
X173.51Y-128.85
X173.55Y-128.27
X200.54Y-111.76
X201.85Y-110.3
X206.85Y-109.8
X206.89Y-109.22
X145.77Y-130.81
X147.08Y-129.35
X152.08Y-128.85
X152.12Y-128.27
X119.58Y-92.71
X120.89Y-91.25
X125.89Y-90.75
X125.93Y-90.17
X100.53Y-111.76
X101.84Y-110.3
X106.84Y-109.8
X106.88Y-109.22
X98.15Y-92.71
X99.46Y-91.25
X104.46Y-90.75
X104.5Y-90.17
X152.917Y-130.81
X154.227Y-129.35
X159.227Y-128.85
X159.267Y-128.27
X191.02Y-130.81
X192.33Y-129.35
X197.33Y-128.85
X197.37Y-128.27
X133.867Y-130.81
X135.177Y-129.35
X140.177Y-128.85
X140.217Y-128.27
T7
X106.122Y-69.801
X111.902Y-69.801
T8
X185.75Y-67.508
X185.75Y-74.508
T9
X113.549Y-76.2
X123.709Y-76.2
X132.599Y-76.2
X142.759Y-76.2
X151.649Y-76.2
X161.809Y-76.2
X170.699Y-76.2
X180.859Y-76.2
X189.749Y-76.2
X199.909Y-76.2
X94.499Y-76.2
X104.659Y-76.2
X142.12Y-114.3
X152.28Y-114.3
X182.597Y-133.35
X192.757Y-133.35
X156.41Y-95.25
X166.57Y-95.25
X194.51Y-95.25
X204.67Y-95.25
X180.22Y-114.3
X190.38Y-114.3
X113.547Y-133.35
X123.707Y-133.35
X94.497Y-133.35
X104.657Y-133.35
X173.077Y-133.35
X183.237Y-133.35
X194.507Y-133.35
X204.667Y-133.35
X175.46Y-95.25
X185.62Y-95.25
X123.07Y-114.3
X133.23Y-114.3
X120.69Y-133.35
X130.85Y-133.35
X137.36Y-95.25
X147.52Y-95.25
X161.17Y-114.3
X171.33Y-114.3
X96.88Y-133.35
X107.04Y-133.35
X165.93Y-133.35
X176.09Y-133.35
X199.27Y-114.3
X209.43Y-114.3
X144.5Y-133.35
X154.66Y-133.35
X118.31Y-95.25
X128.47Y-95.25
X99.26Y-114.3
X109.42Y-114.3
X96.88Y-95.25
X107.04Y-95.25
X151.647Y-133.35
X161.807Y-133.35
X189.75Y-133.35
X199.91Y-133.35
X132.597Y-133.35
X142.757Y-133.35
T10
X175.739Y-140.335
X199.615Y-140.335
T11
X118.629Y-76.2
X137.679Y-76.2
X156.729Y-76.2
X175.779Y-76.2
X194.829Y-76.2
X99.579Y-76.2
X147.2Y-114.3
X175.739Y-125.095
X187.677Y-133.35
X199.615Y-125.095
X161.49Y-95.25
X199.59Y-95.25
X185.3Y-114.3
X118.627Y-133.35
X99.577Y-133.35
X178.157Y-133.35
X199.587Y-133.35
X180.54Y-95.25
X128.15Y-114.3
X125.77Y-133.35
X142.44Y-95.25
X166.25Y-114.3
X101.96Y-133.35
X171.01Y-133.35
X204.35Y-114.3
X149.58Y-133.35
X123.39Y-95.25
X104.34Y-114.3
X101.96Y-95.25
X156.727Y-133.35
X194.83Y-133.35
X137.677Y-133.35
T2
G00X104.692Y-65.851
M15
G01X104.692Y-66.451
M16
G05
G00X104.692Y-69.781
M15
G01X104.692Y-70.881
M16
G05
G00X113.332Y-65.851
M15
G01X113.332Y-66.451
M16
G05
G00X113.332Y-69.781
M15
G01X113.332Y-70.881
M16
G05
T3
G00X183.45Y-69.308
M15
G01X183.45Y-68.908
M16
G05
G00X183.45Y-72.308
M15
G01X183.45Y-71.908
M16
G05
G00X183.45Y-76.308
M15
G01X183.45Y-75.908
M16
G05
G00X188.05Y-77.408
M15
G01X188.05Y-77.008
M16
G05
T0
M30
