%TF.GenerationSoftware,KiCad,Pcbnew,(6.0.0-rc1-dev-1291-g61b749f0b)*%
%TF.CreationDate,2018-12-05T20:52:08+02:00*%
%TF.ProjectId,TS48_left,54533438-5f6c-4656-9674-2e6b69636164,rev?*%
%TF.SameCoordinates,Original*%
%TF.FileFunction,Legend,Top*%
%TF.FilePolarity,Positive*%
%FSLAX46Y46*%
G04 Gerber Fmt 4.6, Leading zero omitted, Abs format (unit mm)*
G04 Created by KiCad (PCBNEW (6.0.0-rc1-dev-1291-g61b749f0b)) date 12/5/2018 8:52:08 PM*
%MOMM*%
%LPD*%
G01*
G04 APERTURE LIST*
%ADD10C,0.100000*%
%ADD11C,0.010000*%
G04 APERTURE END LIST*
D10*
X90995500Y-142938500D02*
X208153000Y-142938500D01*
X89979500Y-67627500D02*
X89979500Y-141922500D01*
X103886000Y-66611500D02*
X90995500Y-66611500D01*
X114173000Y-66611500D02*
X203390500Y-66611500D01*
X204406500Y-84645500D02*
X204406500Y-67627500D01*
X208153000Y-85661500D02*
X205422500Y-85661500D01*
X209169000Y-103695500D02*
X209169000Y-86677500D01*
X212915500Y-104711500D02*
X210185000Y-104711500D01*
X213931500Y-122872500D02*
X213931500Y-105727500D01*
X212915500Y-123888500D02*
X210185000Y-123888500D01*
X209169000Y-141922500D02*
X209169000Y-124904500D01*
X209169000Y-141922500D02*
G75*
G02X208151731Y-142939769I-1017269J0D01*
G01*
X90995500Y-142938500D02*
G75*
G02X89978231Y-141921231I0J1017269D01*
G01*
X89979500Y-67627500D02*
G75*
G02X90996769Y-66610231I1017269J0D01*
G01*
X114173000Y-66040000D02*
X114173000Y-66611500D01*
X104902000Y-65024000D02*
X113157000Y-65024000D01*
X103886000Y-66040000D02*
X103886000Y-66611500D01*
X103884731Y-66041269D02*
G75*
G02X104902000Y-65024000I1017269J0D01*
G01*
X113155731Y-65022731D02*
G75*
G02X114173000Y-66040000I0J-1017269D01*
G01*
X203389231Y-66610231D02*
G75*
G02X204406500Y-67627500I0J-1017269D01*
G01*
X205422500Y-85661500D02*
G75*
G02X204405231Y-84644231I0J1017269D01*
G01*
X208153000Y-85661500D02*
G75*
G02X209170269Y-86678769I0J-1017269D01*
G01*
X210185000Y-104711500D02*
G75*
G02X209167731Y-103694231I0J1017269D01*
G01*
X212915500Y-104711500D02*
G75*
G02X213932769Y-105728769I0J-1017269D01*
G01*
X209167731Y-124905769D02*
G75*
G02X210185000Y-123888500I1017269J0D01*
G01*
X213931500Y-122872500D02*
G75*
G02X212914231Y-123889769I-1017269J0D01*
G01*
D11*
G36*
X149608023Y-86184828D02*
X149577428Y-86331735D01*
X149519032Y-86618947D01*
X149439189Y-87014956D01*
X149344252Y-87488256D01*
X149250323Y-87958448D01*
X149063487Y-88860844D01*
X148851048Y-89827972D01*
X148623583Y-90815258D01*
X148391666Y-91778125D01*
X148165874Y-92671999D01*
X147956781Y-93452304D01*
X147894883Y-93671582D01*
X147750941Y-94160736D01*
X147590536Y-94684301D01*
X147423625Y-95212041D01*
X147260166Y-95713723D01*
X147110117Y-96159112D01*
X146983436Y-96517972D01*
X146890080Y-96760071D01*
X146850325Y-96843195D01*
X146809275Y-96877815D01*
X146724211Y-96902474D01*
X146577246Y-96917014D01*
X146350494Y-96921273D01*
X146026067Y-96915094D01*
X145586081Y-96898315D01*
X145012647Y-96870779D01*
X144287881Y-96832324D01*
X144027070Y-96818018D01*
X143338435Y-96779180D01*
X142695427Y-96741283D01*
X142121837Y-96705855D01*
X141641459Y-96674425D01*
X141278085Y-96648522D01*
X141055508Y-96629674D01*
X141008693Y-96624070D01*
X140733827Y-96581425D01*
X140825416Y-96211316D01*
X140884888Y-95842190D01*
X140918490Y-95357303D01*
X140927156Y-94808811D01*
X140911821Y-94248873D01*
X140873420Y-93729646D01*
X140812886Y-93303287D01*
X140770124Y-93126035D01*
X140442971Y-92323685D01*
X139982344Y-91633135D01*
X139391486Y-91056669D01*
X138673638Y-90596571D01*
X137832043Y-90255124D01*
X136869943Y-90034611D01*
X136281645Y-89964957D01*
X135931053Y-89938135D01*
X135717026Y-89934258D01*
X135601640Y-89960781D01*
X135546975Y-90025157D01*
X135520062Y-90114648D01*
X135460492Y-90402003D01*
X135384274Y-90841179D01*
X135294362Y-91409923D01*
X135193712Y-92085984D01*
X135085279Y-92847109D01*
X134972018Y-93671047D01*
X134856885Y-94535546D01*
X134742835Y-95418354D01*
X134632824Y-96297219D01*
X134529806Y-97149891D01*
X134436736Y-97954116D01*
X134356571Y-98687642D01*
X134292266Y-99328219D01*
X134282575Y-99432242D01*
X134103115Y-101853398D01*
X133996054Y-104395552D01*
X133961401Y-107020185D01*
X133999166Y-109688779D01*
X134109357Y-112362816D01*
X134278900Y-114845945D01*
X134320413Y-115358177D01*
X134356386Y-115813340D01*
X134384508Y-116181283D01*
X134402471Y-116431853D01*
X134408042Y-116531980D01*
X134323201Y-116553748D01*
X134079632Y-116573386D01*
X133693768Y-116590895D01*
X133182040Y-116606270D01*
X132560881Y-116619512D01*
X131846722Y-116630617D01*
X131055996Y-116639585D01*
X130205133Y-116646413D01*
X129310568Y-116651099D01*
X128388730Y-116653642D01*
X127456053Y-116654040D01*
X126528968Y-116652291D01*
X125623907Y-116648393D01*
X124757303Y-116642344D01*
X123945587Y-116634143D01*
X123205191Y-116623788D01*
X122552547Y-116611277D01*
X122004088Y-116596608D01*
X121576244Y-116579779D01*
X121285449Y-116560788D01*
X121148134Y-116539634D01*
X121139467Y-116533448D01*
X121110724Y-116413257D01*
X121055963Y-116153156D01*
X120981730Y-115785358D01*
X120894570Y-115342072D01*
X120841310Y-115066379D01*
X120351951Y-112310065D01*
X119946433Y-109566150D01*
X119622547Y-106807544D01*
X119378085Y-104007153D01*
X119210836Y-101137886D01*
X119118593Y-98172650D01*
X119099145Y-95084352D01*
X119110779Y-93843387D01*
X119163830Y-89918670D01*
X118968867Y-89977859D01*
X117774181Y-90426220D01*
X116688313Y-91010593D01*
X115715951Y-91726124D01*
X114861784Y-92567959D01*
X114130503Y-93531246D01*
X113526796Y-94611132D01*
X113055354Y-95802762D01*
X112926294Y-96231549D01*
X112730456Y-96934708D01*
X112204938Y-96928901D01*
X111880738Y-96920451D01*
X111448400Y-96902059D01*
X110933718Y-96875497D01*
X110362486Y-96842536D01*
X109760499Y-96804947D01*
X109153550Y-96764500D01*
X108567434Y-96722967D01*
X108027944Y-96682118D01*
X107560876Y-96643725D01*
X107192022Y-96609559D01*
X106947177Y-96581390D01*
X106852502Y-96561415D01*
X106858048Y-96466177D01*
X106896803Y-96214425D01*
X106965904Y-95821060D01*
X107062489Y-95300987D01*
X107183697Y-94669109D01*
X107326665Y-93940328D01*
X107488533Y-93129549D01*
X107666437Y-92251674D01*
X107857516Y-91321607D01*
X107874088Y-91241521D01*
X108961805Y-85987759D01*
X149651379Y-85987759D01*
X149608023Y-86184828D01*
X149608023Y-86184828D01*
G37*
X149608023Y-86184828D02*
X149577428Y-86331735D01*
X149519032Y-86618947D01*
X149439189Y-87014956D01*
X149344252Y-87488256D01*
X149250323Y-87958448D01*
X149063487Y-88860844D01*
X148851048Y-89827972D01*
X148623583Y-90815258D01*
X148391666Y-91778125D01*
X148165874Y-92671999D01*
X147956781Y-93452304D01*
X147894883Y-93671582D01*
X147750941Y-94160736D01*
X147590536Y-94684301D01*
X147423625Y-95212041D01*
X147260166Y-95713723D01*
X147110117Y-96159112D01*
X146983436Y-96517972D01*
X146890080Y-96760071D01*
X146850325Y-96843195D01*
X146809275Y-96877815D01*
X146724211Y-96902474D01*
X146577246Y-96917014D01*
X146350494Y-96921273D01*
X146026067Y-96915094D01*
X145586081Y-96898315D01*
X145012647Y-96870779D01*
X144287881Y-96832324D01*
X144027070Y-96818018D01*
X143338435Y-96779180D01*
X142695427Y-96741283D01*
X142121837Y-96705855D01*
X141641459Y-96674425D01*
X141278085Y-96648522D01*
X141055508Y-96629674D01*
X141008693Y-96624070D01*
X140733827Y-96581425D01*
X140825416Y-96211316D01*
X140884888Y-95842190D01*
X140918490Y-95357303D01*
X140927156Y-94808811D01*
X140911821Y-94248873D01*
X140873420Y-93729646D01*
X140812886Y-93303287D01*
X140770124Y-93126035D01*
X140442971Y-92323685D01*
X139982344Y-91633135D01*
X139391486Y-91056669D01*
X138673638Y-90596571D01*
X137832043Y-90255124D01*
X136869943Y-90034611D01*
X136281645Y-89964957D01*
X135931053Y-89938135D01*
X135717026Y-89934258D01*
X135601640Y-89960781D01*
X135546975Y-90025157D01*
X135520062Y-90114648D01*
X135460492Y-90402003D01*
X135384274Y-90841179D01*
X135294362Y-91409923D01*
X135193712Y-92085984D01*
X135085279Y-92847109D01*
X134972018Y-93671047D01*
X134856885Y-94535546D01*
X134742835Y-95418354D01*
X134632824Y-96297219D01*
X134529806Y-97149891D01*
X134436736Y-97954116D01*
X134356571Y-98687642D01*
X134292266Y-99328219D01*
X134282575Y-99432242D01*
X134103115Y-101853398D01*
X133996054Y-104395552D01*
X133961401Y-107020185D01*
X133999166Y-109688779D01*
X134109357Y-112362816D01*
X134278900Y-114845945D01*
X134320413Y-115358177D01*
X134356386Y-115813340D01*
X134384508Y-116181283D01*
X134402471Y-116431853D01*
X134408042Y-116531980D01*
X134323201Y-116553748D01*
X134079632Y-116573386D01*
X133693768Y-116590895D01*
X133182040Y-116606270D01*
X132560881Y-116619512D01*
X131846722Y-116630617D01*
X131055996Y-116639585D01*
X130205133Y-116646413D01*
X129310568Y-116651099D01*
X128388730Y-116653642D01*
X127456053Y-116654040D01*
X126528968Y-116652291D01*
X125623907Y-116648393D01*
X124757303Y-116642344D01*
X123945587Y-116634143D01*
X123205191Y-116623788D01*
X122552547Y-116611277D01*
X122004088Y-116596608D01*
X121576244Y-116579779D01*
X121285449Y-116560788D01*
X121148134Y-116539634D01*
X121139467Y-116533448D01*
X121110724Y-116413257D01*
X121055963Y-116153156D01*
X120981730Y-115785358D01*
X120894570Y-115342072D01*
X120841310Y-115066379D01*
X120351951Y-112310065D01*
X119946433Y-109566150D01*
X119622547Y-106807544D01*
X119378085Y-104007153D01*
X119210836Y-101137886D01*
X119118593Y-98172650D01*
X119099145Y-95084352D01*
X119110779Y-93843387D01*
X119163830Y-89918670D01*
X118968867Y-89977859D01*
X117774181Y-90426220D01*
X116688313Y-91010593D01*
X115715951Y-91726124D01*
X114861784Y-92567959D01*
X114130503Y-93531246D01*
X113526796Y-94611132D01*
X113055354Y-95802762D01*
X112926294Y-96231549D01*
X112730456Y-96934708D01*
X112204938Y-96928901D01*
X111880738Y-96920451D01*
X111448400Y-96902059D01*
X110933718Y-96875497D01*
X110362486Y-96842536D01*
X109760499Y-96804947D01*
X109153550Y-96764500D01*
X108567434Y-96722967D01*
X108027944Y-96682118D01*
X107560876Y-96643725D01*
X107192022Y-96609559D01*
X106947177Y-96581390D01*
X106852502Y-96561415D01*
X106858048Y-96466177D01*
X106896803Y-96214425D01*
X106965904Y-95821060D01*
X107062489Y-95300987D01*
X107183697Y-94669109D01*
X107326665Y-93940328D01*
X107488533Y-93129549D01*
X107666437Y-92251674D01*
X107857516Y-91321607D01*
X107874088Y-91241521D01*
X108961805Y-85987759D01*
X149651379Y-85987759D01*
X149608023Y-86184828D01*
G36*
X173876188Y-84639529D02*
X176115125Y-84753201D01*
X178320346Y-84953291D01*
X180533124Y-85243073D01*
X182794731Y-85625817D01*
X183798431Y-85820986D01*
X184244131Y-85910526D01*
X184624031Y-85986261D01*
X184907394Y-86042110D01*
X185063487Y-86071990D01*
X185083976Y-86075345D01*
X185071664Y-86154850D01*
X185021446Y-86372978D01*
X184940750Y-86699147D01*
X184837004Y-87102774D01*
X184802110Y-87235862D01*
X184527639Y-88216947D01*
X184200985Y-89284775D01*
X183844073Y-90372225D01*
X183478829Y-91412171D01*
X183175787Y-92214771D01*
X182742063Y-93317991D01*
X180975225Y-93423469D01*
X180370846Y-93458219D01*
X179696724Y-93494715D01*
X178980839Y-93531654D01*
X178251171Y-93567730D01*
X177535700Y-93601640D01*
X176862405Y-93632079D01*
X176259266Y-93657743D01*
X175754262Y-93677329D01*
X175375375Y-93689531D01*
X175191947Y-93693045D01*
X174977194Y-93683301D01*
X174900111Y-93636473D01*
X174919690Y-93542069D01*
X175011748Y-93290571D01*
X175122541Y-92931341D01*
X175245186Y-92493407D01*
X175372801Y-92005794D01*
X175498506Y-91497528D01*
X175615417Y-90997634D01*
X175716654Y-90535140D01*
X175795333Y-90139071D01*
X175844574Y-89838453D01*
X175857494Y-89662312D01*
X175847359Y-89629410D01*
X175726624Y-89600900D01*
X175459361Y-89564012D01*
X175073876Y-89521196D01*
X174598479Y-89474898D01*
X174061477Y-89427566D01*
X173491179Y-89381648D01*
X172915893Y-89339591D01*
X172363928Y-89303844D01*
X171863591Y-89276853D01*
X171675973Y-89268730D01*
X171160526Y-89257024D01*
X170566921Y-89257896D01*
X169917164Y-89269963D01*
X169233257Y-89291840D01*
X168537206Y-89322145D01*
X167851016Y-89359494D01*
X167196690Y-89402504D01*
X166596234Y-89449791D01*
X166071652Y-89499972D01*
X165644948Y-89551663D01*
X165338127Y-89603482D01*
X165173194Y-89654044D01*
X165150800Y-89678958D01*
X165199602Y-89799217D01*
X165333763Y-90032274D01*
X165534912Y-90349768D01*
X165784682Y-90723337D01*
X166064703Y-91124619D01*
X166277185Y-91418104D01*
X166692840Y-91940144D01*
X167206779Y-92520311D01*
X167775461Y-93113919D01*
X168355341Y-93676282D01*
X168902876Y-94162716D01*
X169135973Y-94351864D01*
X169718561Y-94791560D01*
X170340123Y-95228991D01*
X171018301Y-95674791D01*
X171770737Y-96139596D01*
X172615072Y-96634038D01*
X173568947Y-97168752D01*
X174650005Y-97754373D01*
X175711075Y-98315312D01*
X176857278Y-98923650D01*
X177861537Y-99475385D01*
X178742791Y-99983208D01*
X179519978Y-100459815D01*
X180212037Y-100917897D01*
X180837906Y-101370147D01*
X181416525Y-101829259D01*
X181966833Y-102307927D01*
X182507767Y-102818842D01*
X182670229Y-102979483D01*
X184024966Y-104416434D01*
X185206422Y-105850595D01*
X186216394Y-107284872D01*
X187056681Y-108722170D01*
X187729081Y-110165396D01*
X188235391Y-111617456D01*
X188401743Y-112242197D01*
X188555419Y-112877670D01*
X188071128Y-113469617D01*
X186936441Y-114743025D01*
X185648375Y-115984652D01*
X184227802Y-117180660D01*
X182695593Y-118317208D01*
X181072621Y-119380455D01*
X179379757Y-120356561D01*
X177637875Y-121231686D01*
X175867845Y-121991990D01*
X174434938Y-122511799D01*
X173366582Y-122850297D01*
X172430760Y-123112304D01*
X171632626Y-123296688D01*
X170977332Y-123402316D01*
X170470031Y-123428057D01*
X170318387Y-123416808D01*
X169287420Y-123266247D01*
X168116714Y-123048528D01*
X166826305Y-122768299D01*
X165436230Y-122430213D01*
X163966527Y-122038918D01*
X162437232Y-121599066D01*
X162267112Y-121548182D01*
X160938842Y-121157979D01*
X159755131Y-120829502D01*
X158698037Y-120559061D01*
X157749617Y-120342971D01*
X156891930Y-120177543D01*
X156107034Y-120059090D01*
X155376986Y-119983924D01*
X154683843Y-119948358D01*
X154465283Y-119944725D01*
X153953678Y-119949648D01*
X153461487Y-119970693D01*
X153041465Y-120004725D01*
X152757352Y-120046226D01*
X152016150Y-120237120D01*
X151226244Y-120498356D01*
X150467335Y-120801425D01*
X149932697Y-121056618D01*
X149621017Y-121211735D01*
X149376872Y-121317018D01*
X149233708Y-121358915D01*
X149210111Y-121349380D01*
X149247247Y-121197807D01*
X149353106Y-120907679D01*
X149519363Y-120497758D01*
X149737693Y-119986809D01*
X149999770Y-119393593D01*
X150297271Y-118736874D01*
X150621869Y-118035415D01*
X150965241Y-117307978D01*
X151319060Y-116573328D01*
X151429896Y-116346376D01*
X152669766Y-113816373D01*
X154202525Y-113866119D01*
X154998360Y-113903458D01*
X155767527Y-113965600D01*
X156526045Y-114057030D01*
X157289929Y-114182239D01*
X158075198Y-114345714D01*
X158897869Y-114551942D01*
X159773959Y-114805413D01*
X160719485Y-115110614D01*
X161750465Y-115472034D01*
X162882916Y-115894161D01*
X164132855Y-116381482D01*
X165516300Y-116938487D01*
X166271080Y-117247812D01*
X167294652Y-117659158D01*
X168188309Y-117993517D01*
X168976677Y-118256383D01*
X169684381Y-118453247D01*
X170336045Y-118589602D01*
X170956296Y-118670943D01*
X171569757Y-118702760D01*
X172201055Y-118690548D01*
X172615545Y-118663003D01*
X173039909Y-118624943D01*
X173420711Y-118584502D01*
X173711436Y-118546988D01*
X173849959Y-118522141D01*
X173975762Y-118482988D01*
X174042725Y-118416840D01*
X174063519Y-118280608D01*
X174050816Y-118031203D01*
X174038441Y-117881181D01*
X173898752Y-116674869D01*
X173686447Y-115602495D01*
X173387064Y-114633660D01*
X172986146Y-113737964D01*
X172469232Y-112885007D01*
X171821864Y-112044388D01*
X171029581Y-111185707D01*
X170698336Y-110858802D01*
X170311678Y-110489148D01*
X169955574Y-110159330D01*
X169608542Y-109852365D01*
X169249101Y-109551271D01*
X168855769Y-109239063D01*
X168407067Y-108898760D01*
X167881511Y-108513377D01*
X167257621Y-108065934D01*
X166513916Y-107539446D01*
X166383502Y-107447535D01*
X165365502Y-106726769D01*
X164475040Y-106087416D01*
X163693349Y-105514558D01*
X163001659Y-104993279D01*
X162381200Y-104508662D01*
X161813206Y-104045790D01*
X161278906Y-103589745D01*
X160759531Y-103125612D01*
X160236313Y-102638471D01*
X159772946Y-102193626D01*
X158874853Y-101288771D01*
X158103051Y-100435699D01*
X157431012Y-99600571D01*
X156832209Y-98749545D01*
X156280113Y-97848781D01*
X156063452Y-97461552D01*
X155814163Y-96968720D01*
X155537868Y-96362484D01*
X155257328Y-95697394D01*
X154995305Y-95028001D01*
X154774561Y-94408854D01*
X154720164Y-94242239D01*
X154618063Y-93901275D01*
X154571512Y-93668379D01*
X154575392Y-93487292D01*
X154624582Y-93301752D01*
X154632492Y-93278791D01*
X154720581Y-93063415D01*
X154878086Y-92716409D01*
X155093215Y-92261354D01*
X155354173Y-91721829D01*
X155649168Y-91121415D01*
X155966406Y-90483693D01*
X156294093Y-89832243D01*
X156620437Y-89190645D01*
X156933643Y-88582480D01*
X157221919Y-88031329D01*
X157473471Y-87560771D01*
X157668404Y-87208611D01*
X158343920Y-86020842D01*
X159667188Y-85743161D01*
X160858010Y-85503072D01*
X161971058Y-85301169D01*
X163042028Y-85133360D01*
X164106621Y-84995554D01*
X165200536Y-84883658D01*
X166359469Y-84793583D01*
X167619122Y-84721235D01*
X169015191Y-84662524D01*
X169132072Y-84658356D01*
X171562261Y-84609005D01*
X173876188Y-84639529D01*
X173876188Y-84639529D01*
G37*
X173876188Y-84639529D02*
X176115125Y-84753201D01*
X178320346Y-84953291D01*
X180533124Y-85243073D01*
X182794731Y-85625817D01*
X183798431Y-85820986D01*
X184244131Y-85910526D01*
X184624031Y-85986261D01*
X184907394Y-86042110D01*
X185063487Y-86071990D01*
X185083976Y-86075345D01*
X185071664Y-86154850D01*
X185021446Y-86372978D01*
X184940750Y-86699147D01*
X184837004Y-87102774D01*
X184802110Y-87235862D01*
X184527639Y-88216947D01*
X184200985Y-89284775D01*
X183844073Y-90372225D01*
X183478829Y-91412171D01*
X183175787Y-92214771D01*
X182742063Y-93317991D01*
X180975225Y-93423469D01*
X180370846Y-93458219D01*
X179696724Y-93494715D01*
X178980839Y-93531654D01*
X178251171Y-93567730D01*
X177535700Y-93601640D01*
X176862405Y-93632079D01*
X176259266Y-93657743D01*
X175754262Y-93677329D01*
X175375375Y-93689531D01*
X175191947Y-93693045D01*
X174977194Y-93683301D01*
X174900111Y-93636473D01*
X174919690Y-93542069D01*
X175011748Y-93290571D01*
X175122541Y-92931341D01*
X175245186Y-92493407D01*
X175372801Y-92005794D01*
X175498506Y-91497528D01*
X175615417Y-90997634D01*
X175716654Y-90535140D01*
X175795333Y-90139071D01*
X175844574Y-89838453D01*
X175857494Y-89662312D01*
X175847359Y-89629410D01*
X175726624Y-89600900D01*
X175459361Y-89564012D01*
X175073876Y-89521196D01*
X174598479Y-89474898D01*
X174061477Y-89427566D01*
X173491179Y-89381648D01*
X172915893Y-89339591D01*
X172363928Y-89303844D01*
X171863591Y-89276853D01*
X171675973Y-89268730D01*
X171160526Y-89257024D01*
X170566921Y-89257896D01*
X169917164Y-89269963D01*
X169233257Y-89291840D01*
X168537206Y-89322145D01*
X167851016Y-89359494D01*
X167196690Y-89402504D01*
X166596234Y-89449791D01*
X166071652Y-89499972D01*
X165644948Y-89551663D01*
X165338127Y-89603482D01*
X165173194Y-89654044D01*
X165150800Y-89678958D01*
X165199602Y-89799217D01*
X165333763Y-90032274D01*
X165534912Y-90349768D01*
X165784682Y-90723337D01*
X166064703Y-91124619D01*
X166277185Y-91418104D01*
X166692840Y-91940144D01*
X167206779Y-92520311D01*
X167775461Y-93113919D01*
X168355341Y-93676282D01*
X168902876Y-94162716D01*
X169135973Y-94351864D01*
X169718561Y-94791560D01*
X170340123Y-95228991D01*
X171018301Y-95674791D01*
X171770737Y-96139596D01*
X172615072Y-96634038D01*
X173568947Y-97168752D01*
X174650005Y-97754373D01*
X175711075Y-98315312D01*
X176857278Y-98923650D01*
X177861537Y-99475385D01*
X178742791Y-99983208D01*
X179519978Y-100459815D01*
X180212037Y-100917897D01*
X180837906Y-101370147D01*
X181416525Y-101829259D01*
X181966833Y-102307927D01*
X182507767Y-102818842D01*
X182670229Y-102979483D01*
X184024966Y-104416434D01*
X185206422Y-105850595D01*
X186216394Y-107284872D01*
X187056681Y-108722170D01*
X187729081Y-110165396D01*
X188235391Y-111617456D01*
X188401743Y-112242197D01*
X188555419Y-112877670D01*
X188071128Y-113469617D01*
X186936441Y-114743025D01*
X185648375Y-115984652D01*
X184227802Y-117180660D01*
X182695593Y-118317208D01*
X181072621Y-119380455D01*
X179379757Y-120356561D01*
X177637875Y-121231686D01*
X175867845Y-121991990D01*
X174434938Y-122511799D01*
X173366582Y-122850297D01*
X172430760Y-123112304D01*
X171632626Y-123296688D01*
X170977332Y-123402316D01*
X170470031Y-123428057D01*
X170318387Y-123416808D01*
X169287420Y-123266247D01*
X168116714Y-123048528D01*
X166826305Y-122768299D01*
X165436230Y-122430213D01*
X163966527Y-122038918D01*
X162437232Y-121599066D01*
X162267112Y-121548182D01*
X160938842Y-121157979D01*
X159755131Y-120829502D01*
X158698037Y-120559061D01*
X157749617Y-120342971D01*
X156891930Y-120177543D01*
X156107034Y-120059090D01*
X155376986Y-119983924D01*
X154683843Y-119948358D01*
X154465283Y-119944725D01*
X153953678Y-119949648D01*
X153461487Y-119970693D01*
X153041465Y-120004725D01*
X152757352Y-120046226D01*
X152016150Y-120237120D01*
X151226244Y-120498356D01*
X150467335Y-120801425D01*
X149932697Y-121056618D01*
X149621017Y-121211735D01*
X149376872Y-121317018D01*
X149233708Y-121358915D01*
X149210111Y-121349380D01*
X149247247Y-121197807D01*
X149353106Y-120907679D01*
X149519363Y-120497758D01*
X149737693Y-119986809D01*
X149999770Y-119393593D01*
X150297271Y-118736874D01*
X150621869Y-118035415D01*
X150965241Y-117307978D01*
X151319060Y-116573328D01*
X151429896Y-116346376D01*
X152669766Y-113816373D01*
X154202525Y-113866119D01*
X154998360Y-113903458D01*
X155767527Y-113965600D01*
X156526045Y-114057030D01*
X157289929Y-114182239D01*
X158075198Y-114345714D01*
X158897869Y-114551942D01*
X159773959Y-114805413D01*
X160719485Y-115110614D01*
X161750465Y-115472034D01*
X162882916Y-115894161D01*
X164132855Y-116381482D01*
X165516300Y-116938487D01*
X166271080Y-117247812D01*
X167294652Y-117659158D01*
X168188309Y-117993517D01*
X168976677Y-118256383D01*
X169684381Y-118453247D01*
X170336045Y-118589602D01*
X170956296Y-118670943D01*
X171569757Y-118702760D01*
X172201055Y-118690548D01*
X172615545Y-118663003D01*
X173039909Y-118624943D01*
X173420711Y-118584502D01*
X173711436Y-118546988D01*
X173849959Y-118522141D01*
X173975762Y-118482988D01*
X174042725Y-118416840D01*
X174063519Y-118280608D01*
X174050816Y-118031203D01*
X174038441Y-117881181D01*
X173898752Y-116674869D01*
X173686447Y-115602495D01*
X173387064Y-114633660D01*
X172986146Y-113737964D01*
X172469232Y-112885007D01*
X171821864Y-112044388D01*
X171029581Y-111185707D01*
X170698336Y-110858802D01*
X170311678Y-110489148D01*
X169955574Y-110159330D01*
X169608542Y-109852365D01*
X169249101Y-109551271D01*
X168855769Y-109239063D01*
X168407067Y-108898760D01*
X167881511Y-108513377D01*
X167257621Y-108065934D01*
X166513916Y-107539446D01*
X166383502Y-107447535D01*
X165365502Y-106726769D01*
X164475040Y-106087416D01*
X163693349Y-105514558D01*
X163001659Y-104993279D01*
X162381200Y-104508662D01*
X161813206Y-104045790D01*
X161278906Y-103589745D01*
X160759531Y-103125612D01*
X160236313Y-102638471D01*
X159772946Y-102193626D01*
X158874853Y-101288771D01*
X158103051Y-100435699D01*
X157431012Y-99600571D01*
X156832209Y-98749545D01*
X156280113Y-97848781D01*
X156063452Y-97461552D01*
X155814163Y-96968720D01*
X155537868Y-96362484D01*
X155257328Y-95697394D01*
X154995305Y-95028001D01*
X154774561Y-94408854D01*
X154720164Y-94242239D01*
X154618063Y-93901275D01*
X154571512Y-93668379D01*
X154575392Y-93487292D01*
X154624582Y-93301752D01*
X154632492Y-93278791D01*
X154720581Y-93063415D01*
X154878086Y-92716409D01*
X155093215Y-92261354D01*
X155354173Y-91721829D01*
X155649168Y-91121415D01*
X155966406Y-90483693D01*
X156294093Y-89832243D01*
X156620437Y-89190645D01*
X156933643Y-88582480D01*
X157221919Y-88031329D01*
X157473471Y-87560771D01*
X157668404Y-87208611D01*
X158343920Y-86020842D01*
X159667188Y-85743161D01*
X160858010Y-85503072D01*
X161971058Y-85301169D01*
X163042028Y-85133360D01*
X164106621Y-84995554D01*
X165200536Y-84883658D01*
X166359469Y-84793583D01*
X167619122Y-84721235D01*
X169015191Y-84662524D01*
X169132072Y-84658356D01*
X171562261Y-84609005D01*
X173876188Y-84639529D01*
M02*
