%TF.GenerationSoftware,KiCad,Pcbnew,(6.0.0-rc1-dev-1291-g61b749f0b)*%
%TF.CreationDate,2018-12-05T20:52:08+02:00*%
%TF.ProjectId,TS48_left,54533438-5f6c-4656-9674-2e6b69636164,rev?*%
%TF.SameCoordinates,Original*%
%TF.FileFunction,Legend,Bot*%
%TF.FilePolarity,Positive*%
%FSLAX46Y46*%
G04 Gerber Fmt 4.6, Leading zero omitted, Abs format (unit mm)*
G04 Created by KiCad (PCBNEW (6.0.0-rc1-dev-1291-g61b749f0b)) date 12/5/2018 8:52:08 PM*
%MOMM*%
%LPD*%
G01*
G04 APERTURE LIST*
%ADD10C,0.300000*%
%ADD11C,0.200000*%
%ADD12C,0.100000*%
%ADD13C,0.120000*%
%ADD14C,0.150000*%
%ADD15C,0.203200*%
%ADD16C,0.010000*%
G04 APERTURE END LIST*
D10*
X171510014Y-104723500D02*
X171652871Y-104652071D01*
X171867157Y-104652071D01*
X172081442Y-104723500D01*
X172224300Y-104866357D01*
X172295728Y-105009214D01*
X172367157Y-105294928D01*
X172367157Y-105509214D01*
X172295728Y-105794928D01*
X172224300Y-105937785D01*
X172081442Y-106080642D01*
X171867157Y-106152071D01*
X171724300Y-106152071D01*
X171510014Y-106080642D01*
X171438585Y-106009214D01*
X171438585Y-105509214D01*
X171724300Y-105509214D01*
X170795728Y-106152071D02*
X170795728Y-105152071D01*
X170795728Y-104652071D02*
X170867157Y-104723500D01*
X170795728Y-104794928D01*
X170724300Y-104723500D01*
X170795728Y-104652071D01*
X170795728Y-104794928D01*
X170295728Y-105152071D02*
X169724300Y-105152071D01*
X170081442Y-104652071D02*
X170081442Y-105937785D01*
X170010014Y-106080642D01*
X169867157Y-106152071D01*
X169724300Y-106152071D01*
X169224300Y-106152071D02*
X169224300Y-104652071D01*
X168581442Y-106152071D02*
X168581442Y-105366357D01*
X168652871Y-105223500D01*
X168795728Y-105152071D01*
X169010014Y-105152071D01*
X169152871Y-105223500D01*
X169224300Y-105294928D01*
X167224300Y-105152071D02*
X167224300Y-106152071D01*
X167867157Y-105152071D02*
X167867157Y-105937785D01*
X167795728Y-106080642D01*
X167652871Y-106152071D01*
X167438585Y-106152071D01*
X167295728Y-106080642D01*
X167224300Y-106009214D01*
X166510014Y-106152071D02*
X166510014Y-104652071D01*
X166510014Y-105223500D02*
X166367157Y-105152071D01*
X166081442Y-105152071D01*
X165938585Y-105223500D01*
X165867157Y-105294928D01*
X165795728Y-105437785D01*
X165795728Y-105866357D01*
X165867157Y-106009214D01*
X165938585Y-106080642D01*
X166081442Y-106152071D01*
X166367157Y-106152071D01*
X166510014Y-106080642D01*
X165152871Y-106009214D02*
X165081442Y-106080642D01*
X165152871Y-106152071D01*
X165224300Y-106080642D01*
X165152871Y-106009214D01*
X165152871Y-106152071D01*
X165152871Y-105223500D02*
X165081442Y-105294928D01*
X165152871Y-105366357D01*
X165224300Y-105294928D01*
X165152871Y-105223500D01*
X165152871Y-105366357D01*
X163295728Y-106152071D02*
X163295728Y-104652071D01*
X162652871Y-106152071D02*
X162652871Y-105366357D01*
X162724300Y-105223500D01*
X162867157Y-105152071D01*
X163081442Y-105152071D01*
X163224300Y-105223500D01*
X163295728Y-105294928D01*
X162152871Y-105152071D02*
X161581442Y-105152071D01*
X161938585Y-104652071D02*
X161938585Y-105937785D01*
X161867157Y-106080642D01*
X161724300Y-106152071D01*
X161581442Y-106152071D01*
X161295728Y-105152071D02*
X160724300Y-105152071D01*
X161081442Y-104652071D02*
X161081442Y-105937785D01*
X161010014Y-106080642D01*
X160867157Y-106152071D01*
X160724300Y-106152071D01*
X160224300Y-105152071D02*
X160224300Y-106652071D01*
X160224300Y-105223500D02*
X160081442Y-105152071D01*
X159795728Y-105152071D01*
X159652871Y-105223500D01*
X159581442Y-105294928D01*
X159510014Y-105437785D01*
X159510014Y-105866357D01*
X159581442Y-106009214D01*
X159652871Y-106080642D01*
X159795728Y-106152071D01*
X160081442Y-106152071D01*
X160224300Y-106080642D01*
X158938585Y-106080642D02*
X158795728Y-106152071D01*
X158510014Y-106152071D01*
X158367157Y-106080642D01*
X158295728Y-105937785D01*
X158295728Y-105866357D01*
X158367157Y-105723500D01*
X158510014Y-105652071D01*
X158724300Y-105652071D01*
X158867157Y-105580642D01*
X158938585Y-105437785D01*
X158938585Y-105366357D01*
X158867157Y-105223500D01*
X158724300Y-105152071D01*
X158510014Y-105152071D01*
X158367157Y-105223500D01*
X157652871Y-106009214D02*
X157581442Y-106080642D01*
X157652871Y-106152071D01*
X157724300Y-106080642D01*
X157652871Y-106009214D01*
X157652871Y-106152071D01*
X157652871Y-105223500D02*
X157581442Y-105294928D01*
X157652871Y-105366357D01*
X157724300Y-105294928D01*
X157652871Y-105223500D01*
X157652871Y-105366357D01*
X155867157Y-104580642D02*
X157152871Y-106509214D01*
X154295728Y-104580642D02*
X155581442Y-106509214D01*
X153152871Y-105152071D02*
X153152871Y-106366357D01*
X153224300Y-106509214D01*
X153295728Y-106580642D01*
X153438585Y-106652071D01*
X153652871Y-106652071D01*
X153795728Y-106580642D01*
X153152871Y-106080642D02*
X153295728Y-106152071D01*
X153581442Y-106152071D01*
X153724300Y-106080642D01*
X153795728Y-106009214D01*
X153867157Y-105866357D01*
X153867157Y-105437785D01*
X153795728Y-105294928D01*
X153724300Y-105223500D01*
X153581442Y-105152071D01*
X153295728Y-105152071D01*
X153152871Y-105223500D01*
X152438585Y-106152071D02*
X152438585Y-105152071D01*
X152438585Y-104652071D02*
X152510014Y-104723500D01*
X152438585Y-104794928D01*
X152367157Y-104723500D01*
X152438585Y-104652071D01*
X152438585Y-104794928D01*
X151938585Y-105152071D02*
X151367157Y-105152071D01*
X151724300Y-104652071D02*
X151724300Y-105937785D01*
X151652871Y-106080642D01*
X151510014Y-106152071D01*
X151367157Y-106152071D01*
X150867157Y-106152071D02*
X150867157Y-104652071D01*
X150224300Y-106152071D02*
X150224300Y-105366357D01*
X150295728Y-105223500D01*
X150438585Y-105152071D01*
X150652871Y-105152071D01*
X150795728Y-105223500D01*
X150867157Y-105294928D01*
X148867157Y-105152071D02*
X148867157Y-106152071D01*
X149510014Y-105152071D02*
X149510014Y-105937785D01*
X149438585Y-106080642D01*
X149295728Y-106152071D01*
X149081442Y-106152071D01*
X148938585Y-106080642D01*
X148867157Y-106009214D01*
X148152871Y-106152071D02*
X148152871Y-104652071D01*
X148152871Y-105223500D02*
X148010014Y-105152071D01*
X147724300Y-105152071D01*
X147581442Y-105223500D01*
X147510014Y-105294928D01*
X147438585Y-105437785D01*
X147438585Y-105866357D01*
X147510014Y-106009214D01*
X147581442Y-106080642D01*
X147724300Y-106152071D01*
X148010014Y-106152071D01*
X148152871Y-106080642D01*
X146795728Y-106009214D02*
X146724300Y-106080642D01*
X146795728Y-106152071D01*
X146867157Y-106080642D01*
X146795728Y-106009214D01*
X146795728Y-106152071D01*
X145438585Y-106080642D02*
X145581442Y-106152071D01*
X145867157Y-106152071D01*
X146010014Y-106080642D01*
X146081442Y-106009214D01*
X146152871Y-105866357D01*
X146152871Y-105437785D01*
X146081442Y-105294928D01*
X146010014Y-105223500D01*
X145867157Y-105152071D01*
X145581442Y-105152071D01*
X145438585Y-105223500D01*
X144581442Y-106152071D02*
X144724300Y-106080642D01*
X144795728Y-106009214D01*
X144867157Y-105866357D01*
X144867157Y-105437785D01*
X144795728Y-105294928D01*
X144724300Y-105223500D01*
X144581442Y-105152071D01*
X144367157Y-105152071D01*
X144224300Y-105223500D01*
X144152871Y-105294928D01*
X144081442Y-105437785D01*
X144081442Y-105866357D01*
X144152871Y-106009214D01*
X144224300Y-106080642D01*
X144367157Y-106152071D01*
X144581442Y-106152071D01*
X143438585Y-106152071D02*
X143438585Y-105152071D01*
X143438585Y-105294928D02*
X143367157Y-105223500D01*
X143224300Y-105152071D01*
X143010014Y-105152071D01*
X142867157Y-105223500D01*
X142795728Y-105366357D01*
X142795728Y-106152071D01*
X142795728Y-105366357D02*
X142724300Y-105223500D01*
X142581442Y-105152071D01*
X142367157Y-105152071D01*
X142224300Y-105223500D01*
X142152871Y-105366357D01*
X142152871Y-106152071D01*
X140367157Y-104580642D02*
X141652871Y-106509214D01*
X139081442Y-104723500D02*
X139224300Y-104652071D01*
X139438585Y-104652071D01*
X139652871Y-104723500D01*
X139795728Y-104866357D01*
X139867157Y-105009214D01*
X139938585Y-105294928D01*
X139938585Y-105509214D01*
X139867157Y-105794928D01*
X139795728Y-105937785D01*
X139652871Y-106080642D01*
X139438585Y-106152071D01*
X139295728Y-106152071D01*
X139081442Y-106080642D01*
X139010014Y-106009214D01*
X139010014Y-105509214D01*
X139295728Y-105509214D01*
X138581442Y-105152071D02*
X138010014Y-105152071D01*
X138367157Y-104652071D02*
X138367157Y-105937785D01*
X138295728Y-106080642D01*
X138152871Y-106152071D01*
X138010014Y-106152071D01*
X137510014Y-106152071D02*
X137510014Y-105152071D01*
X137510014Y-105437785D02*
X137438585Y-105294928D01*
X137367157Y-105223500D01*
X137224300Y-105152071D01*
X137081442Y-105152071D01*
X136724300Y-106152071D02*
X135938585Y-105152071D01*
X136724300Y-105152071D02*
X135938585Y-106152071D01*
X135081442Y-104652071D02*
X134938585Y-104652071D01*
X134795728Y-104723500D01*
X134724300Y-104794928D01*
X134652871Y-104937785D01*
X134581442Y-105223500D01*
X134581442Y-105580642D01*
X134652871Y-105866357D01*
X134724300Y-106009214D01*
X134795728Y-106080642D01*
X134938585Y-106152071D01*
X135081442Y-106152071D01*
X135224300Y-106080642D01*
X135295728Y-106009214D01*
X135367157Y-105866357D01*
X135438585Y-105580642D01*
X135438585Y-105223500D01*
X135367157Y-104937785D01*
X135295728Y-104794928D01*
X135224300Y-104723500D01*
X135081442Y-104652071D01*
X132867157Y-104580642D02*
X134152871Y-106509214D01*
X132581442Y-104652071D02*
X131724299Y-104652071D01*
X132152871Y-106152071D02*
X132152871Y-104652071D01*
X131295728Y-106080642D02*
X131081442Y-106152071D01*
X130724299Y-106152071D01*
X130581442Y-106080642D01*
X130510014Y-106009214D01*
X130438585Y-105866357D01*
X130438585Y-105723500D01*
X130510014Y-105580642D01*
X130581442Y-105509214D01*
X130724299Y-105437785D01*
X131010014Y-105366357D01*
X131152871Y-105294928D01*
X131224299Y-105223500D01*
X131295728Y-105080642D01*
X131295728Y-104937785D01*
X131224299Y-104794928D01*
X131152871Y-104723500D01*
X131010014Y-104652071D01*
X130652871Y-104652071D01*
X130438585Y-104723500D01*
X129152871Y-105152071D02*
X129152871Y-106152071D01*
X129510014Y-104580642D02*
X129867157Y-105652071D01*
X128938585Y-105652071D01*
X128152871Y-105294928D02*
X128295728Y-105223500D01*
X128367157Y-105152071D01*
X128438585Y-105009214D01*
X128438585Y-104937785D01*
X128367157Y-104794928D01*
X128295728Y-104723500D01*
X128152871Y-104652071D01*
X127867157Y-104652071D01*
X127724299Y-104723500D01*
X127652871Y-104794928D01*
X127581442Y-104937785D01*
X127581442Y-105009214D01*
X127652871Y-105152071D01*
X127724299Y-105223500D01*
X127867157Y-105294928D01*
X128152871Y-105294928D01*
X128295728Y-105366357D01*
X128367157Y-105437785D01*
X128438585Y-105580642D01*
X128438585Y-105866357D01*
X128367157Y-106009214D01*
X128295728Y-106080642D01*
X128152871Y-106152071D01*
X127867157Y-106152071D01*
X127724299Y-106080642D01*
X127652871Y-106009214D01*
X127581442Y-105866357D01*
X127581442Y-105580642D01*
X127652871Y-105437785D01*
X127724299Y-105366357D01*
X127867157Y-105294928D01*
X91808771Y-122981557D02*
X91094485Y-122481557D01*
X91808771Y-122124414D02*
X90308771Y-122124414D01*
X90308771Y-122695842D01*
X90380200Y-122838700D01*
X90451628Y-122910128D01*
X90594485Y-122981557D01*
X90808771Y-122981557D01*
X90951628Y-122910128D01*
X91023057Y-122838700D01*
X91094485Y-122695842D01*
X91094485Y-122124414D01*
X91023057Y-123624414D02*
X91023057Y-124124414D01*
X91808771Y-124338700D02*
X91808771Y-123624414D01*
X90308771Y-123624414D01*
X90308771Y-124338700D01*
X90308771Y-124767271D02*
X91808771Y-125267271D01*
X90308771Y-125767271D01*
X91808771Y-128195842D02*
X91808771Y-127338700D01*
X91808771Y-127767271D02*
X90308771Y-127767271D01*
X90523057Y-127624414D01*
X90665914Y-127481557D01*
X90737342Y-127338700D01*
X91665914Y-128838700D02*
X91737342Y-128910128D01*
X91808771Y-128838700D01*
X91737342Y-128767271D01*
X91665914Y-128838700D01*
X91808771Y-128838700D01*
X90308771Y-129838700D02*
X90308771Y-129981557D01*
X90380200Y-130124414D01*
X90451628Y-130195842D01*
X90594485Y-130267271D01*
X90880200Y-130338700D01*
X91237342Y-130338700D01*
X91523057Y-130267271D01*
X91665914Y-130195842D01*
X91737342Y-130124414D01*
X91808771Y-129981557D01*
X91808771Y-129838700D01*
X91737342Y-129695842D01*
X91665914Y-129624414D01*
X91523057Y-129552985D01*
X91237342Y-129481557D01*
X90880200Y-129481557D01*
X90594485Y-129552985D01*
X90451628Y-129624414D01*
X90380200Y-129695842D01*
X90308771Y-129838700D01*
X91808771Y-132838700D02*
X91808771Y-132124414D01*
X90308771Y-132124414D01*
X91737342Y-133910128D02*
X91808771Y-133767271D01*
X91808771Y-133481557D01*
X91737342Y-133338700D01*
X91594485Y-133267271D01*
X91023057Y-133267271D01*
X90880200Y-133338700D01*
X90808771Y-133481557D01*
X90808771Y-133767271D01*
X90880200Y-133910128D01*
X91023057Y-133981557D01*
X91165914Y-133981557D01*
X91308771Y-133267271D01*
X90808771Y-134410128D02*
X90808771Y-134981557D01*
X91808771Y-134624414D02*
X90523057Y-134624414D01*
X90380200Y-134695842D01*
X90308771Y-134838700D01*
X90308771Y-134981557D01*
X90808771Y-135267271D02*
X90808771Y-135838700D01*
X90308771Y-135481557D02*
X91594485Y-135481557D01*
X91737342Y-135552985D01*
X91808771Y-135695842D01*
X91808771Y-135838700D01*
X91737342Y-137410128D02*
X91808771Y-137624414D01*
X91808771Y-137981557D01*
X91737342Y-138124414D01*
X91665914Y-138195842D01*
X91523057Y-138267271D01*
X91380200Y-138267271D01*
X91237342Y-138195842D01*
X91165914Y-138124414D01*
X91094485Y-137981557D01*
X91023057Y-137695842D01*
X90951628Y-137552985D01*
X90880200Y-137481557D01*
X90737342Y-137410128D01*
X90594485Y-137410128D01*
X90451628Y-137481557D01*
X90380200Y-137552985D01*
X90308771Y-137695842D01*
X90308771Y-138052985D01*
X90380200Y-138267271D01*
X91808771Y-138910128D02*
X90808771Y-138910128D01*
X90308771Y-138910128D02*
X90380200Y-138838700D01*
X90451628Y-138910128D01*
X90380200Y-138981557D01*
X90308771Y-138910128D01*
X90451628Y-138910128D01*
X91808771Y-140267271D02*
X90308771Y-140267271D01*
X91737342Y-140267271D02*
X91808771Y-140124414D01*
X91808771Y-139838700D01*
X91737342Y-139695842D01*
X91665914Y-139624414D01*
X91523057Y-139552985D01*
X91094485Y-139552985D01*
X90951628Y-139624414D01*
X90880200Y-139695842D01*
X90808771Y-139838700D01*
X90808771Y-140124414D01*
X90880200Y-140267271D01*
X91737342Y-141552985D02*
X91808771Y-141410128D01*
X91808771Y-141124414D01*
X91737342Y-140981557D01*
X91594485Y-140910128D01*
X91023057Y-140910128D01*
X90880200Y-140981557D01*
X90808771Y-141124414D01*
X90808771Y-141410128D01*
X90880200Y-141552985D01*
X91023057Y-141624414D01*
X91165914Y-141624414D01*
X91308771Y-140910128D01*
D11*
X105660622Y-141310262D02*
X105660622Y-141953120D01*
X105703480Y-142081691D01*
X105789194Y-142167405D01*
X105917765Y-142210262D01*
X106003480Y-142210262D01*
X104803480Y-142210262D02*
X105232051Y-142210262D01*
X105232051Y-141310262D01*
X103989194Y-142124548D02*
X104032051Y-142167405D01*
X104160622Y-142210262D01*
X104246337Y-142210262D01*
X104374908Y-142167405D01*
X104460622Y-142081691D01*
X104503480Y-141995977D01*
X104546337Y-141824548D01*
X104546337Y-141695977D01*
X104503480Y-141524548D01*
X104460622Y-141438834D01*
X104374908Y-141353120D01*
X104246337Y-141310262D01*
X104160622Y-141310262D01*
X104032051Y-141353120D01*
X103989194Y-141395977D01*
X103346337Y-141310262D02*
X103346337Y-141953120D01*
X103389194Y-142081691D01*
X103474908Y-142167405D01*
X103603480Y-142210262D01*
X103689194Y-142210262D01*
X102489194Y-142210262D02*
X102917765Y-142210262D01*
X102917765Y-141310262D01*
X101674908Y-142124548D02*
X101717765Y-142167405D01*
X101846337Y-142210262D01*
X101932051Y-142210262D01*
X102060622Y-142167405D01*
X102146337Y-142081691D01*
X102189194Y-141995977D01*
X102232051Y-141824548D01*
X102232051Y-141695977D01*
X102189194Y-141524548D01*
X102146337Y-141438834D01*
X102060622Y-141353120D01*
X101932051Y-141310262D01*
X101846337Y-141310262D01*
X101717765Y-141353120D01*
X101674908Y-141395977D01*
X101032051Y-141310262D02*
X101032051Y-141953120D01*
X101074908Y-142081691D01*
X101160622Y-142167405D01*
X101289194Y-142210262D01*
X101374908Y-142210262D01*
X100174908Y-142210262D02*
X100603480Y-142210262D01*
X100603480Y-141310262D01*
X99360622Y-142124548D02*
X99403480Y-142167405D01*
X99532051Y-142210262D01*
X99617765Y-142210262D01*
X99746337Y-142167405D01*
X99832051Y-142081691D01*
X99874908Y-141995977D01*
X99917765Y-141824548D01*
X99917765Y-141695977D01*
X99874908Y-141524548D01*
X99832051Y-141438834D01*
X99746337Y-141353120D01*
X99617765Y-141310262D01*
X99532051Y-141310262D01*
X99403480Y-141353120D01*
X99360622Y-141395977D01*
X98717765Y-141310262D02*
X98717765Y-141953120D01*
X98760622Y-142081691D01*
X98846337Y-142167405D01*
X98974908Y-142210262D01*
X99060622Y-142210262D01*
X97860622Y-142210262D02*
X98289194Y-142210262D01*
X98289194Y-141310262D01*
X97046337Y-142124548D02*
X97089194Y-142167405D01*
X97217765Y-142210262D01*
X97303480Y-142210262D01*
X97432051Y-142167405D01*
X97517765Y-142081691D01*
X97560622Y-141995977D01*
X97603480Y-141824548D01*
X97603480Y-141695977D01*
X97560622Y-141524548D01*
X97517765Y-141438834D01*
X97432051Y-141353120D01*
X97303480Y-141310262D01*
X97217765Y-141310262D01*
X97089194Y-141353120D01*
X97046337Y-141395977D01*
D12*
X90995500Y-142938500D02*
X208153000Y-142938500D01*
X89979500Y-67627500D02*
X89979500Y-141922500D01*
X103886000Y-66611500D02*
X90995500Y-66611500D01*
X114173000Y-66611500D02*
X203390500Y-66611500D01*
X204406500Y-84645500D02*
X204406500Y-67627500D01*
X208153000Y-85661500D02*
X205422500Y-85661500D01*
X209169000Y-103695500D02*
X209169000Y-86677500D01*
X212915500Y-104711500D02*
X210185000Y-104711500D01*
X213931500Y-122872500D02*
X213931500Y-105727500D01*
X212915500Y-123888500D02*
X210185000Y-123888500D01*
X209169000Y-141922500D02*
X209169000Y-124904500D01*
X209169000Y-141922500D02*
G75*
G02X208151731Y-142939769I-1017269J0D01*
G01*
X90995500Y-142938500D02*
G75*
G02X89978231Y-141921231I0J1017269D01*
G01*
X89979500Y-67627500D02*
G75*
G02X90996769Y-66610231I1017269J0D01*
G01*
X114173000Y-66040000D02*
X114173000Y-66611500D01*
X104902000Y-65024000D02*
X113157000Y-65024000D01*
X103886000Y-66040000D02*
X103886000Y-66611500D01*
X103884731Y-66041269D02*
G75*
G02X104902000Y-65024000I1017269J0D01*
G01*
X113155731Y-65022731D02*
G75*
G02X114173000Y-66040000I0J-1017269D01*
G01*
X203389231Y-66610231D02*
G75*
G02X204406500Y-67627500I0J-1017269D01*
G01*
X205422500Y-85661500D02*
G75*
G02X204405231Y-84644231I0J1017269D01*
G01*
X208153000Y-85661500D02*
G75*
G02X209170269Y-86678769I0J-1017269D01*
G01*
X210185000Y-104711500D02*
G75*
G02X209167731Y-103694231I0J1017269D01*
G01*
X212915500Y-104711500D02*
G75*
G02X213932769Y-105728769I0J-1017269D01*
G01*
X209167731Y-124905769D02*
G75*
G02X210185000Y-123888500I1017269J0D01*
G01*
X213931500Y-122872500D02*
G75*
G02X212914231Y-123889769I-1017269J0D01*
G01*
D13*
X96021200Y-92983360D02*
X90821200Y-92983360D01*
X96021200Y-87843360D02*
X96021200Y-92983360D01*
X90821200Y-85243360D02*
X90821200Y-92983360D01*
X96021200Y-87843360D02*
X93421200Y-87843360D01*
X93421200Y-87843360D02*
X93421200Y-85243360D01*
X93421200Y-85243360D02*
X90821200Y-85243360D01*
X96021200Y-86573360D02*
X96021200Y-85243360D01*
X96021200Y-85243360D02*
X94691200Y-85243360D01*
X119482500Y-117828000D02*
X119482500Y-116828000D01*
X121182500Y-116828000D02*
X121182500Y-117828000D01*
X108617120Y-99352480D02*
X108617120Y-100352480D01*
X106917120Y-100352480D02*
X106917120Y-99352480D01*
X126605920Y-104019720D02*
X125605920Y-104019720D01*
X125605920Y-102319720D02*
X126605920Y-102319720D01*
X105818040Y-104407080D02*
X105818040Y-105407080D01*
X104118040Y-105407080D02*
X104118040Y-104407080D01*
X110719500Y-117848000D02*
X110719500Y-116848000D01*
X112419500Y-116848000D02*
X112419500Y-117848000D01*
X106577500Y-99322000D02*
X106577500Y-100322000D01*
X104877500Y-100322000D02*
X104877500Y-99322000D01*
X101180200Y-69303000D02*
X100180200Y-69303000D01*
X100180200Y-67603000D02*
X101180200Y-67603000D01*
X128973200Y-85559000D02*
X127973200Y-85559000D01*
X127973200Y-83859000D02*
X128973200Y-83859000D01*
X165940800Y-84290800D02*
X166940800Y-84290800D01*
X166940800Y-85990800D02*
X165940800Y-85990800D01*
X206742400Y-104046400D02*
X206742400Y-105046400D01*
X205042400Y-105046400D02*
X205042400Y-104046400D01*
X193079000Y-124096400D02*
X193079000Y-123096400D01*
X194779000Y-123096400D02*
X194779000Y-124096400D01*
X156298000Y-123198000D02*
X156298000Y-124198000D01*
X154598000Y-124198000D02*
X154598000Y-123198000D01*
X118733200Y-123791600D02*
X118733200Y-122791600D01*
X120433200Y-122791600D02*
X120433200Y-123791600D01*
X92672800Y-105300400D02*
X92672800Y-104300400D01*
X94372800Y-104300400D02*
X94372800Y-105300400D01*
X94649800Y-83006760D02*
X92649800Y-83006760D01*
X92649800Y-83006760D02*
X92649800Y-79106760D01*
X94649800Y-83006760D02*
X94649800Y-79106760D01*
X114149380Y-83049940D02*
X114149380Y-79149940D01*
X112149380Y-83049940D02*
X112149380Y-79149940D01*
X114149380Y-83049940D02*
X112149380Y-83049940D01*
X144510000Y-73878000D02*
X142510000Y-73878000D01*
X142510000Y-73878000D02*
X142510000Y-69978000D01*
X144510000Y-73878000D02*
X144510000Y-69978000D01*
X163560000Y-73751000D02*
X163560000Y-69851000D01*
X161560000Y-73751000D02*
X161560000Y-69851000D01*
X163560000Y-73751000D02*
X161560000Y-73751000D01*
X181898800Y-74081200D02*
X179898800Y-74081200D01*
X179898800Y-74081200D02*
X179898800Y-70181200D01*
X181898800Y-74081200D02*
X181898800Y-70181200D01*
X201736200Y-73801800D02*
X201736200Y-69901800D01*
X199736200Y-73801800D02*
X199736200Y-69901800D01*
X201736200Y-73801800D02*
X199736200Y-73801800D01*
X108873800Y-92902600D02*
X106873800Y-92902600D01*
X106873800Y-92902600D02*
X106873800Y-89002600D01*
X108873800Y-92902600D02*
X108873800Y-89002600D01*
X130260600Y-92801000D02*
X130260600Y-88901000D01*
X128260600Y-92801000D02*
X128260600Y-88901000D01*
X130260600Y-92801000D02*
X128260600Y-92801000D01*
X149285200Y-92801000D02*
X147285200Y-92801000D01*
X147285200Y-92801000D02*
X147285200Y-88901000D01*
X149285200Y-92801000D02*
X149285200Y-88901000D01*
X168373300Y-92902600D02*
X168373300Y-89002600D01*
X166373300Y-92902600D02*
X166373300Y-89002600D01*
X168373300Y-92902600D02*
X166373300Y-92902600D01*
X187410600Y-92915300D02*
X185410600Y-92915300D01*
X185410600Y-92915300D02*
X185410600Y-89015300D01*
X187410600Y-92915300D02*
X187410600Y-89015300D01*
X206460600Y-92877200D02*
X206460600Y-88977200D01*
X204460600Y-92877200D02*
X204460600Y-88977200D01*
X206460600Y-92877200D02*
X204460600Y-92877200D01*
X97098360Y-112851760D02*
X95098360Y-112851760D01*
X95098360Y-112851760D02*
X95098360Y-108951760D01*
X97098360Y-112851760D02*
X97098360Y-108951760D01*
X135035800Y-111927200D02*
X133035800Y-111927200D01*
X133035800Y-111927200D02*
X133035800Y-108027200D01*
X135035800Y-111927200D02*
X135035800Y-108027200D01*
X154004520Y-111927200D02*
X152004520Y-111927200D01*
X152004520Y-111927200D02*
X152004520Y-108027200D01*
X154004520Y-111927200D02*
X154004520Y-108027200D01*
X175040800Y-113654400D02*
X175040800Y-109754400D01*
X173040800Y-113654400D02*
X173040800Y-109754400D01*
X175040800Y-113654400D02*
X173040800Y-113654400D01*
X192135000Y-111978000D02*
X192135000Y-108078000D01*
X190135000Y-111978000D02*
X190135000Y-108078000D01*
X192135000Y-111978000D02*
X190135000Y-111978000D01*
X211185000Y-111851000D02*
X211185000Y-107951000D01*
X209185000Y-111851000D02*
X209185000Y-107951000D01*
X211185000Y-111851000D02*
X209185000Y-111851000D01*
X108823000Y-131028000D02*
X106823000Y-131028000D01*
X106823000Y-131028000D02*
X106823000Y-127128000D01*
X108823000Y-131028000D02*
X108823000Y-127128000D01*
X126837000Y-124095000D02*
X126837000Y-126095000D01*
X126837000Y-126095000D02*
X122937000Y-126095000D01*
X126837000Y-124095000D02*
X122937000Y-124095000D01*
X134783000Y-125968000D02*
X134783000Y-123968000D01*
X134783000Y-123968000D02*
X138683000Y-123968000D01*
X134783000Y-125968000D02*
X138683000Y-125968000D01*
X156944500Y-126095000D02*
X160844500Y-126095000D01*
X156944500Y-124095000D02*
X160844500Y-124095000D01*
X156944500Y-126095000D02*
X156944500Y-124095000D01*
X178725000Y-125968000D02*
X182625000Y-125968000D01*
X178725000Y-123968000D02*
X182625000Y-123968000D01*
X178725000Y-125968000D02*
X178725000Y-123968000D01*
X206422500Y-130964500D02*
X206422500Y-127064500D01*
X204422500Y-130964500D02*
X204422500Y-127064500D01*
X206422500Y-130964500D02*
X204422500Y-130964500D01*
X126717400Y-69916800D02*
X126717400Y-71916800D01*
X128857400Y-71916800D02*
X128857400Y-69916800D01*
D11*
X97590100Y-103762300D02*
X97590100Y-105762300D01*
X97590100Y-105762300D02*
X99590100Y-105762300D01*
X99590100Y-105762300D02*
X99590100Y-104262300D01*
X99590100Y-104262300D02*
X99090100Y-103762300D01*
X99090100Y-103762300D02*
X97590100Y-103762300D01*
X97590100Y-102262300D02*
X99590100Y-102262300D01*
X101090100Y-104262300D02*
X101090100Y-105262300D01*
X97590100Y-107262300D02*
X99590100Y-107262300D01*
X96090100Y-104262300D02*
X96090100Y-105262300D01*
X127693800Y-81646400D02*
X128693800Y-81646400D01*
X130693800Y-80146400D02*
X130693800Y-78146400D01*
X127693800Y-76646400D02*
X128693800Y-76646400D01*
X125693800Y-80146400D02*
X125693800Y-78146400D01*
X127193800Y-78646400D02*
X127193800Y-80146400D01*
X127693800Y-78146400D02*
X127193800Y-78646400D01*
X129193800Y-78146400D02*
X127693800Y-78146400D01*
X129193800Y-80146400D02*
X129193800Y-78146400D01*
X127193800Y-80146400D02*
X129193800Y-80146400D01*
X165395400Y-80603600D02*
X167395400Y-80603600D01*
X167395400Y-80603600D02*
X167395400Y-78603600D01*
X167395400Y-78603600D02*
X165895400Y-78603600D01*
X165895400Y-78603600D02*
X165395400Y-79103600D01*
X165395400Y-79103600D02*
X165395400Y-80603600D01*
X163895400Y-80603600D02*
X163895400Y-78603600D01*
X165895400Y-77103600D02*
X166895400Y-77103600D01*
X168895400Y-80603600D02*
X168895400Y-78603600D01*
X165895400Y-82103600D02*
X166895400Y-82103600D01*
X202702800Y-105224200D02*
X202702800Y-104224200D01*
X201202800Y-102224200D02*
X199202800Y-102224200D01*
X197702800Y-105224200D02*
X197702800Y-104224200D01*
X201202800Y-107224200D02*
X199202800Y-107224200D01*
X199702800Y-105724200D02*
X201202800Y-105724200D01*
X199202800Y-105224200D02*
X199702800Y-105724200D01*
X199202800Y-103724200D02*
X199202800Y-105224200D01*
X201202800Y-103724200D02*
X199202800Y-103724200D01*
X201202800Y-105724200D02*
X201202800Y-103724200D01*
X188452000Y-124537980D02*
X188452000Y-122537980D01*
X188452000Y-122537980D02*
X186452000Y-122537980D01*
X186452000Y-122537980D02*
X186452000Y-124037980D01*
X186452000Y-124037980D02*
X186952000Y-124537980D01*
X186952000Y-124537980D02*
X188452000Y-124537980D01*
X188452000Y-126037980D02*
X186452000Y-126037980D01*
X184952000Y-124037980D02*
X184952000Y-123037980D01*
X188452000Y-121037980D02*
X186452000Y-121037980D01*
X189952000Y-124037980D02*
X189952000Y-123037980D01*
X150910800Y-124672600D02*
X150910800Y-122672600D01*
X150910800Y-122672600D02*
X148910800Y-122672600D01*
X148910800Y-122672600D02*
X148910800Y-124172600D01*
X148910800Y-124172600D02*
X149410800Y-124672600D01*
X149410800Y-124672600D02*
X150910800Y-124672600D01*
X150910800Y-126172600D02*
X148910800Y-126172600D01*
X147410800Y-124172600D02*
X147410800Y-123172600D01*
X150910800Y-121172600D02*
X148910800Y-121172600D01*
X152410800Y-124172600D02*
X152410800Y-123172600D01*
X115931320Y-123885580D02*
X115931320Y-122885580D01*
X114431320Y-120885580D02*
X112431320Y-120885580D01*
X110931320Y-123885580D02*
X110931320Y-122885580D01*
X114431320Y-125885580D02*
X112431320Y-125885580D01*
X112931320Y-124385580D02*
X114431320Y-124385580D01*
X112431320Y-123885580D02*
X112931320Y-124385580D01*
X112431320Y-122385580D02*
X112431320Y-123885580D01*
X114431320Y-122385580D02*
X112431320Y-122385580D01*
X114431320Y-124385580D02*
X114431320Y-122385580D01*
D13*
X138497200Y-109685380D02*
X138497200Y-108485380D01*
X136737200Y-108485380D02*
X136737200Y-109685380D01*
X139176880Y-115938840D02*
X139176880Y-114478840D01*
X136016880Y-115938840D02*
X136016880Y-112778840D01*
X136016880Y-115938840D02*
X136946880Y-115938840D01*
X139176880Y-115938840D02*
X138246880Y-115938840D01*
X185287200Y-104580800D02*
X184087200Y-104580800D01*
X184087200Y-106340800D02*
X185287200Y-106340800D01*
X116976000Y-116828000D02*
X116976000Y-118028000D01*
X118736000Y-118028000D02*
X118736000Y-116828000D01*
X113252800Y-85683200D02*
X112052800Y-85683200D01*
X112052800Y-87443200D02*
X113252800Y-87443200D01*
X117357600Y-87443200D02*
X118557600Y-87443200D01*
X118557600Y-85683200D02*
X117357600Y-85683200D01*
X122399500Y-74222500D02*
X123599500Y-74222500D01*
X123599500Y-72462500D02*
X122399500Y-72462500D01*
X142148000Y-82160000D02*
X143348000Y-82160000D01*
X143348000Y-80400000D02*
X142148000Y-80400000D01*
X150911000Y-82350500D02*
X152111000Y-82350500D01*
X152111000Y-80590500D02*
X150911000Y-80590500D01*
X181511500Y-80463500D02*
X180311500Y-80463500D01*
X180311500Y-82223500D02*
X181511500Y-82223500D01*
X199425000Y-82223500D02*
X200625000Y-82223500D01*
X200625000Y-80463500D02*
X199425000Y-80463500D01*
X94897500Y-99577000D02*
X93697500Y-99577000D01*
X93697500Y-101337000D02*
X94897500Y-101337000D01*
X128432000Y-101273500D02*
X129632000Y-101273500D01*
X129632000Y-99513500D02*
X128432000Y-99513500D01*
X148428000Y-99513500D02*
X147228000Y-99513500D01*
X147228000Y-101273500D02*
X148428000Y-101273500D01*
X167414500Y-99513500D02*
X166214500Y-99513500D01*
X166214500Y-101273500D02*
X167414500Y-101273500D01*
X185074000Y-101210000D02*
X186274000Y-101210000D01*
X186274000Y-99450000D02*
X185074000Y-99450000D01*
X205070000Y-99513500D02*
X203870000Y-99513500D01*
X203870000Y-101273500D02*
X205070000Y-101273500D01*
X97888500Y-120323500D02*
X99088500Y-120323500D01*
X99088500Y-118563500D02*
X97888500Y-118563500D01*
X133759500Y-118563500D02*
X132559500Y-118563500D01*
X132559500Y-120323500D02*
X133759500Y-120323500D01*
X151546000Y-120260000D02*
X152746000Y-120260000D01*
X152746000Y-118500000D02*
X151546000Y-118500000D01*
X171669000Y-118563500D02*
X170469000Y-118563500D01*
X170469000Y-120323500D02*
X171669000Y-120323500D01*
X189582500Y-120323500D02*
X190782500Y-120323500D01*
X190782500Y-118563500D02*
X189582500Y-118563500D01*
X208696000Y-120323500D02*
X209896000Y-120323500D01*
X209896000Y-118563500D02*
X208696000Y-118563500D01*
X93824500Y-139310000D02*
X95024500Y-139310000D01*
X95024500Y-137550000D02*
X93824500Y-137550000D01*
X113947500Y-137613500D02*
X112747500Y-137613500D01*
X112747500Y-139373500D02*
X113947500Y-139373500D01*
X142228000Y-139310000D02*
X143428000Y-139310000D01*
X143428000Y-137550000D02*
X142228000Y-137550000D01*
X161198000Y-139373500D02*
X162398000Y-139373500D01*
X162398000Y-137613500D02*
X161198000Y-137613500D01*
X170342000Y-141697600D02*
X171542000Y-141697600D01*
X171542000Y-139937600D02*
X170342000Y-139937600D01*
X204479600Y-139310000D02*
X205679600Y-139310000D01*
X205679600Y-137550000D02*
X204479600Y-137550000D01*
X92856160Y-71375980D02*
X92856160Y-72575980D01*
X94616160Y-72575980D02*
X94616160Y-71375980D01*
X93437600Y-111191600D02*
X93437600Y-109991600D01*
X91677600Y-109991600D02*
X91677600Y-111191600D01*
D14*
X177873600Y-105257600D02*
G75*
G03X177873600Y-105257600I-1750000J0D01*
G01*
X176123600Y-108257600D02*
X173123600Y-108257600D01*
X173123600Y-108257600D02*
X173123600Y-102257600D01*
X173123600Y-102257600D02*
X179123600Y-102257600D01*
X179123600Y-102257600D02*
X179123600Y-108257600D01*
X179123600Y-108257600D02*
X176123600Y-108257600D01*
X182950200Y-63907920D02*
X188550200Y-63907920D01*
X188550200Y-65907920D02*
X188550200Y-63907920D01*
X182950200Y-65907920D02*
X182950200Y-63907920D01*
X188800200Y-65907920D02*
X188800200Y-78007920D01*
X182700200Y-65907920D02*
X182700200Y-78007920D01*
X182700200Y-78007920D02*
X188800200Y-78007920D01*
X182700200Y-65907920D02*
X188800200Y-65907920D01*
D10*
X111970000Y-111028400D02*
X111095000Y-110178400D01*
X111095000Y-110178400D02*
X111095000Y-102128400D01*
X111095000Y-102128400D02*
X120020000Y-102128400D01*
X120020000Y-102128400D02*
X120020000Y-111028400D01*
X120020000Y-111028400D02*
X111970000Y-111028400D01*
D15*
X112970000Y-109738400D02*
G75*
G03X112970000Y-109738400I-635000J0D01*
G01*
D14*
X108232040Y-75311200D02*
X109832040Y-75311200D01*
X110362040Y-75311200D02*
X110662040Y-75311200D01*
X108232040Y-78511200D02*
X109832040Y-78511200D01*
D13*
X109020500Y-82197500D02*
X109020500Y-80997500D01*
X107260500Y-80997500D02*
X107260500Y-82197500D01*
X110989000Y-82214000D02*
X110989000Y-81014000D01*
X109229000Y-81014000D02*
X109229000Y-82214000D01*
X121104100Y-69358400D02*
X122304100Y-69358400D01*
X122304100Y-67598400D02*
X121104100Y-67598400D01*
X117570800Y-67598400D02*
X116370800Y-67598400D01*
X116370800Y-69358400D02*
X117570800Y-69358400D01*
X95344700Y-69345700D02*
X96544700Y-69345700D01*
X96544700Y-67585700D02*
X95344700Y-67585700D01*
X115634400Y-95836360D02*
X115634400Y-94836360D01*
X117334400Y-94836360D02*
X117334400Y-95836360D01*
X109314880Y-95686500D02*
X109314880Y-94686500D01*
X111014880Y-94686500D02*
X111014880Y-95686500D01*
D14*
X114985800Y-93294200D02*
X114884200Y-93192600D01*
X114985800Y-93294200D02*
X114985800Y-97205800D01*
X111760000Y-93192600D02*
X114884200Y-93192600D01*
X115214400Y-94208600D02*
X115722400Y-94564200D01*
X115722400Y-94564200D02*
X115722400Y-93929200D01*
X115722400Y-94564200D02*
X115722400Y-93827600D01*
X115722400Y-93827600D02*
X115214400Y-94208600D01*
D16*
G36*
X154257186Y-97430631D02*
X154173365Y-97875255D01*
X153864080Y-98002753D01*
X153554794Y-98130251D01*
X153183754Y-97877946D01*
X153079843Y-97807696D01*
X152985913Y-97744972D01*
X152906348Y-97692638D01*
X152845530Y-97653557D01*
X152807843Y-97630593D01*
X152797579Y-97625642D01*
X152779090Y-97638376D01*
X152739580Y-97673582D01*
X152683478Y-97726762D01*
X152615213Y-97793418D01*
X152539214Y-97869054D01*
X152459908Y-97949172D01*
X152381725Y-98029274D01*
X152309093Y-98104864D01*
X152246441Y-98171445D01*
X152198197Y-98224518D01*
X152168790Y-98259587D01*
X152161759Y-98271323D01*
X152171877Y-98292960D01*
X152200241Y-98340362D01*
X152243871Y-98408893D01*
X152299782Y-98493915D01*
X152364994Y-98590793D01*
X152402781Y-98646050D01*
X152471657Y-98746948D01*
X152532860Y-98837999D01*
X152583422Y-98914670D01*
X152620372Y-98972428D01*
X152640742Y-99006743D01*
X152643803Y-99013954D01*
X152636864Y-99034448D01*
X152617949Y-99082213D01*
X152589913Y-99150532D01*
X152555609Y-99232689D01*
X152517891Y-99321970D01*
X152479613Y-99411658D01*
X152443630Y-99495038D01*
X152412794Y-99565394D01*
X152389961Y-99616010D01*
X152377983Y-99640171D01*
X152377276Y-99641122D01*
X152358469Y-99645736D01*
X152308382Y-99656028D01*
X152232207Y-99670987D01*
X152135135Y-99689601D01*
X152022357Y-99710859D01*
X151956558Y-99723118D01*
X151836050Y-99746062D01*
X151727203Y-99767895D01*
X151635524Y-99787422D01*
X151566519Y-99803448D01*
X151525696Y-99814779D01*
X151517489Y-99818374D01*
X151509452Y-99842706D01*
X151502967Y-99897659D01*
X151498030Y-99976808D01*
X151494636Y-100073726D01*
X151492782Y-100181987D01*
X151492462Y-100295165D01*
X151493673Y-100406835D01*
X151496410Y-100510568D01*
X151500669Y-100599941D01*
X151506445Y-100668526D01*
X151513733Y-100709897D01*
X151518105Y-100718510D01*
X151544236Y-100728833D01*
X151599607Y-100743592D01*
X151676893Y-100761052D01*
X151768770Y-100779480D01*
X151800842Y-100785441D01*
X151955476Y-100813766D01*
X152077625Y-100836576D01*
X152171327Y-100854780D01*
X152240616Y-100869283D01*
X152289529Y-100880992D01*
X152322103Y-100890815D01*
X152342372Y-100899656D01*
X152354374Y-100908424D01*
X152356053Y-100910157D01*
X152372816Y-100938071D01*
X152398386Y-100992395D01*
X152430212Y-101066477D01*
X152465740Y-101153665D01*
X152502417Y-101247308D01*
X152537689Y-101340752D01*
X152569004Y-101427347D01*
X152593807Y-101500440D01*
X152609546Y-101553378D01*
X152613668Y-101579511D01*
X152613324Y-101580426D01*
X152599359Y-101601786D01*
X152567678Y-101648784D01*
X152521609Y-101716527D01*
X152464482Y-101800123D01*
X152399627Y-101894682D01*
X152381157Y-101921554D01*
X152315301Y-102018975D01*
X152257350Y-102107863D01*
X152210462Y-102183112D01*
X152177793Y-102239620D01*
X152162500Y-102272281D01*
X152161759Y-102276293D01*
X152174608Y-102297384D01*
X152210112Y-102339164D01*
X152263707Y-102397145D01*
X152330829Y-102466835D01*
X152406913Y-102543745D01*
X152487396Y-102623383D01*
X152567713Y-102701261D01*
X152643301Y-102772886D01*
X152709595Y-102833770D01*
X152762031Y-102879421D01*
X152796045Y-102905350D01*
X152805455Y-102909583D01*
X152827357Y-102899612D01*
X152872200Y-102872720D01*
X152932679Y-102833436D01*
X152979211Y-102801817D01*
X153063525Y-102743798D01*
X153163374Y-102675484D01*
X153263527Y-102607279D01*
X153317373Y-102570775D01*
X153499629Y-102447500D01*
X153652619Y-102530220D01*
X153722318Y-102566459D01*
X153781586Y-102594626D01*
X153821689Y-102610691D01*
X153831897Y-102612926D01*
X153844171Y-102596422D01*
X153868387Y-102549782D01*
X153902737Y-102477309D01*
X153945412Y-102383306D01*
X153994606Y-102272074D01*
X154048510Y-102147915D01*
X154105316Y-102015132D01*
X154163218Y-101878027D01*
X154220407Y-101740902D01*
X154275076Y-101608058D01*
X154325416Y-101483798D01*
X154369620Y-101372425D01*
X154405881Y-101278239D01*
X154432391Y-101205544D01*
X154447342Y-101158641D01*
X154449746Y-101142533D01*
X154430689Y-101121986D01*
X154388964Y-101088633D01*
X154333294Y-101049402D01*
X154328622Y-101046299D01*
X154184736Y-100931123D01*
X154068717Y-100796753D01*
X153981570Y-100647484D01*
X153924301Y-100487613D01*
X153897914Y-100321437D01*
X153903415Y-100153252D01*
X153941810Y-99987355D01*
X154014105Y-99828042D01*
X154035374Y-99793187D01*
X154146004Y-99652437D01*
X154276698Y-99539414D01*
X154422936Y-99454703D01*
X154580192Y-99398894D01*
X154743943Y-99372574D01*
X154909667Y-99376330D01*
X155072838Y-99410750D01*
X155228935Y-99476423D01*
X155373433Y-99573935D01*
X155418131Y-99613513D01*
X155531888Y-99737403D01*
X155614782Y-99867824D01*
X155671644Y-100014015D01*
X155703313Y-100158788D01*
X155711131Y-100321560D01*
X155685062Y-100485140D01*
X155627755Y-100643998D01*
X155541856Y-100792606D01*
X155430014Y-100925435D01*
X155294877Y-101036956D01*
X155277117Y-101048711D01*
X155220850Y-101087208D01*
X155178077Y-101120563D01*
X155157628Y-101141860D01*
X155157331Y-101142533D01*
X155161721Y-101165571D01*
X155179124Y-101217857D01*
X155207732Y-101295090D01*
X155245735Y-101392968D01*
X155291326Y-101507191D01*
X155342697Y-101633458D01*
X155398038Y-101767467D01*
X155455542Y-101904918D01*
X155513399Y-102041508D01*
X155569802Y-102172937D01*
X155622942Y-102294905D01*
X155671010Y-102403109D01*
X155712199Y-102493249D01*
X155744699Y-102561023D01*
X155766703Y-102602130D01*
X155775564Y-102612926D01*
X155802640Y-102604519D01*
X155853303Y-102581972D01*
X155918817Y-102549313D01*
X155954841Y-102530220D01*
X156107832Y-102447500D01*
X156290088Y-102570775D01*
X156383125Y-102633928D01*
X156484985Y-102703427D01*
X156580438Y-102768865D01*
X156628250Y-102801817D01*
X156695495Y-102846973D01*
X156752436Y-102882757D01*
X156791646Y-102904638D01*
X156804381Y-102909263D01*
X156822917Y-102896785D01*
X156863941Y-102861952D01*
X156923475Y-102808378D01*
X156997542Y-102739683D01*
X157082165Y-102659481D01*
X157135685Y-102607986D01*
X157229319Y-102515986D01*
X157310241Y-102433699D01*
X157375177Y-102364645D01*
X157420858Y-102312344D01*
X157444011Y-102280316D01*
X157446232Y-102273816D01*
X157435924Y-102249094D01*
X157407439Y-102199105D01*
X157363937Y-102128912D01*
X157308577Y-102043575D01*
X157244520Y-101948156D01*
X157226303Y-101921554D01*
X157159927Y-101824867D01*
X157100378Y-101737817D01*
X157050984Y-101665295D01*
X157015075Y-101612193D01*
X156995981Y-101583403D01*
X156994136Y-101580426D01*
X156996895Y-101557482D01*
X157011538Y-101507036D01*
X157035513Y-101435741D01*
X157066266Y-101350247D01*
X157101244Y-101257207D01*
X157137893Y-101163274D01*
X157173661Y-101075099D01*
X157205994Y-100999334D01*
X157232338Y-100942631D01*
X157250142Y-100911643D01*
X157251407Y-100910157D01*
X157262294Y-100901301D01*
X157280682Y-100892543D01*
X157310606Y-100882977D01*
X157356103Y-100871696D01*
X157421209Y-100857793D01*
X157509961Y-100840363D01*
X157626393Y-100818498D01*
X157774542Y-100791291D01*
X157806618Y-100785441D01*
X157901686Y-100767074D01*
X157984565Y-100749105D01*
X158047930Y-100733269D01*
X158084458Y-100721300D01*
X158089356Y-100718510D01*
X158097427Y-100693772D01*
X158103987Y-100638490D01*
X158109033Y-100559089D01*
X158112559Y-100461996D01*
X158114561Y-100353638D01*
X158115036Y-100240440D01*
X158113977Y-100128828D01*
X158111382Y-100025229D01*
X158107246Y-99936068D01*
X158101563Y-99867772D01*
X158094331Y-99826766D01*
X158089971Y-99818374D01*
X158065698Y-99809908D01*
X158010426Y-99796135D01*
X157929662Y-99778250D01*
X157828912Y-99757448D01*
X157713683Y-99734923D01*
X157650902Y-99723118D01*
X157531787Y-99700851D01*
X157425565Y-99680679D01*
X157337427Y-99663615D01*
X157272566Y-99650669D01*
X157236174Y-99642855D01*
X157230184Y-99641122D01*
X157220061Y-99621590D01*
X157198662Y-99574543D01*
X157168839Y-99506703D01*
X157133445Y-99424791D01*
X157095332Y-99335528D01*
X157057353Y-99245635D01*
X157022360Y-99161835D01*
X156993206Y-99090847D01*
X156972743Y-99039394D01*
X156963823Y-99014197D01*
X156963657Y-99013096D01*
X156973769Y-98993219D01*
X157002117Y-98947477D01*
X157045723Y-98880417D01*
X157101606Y-98796584D01*
X157166787Y-98700526D01*
X157204679Y-98645350D01*
X157273725Y-98544181D01*
X157335050Y-98452330D01*
X157385663Y-98374444D01*
X157422571Y-98315169D01*
X157442782Y-98279151D01*
X157445701Y-98271077D01*
X157433153Y-98252284D01*
X157398463Y-98212157D01*
X157346063Y-98155193D01*
X157280384Y-98085885D01*
X157205856Y-98008731D01*
X157126913Y-97928225D01*
X157047983Y-97848863D01*
X156973500Y-97775140D01*
X156907894Y-97711552D01*
X156855596Y-97662594D01*
X156821039Y-97632761D01*
X156809478Y-97625642D01*
X156790654Y-97635653D01*
X156745631Y-97663778D01*
X156678787Y-97707154D01*
X156594499Y-97762918D01*
X156497144Y-97828206D01*
X156423707Y-97877946D01*
X156052667Y-98130251D01*
X155434095Y-97875255D01*
X155350275Y-97430631D01*
X155266454Y-96986007D01*
X154341006Y-96986007D01*
X154257186Y-97430631D01*
X154257186Y-97430631D01*
G37*
X154257186Y-97430631D02*
X154173365Y-97875255D01*
X153864080Y-98002753D01*
X153554794Y-98130251D01*
X153183754Y-97877946D01*
X153079843Y-97807696D01*
X152985913Y-97744972D01*
X152906348Y-97692638D01*
X152845530Y-97653557D01*
X152807843Y-97630593D01*
X152797579Y-97625642D01*
X152779090Y-97638376D01*
X152739580Y-97673582D01*
X152683478Y-97726762D01*
X152615213Y-97793418D01*
X152539214Y-97869054D01*
X152459908Y-97949172D01*
X152381725Y-98029274D01*
X152309093Y-98104864D01*
X152246441Y-98171445D01*
X152198197Y-98224518D01*
X152168790Y-98259587D01*
X152161759Y-98271323D01*
X152171877Y-98292960D01*
X152200241Y-98340362D01*
X152243871Y-98408893D01*
X152299782Y-98493915D01*
X152364994Y-98590793D01*
X152402781Y-98646050D01*
X152471657Y-98746948D01*
X152532860Y-98837999D01*
X152583422Y-98914670D01*
X152620372Y-98972428D01*
X152640742Y-99006743D01*
X152643803Y-99013954D01*
X152636864Y-99034448D01*
X152617949Y-99082213D01*
X152589913Y-99150532D01*
X152555609Y-99232689D01*
X152517891Y-99321970D01*
X152479613Y-99411658D01*
X152443630Y-99495038D01*
X152412794Y-99565394D01*
X152389961Y-99616010D01*
X152377983Y-99640171D01*
X152377276Y-99641122D01*
X152358469Y-99645736D01*
X152308382Y-99656028D01*
X152232207Y-99670987D01*
X152135135Y-99689601D01*
X152022357Y-99710859D01*
X151956558Y-99723118D01*
X151836050Y-99746062D01*
X151727203Y-99767895D01*
X151635524Y-99787422D01*
X151566519Y-99803448D01*
X151525696Y-99814779D01*
X151517489Y-99818374D01*
X151509452Y-99842706D01*
X151502967Y-99897659D01*
X151498030Y-99976808D01*
X151494636Y-100073726D01*
X151492782Y-100181987D01*
X151492462Y-100295165D01*
X151493673Y-100406835D01*
X151496410Y-100510568D01*
X151500669Y-100599941D01*
X151506445Y-100668526D01*
X151513733Y-100709897D01*
X151518105Y-100718510D01*
X151544236Y-100728833D01*
X151599607Y-100743592D01*
X151676893Y-100761052D01*
X151768770Y-100779480D01*
X151800842Y-100785441D01*
X151955476Y-100813766D01*
X152077625Y-100836576D01*
X152171327Y-100854780D01*
X152240616Y-100869283D01*
X152289529Y-100880992D01*
X152322103Y-100890815D01*
X152342372Y-100899656D01*
X152354374Y-100908424D01*
X152356053Y-100910157D01*
X152372816Y-100938071D01*
X152398386Y-100992395D01*
X152430212Y-101066477D01*
X152465740Y-101153665D01*
X152502417Y-101247308D01*
X152537689Y-101340752D01*
X152569004Y-101427347D01*
X152593807Y-101500440D01*
X152609546Y-101553378D01*
X152613668Y-101579511D01*
X152613324Y-101580426D01*
X152599359Y-101601786D01*
X152567678Y-101648784D01*
X152521609Y-101716527D01*
X152464482Y-101800123D01*
X152399627Y-101894682D01*
X152381157Y-101921554D01*
X152315301Y-102018975D01*
X152257350Y-102107863D01*
X152210462Y-102183112D01*
X152177793Y-102239620D01*
X152162500Y-102272281D01*
X152161759Y-102276293D01*
X152174608Y-102297384D01*
X152210112Y-102339164D01*
X152263707Y-102397145D01*
X152330829Y-102466835D01*
X152406913Y-102543745D01*
X152487396Y-102623383D01*
X152567713Y-102701261D01*
X152643301Y-102772886D01*
X152709595Y-102833770D01*
X152762031Y-102879421D01*
X152796045Y-102905350D01*
X152805455Y-102909583D01*
X152827357Y-102899612D01*
X152872200Y-102872720D01*
X152932679Y-102833436D01*
X152979211Y-102801817D01*
X153063525Y-102743798D01*
X153163374Y-102675484D01*
X153263527Y-102607279D01*
X153317373Y-102570775D01*
X153499629Y-102447500D01*
X153652619Y-102530220D01*
X153722318Y-102566459D01*
X153781586Y-102594626D01*
X153821689Y-102610691D01*
X153831897Y-102612926D01*
X153844171Y-102596422D01*
X153868387Y-102549782D01*
X153902737Y-102477309D01*
X153945412Y-102383306D01*
X153994606Y-102272074D01*
X154048510Y-102147915D01*
X154105316Y-102015132D01*
X154163218Y-101878027D01*
X154220407Y-101740902D01*
X154275076Y-101608058D01*
X154325416Y-101483798D01*
X154369620Y-101372425D01*
X154405881Y-101278239D01*
X154432391Y-101205544D01*
X154447342Y-101158641D01*
X154449746Y-101142533D01*
X154430689Y-101121986D01*
X154388964Y-101088633D01*
X154333294Y-101049402D01*
X154328622Y-101046299D01*
X154184736Y-100931123D01*
X154068717Y-100796753D01*
X153981570Y-100647484D01*
X153924301Y-100487613D01*
X153897914Y-100321437D01*
X153903415Y-100153252D01*
X153941810Y-99987355D01*
X154014105Y-99828042D01*
X154035374Y-99793187D01*
X154146004Y-99652437D01*
X154276698Y-99539414D01*
X154422936Y-99454703D01*
X154580192Y-99398894D01*
X154743943Y-99372574D01*
X154909667Y-99376330D01*
X155072838Y-99410750D01*
X155228935Y-99476423D01*
X155373433Y-99573935D01*
X155418131Y-99613513D01*
X155531888Y-99737403D01*
X155614782Y-99867824D01*
X155671644Y-100014015D01*
X155703313Y-100158788D01*
X155711131Y-100321560D01*
X155685062Y-100485140D01*
X155627755Y-100643998D01*
X155541856Y-100792606D01*
X155430014Y-100925435D01*
X155294877Y-101036956D01*
X155277117Y-101048711D01*
X155220850Y-101087208D01*
X155178077Y-101120563D01*
X155157628Y-101141860D01*
X155157331Y-101142533D01*
X155161721Y-101165571D01*
X155179124Y-101217857D01*
X155207732Y-101295090D01*
X155245735Y-101392968D01*
X155291326Y-101507191D01*
X155342697Y-101633458D01*
X155398038Y-101767467D01*
X155455542Y-101904918D01*
X155513399Y-102041508D01*
X155569802Y-102172937D01*
X155622942Y-102294905D01*
X155671010Y-102403109D01*
X155712199Y-102493249D01*
X155744699Y-102561023D01*
X155766703Y-102602130D01*
X155775564Y-102612926D01*
X155802640Y-102604519D01*
X155853303Y-102581972D01*
X155918817Y-102549313D01*
X155954841Y-102530220D01*
X156107832Y-102447500D01*
X156290088Y-102570775D01*
X156383125Y-102633928D01*
X156484985Y-102703427D01*
X156580438Y-102768865D01*
X156628250Y-102801817D01*
X156695495Y-102846973D01*
X156752436Y-102882757D01*
X156791646Y-102904638D01*
X156804381Y-102909263D01*
X156822917Y-102896785D01*
X156863941Y-102861952D01*
X156923475Y-102808378D01*
X156997542Y-102739683D01*
X157082165Y-102659481D01*
X157135685Y-102607986D01*
X157229319Y-102515986D01*
X157310241Y-102433699D01*
X157375177Y-102364645D01*
X157420858Y-102312344D01*
X157444011Y-102280316D01*
X157446232Y-102273816D01*
X157435924Y-102249094D01*
X157407439Y-102199105D01*
X157363937Y-102128912D01*
X157308577Y-102043575D01*
X157244520Y-101948156D01*
X157226303Y-101921554D01*
X157159927Y-101824867D01*
X157100378Y-101737817D01*
X157050984Y-101665295D01*
X157015075Y-101612193D01*
X156995981Y-101583403D01*
X156994136Y-101580426D01*
X156996895Y-101557482D01*
X157011538Y-101507036D01*
X157035513Y-101435741D01*
X157066266Y-101350247D01*
X157101244Y-101257207D01*
X157137893Y-101163274D01*
X157173661Y-101075099D01*
X157205994Y-100999334D01*
X157232338Y-100942631D01*
X157250142Y-100911643D01*
X157251407Y-100910157D01*
X157262294Y-100901301D01*
X157280682Y-100892543D01*
X157310606Y-100882977D01*
X157356103Y-100871696D01*
X157421209Y-100857793D01*
X157509961Y-100840363D01*
X157626393Y-100818498D01*
X157774542Y-100791291D01*
X157806618Y-100785441D01*
X157901686Y-100767074D01*
X157984565Y-100749105D01*
X158047930Y-100733269D01*
X158084458Y-100721300D01*
X158089356Y-100718510D01*
X158097427Y-100693772D01*
X158103987Y-100638490D01*
X158109033Y-100559089D01*
X158112559Y-100461996D01*
X158114561Y-100353638D01*
X158115036Y-100240440D01*
X158113977Y-100128828D01*
X158111382Y-100025229D01*
X158107246Y-99936068D01*
X158101563Y-99867772D01*
X158094331Y-99826766D01*
X158089971Y-99818374D01*
X158065698Y-99809908D01*
X158010426Y-99796135D01*
X157929662Y-99778250D01*
X157828912Y-99757448D01*
X157713683Y-99734923D01*
X157650902Y-99723118D01*
X157531787Y-99700851D01*
X157425565Y-99680679D01*
X157337427Y-99663615D01*
X157272566Y-99650669D01*
X157236174Y-99642855D01*
X157230184Y-99641122D01*
X157220061Y-99621590D01*
X157198662Y-99574543D01*
X157168839Y-99506703D01*
X157133445Y-99424791D01*
X157095332Y-99335528D01*
X157057353Y-99245635D01*
X157022360Y-99161835D01*
X156993206Y-99090847D01*
X156972743Y-99039394D01*
X156963823Y-99014197D01*
X156963657Y-99013096D01*
X156973769Y-98993219D01*
X157002117Y-98947477D01*
X157045723Y-98880417D01*
X157101606Y-98796584D01*
X157166787Y-98700526D01*
X157204679Y-98645350D01*
X157273725Y-98544181D01*
X157335050Y-98452330D01*
X157385663Y-98374444D01*
X157422571Y-98315169D01*
X157442782Y-98279151D01*
X157445701Y-98271077D01*
X157433153Y-98252284D01*
X157398463Y-98212157D01*
X157346063Y-98155193D01*
X157280384Y-98085885D01*
X157205856Y-98008731D01*
X157126913Y-97928225D01*
X157047983Y-97848863D01*
X156973500Y-97775140D01*
X156907894Y-97711552D01*
X156855596Y-97662594D01*
X156821039Y-97632761D01*
X156809478Y-97625642D01*
X156790654Y-97635653D01*
X156745631Y-97663778D01*
X156678787Y-97707154D01*
X156594499Y-97762918D01*
X156497144Y-97828206D01*
X156423707Y-97877946D01*
X156052667Y-98130251D01*
X155434095Y-97875255D01*
X155350275Y-97430631D01*
X155266454Y-96986007D01*
X154341006Y-96986007D01*
X154257186Y-97430631D01*
D14*
X97496261Y-87209500D02*
X97543880Y-87352357D01*
X97543880Y-87590452D01*
X97496261Y-87685690D01*
X97448642Y-87733309D01*
X97353404Y-87780928D01*
X97258166Y-87780928D01*
X97162928Y-87733309D01*
X97115309Y-87685690D01*
X97067690Y-87590452D01*
X97020071Y-87399976D01*
X96972452Y-87304738D01*
X96924833Y-87257119D01*
X96829595Y-87209500D01*
X96734357Y-87209500D01*
X96639119Y-87257119D01*
X96591500Y-87304738D01*
X96543880Y-87399976D01*
X96543880Y-87638071D01*
X96591500Y-87780928D01*
X97543880Y-88209500D02*
X96543880Y-88209500D01*
X96543880Y-88590452D01*
X96591500Y-88685690D01*
X96639119Y-88733309D01*
X96734357Y-88780928D01*
X96877214Y-88780928D01*
X96972452Y-88733309D01*
X97020071Y-88685690D01*
X97067690Y-88590452D01*
X97067690Y-88209500D01*
X97543880Y-89209500D02*
X96543880Y-89209500D01*
X97543880Y-90209500D02*
X97543880Y-89638071D01*
X97543880Y-89923785D02*
X96543880Y-89923785D01*
X96686738Y-89828547D01*
X96781976Y-89733309D01*
X96829595Y-89638071D01*
X122277142Y-117130533D02*
X122324761Y-117082914D01*
X122372380Y-116940057D01*
X122372380Y-116844819D01*
X122324761Y-116701961D01*
X122229523Y-116606723D01*
X122134285Y-116559104D01*
X121943809Y-116511485D01*
X121800952Y-116511485D01*
X121610476Y-116559104D01*
X121515238Y-116606723D01*
X121420000Y-116701961D01*
X121372380Y-116844819D01*
X121372380Y-116940057D01*
X121420000Y-117082914D01*
X121467619Y-117130533D01*
X122372380Y-118082914D02*
X122372380Y-117511485D01*
X122372380Y-117797200D02*
X121372380Y-117797200D01*
X121515238Y-117701961D01*
X121610476Y-117606723D01*
X121658095Y-117511485D01*
X108205542Y-102957333D02*
X108253161Y-102909714D01*
X108300780Y-102766857D01*
X108300780Y-102671619D01*
X108253161Y-102528761D01*
X108157923Y-102433523D01*
X108062685Y-102385904D01*
X107872209Y-102338285D01*
X107729352Y-102338285D01*
X107538876Y-102385904D01*
X107443638Y-102433523D01*
X107348400Y-102528761D01*
X107300780Y-102671619D01*
X107300780Y-102766857D01*
X107348400Y-102909714D01*
X107396019Y-102957333D01*
X107396019Y-103338285D02*
X107348400Y-103385904D01*
X107300780Y-103481142D01*
X107300780Y-103719238D01*
X107348400Y-103814476D01*
X107396019Y-103862095D01*
X107491257Y-103909714D01*
X107586495Y-103909714D01*
X107729352Y-103862095D01*
X108300780Y-103290666D01*
X108300780Y-103909714D01*
X126272586Y-105276862D02*
X126320205Y-105324481D01*
X126463062Y-105372100D01*
X126558300Y-105372100D01*
X126701158Y-105324481D01*
X126796396Y-105229243D01*
X126844015Y-105134005D01*
X126891634Y-104943529D01*
X126891634Y-104800672D01*
X126844015Y-104610196D01*
X126796396Y-104514958D01*
X126701158Y-104419720D01*
X126558300Y-104372100D01*
X126463062Y-104372100D01*
X126320205Y-104419720D01*
X126272586Y-104467339D01*
X125939253Y-104372100D02*
X125320205Y-104372100D01*
X125653539Y-104753053D01*
X125510681Y-104753053D01*
X125415443Y-104800672D01*
X125367824Y-104848291D01*
X125320205Y-104943529D01*
X125320205Y-105181624D01*
X125367824Y-105276862D01*
X125415443Y-105324481D01*
X125510681Y-105372100D01*
X125796396Y-105372100D01*
X125891634Y-105324481D01*
X125939253Y-105276862D01*
X105360742Y-107935733D02*
X105408361Y-107888114D01*
X105455980Y-107745257D01*
X105455980Y-107650019D01*
X105408361Y-107507161D01*
X105313123Y-107411923D01*
X105217885Y-107364304D01*
X105027409Y-107316685D01*
X104884552Y-107316685D01*
X104694076Y-107364304D01*
X104598838Y-107411923D01*
X104503600Y-107507161D01*
X104455980Y-107650019D01*
X104455980Y-107745257D01*
X104503600Y-107888114D01*
X104551219Y-107935733D01*
X104789314Y-108792876D02*
X105455980Y-108792876D01*
X104408361Y-108554780D02*
X105122647Y-108316685D01*
X105122647Y-108935733D01*
X110176642Y-117181333D02*
X110224261Y-117133714D01*
X110271880Y-116990857D01*
X110271880Y-116895619D01*
X110224261Y-116752761D01*
X110129023Y-116657523D01*
X110033785Y-116609904D01*
X109843309Y-116562285D01*
X109700452Y-116562285D01*
X109509976Y-116609904D01*
X109414738Y-116657523D01*
X109319500Y-116752761D01*
X109271880Y-116895619D01*
X109271880Y-116990857D01*
X109319500Y-117133714D01*
X109367119Y-117181333D01*
X109271880Y-118086095D02*
X109271880Y-117609904D01*
X109748071Y-117562285D01*
X109700452Y-117609904D01*
X109652833Y-117705142D01*
X109652833Y-117943238D01*
X109700452Y-118038476D01*
X109748071Y-118086095D01*
X109843309Y-118133714D01*
X110081404Y-118133714D01*
X110176642Y-118086095D01*
X110224261Y-118038476D01*
X110271880Y-117943238D01*
X110271880Y-117705142D01*
X110224261Y-117609904D01*
X110176642Y-117562285D01*
X106071942Y-96454933D02*
X106119561Y-96407314D01*
X106167180Y-96264457D01*
X106167180Y-96169219D01*
X106119561Y-96026361D01*
X106024323Y-95931123D01*
X105929085Y-95883504D01*
X105738609Y-95835885D01*
X105595752Y-95835885D01*
X105405276Y-95883504D01*
X105310038Y-95931123D01*
X105214800Y-96026361D01*
X105167180Y-96169219D01*
X105167180Y-96264457D01*
X105214800Y-96407314D01*
X105262419Y-96454933D01*
X105167180Y-97312076D02*
X105167180Y-97121600D01*
X105214800Y-97026361D01*
X105262419Y-96978742D01*
X105405276Y-96883504D01*
X105595752Y-96835885D01*
X105976704Y-96835885D01*
X106071942Y-96883504D01*
X106119561Y-96931123D01*
X106167180Y-97026361D01*
X106167180Y-97216838D01*
X106119561Y-97312076D01*
X106071942Y-97359695D01*
X105976704Y-97407314D01*
X105738609Y-97407314D01*
X105643371Y-97359695D01*
X105595752Y-97312076D01*
X105548133Y-97216838D01*
X105548133Y-97026361D01*
X105595752Y-96931123D01*
X105643371Y-96883504D01*
X105738609Y-96835885D01*
X104052642Y-68286333D02*
X104100261Y-68238714D01*
X104147880Y-68095857D01*
X104147880Y-68000619D01*
X104100261Y-67857761D01*
X104005023Y-67762523D01*
X103909785Y-67714904D01*
X103719309Y-67667285D01*
X103576452Y-67667285D01*
X103385976Y-67714904D01*
X103290738Y-67762523D01*
X103195500Y-67857761D01*
X103147880Y-68000619D01*
X103147880Y-68095857D01*
X103195500Y-68238714D01*
X103243119Y-68286333D01*
X103147880Y-68619666D02*
X103147880Y-69286333D01*
X104147880Y-68857761D01*
X128599226Y-86767942D02*
X128646845Y-86815561D01*
X128789702Y-86863180D01*
X128884940Y-86863180D01*
X129027798Y-86815561D01*
X129123036Y-86720323D01*
X129170655Y-86625085D01*
X129218274Y-86434609D01*
X129218274Y-86291752D01*
X129170655Y-86101276D01*
X129123036Y-86006038D01*
X129027798Y-85910800D01*
X128884940Y-85863180D01*
X128789702Y-85863180D01*
X128646845Y-85910800D01*
X128599226Y-85958419D01*
X128123036Y-86863180D02*
X127932560Y-86863180D01*
X127837321Y-86815561D01*
X127789702Y-86767942D01*
X127694464Y-86625085D01*
X127646845Y-86434609D01*
X127646845Y-86053657D01*
X127694464Y-85958419D01*
X127742083Y-85910800D01*
X127837321Y-85863180D01*
X128027798Y-85863180D01*
X128123036Y-85910800D01*
X128170655Y-85958419D01*
X128218274Y-86053657D01*
X128218274Y-86291752D01*
X128170655Y-86386990D01*
X128123036Y-86434609D01*
X128027798Y-86482228D01*
X127837321Y-86482228D01*
X127742083Y-86434609D01*
X127694464Y-86386990D01*
X127646845Y-86291752D01*
X167114457Y-87123542D02*
X167162076Y-87171161D01*
X167304933Y-87218780D01*
X167400171Y-87218780D01*
X167543028Y-87171161D01*
X167638266Y-87075923D01*
X167685885Y-86980685D01*
X167733504Y-86790209D01*
X167733504Y-86647352D01*
X167685885Y-86456876D01*
X167638266Y-86361638D01*
X167543028Y-86266400D01*
X167400171Y-86218780D01*
X167304933Y-86218780D01*
X167162076Y-86266400D01*
X167114457Y-86314019D01*
X166162076Y-87218780D02*
X166733504Y-87218780D01*
X166447790Y-87218780D02*
X166447790Y-86218780D01*
X166543028Y-86361638D01*
X166638266Y-86456876D01*
X166733504Y-86504495D01*
X165543028Y-86218780D02*
X165447790Y-86218780D01*
X165352552Y-86266400D01*
X165304933Y-86314019D01*
X165257314Y-86409257D01*
X165209695Y-86599733D01*
X165209695Y-86837828D01*
X165257314Y-87028304D01*
X165304933Y-87123542D01*
X165352552Y-87171161D01*
X165447790Y-87218780D01*
X165543028Y-87218780D01*
X165638266Y-87171161D01*
X165685885Y-87123542D01*
X165733504Y-87028304D01*
X165781123Y-86837828D01*
X165781123Y-86599733D01*
X165733504Y-86409257D01*
X165685885Y-86314019D01*
X165638266Y-86266400D01*
X165543028Y-86218780D01*
X207875142Y-103700342D02*
X207922761Y-103652723D01*
X207970380Y-103509866D01*
X207970380Y-103414628D01*
X207922761Y-103271771D01*
X207827523Y-103176533D01*
X207732285Y-103128914D01*
X207541809Y-103081295D01*
X207398952Y-103081295D01*
X207208476Y-103128914D01*
X207113238Y-103176533D01*
X207018000Y-103271771D01*
X206970380Y-103414628D01*
X206970380Y-103509866D01*
X207018000Y-103652723D01*
X207065619Y-103700342D01*
X207970380Y-104652723D02*
X207970380Y-104081295D01*
X207970380Y-104367009D02*
X206970380Y-104367009D01*
X207113238Y-104271771D01*
X207208476Y-104176533D01*
X207256095Y-104081295D01*
X207970380Y-105605104D02*
X207970380Y-105033676D01*
X207970380Y-105319390D02*
X206970380Y-105319390D01*
X207113238Y-105224152D01*
X207208476Y-105128914D01*
X207256095Y-105033676D01*
X195873642Y-122991642D02*
X195921261Y-122944023D01*
X195968880Y-122801166D01*
X195968880Y-122705928D01*
X195921261Y-122563071D01*
X195826023Y-122467833D01*
X195730785Y-122420214D01*
X195540309Y-122372595D01*
X195397452Y-122372595D01*
X195206976Y-122420214D01*
X195111738Y-122467833D01*
X195016500Y-122563071D01*
X194968880Y-122705928D01*
X194968880Y-122801166D01*
X195016500Y-122944023D01*
X195064119Y-122991642D01*
X195968880Y-123944023D02*
X195968880Y-123372595D01*
X195968880Y-123658309D02*
X194968880Y-123658309D01*
X195111738Y-123563071D01*
X195206976Y-123467833D01*
X195254595Y-123372595D01*
X195064119Y-124324976D02*
X195016500Y-124372595D01*
X194968880Y-124467833D01*
X194968880Y-124705928D01*
X195016500Y-124801166D01*
X195064119Y-124848785D01*
X195159357Y-124896404D01*
X195254595Y-124896404D01*
X195397452Y-124848785D01*
X195968880Y-124277357D01*
X195968880Y-124896404D01*
X155855942Y-119295942D02*
X155903561Y-119248323D01*
X155951180Y-119105466D01*
X155951180Y-119010228D01*
X155903561Y-118867371D01*
X155808323Y-118772133D01*
X155713085Y-118724514D01*
X155522609Y-118676895D01*
X155379752Y-118676895D01*
X155189276Y-118724514D01*
X155094038Y-118772133D01*
X154998800Y-118867371D01*
X154951180Y-119010228D01*
X154951180Y-119105466D01*
X154998800Y-119248323D01*
X155046419Y-119295942D01*
X155951180Y-120248323D02*
X155951180Y-119676895D01*
X155951180Y-119962609D02*
X154951180Y-119962609D01*
X155094038Y-119867371D01*
X155189276Y-119772133D01*
X155236895Y-119676895D01*
X154951180Y-120581657D02*
X154951180Y-121200704D01*
X155332133Y-120867371D01*
X155332133Y-121010228D01*
X155379752Y-121105466D01*
X155427371Y-121153085D01*
X155522609Y-121200704D01*
X155760704Y-121200704D01*
X155855942Y-121153085D01*
X155903561Y-121105466D01*
X155951180Y-121010228D01*
X155951180Y-120724514D01*
X155903561Y-120629276D01*
X155855942Y-120581657D01*
X121578642Y-122547142D02*
X121626261Y-122499523D01*
X121673880Y-122356666D01*
X121673880Y-122261428D01*
X121626261Y-122118571D01*
X121531023Y-122023333D01*
X121435785Y-121975714D01*
X121245309Y-121928095D01*
X121102452Y-121928095D01*
X120911976Y-121975714D01*
X120816738Y-122023333D01*
X120721500Y-122118571D01*
X120673880Y-122261428D01*
X120673880Y-122356666D01*
X120721500Y-122499523D01*
X120769119Y-122547142D01*
X121673880Y-123499523D02*
X121673880Y-122928095D01*
X121673880Y-123213809D02*
X120673880Y-123213809D01*
X120816738Y-123118571D01*
X120911976Y-123023333D01*
X120959595Y-122928095D01*
X121007214Y-124356666D02*
X121673880Y-124356666D01*
X120626261Y-124118571D02*
X121340547Y-123880476D01*
X121340547Y-124499523D01*
X92305142Y-103878142D02*
X92352761Y-103830523D01*
X92400380Y-103687666D01*
X92400380Y-103592428D01*
X92352761Y-103449571D01*
X92257523Y-103354333D01*
X92162285Y-103306714D01*
X91971809Y-103259095D01*
X91828952Y-103259095D01*
X91638476Y-103306714D01*
X91543238Y-103354333D01*
X91448000Y-103449571D01*
X91400380Y-103592428D01*
X91400380Y-103687666D01*
X91448000Y-103830523D01*
X91495619Y-103878142D01*
X92400380Y-104830523D02*
X92400380Y-104259095D01*
X92400380Y-104544809D02*
X91400380Y-104544809D01*
X91543238Y-104449571D01*
X91638476Y-104354333D01*
X91686095Y-104259095D01*
X91400380Y-105735285D02*
X91400380Y-105259095D01*
X91876571Y-105211476D01*
X91828952Y-105259095D01*
X91781333Y-105354333D01*
X91781333Y-105592428D01*
X91828952Y-105687666D01*
X91876571Y-105735285D01*
X91971809Y-105782904D01*
X92209904Y-105782904D01*
X92305142Y-105735285D01*
X92352761Y-105687666D01*
X92400380Y-105592428D01*
X92400380Y-105354333D01*
X92352761Y-105259095D01*
X92305142Y-105211476D01*
X92400380Y-79970404D02*
X91400380Y-79970404D01*
X91400380Y-80208500D01*
X91448000Y-80351357D01*
X91543238Y-80446595D01*
X91638476Y-80494214D01*
X91828952Y-80541833D01*
X91971809Y-80541833D01*
X92162285Y-80494214D01*
X92257523Y-80446595D01*
X92352761Y-80351357D01*
X92400380Y-80208500D01*
X92400380Y-79970404D01*
X92400380Y-81494214D02*
X92400380Y-80922785D01*
X92400380Y-81208500D02*
X91400380Y-81208500D01*
X91543238Y-81113261D01*
X91638476Y-81018023D01*
X91686095Y-80922785D01*
X113895095Y-78303380D02*
X113895095Y-77303380D01*
X113657000Y-77303380D01*
X113514142Y-77351000D01*
X113418904Y-77446238D01*
X113371285Y-77541476D01*
X113323666Y-77731952D01*
X113323666Y-77874809D01*
X113371285Y-78065285D01*
X113418904Y-78160523D01*
X113514142Y-78255761D01*
X113657000Y-78303380D01*
X113895095Y-78303380D01*
X112942714Y-77398619D02*
X112895095Y-77351000D01*
X112799857Y-77303380D01*
X112561761Y-77303380D01*
X112466523Y-77351000D01*
X112418904Y-77398619D01*
X112371285Y-77493857D01*
X112371285Y-77589095D01*
X112418904Y-77731952D01*
X112990333Y-78303380D01*
X112371285Y-78303380D01*
X145962380Y-70889904D02*
X144962380Y-70889904D01*
X144962380Y-71128000D01*
X145010000Y-71270857D01*
X145105238Y-71366095D01*
X145200476Y-71413714D01*
X145390952Y-71461333D01*
X145533809Y-71461333D01*
X145724285Y-71413714D01*
X145819523Y-71366095D01*
X145914761Y-71270857D01*
X145962380Y-71128000D01*
X145962380Y-70889904D01*
X144962380Y-71794666D02*
X144962380Y-72413714D01*
X145343333Y-72080380D01*
X145343333Y-72223238D01*
X145390952Y-72318476D01*
X145438571Y-72366095D01*
X145533809Y-72413714D01*
X145771904Y-72413714D01*
X145867142Y-72366095D01*
X145914761Y-72318476D01*
X145962380Y-72223238D01*
X145962380Y-71937523D01*
X145914761Y-71842285D01*
X145867142Y-71794666D01*
X165012380Y-70762904D02*
X164012380Y-70762904D01*
X164012380Y-71001000D01*
X164060000Y-71143857D01*
X164155238Y-71239095D01*
X164250476Y-71286714D01*
X164440952Y-71334333D01*
X164583809Y-71334333D01*
X164774285Y-71286714D01*
X164869523Y-71239095D01*
X164964761Y-71143857D01*
X165012380Y-71001000D01*
X165012380Y-70762904D01*
X164345714Y-72191476D02*
X165012380Y-72191476D01*
X163964761Y-71953380D02*
X164679047Y-71715285D01*
X164679047Y-72334333D01*
X181490880Y-67587904D02*
X180490880Y-67587904D01*
X180490880Y-67826000D01*
X180538500Y-67968857D01*
X180633738Y-68064095D01*
X180728976Y-68111714D01*
X180919452Y-68159333D01*
X181062309Y-68159333D01*
X181252785Y-68111714D01*
X181348023Y-68064095D01*
X181443261Y-67968857D01*
X181490880Y-67826000D01*
X181490880Y-67587904D01*
X180490880Y-69064095D02*
X180490880Y-68587904D01*
X180967071Y-68540285D01*
X180919452Y-68587904D01*
X180871833Y-68683142D01*
X180871833Y-68921238D01*
X180919452Y-69016476D01*
X180967071Y-69064095D01*
X181062309Y-69111714D01*
X181300404Y-69111714D01*
X181395642Y-69064095D01*
X181443261Y-69016476D01*
X181490880Y-68921238D01*
X181490880Y-68683142D01*
X181443261Y-68587904D01*
X181395642Y-68540285D01*
X203188580Y-70813704D02*
X202188580Y-70813704D01*
X202188580Y-71051800D01*
X202236200Y-71194657D01*
X202331438Y-71289895D01*
X202426676Y-71337514D01*
X202617152Y-71385133D01*
X202760009Y-71385133D01*
X202950485Y-71337514D01*
X203045723Y-71289895D01*
X203140961Y-71194657D01*
X203188580Y-71051800D01*
X203188580Y-70813704D01*
X202188580Y-72242276D02*
X202188580Y-72051800D01*
X202236200Y-71956561D01*
X202283819Y-71908942D01*
X202426676Y-71813704D01*
X202617152Y-71766085D01*
X202998104Y-71766085D01*
X203093342Y-71813704D01*
X203140961Y-71861323D01*
X203188580Y-71956561D01*
X203188580Y-72147038D01*
X203140961Y-72242276D01*
X203093342Y-72289895D01*
X202998104Y-72337514D01*
X202760009Y-72337514D01*
X202664771Y-72289895D01*
X202617152Y-72242276D01*
X202569533Y-72147038D01*
X202569533Y-71956561D01*
X202617152Y-71861323D01*
X202664771Y-71813704D01*
X202760009Y-71766085D01*
X108561095Y-94114880D02*
X108561095Y-93114880D01*
X108323000Y-93114880D01*
X108180142Y-93162500D01*
X108084904Y-93257738D01*
X108037285Y-93352976D01*
X107989666Y-93543452D01*
X107989666Y-93686309D01*
X108037285Y-93876785D01*
X108084904Y-93972023D01*
X108180142Y-94067261D01*
X108323000Y-94114880D01*
X108561095Y-94114880D01*
X107656333Y-93114880D02*
X106989666Y-93114880D01*
X107418238Y-94114880D01*
X131712980Y-89812904D02*
X130712980Y-89812904D01*
X130712980Y-90051000D01*
X130760600Y-90193857D01*
X130855838Y-90289095D01*
X130951076Y-90336714D01*
X131141552Y-90384333D01*
X131284409Y-90384333D01*
X131474885Y-90336714D01*
X131570123Y-90289095D01*
X131665361Y-90193857D01*
X131712980Y-90051000D01*
X131712980Y-89812904D01*
X131141552Y-90955761D02*
X131093933Y-90860523D01*
X131046314Y-90812904D01*
X130951076Y-90765285D01*
X130903457Y-90765285D01*
X130808219Y-90812904D01*
X130760600Y-90860523D01*
X130712980Y-90955761D01*
X130712980Y-91146238D01*
X130760600Y-91241476D01*
X130808219Y-91289095D01*
X130903457Y-91336714D01*
X130951076Y-91336714D01*
X131046314Y-91289095D01*
X131093933Y-91241476D01*
X131141552Y-91146238D01*
X131141552Y-90955761D01*
X131189171Y-90860523D01*
X131236790Y-90812904D01*
X131332028Y-90765285D01*
X131522504Y-90765285D01*
X131617742Y-90812904D01*
X131665361Y-90860523D01*
X131712980Y-90955761D01*
X131712980Y-91146238D01*
X131665361Y-91241476D01*
X131617742Y-91289095D01*
X131522504Y-91336714D01*
X131332028Y-91336714D01*
X131236790Y-91289095D01*
X131189171Y-91241476D01*
X131141552Y-91146238D01*
X150737580Y-89812904D02*
X149737580Y-89812904D01*
X149737580Y-90051000D01*
X149785200Y-90193857D01*
X149880438Y-90289095D01*
X149975676Y-90336714D01*
X150166152Y-90384333D01*
X150309009Y-90384333D01*
X150499485Y-90336714D01*
X150594723Y-90289095D01*
X150689961Y-90193857D01*
X150737580Y-90051000D01*
X150737580Y-89812904D01*
X150737580Y-90860523D02*
X150737580Y-91051000D01*
X150689961Y-91146238D01*
X150642342Y-91193857D01*
X150499485Y-91289095D01*
X150309009Y-91336714D01*
X149928057Y-91336714D01*
X149832819Y-91289095D01*
X149785200Y-91241476D01*
X149737580Y-91146238D01*
X149737580Y-90955761D01*
X149785200Y-90860523D01*
X149832819Y-90812904D01*
X149928057Y-90765285D01*
X150166152Y-90765285D01*
X150261390Y-90812904D01*
X150309009Y-90860523D01*
X150356628Y-90955761D01*
X150356628Y-91146238D01*
X150309009Y-91241476D01*
X150261390Y-91289095D01*
X150166152Y-91336714D01*
X169825680Y-89438314D02*
X168825680Y-89438314D01*
X168825680Y-89676409D01*
X168873300Y-89819266D01*
X168968538Y-89914504D01*
X169063776Y-89962123D01*
X169254252Y-90009742D01*
X169397109Y-90009742D01*
X169587585Y-89962123D01*
X169682823Y-89914504D01*
X169778061Y-89819266D01*
X169825680Y-89676409D01*
X169825680Y-89438314D01*
X169825680Y-90962123D02*
X169825680Y-90390695D01*
X169825680Y-90676409D02*
X168825680Y-90676409D01*
X168968538Y-90581171D01*
X169063776Y-90485933D01*
X169111395Y-90390695D01*
X168825680Y-91581171D02*
X168825680Y-91676409D01*
X168873300Y-91771647D01*
X168920919Y-91819266D01*
X169016157Y-91866885D01*
X169206633Y-91914504D01*
X169444728Y-91914504D01*
X169635204Y-91866885D01*
X169730442Y-91819266D01*
X169778061Y-91771647D01*
X169825680Y-91676409D01*
X169825680Y-91581171D01*
X169778061Y-91485933D01*
X169730442Y-91438314D01*
X169635204Y-91390695D01*
X169444728Y-91343076D01*
X169206633Y-91343076D01*
X169016157Y-91390695D01*
X168920919Y-91438314D01*
X168873300Y-91485933D01*
X168825680Y-91581171D01*
X188862980Y-89451014D02*
X187862980Y-89451014D01*
X187862980Y-89689109D01*
X187910600Y-89831966D01*
X188005838Y-89927204D01*
X188101076Y-89974823D01*
X188291552Y-90022442D01*
X188434409Y-90022442D01*
X188624885Y-89974823D01*
X188720123Y-89927204D01*
X188815361Y-89831966D01*
X188862980Y-89689109D01*
X188862980Y-89451014D01*
X188862980Y-90974823D02*
X188862980Y-90403395D01*
X188862980Y-90689109D02*
X187862980Y-90689109D01*
X188005838Y-90593871D01*
X188101076Y-90498633D01*
X188148695Y-90403395D01*
X188862980Y-91927204D02*
X188862980Y-91355776D01*
X188862980Y-91641490D02*
X187862980Y-91641490D01*
X188005838Y-91546252D01*
X188101076Y-91451014D01*
X188148695Y-91355776D01*
X207912980Y-89412914D02*
X206912980Y-89412914D01*
X206912980Y-89651009D01*
X206960600Y-89793866D01*
X207055838Y-89889104D01*
X207151076Y-89936723D01*
X207341552Y-89984342D01*
X207484409Y-89984342D01*
X207674885Y-89936723D01*
X207770123Y-89889104D01*
X207865361Y-89793866D01*
X207912980Y-89651009D01*
X207912980Y-89412914D01*
X207912980Y-90936723D02*
X207912980Y-90365295D01*
X207912980Y-90651009D02*
X206912980Y-90651009D01*
X207055838Y-90555771D01*
X207151076Y-90460533D01*
X207198695Y-90365295D01*
X207008219Y-91317676D02*
X206960600Y-91365295D01*
X206912980Y-91460533D01*
X206912980Y-91698628D01*
X206960600Y-91793866D01*
X207008219Y-91841485D01*
X207103457Y-91889104D01*
X207198695Y-91889104D01*
X207341552Y-91841485D01*
X207912980Y-91270057D01*
X207912980Y-91889104D01*
X96654880Y-113276214D02*
X95654880Y-113276214D01*
X95654880Y-113514309D01*
X95702500Y-113657166D01*
X95797738Y-113752404D01*
X95892976Y-113800023D01*
X96083452Y-113847642D01*
X96226309Y-113847642D01*
X96416785Y-113800023D01*
X96512023Y-113752404D01*
X96607261Y-113657166D01*
X96654880Y-113514309D01*
X96654880Y-113276214D01*
X96654880Y-114800023D02*
X96654880Y-114228595D01*
X96654880Y-114514309D02*
X95654880Y-114514309D01*
X95797738Y-114419071D01*
X95892976Y-114323833D01*
X95940595Y-114228595D01*
X95654880Y-115133357D02*
X95654880Y-115752404D01*
X96035833Y-115419071D01*
X96035833Y-115561928D01*
X96083452Y-115657166D01*
X96131071Y-115704785D01*
X96226309Y-115752404D01*
X96464404Y-115752404D01*
X96559642Y-115704785D01*
X96607261Y-115657166D01*
X96654880Y-115561928D01*
X96654880Y-115276214D01*
X96607261Y-115180976D01*
X96559642Y-115133357D01*
X136355080Y-108145414D02*
X135355080Y-108145414D01*
X135355080Y-108383509D01*
X135402700Y-108526366D01*
X135497938Y-108621604D01*
X135593176Y-108669223D01*
X135783652Y-108716842D01*
X135926509Y-108716842D01*
X136116985Y-108669223D01*
X136212223Y-108621604D01*
X136307461Y-108526366D01*
X136355080Y-108383509D01*
X136355080Y-108145414D01*
X136355080Y-109669223D02*
X136355080Y-109097795D01*
X136355080Y-109383509D02*
X135355080Y-109383509D01*
X135497938Y-109288271D01*
X135593176Y-109193033D01*
X135640795Y-109097795D01*
X135688414Y-110526366D02*
X136355080Y-110526366D01*
X135307461Y-110288271D02*
X136021747Y-110050176D01*
X136021747Y-110669223D01*
X155456900Y-108462914D02*
X154456900Y-108462914D01*
X154456900Y-108701009D01*
X154504520Y-108843866D01*
X154599758Y-108939104D01*
X154694996Y-108986723D01*
X154885472Y-109034342D01*
X155028329Y-109034342D01*
X155218805Y-108986723D01*
X155314043Y-108939104D01*
X155409281Y-108843866D01*
X155456900Y-108701009D01*
X155456900Y-108462914D01*
X155456900Y-109986723D02*
X155456900Y-109415295D01*
X155456900Y-109701009D02*
X154456900Y-109701009D01*
X154599758Y-109605771D01*
X154694996Y-109510533D01*
X154742615Y-109415295D01*
X154456900Y-110891485D02*
X154456900Y-110415295D01*
X154933091Y-110367676D01*
X154885472Y-110415295D01*
X154837853Y-110510533D01*
X154837853Y-110748628D01*
X154885472Y-110843866D01*
X154933091Y-110891485D01*
X155028329Y-110939104D01*
X155266424Y-110939104D01*
X155361662Y-110891485D01*
X155409281Y-110843866D01*
X155456900Y-110748628D01*
X155456900Y-110510533D01*
X155409281Y-110415295D01*
X155361662Y-110367676D01*
X176493180Y-110190114D02*
X175493180Y-110190114D01*
X175493180Y-110428209D01*
X175540800Y-110571066D01*
X175636038Y-110666304D01*
X175731276Y-110713923D01*
X175921752Y-110761542D01*
X176064609Y-110761542D01*
X176255085Y-110713923D01*
X176350323Y-110666304D01*
X176445561Y-110571066D01*
X176493180Y-110428209D01*
X176493180Y-110190114D01*
X176493180Y-111713923D02*
X176493180Y-111142495D01*
X176493180Y-111428209D02*
X175493180Y-111428209D01*
X175636038Y-111332971D01*
X175731276Y-111237733D01*
X175778895Y-111142495D01*
X175493180Y-112571066D02*
X175493180Y-112380590D01*
X175540800Y-112285352D01*
X175588419Y-112237733D01*
X175731276Y-112142495D01*
X175921752Y-112094876D01*
X176302704Y-112094876D01*
X176397942Y-112142495D01*
X176445561Y-112190114D01*
X176493180Y-112285352D01*
X176493180Y-112475828D01*
X176445561Y-112571066D01*
X176397942Y-112618685D01*
X176302704Y-112666304D01*
X176064609Y-112666304D01*
X175969371Y-112618685D01*
X175921752Y-112571066D01*
X175874133Y-112475828D01*
X175874133Y-112285352D01*
X175921752Y-112190114D01*
X175969371Y-112142495D01*
X176064609Y-112094876D01*
X193587380Y-108513714D02*
X192587380Y-108513714D01*
X192587380Y-108751809D01*
X192635000Y-108894666D01*
X192730238Y-108989904D01*
X192825476Y-109037523D01*
X193015952Y-109085142D01*
X193158809Y-109085142D01*
X193349285Y-109037523D01*
X193444523Y-108989904D01*
X193539761Y-108894666D01*
X193587380Y-108751809D01*
X193587380Y-108513714D01*
X193587380Y-110037523D02*
X193587380Y-109466095D01*
X193587380Y-109751809D02*
X192587380Y-109751809D01*
X192730238Y-109656571D01*
X192825476Y-109561333D01*
X192873095Y-109466095D01*
X192587380Y-110370857D02*
X192587380Y-111037523D01*
X193587380Y-110608952D01*
X212637380Y-108386714D02*
X211637380Y-108386714D01*
X211637380Y-108624809D01*
X211685000Y-108767666D01*
X211780238Y-108862904D01*
X211875476Y-108910523D01*
X212065952Y-108958142D01*
X212208809Y-108958142D01*
X212399285Y-108910523D01*
X212494523Y-108862904D01*
X212589761Y-108767666D01*
X212637380Y-108624809D01*
X212637380Y-108386714D01*
X212637380Y-109910523D02*
X212637380Y-109339095D01*
X212637380Y-109624809D02*
X211637380Y-109624809D01*
X211780238Y-109529571D01*
X211875476Y-109434333D01*
X211923095Y-109339095D01*
X212065952Y-110481952D02*
X212018333Y-110386714D01*
X211970714Y-110339095D01*
X211875476Y-110291476D01*
X211827857Y-110291476D01*
X211732619Y-110339095D01*
X211685000Y-110386714D01*
X211637380Y-110481952D01*
X211637380Y-110672428D01*
X211685000Y-110767666D01*
X211732619Y-110815285D01*
X211827857Y-110862904D01*
X211875476Y-110862904D01*
X211970714Y-110815285D01*
X212018333Y-110767666D01*
X212065952Y-110672428D01*
X212065952Y-110481952D01*
X212113571Y-110386714D01*
X212161190Y-110339095D01*
X212256428Y-110291476D01*
X212446904Y-110291476D01*
X212542142Y-110339095D01*
X212589761Y-110386714D01*
X212637380Y-110481952D01*
X212637380Y-110672428D01*
X212589761Y-110767666D01*
X212542142Y-110815285D01*
X212446904Y-110862904D01*
X212256428Y-110862904D01*
X212161190Y-110815285D01*
X212113571Y-110767666D01*
X212065952Y-110672428D01*
X110275380Y-127563714D02*
X109275380Y-127563714D01*
X109275380Y-127801809D01*
X109323000Y-127944666D01*
X109418238Y-128039904D01*
X109513476Y-128087523D01*
X109703952Y-128135142D01*
X109846809Y-128135142D01*
X110037285Y-128087523D01*
X110132523Y-128039904D01*
X110227761Y-127944666D01*
X110275380Y-127801809D01*
X110275380Y-127563714D01*
X110275380Y-129087523D02*
X110275380Y-128516095D01*
X110275380Y-128801809D02*
X109275380Y-128801809D01*
X109418238Y-128706571D01*
X109513476Y-128611333D01*
X109561095Y-128516095D01*
X110275380Y-129563714D02*
X110275380Y-129754190D01*
X110227761Y-129849428D01*
X110180142Y-129897047D01*
X110037285Y-129992285D01*
X109846809Y-130039904D01*
X109465857Y-130039904D01*
X109370619Y-129992285D01*
X109323000Y-129944666D01*
X109275380Y-129849428D01*
X109275380Y-129658952D01*
X109323000Y-129563714D01*
X109370619Y-129516095D01*
X109465857Y-129468476D01*
X109703952Y-129468476D01*
X109799190Y-129516095D01*
X109846809Y-129563714D01*
X109894428Y-129658952D01*
X109894428Y-129849428D01*
X109846809Y-129944666D01*
X109799190Y-129992285D01*
X109703952Y-130039904D01*
X125801285Y-123547380D02*
X125801285Y-122547380D01*
X125563190Y-122547380D01*
X125420333Y-122595000D01*
X125325095Y-122690238D01*
X125277476Y-122785476D01*
X125229857Y-122975952D01*
X125229857Y-123118809D01*
X125277476Y-123309285D01*
X125325095Y-123404523D01*
X125420333Y-123499761D01*
X125563190Y-123547380D01*
X125801285Y-123547380D01*
X124848904Y-122642619D02*
X124801285Y-122595000D01*
X124706047Y-122547380D01*
X124467952Y-122547380D01*
X124372714Y-122595000D01*
X124325095Y-122642619D01*
X124277476Y-122737857D01*
X124277476Y-122833095D01*
X124325095Y-122975952D01*
X124896523Y-123547380D01*
X124277476Y-123547380D01*
X123658428Y-122547380D02*
X123563190Y-122547380D01*
X123467952Y-122595000D01*
X123420333Y-122642619D01*
X123372714Y-122737857D01*
X123325095Y-122928333D01*
X123325095Y-123166428D01*
X123372714Y-123356904D01*
X123420333Y-123452142D01*
X123467952Y-123499761D01*
X123563190Y-123547380D01*
X123658428Y-123547380D01*
X123753666Y-123499761D01*
X123801285Y-123452142D01*
X123848904Y-123356904D01*
X123896523Y-123166428D01*
X123896523Y-122928333D01*
X123848904Y-122737857D01*
X123801285Y-122642619D01*
X123753666Y-122595000D01*
X123658428Y-122547380D01*
X138247285Y-127420380D02*
X138247285Y-126420380D01*
X138009190Y-126420380D01*
X137866333Y-126468000D01*
X137771095Y-126563238D01*
X137723476Y-126658476D01*
X137675857Y-126848952D01*
X137675857Y-126991809D01*
X137723476Y-127182285D01*
X137771095Y-127277523D01*
X137866333Y-127372761D01*
X138009190Y-127420380D01*
X138247285Y-127420380D01*
X137294904Y-126515619D02*
X137247285Y-126468000D01*
X137152047Y-126420380D01*
X136913952Y-126420380D01*
X136818714Y-126468000D01*
X136771095Y-126515619D01*
X136723476Y-126610857D01*
X136723476Y-126706095D01*
X136771095Y-126848952D01*
X137342523Y-127420380D01*
X136723476Y-127420380D01*
X135771095Y-127420380D02*
X136342523Y-127420380D01*
X136056809Y-127420380D02*
X136056809Y-126420380D01*
X136152047Y-126563238D01*
X136247285Y-126658476D01*
X136342523Y-126706095D01*
X160535785Y-123769380D02*
X160535785Y-122769380D01*
X160297690Y-122769380D01*
X160154833Y-122817000D01*
X160059595Y-122912238D01*
X160011976Y-123007476D01*
X159964357Y-123197952D01*
X159964357Y-123340809D01*
X160011976Y-123531285D01*
X160059595Y-123626523D01*
X160154833Y-123721761D01*
X160297690Y-123769380D01*
X160535785Y-123769380D01*
X159583404Y-122864619D02*
X159535785Y-122817000D01*
X159440547Y-122769380D01*
X159202452Y-122769380D01*
X159107214Y-122817000D01*
X159059595Y-122864619D01*
X159011976Y-122959857D01*
X159011976Y-123055095D01*
X159059595Y-123197952D01*
X159631023Y-123769380D01*
X159011976Y-123769380D01*
X158631023Y-122864619D02*
X158583404Y-122817000D01*
X158488166Y-122769380D01*
X158250071Y-122769380D01*
X158154833Y-122817000D01*
X158107214Y-122864619D01*
X158059595Y-122959857D01*
X158059595Y-123055095D01*
X158107214Y-123197952D01*
X158678642Y-123769380D01*
X158059595Y-123769380D01*
X182189285Y-123705880D02*
X182189285Y-122705880D01*
X181951190Y-122705880D01*
X181808333Y-122753500D01*
X181713095Y-122848738D01*
X181665476Y-122943976D01*
X181617857Y-123134452D01*
X181617857Y-123277309D01*
X181665476Y-123467785D01*
X181713095Y-123563023D01*
X181808333Y-123658261D01*
X181951190Y-123705880D01*
X182189285Y-123705880D01*
X181236904Y-122801119D02*
X181189285Y-122753500D01*
X181094047Y-122705880D01*
X180855952Y-122705880D01*
X180760714Y-122753500D01*
X180713095Y-122801119D01*
X180665476Y-122896357D01*
X180665476Y-122991595D01*
X180713095Y-123134452D01*
X181284523Y-123705880D01*
X180665476Y-123705880D01*
X180332142Y-122705880D02*
X179713095Y-122705880D01*
X180046428Y-123086833D01*
X179903571Y-123086833D01*
X179808333Y-123134452D01*
X179760714Y-123182071D01*
X179713095Y-123277309D01*
X179713095Y-123515404D01*
X179760714Y-123610642D01*
X179808333Y-123658261D01*
X179903571Y-123705880D01*
X180189285Y-123705880D01*
X180284523Y-123658261D01*
X180332142Y-123610642D01*
X207874880Y-127500214D02*
X206874880Y-127500214D01*
X206874880Y-127738309D01*
X206922500Y-127881166D01*
X207017738Y-127976404D01*
X207112976Y-128024023D01*
X207303452Y-128071642D01*
X207446309Y-128071642D01*
X207636785Y-128024023D01*
X207732023Y-127976404D01*
X207827261Y-127881166D01*
X207874880Y-127738309D01*
X207874880Y-127500214D01*
X206970119Y-128452595D02*
X206922500Y-128500214D01*
X206874880Y-128595452D01*
X206874880Y-128833547D01*
X206922500Y-128928785D01*
X206970119Y-128976404D01*
X207065357Y-129024023D01*
X207160595Y-129024023D01*
X207303452Y-128976404D01*
X207874880Y-128404976D01*
X207874880Y-129024023D01*
X207208214Y-129881166D02*
X207874880Y-129881166D01*
X206827261Y-129643071D02*
X207541547Y-129404976D01*
X207541547Y-130024023D01*
X130167071Y-70723166D02*
X130167071Y-70389833D01*
X130690880Y-70389833D02*
X129690880Y-70389833D01*
X129690880Y-70866023D01*
X130690880Y-71770785D02*
X130690880Y-71199357D01*
X130690880Y-71485071D02*
X129690880Y-71485071D01*
X129833738Y-71389833D01*
X129928976Y-71294595D01*
X129976595Y-71199357D01*
D11*
X99861547Y-108465880D02*
X100337738Y-108465880D01*
X100337738Y-107465880D01*
X99528214Y-107942071D02*
X99194880Y-107942071D01*
X99052023Y-108465880D02*
X99528214Y-108465880D01*
X99528214Y-107465880D01*
X99052023Y-107465880D01*
X98623452Y-108465880D02*
X98623452Y-107465880D01*
X98385357Y-107465880D01*
X98242500Y-107513500D01*
X98147261Y-107608738D01*
X98099642Y-107703976D01*
X98052023Y-107894452D01*
X98052023Y-108037309D01*
X98099642Y-108227785D01*
X98147261Y-108323023D01*
X98242500Y-108418261D01*
X98385357Y-108465880D01*
X98623452Y-108465880D01*
X97099642Y-108465880D02*
X97671071Y-108465880D01*
X97385357Y-108465880D02*
X97385357Y-107465880D01*
X97480595Y-107608738D01*
X97575833Y-107703976D01*
X97671071Y-107751595D01*
X132024380Y-78128952D02*
X132024380Y-77652761D01*
X131024380Y-77652761D01*
X131500571Y-78462285D02*
X131500571Y-78795619D01*
X132024380Y-78938476D02*
X132024380Y-78462285D01*
X131024380Y-78462285D01*
X131024380Y-78938476D01*
X132024380Y-79367047D02*
X131024380Y-79367047D01*
X131024380Y-79605142D01*
X131072000Y-79748000D01*
X131167238Y-79843238D01*
X131262476Y-79890857D01*
X131452952Y-79938476D01*
X131595809Y-79938476D01*
X131786285Y-79890857D01*
X131881523Y-79843238D01*
X131976761Y-79748000D01*
X132024380Y-79605142D01*
X132024380Y-79367047D01*
X131119619Y-80319428D02*
X131072000Y-80367047D01*
X131024380Y-80462285D01*
X131024380Y-80700380D01*
X131072000Y-80795619D01*
X131119619Y-80843238D01*
X131214857Y-80890857D01*
X131310095Y-80890857D01*
X131452952Y-80843238D01*
X132024380Y-80271809D01*
X132024380Y-80890857D01*
X167539847Y-75890380D02*
X168016038Y-75890380D01*
X168016038Y-74890380D01*
X167206514Y-75366571D02*
X166873180Y-75366571D01*
X166730323Y-75890380D02*
X167206514Y-75890380D01*
X167206514Y-74890380D01*
X166730323Y-74890380D01*
X166301752Y-75890380D02*
X166301752Y-74890380D01*
X166063657Y-74890380D01*
X165920800Y-74938000D01*
X165825561Y-75033238D01*
X165777942Y-75128476D01*
X165730323Y-75318952D01*
X165730323Y-75461809D01*
X165777942Y-75652285D01*
X165825561Y-75747523D01*
X165920800Y-75842761D01*
X166063657Y-75890380D01*
X166301752Y-75890380D01*
X165396990Y-74890380D02*
X164777942Y-74890380D01*
X165111276Y-75271333D01*
X164968419Y-75271333D01*
X164873180Y-75318952D01*
X164825561Y-75366571D01*
X164777942Y-75461809D01*
X164777942Y-75699904D01*
X164825561Y-75795142D01*
X164873180Y-75842761D01*
X164968419Y-75890380D01*
X165254133Y-75890380D01*
X165349371Y-75842761D01*
X165396990Y-75795142D01*
X196387980Y-103579752D02*
X196387980Y-103103561D01*
X195387980Y-103103561D01*
X195864171Y-103913085D02*
X195864171Y-104246419D01*
X196387980Y-104389276D02*
X196387980Y-103913085D01*
X195387980Y-103913085D01*
X195387980Y-104389276D01*
X196387980Y-104817847D02*
X195387980Y-104817847D01*
X195387980Y-105055942D01*
X195435600Y-105198800D01*
X195530838Y-105294038D01*
X195626076Y-105341657D01*
X195816552Y-105389276D01*
X195959409Y-105389276D01*
X196149885Y-105341657D01*
X196245123Y-105294038D01*
X196340361Y-105198800D01*
X196387980Y-105055942D01*
X196387980Y-104817847D01*
X195721314Y-106246419D02*
X196387980Y-106246419D01*
X195340361Y-106008323D02*
X196054647Y-105770228D01*
X196054647Y-106389276D01*
X192095380Y-122578952D02*
X192095380Y-122102761D01*
X191095380Y-122102761D01*
X191571571Y-122912285D02*
X191571571Y-123245619D01*
X192095380Y-123388476D02*
X192095380Y-122912285D01*
X191095380Y-122912285D01*
X191095380Y-123388476D01*
X192095380Y-123817047D02*
X191095380Y-123817047D01*
X191095380Y-124055142D01*
X191143000Y-124198000D01*
X191238238Y-124293238D01*
X191333476Y-124340857D01*
X191523952Y-124388476D01*
X191666809Y-124388476D01*
X191857285Y-124340857D01*
X191952523Y-124293238D01*
X192047761Y-124198000D01*
X192095380Y-124055142D01*
X192095380Y-123817047D01*
X191095380Y-125293238D02*
X191095380Y-124817047D01*
X191571571Y-124769428D01*
X191523952Y-124817047D01*
X191476333Y-124912285D01*
X191476333Y-125150380D01*
X191523952Y-125245619D01*
X191571571Y-125293238D01*
X191666809Y-125340857D01*
X191904904Y-125340857D01*
X192000142Y-125293238D01*
X192047761Y-125245619D01*
X192095380Y-125150380D01*
X192095380Y-124912285D01*
X192047761Y-124817047D01*
X192000142Y-124769428D01*
X146121380Y-122388452D02*
X146121380Y-121912261D01*
X145121380Y-121912261D01*
X145597571Y-122721785D02*
X145597571Y-123055119D01*
X146121380Y-123197976D02*
X146121380Y-122721785D01*
X145121380Y-122721785D01*
X145121380Y-123197976D01*
X146121380Y-123626547D02*
X145121380Y-123626547D01*
X145121380Y-123864642D01*
X145169000Y-124007500D01*
X145264238Y-124102738D01*
X145359476Y-124150357D01*
X145549952Y-124197976D01*
X145692809Y-124197976D01*
X145883285Y-124150357D01*
X145978523Y-124102738D01*
X146073761Y-124007500D01*
X146121380Y-123864642D01*
X146121380Y-123626547D01*
X145121380Y-125055119D02*
X145121380Y-124864642D01*
X145169000Y-124769404D01*
X145216619Y-124721785D01*
X145359476Y-124626547D01*
X145549952Y-124578928D01*
X145930904Y-124578928D01*
X146026142Y-124626547D01*
X146073761Y-124674166D01*
X146121380Y-124769404D01*
X146121380Y-124959880D01*
X146073761Y-125055119D01*
X146026142Y-125102738D01*
X145930904Y-125150357D01*
X145692809Y-125150357D01*
X145597571Y-125102738D01*
X145549952Y-125055119D01*
X145502333Y-124959880D01*
X145502333Y-124769404D01*
X145549952Y-124674166D01*
X145597571Y-124626547D01*
X145692809Y-124578928D01*
X114657047Y-127325380D02*
X115133238Y-127325380D01*
X115133238Y-126325380D01*
X114323714Y-126801571D02*
X113990380Y-126801571D01*
X113847523Y-127325380D02*
X114323714Y-127325380D01*
X114323714Y-126325380D01*
X113847523Y-126325380D01*
X113418952Y-127325380D02*
X113418952Y-126325380D01*
X113180857Y-126325380D01*
X113038000Y-126373000D01*
X112942761Y-126468238D01*
X112895142Y-126563476D01*
X112847523Y-126753952D01*
X112847523Y-126896809D01*
X112895142Y-127087285D01*
X112942761Y-127182523D01*
X113038000Y-127277761D01*
X113180857Y-127325380D01*
X113418952Y-127325380D01*
X112514190Y-126325380D02*
X111847523Y-126325380D01*
X112276095Y-127325380D01*
D14*
X139898380Y-106934285D02*
X138898380Y-106934285D01*
X139898380Y-107505714D01*
X138898380Y-107505714D01*
X139898380Y-107981904D02*
X138898380Y-107981904D01*
X138898380Y-108362857D01*
X138946000Y-108458095D01*
X138993619Y-108505714D01*
X139088857Y-108553333D01*
X139231714Y-108553333D01*
X139326952Y-108505714D01*
X139374571Y-108458095D01*
X139422190Y-108362857D01*
X139422190Y-107981904D01*
X139898380Y-108981904D02*
X138898380Y-108981904D01*
X139898380Y-109553333D01*
X138898380Y-109553333D01*
X139898380Y-110600952D02*
X139422190Y-110267619D01*
X139898380Y-110029523D02*
X138898380Y-110029523D01*
X138898380Y-110410476D01*
X138946000Y-110505714D01*
X138993619Y-110553333D01*
X139088857Y-110600952D01*
X139231714Y-110600952D01*
X139326952Y-110553333D01*
X139374571Y-110505714D01*
X139422190Y-110410476D01*
X139422190Y-110029523D01*
X139898380Y-111553333D02*
X139898380Y-110981904D01*
X139898380Y-111267619D02*
X138898380Y-111267619D01*
X139041238Y-111172380D01*
X139136476Y-111077142D01*
X139184095Y-110981904D01*
X135644499Y-115083601D02*
X135596880Y-114988363D01*
X135501641Y-114893125D01*
X135358784Y-114750268D01*
X135311165Y-114655030D01*
X135311165Y-114559792D01*
X135549260Y-114607411D02*
X135501641Y-114512173D01*
X135406403Y-114416935D01*
X135215927Y-114369316D01*
X134882594Y-114369316D01*
X134692118Y-114416935D01*
X134596880Y-114512173D01*
X134549260Y-114607411D01*
X134549260Y-114797887D01*
X134596880Y-114893125D01*
X134692118Y-114988363D01*
X134882594Y-115035982D01*
X135215927Y-115035982D01*
X135406403Y-114988363D01*
X135501641Y-114893125D01*
X135549260Y-114797887D01*
X135549260Y-114607411D01*
X135549260Y-115988363D02*
X135549260Y-115416935D01*
X135549260Y-115702649D02*
X134549260Y-115702649D01*
X134692118Y-115607411D01*
X134787356Y-115512173D01*
X134834975Y-115416935D01*
X184853866Y-107613180D02*
X185187200Y-107136990D01*
X185425295Y-107613180D02*
X185425295Y-106613180D01*
X185044342Y-106613180D01*
X184949104Y-106660800D01*
X184901485Y-106708419D01*
X184853866Y-106803657D01*
X184853866Y-106946514D01*
X184901485Y-107041752D01*
X184949104Y-107089371D01*
X185044342Y-107136990D01*
X185425295Y-107136990D01*
X183901485Y-107613180D02*
X184472914Y-107613180D01*
X184187200Y-107613180D02*
X184187200Y-106613180D01*
X184282438Y-106756038D01*
X184377676Y-106851276D01*
X184472914Y-106898895D01*
X116608380Y-117261333D02*
X116132190Y-116928000D01*
X116608380Y-116689904D02*
X115608380Y-116689904D01*
X115608380Y-117070857D01*
X115656000Y-117166095D01*
X115703619Y-117213714D01*
X115798857Y-117261333D01*
X115941714Y-117261333D01*
X116036952Y-117213714D01*
X116084571Y-117166095D01*
X116132190Y-117070857D01*
X116132190Y-116689904D01*
X115703619Y-117642285D02*
X115656000Y-117689904D01*
X115608380Y-117785142D01*
X115608380Y-118023238D01*
X115656000Y-118118476D01*
X115703619Y-118166095D01*
X115798857Y-118213714D01*
X115894095Y-118213714D01*
X116036952Y-118166095D01*
X116608380Y-117594666D01*
X116608380Y-118213714D01*
X112819466Y-88715580D02*
X113152800Y-88239390D01*
X113390895Y-88715580D02*
X113390895Y-87715580D01*
X113009942Y-87715580D01*
X112914704Y-87763200D01*
X112867085Y-87810819D01*
X112819466Y-87906057D01*
X112819466Y-88048914D01*
X112867085Y-88144152D01*
X112914704Y-88191771D01*
X113009942Y-88239390D01*
X113390895Y-88239390D01*
X112486133Y-87715580D02*
X111867085Y-87715580D01*
X112200419Y-88096533D01*
X112057561Y-88096533D01*
X111962323Y-88144152D01*
X111914704Y-88191771D01*
X111867085Y-88287009D01*
X111867085Y-88525104D01*
X111914704Y-88620342D01*
X111962323Y-88667961D01*
X112057561Y-88715580D01*
X112343276Y-88715580D01*
X112438514Y-88667961D01*
X112486133Y-88620342D01*
X118124266Y-88715580D02*
X118457600Y-88239390D01*
X118695695Y-88715580D02*
X118695695Y-87715580D01*
X118314742Y-87715580D01*
X118219504Y-87763200D01*
X118171885Y-87810819D01*
X118124266Y-87906057D01*
X118124266Y-88048914D01*
X118171885Y-88144152D01*
X118219504Y-88191771D01*
X118314742Y-88239390D01*
X118695695Y-88239390D01*
X117267123Y-88048914D02*
X117267123Y-88715580D01*
X117505219Y-87667961D02*
X117743314Y-88382247D01*
X117124266Y-88382247D01*
X123166166Y-72094880D02*
X123499500Y-71618690D01*
X123737595Y-72094880D02*
X123737595Y-71094880D01*
X123356642Y-71094880D01*
X123261404Y-71142500D01*
X123213785Y-71190119D01*
X123166166Y-71285357D01*
X123166166Y-71428214D01*
X123213785Y-71523452D01*
X123261404Y-71571071D01*
X123356642Y-71618690D01*
X123737595Y-71618690D01*
X122261404Y-71094880D02*
X122737595Y-71094880D01*
X122785214Y-71571071D01*
X122737595Y-71523452D01*
X122642357Y-71475833D01*
X122404261Y-71475833D01*
X122309023Y-71523452D01*
X122261404Y-71571071D01*
X122213785Y-71666309D01*
X122213785Y-71904404D01*
X122261404Y-71999642D01*
X122309023Y-72047261D01*
X122404261Y-72094880D01*
X122642357Y-72094880D01*
X122737595Y-72047261D01*
X122785214Y-71999642D01*
X142914666Y-83432380D02*
X143248000Y-82956190D01*
X143486095Y-83432380D02*
X143486095Y-82432380D01*
X143105142Y-82432380D01*
X143009904Y-82480000D01*
X142962285Y-82527619D01*
X142914666Y-82622857D01*
X142914666Y-82765714D01*
X142962285Y-82860952D01*
X143009904Y-82908571D01*
X143105142Y-82956190D01*
X143486095Y-82956190D01*
X142057523Y-82432380D02*
X142248000Y-82432380D01*
X142343238Y-82480000D01*
X142390857Y-82527619D01*
X142486095Y-82670476D01*
X142533714Y-82860952D01*
X142533714Y-83241904D01*
X142486095Y-83337142D01*
X142438476Y-83384761D01*
X142343238Y-83432380D01*
X142152761Y-83432380D01*
X142057523Y-83384761D01*
X142009904Y-83337142D01*
X141962285Y-83241904D01*
X141962285Y-83003809D01*
X142009904Y-82908571D01*
X142057523Y-82860952D01*
X142152761Y-82813333D01*
X142343238Y-82813333D01*
X142438476Y-82860952D01*
X142486095Y-82908571D01*
X142533714Y-83003809D01*
X151677666Y-80222880D02*
X152011000Y-79746690D01*
X152249095Y-80222880D02*
X152249095Y-79222880D01*
X151868142Y-79222880D01*
X151772904Y-79270500D01*
X151725285Y-79318119D01*
X151677666Y-79413357D01*
X151677666Y-79556214D01*
X151725285Y-79651452D01*
X151772904Y-79699071D01*
X151868142Y-79746690D01*
X152249095Y-79746690D01*
X151344333Y-79222880D02*
X150677666Y-79222880D01*
X151106238Y-80222880D01*
X181078166Y-83495880D02*
X181411500Y-83019690D01*
X181649595Y-83495880D02*
X181649595Y-82495880D01*
X181268642Y-82495880D01*
X181173404Y-82543500D01*
X181125785Y-82591119D01*
X181078166Y-82686357D01*
X181078166Y-82829214D01*
X181125785Y-82924452D01*
X181173404Y-82972071D01*
X181268642Y-83019690D01*
X181649595Y-83019690D01*
X180506738Y-82924452D02*
X180601976Y-82876833D01*
X180649595Y-82829214D01*
X180697214Y-82733976D01*
X180697214Y-82686357D01*
X180649595Y-82591119D01*
X180601976Y-82543500D01*
X180506738Y-82495880D01*
X180316261Y-82495880D01*
X180221023Y-82543500D01*
X180173404Y-82591119D01*
X180125785Y-82686357D01*
X180125785Y-82733976D01*
X180173404Y-82829214D01*
X180221023Y-82876833D01*
X180316261Y-82924452D01*
X180506738Y-82924452D01*
X180601976Y-82972071D01*
X180649595Y-83019690D01*
X180697214Y-83114928D01*
X180697214Y-83305404D01*
X180649595Y-83400642D01*
X180601976Y-83448261D01*
X180506738Y-83495880D01*
X180316261Y-83495880D01*
X180221023Y-83448261D01*
X180173404Y-83400642D01*
X180125785Y-83305404D01*
X180125785Y-83114928D01*
X180173404Y-83019690D01*
X180221023Y-82972071D01*
X180316261Y-82924452D01*
X200191666Y-83495880D02*
X200525000Y-83019690D01*
X200763095Y-83495880D02*
X200763095Y-82495880D01*
X200382142Y-82495880D01*
X200286904Y-82543500D01*
X200239285Y-82591119D01*
X200191666Y-82686357D01*
X200191666Y-82829214D01*
X200239285Y-82924452D01*
X200286904Y-82972071D01*
X200382142Y-83019690D01*
X200763095Y-83019690D01*
X199715476Y-83495880D02*
X199525000Y-83495880D01*
X199429761Y-83448261D01*
X199382142Y-83400642D01*
X199286904Y-83257785D01*
X199239285Y-83067309D01*
X199239285Y-82686357D01*
X199286904Y-82591119D01*
X199334523Y-82543500D01*
X199429761Y-82495880D01*
X199620238Y-82495880D01*
X199715476Y-82543500D01*
X199763095Y-82591119D01*
X199810714Y-82686357D01*
X199810714Y-82924452D01*
X199763095Y-83019690D01*
X199715476Y-83067309D01*
X199620238Y-83114928D01*
X199429761Y-83114928D01*
X199334523Y-83067309D01*
X199286904Y-83019690D01*
X199239285Y-82924452D01*
X94940357Y-99209380D02*
X95273690Y-98733190D01*
X95511785Y-99209380D02*
X95511785Y-98209380D01*
X95130833Y-98209380D01*
X95035595Y-98257000D01*
X94987976Y-98304619D01*
X94940357Y-98399857D01*
X94940357Y-98542714D01*
X94987976Y-98637952D01*
X95035595Y-98685571D01*
X95130833Y-98733190D01*
X95511785Y-98733190D01*
X93987976Y-99209380D02*
X94559404Y-99209380D01*
X94273690Y-99209380D02*
X94273690Y-98209380D01*
X94368928Y-98352238D01*
X94464166Y-98447476D01*
X94559404Y-98495095D01*
X93368928Y-98209380D02*
X93273690Y-98209380D01*
X93178452Y-98257000D01*
X93130833Y-98304619D01*
X93083214Y-98399857D01*
X93035595Y-98590333D01*
X93035595Y-98828428D01*
X93083214Y-99018904D01*
X93130833Y-99114142D01*
X93178452Y-99161761D01*
X93273690Y-99209380D01*
X93368928Y-99209380D01*
X93464166Y-99161761D01*
X93511785Y-99114142D01*
X93559404Y-99018904D01*
X93607023Y-98828428D01*
X93607023Y-98590333D01*
X93559404Y-98399857D01*
X93511785Y-98304619D01*
X93464166Y-98257000D01*
X93368928Y-98209380D01*
X129674857Y-102545880D02*
X130008190Y-102069690D01*
X130246285Y-102545880D02*
X130246285Y-101545880D01*
X129865333Y-101545880D01*
X129770095Y-101593500D01*
X129722476Y-101641119D01*
X129674857Y-101736357D01*
X129674857Y-101879214D01*
X129722476Y-101974452D01*
X129770095Y-102022071D01*
X129865333Y-102069690D01*
X130246285Y-102069690D01*
X128722476Y-102545880D02*
X129293904Y-102545880D01*
X129008190Y-102545880D02*
X129008190Y-101545880D01*
X129103428Y-101688738D01*
X129198666Y-101783976D01*
X129293904Y-101831595D01*
X127770095Y-102545880D02*
X128341523Y-102545880D01*
X128055809Y-102545880D02*
X128055809Y-101545880D01*
X128151047Y-101688738D01*
X128246285Y-101783976D01*
X128341523Y-101831595D01*
X148470857Y-102545880D02*
X148804190Y-102069690D01*
X149042285Y-102545880D02*
X149042285Y-101545880D01*
X148661333Y-101545880D01*
X148566095Y-101593500D01*
X148518476Y-101641119D01*
X148470857Y-101736357D01*
X148470857Y-101879214D01*
X148518476Y-101974452D01*
X148566095Y-102022071D01*
X148661333Y-102069690D01*
X149042285Y-102069690D01*
X147518476Y-102545880D02*
X148089904Y-102545880D01*
X147804190Y-102545880D02*
X147804190Y-101545880D01*
X147899428Y-101688738D01*
X147994666Y-101783976D01*
X148089904Y-101831595D01*
X147137523Y-101641119D02*
X147089904Y-101593500D01*
X146994666Y-101545880D01*
X146756571Y-101545880D01*
X146661333Y-101593500D01*
X146613714Y-101641119D01*
X146566095Y-101736357D01*
X146566095Y-101831595D01*
X146613714Y-101974452D01*
X147185142Y-102545880D01*
X146566095Y-102545880D01*
X167457357Y-102545880D02*
X167790690Y-102069690D01*
X168028785Y-102545880D02*
X168028785Y-101545880D01*
X167647833Y-101545880D01*
X167552595Y-101593500D01*
X167504976Y-101641119D01*
X167457357Y-101736357D01*
X167457357Y-101879214D01*
X167504976Y-101974452D01*
X167552595Y-102022071D01*
X167647833Y-102069690D01*
X168028785Y-102069690D01*
X166504976Y-102545880D02*
X167076404Y-102545880D01*
X166790690Y-102545880D02*
X166790690Y-101545880D01*
X166885928Y-101688738D01*
X166981166Y-101783976D01*
X167076404Y-101831595D01*
X166171642Y-101545880D02*
X165552595Y-101545880D01*
X165885928Y-101926833D01*
X165743071Y-101926833D01*
X165647833Y-101974452D01*
X165600214Y-102022071D01*
X165552595Y-102117309D01*
X165552595Y-102355404D01*
X165600214Y-102450642D01*
X165647833Y-102498261D01*
X165743071Y-102545880D01*
X166028785Y-102545880D01*
X166124023Y-102498261D01*
X166171642Y-102450642D01*
X186316857Y-102482380D02*
X186650190Y-102006190D01*
X186888285Y-102482380D02*
X186888285Y-101482380D01*
X186507333Y-101482380D01*
X186412095Y-101530000D01*
X186364476Y-101577619D01*
X186316857Y-101672857D01*
X186316857Y-101815714D01*
X186364476Y-101910952D01*
X186412095Y-101958571D01*
X186507333Y-102006190D01*
X186888285Y-102006190D01*
X185364476Y-102482380D02*
X185935904Y-102482380D01*
X185650190Y-102482380D02*
X185650190Y-101482380D01*
X185745428Y-101625238D01*
X185840666Y-101720476D01*
X185935904Y-101768095D01*
X184507333Y-101815714D02*
X184507333Y-102482380D01*
X184745428Y-101434761D02*
X184983523Y-102149047D01*
X184364476Y-102149047D01*
X205112857Y-99385380D02*
X205446190Y-98909190D01*
X205684285Y-99385380D02*
X205684285Y-98385380D01*
X205303333Y-98385380D01*
X205208095Y-98433000D01*
X205160476Y-98480619D01*
X205112857Y-98575857D01*
X205112857Y-98718714D01*
X205160476Y-98813952D01*
X205208095Y-98861571D01*
X205303333Y-98909190D01*
X205684285Y-98909190D01*
X204160476Y-99385380D02*
X204731904Y-99385380D01*
X204446190Y-99385380D02*
X204446190Y-98385380D01*
X204541428Y-98528238D01*
X204636666Y-98623476D01*
X204731904Y-98671095D01*
X203255714Y-98385380D02*
X203731904Y-98385380D01*
X203779523Y-98861571D01*
X203731904Y-98813952D01*
X203636666Y-98766333D01*
X203398571Y-98766333D01*
X203303333Y-98813952D01*
X203255714Y-98861571D01*
X203208095Y-98956809D01*
X203208095Y-99194904D01*
X203255714Y-99290142D01*
X203303333Y-99337761D01*
X203398571Y-99385380D01*
X203636666Y-99385380D01*
X203731904Y-99337761D01*
X203779523Y-99290142D01*
X99067857Y-121737380D02*
X99401190Y-121261190D01*
X99639285Y-121737380D02*
X99639285Y-120737380D01*
X99258333Y-120737380D01*
X99163095Y-120785000D01*
X99115476Y-120832619D01*
X99067857Y-120927857D01*
X99067857Y-121070714D01*
X99115476Y-121165952D01*
X99163095Y-121213571D01*
X99258333Y-121261190D01*
X99639285Y-121261190D01*
X98115476Y-121737380D02*
X98686904Y-121737380D01*
X98401190Y-121737380D02*
X98401190Y-120737380D01*
X98496428Y-120880238D01*
X98591666Y-120975476D01*
X98686904Y-121023095D01*
X97258333Y-120737380D02*
X97448809Y-120737380D01*
X97544047Y-120785000D01*
X97591666Y-120832619D01*
X97686904Y-120975476D01*
X97734523Y-121165952D01*
X97734523Y-121546904D01*
X97686904Y-121642142D01*
X97639285Y-121689761D01*
X97544047Y-121737380D01*
X97353571Y-121737380D01*
X97258333Y-121689761D01*
X97210714Y-121642142D01*
X97163095Y-121546904D01*
X97163095Y-121308809D01*
X97210714Y-121213571D01*
X97258333Y-121165952D01*
X97353571Y-121118333D01*
X97544047Y-121118333D01*
X97639285Y-121165952D01*
X97686904Y-121213571D01*
X97734523Y-121308809D01*
X133802357Y-121595880D02*
X134135690Y-121119690D01*
X134373785Y-121595880D02*
X134373785Y-120595880D01*
X133992833Y-120595880D01*
X133897595Y-120643500D01*
X133849976Y-120691119D01*
X133802357Y-120786357D01*
X133802357Y-120929214D01*
X133849976Y-121024452D01*
X133897595Y-121072071D01*
X133992833Y-121119690D01*
X134373785Y-121119690D01*
X132849976Y-121595880D02*
X133421404Y-121595880D01*
X133135690Y-121595880D02*
X133135690Y-120595880D01*
X133230928Y-120738738D01*
X133326166Y-120833976D01*
X133421404Y-120881595D01*
X132516642Y-120595880D02*
X131849976Y-120595880D01*
X132278547Y-121595880D01*
X152839657Y-118257580D02*
X153172990Y-117781390D01*
X153411085Y-118257580D02*
X153411085Y-117257580D01*
X153030133Y-117257580D01*
X152934895Y-117305200D01*
X152887276Y-117352819D01*
X152839657Y-117448057D01*
X152839657Y-117590914D01*
X152887276Y-117686152D01*
X152934895Y-117733771D01*
X153030133Y-117781390D01*
X153411085Y-117781390D01*
X151887276Y-118257580D02*
X152458704Y-118257580D01*
X152172990Y-118257580D02*
X152172990Y-117257580D01*
X152268228Y-117400438D01*
X152363466Y-117495676D01*
X152458704Y-117543295D01*
X151315847Y-117686152D02*
X151411085Y-117638533D01*
X151458704Y-117590914D01*
X151506323Y-117495676D01*
X151506323Y-117448057D01*
X151458704Y-117352819D01*
X151411085Y-117305200D01*
X151315847Y-117257580D01*
X151125371Y-117257580D01*
X151030133Y-117305200D01*
X150982514Y-117352819D01*
X150934895Y-117448057D01*
X150934895Y-117495676D01*
X150982514Y-117590914D01*
X151030133Y-117638533D01*
X151125371Y-117686152D01*
X151315847Y-117686152D01*
X151411085Y-117733771D01*
X151458704Y-117781390D01*
X151506323Y-117876628D01*
X151506323Y-118067104D01*
X151458704Y-118162342D01*
X151411085Y-118209961D01*
X151315847Y-118257580D01*
X151125371Y-118257580D01*
X151030133Y-118209961D01*
X150982514Y-118162342D01*
X150934895Y-118067104D01*
X150934895Y-117876628D01*
X150982514Y-117781390D01*
X151030133Y-117733771D01*
X151125371Y-117686152D01*
X171711857Y-121595880D02*
X172045190Y-121119690D01*
X172283285Y-121595880D02*
X172283285Y-120595880D01*
X171902333Y-120595880D01*
X171807095Y-120643500D01*
X171759476Y-120691119D01*
X171711857Y-120786357D01*
X171711857Y-120929214D01*
X171759476Y-121024452D01*
X171807095Y-121072071D01*
X171902333Y-121119690D01*
X172283285Y-121119690D01*
X170759476Y-121595880D02*
X171330904Y-121595880D01*
X171045190Y-121595880D02*
X171045190Y-120595880D01*
X171140428Y-120738738D01*
X171235666Y-120833976D01*
X171330904Y-120881595D01*
X170283285Y-121595880D02*
X170092809Y-121595880D01*
X169997571Y-121548261D01*
X169949952Y-121500642D01*
X169854714Y-121357785D01*
X169807095Y-121167309D01*
X169807095Y-120786357D01*
X169854714Y-120691119D01*
X169902333Y-120643500D01*
X169997571Y-120595880D01*
X170188047Y-120595880D01*
X170283285Y-120643500D01*
X170330904Y-120691119D01*
X170378523Y-120786357D01*
X170378523Y-121024452D01*
X170330904Y-121119690D01*
X170283285Y-121167309D01*
X170188047Y-121214928D01*
X169997571Y-121214928D01*
X169902333Y-121167309D01*
X169854714Y-121119690D01*
X169807095Y-121024452D01*
X190761857Y-118181380D02*
X191095190Y-117705190D01*
X191333285Y-118181380D02*
X191333285Y-117181380D01*
X190952333Y-117181380D01*
X190857095Y-117229000D01*
X190809476Y-117276619D01*
X190761857Y-117371857D01*
X190761857Y-117514714D01*
X190809476Y-117609952D01*
X190857095Y-117657571D01*
X190952333Y-117705190D01*
X191333285Y-117705190D01*
X190380904Y-117276619D02*
X190333285Y-117229000D01*
X190238047Y-117181380D01*
X189999952Y-117181380D01*
X189904714Y-117229000D01*
X189857095Y-117276619D01*
X189809476Y-117371857D01*
X189809476Y-117467095D01*
X189857095Y-117609952D01*
X190428523Y-118181380D01*
X189809476Y-118181380D01*
X189190428Y-117181380D02*
X189095190Y-117181380D01*
X188999952Y-117229000D01*
X188952333Y-117276619D01*
X188904714Y-117371857D01*
X188857095Y-117562333D01*
X188857095Y-117800428D01*
X188904714Y-117990904D01*
X188952333Y-118086142D01*
X188999952Y-118133761D01*
X189095190Y-118181380D01*
X189190428Y-118181380D01*
X189285666Y-118133761D01*
X189333285Y-118086142D01*
X189380904Y-117990904D01*
X189428523Y-117800428D01*
X189428523Y-117562333D01*
X189380904Y-117371857D01*
X189333285Y-117276619D01*
X189285666Y-117229000D01*
X189190428Y-117181380D01*
X209938857Y-121595880D02*
X210272190Y-121119690D01*
X210510285Y-121595880D02*
X210510285Y-120595880D01*
X210129333Y-120595880D01*
X210034095Y-120643500D01*
X209986476Y-120691119D01*
X209938857Y-120786357D01*
X209938857Y-120929214D01*
X209986476Y-121024452D01*
X210034095Y-121072071D01*
X210129333Y-121119690D01*
X210510285Y-121119690D01*
X209557904Y-120691119D02*
X209510285Y-120643500D01*
X209415047Y-120595880D01*
X209176952Y-120595880D01*
X209081714Y-120643500D01*
X209034095Y-120691119D01*
X208986476Y-120786357D01*
X208986476Y-120881595D01*
X209034095Y-121024452D01*
X209605523Y-121595880D01*
X208986476Y-121595880D01*
X208034095Y-121595880D02*
X208605523Y-121595880D01*
X208319809Y-121595880D02*
X208319809Y-120595880D01*
X208415047Y-120738738D01*
X208510285Y-120833976D01*
X208605523Y-120881595D01*
X95067357Y-137182380D02*
X95400690Y-136706190D01*
X95638785Y-137182380D02*
X95638785Y-136182380D01*
X95257833Y-136182380D01*
X95162595Y-136230000D01*
X95114976Y-136277619D01*
X95067357Y-136372857D01*
X95067357Y-136515714D01*
X95114976Y-136610952D01*
X95162595Y-136658571D01*
X95257833Y-136706190D01*
X95638785Y-136706190D01*
X94686404Y-136277619D02*
X94638785Y-136230000D01*
X94543547Y-136182380D01*
X94305452Y-136182380D01*
X94210214Y-136230000D01*
X94162595Y-136277619D01*
X94114976Y-136372857D01*
X94114976Y-136468095D01*
X94162595Y-136610952D01*
X94734023Y-137182380D01*
X94114976Y-137182380D01*
X93734023Y-136277619D02*
X93686404Y-136230000D01*
X93591166Y-136182380D01*
X93353071Y-136182380D01*
X93257833Y-136230000D01*
X93210214Y-136277619D01*
X93162595Y-136372857D01*
X93162595Y-136468095D01*
X93210214Y-136610952D01*
X93781642Y-137182380D01*
X93162595Y-137182380D01*
X113990357Y-137245880D02*
X114323690Y-136769690D01*
X114561785Y-137245880D02*
X114561785Y-136245880D01*
X114180833Y-136245880D01*
X114085595Y-136293500D01*
X114037976Y-136341119D01*
X113990357Y-136436357D01*
X113990357Y-136579214D01*
X114037976Y-136674452D01*
X114085595Y-136722071D01*
X114180833Y-136769690D01*
X114561785Y-136769690D01*
X113609404Y-136341119D02*
X113561785Y-136293500D01*
X113466547Y-136245880D01*
X113228452Y-136245880D01*
X113133214Y-136293500D01*
X113085595Y-136341119D01*
X113037976Y-136436357D01*
X113037976Y-136531595D01*
X113085595Y-136674452D01*
X113657023Y-137245880D01*
X113037976Y-137245880D01*
X112704642Y-136245880D02*
X112085595Y-136245880D01*
X112418928Y-136626833D01*
X112276071Y-136626833D01*
X112180833Y-136674452D01*
X112133214Y-136722071D01*
X112085595Y-136817309D01*
X112085595Y-137055404D01*
X112133214Y-137150642D01*
X112180833Y-137198261D01*
X112276071Y-137245880D01*
X112561785Y-137245880D01*
X112657023Y-137198261D01*
X112704642Y-137150642D01*
X143470857Y-140582380D02*
X143804190Y-140106190D01*
X144042285Y-140582380D02*
X144042285Y-139582380D01*
X143661333Y-139582380D01*
X143566095Y-139630000D01*
X143518476Y-139677619D01*
X143470857Y-139772857D01*
X143470857Y-139915714D01*
X143518476Y-140010952D01*
X143566095Y-140058571D01*
X143661333Y-140106190D01*
X144042285Y-140106190D01*
X143089904Y-139677619D02*
X143042285Y-139630000D01*
X142947047Y-139582380D01*
X142708952Y-139582380D01*
X142613714Y-139630000D01*
X142566095Y-139677619D01*
X142518476Y-139772857D01*
X142518476Y-139868095D01*
X142566095Y-140010952D01*
X143137523Y-140582380D01*
X142518476Y-140582380D01*
X141661333Y-139915714D02*
X141661333Y-140582380D01*
X141899428Y-139534761D02*
X142137523Y-140249047D01*
X141518476Y-140249047D01*
X162440857Y-140645880D02*
X162774190Y-140169690D01*
X163012285Y-140645880D02*
X163012285Y-139645880D01*
X162631333Y-139645880D01*
X162536095Y-139693500D01*
X162488476Y-139741119D01*
X162440857Y-139836357D01*
X162440857Y-139979214D01*
X162488476Y-140074452D01*
X162536095Y-140122071D01*
X162631333Y-140169690D01*
X163012285Y-140169690D01*
X162059904Y-139741119D02*
X162012285Y-139693500D01*
X161917047Y-139645880D01*
X161678952Y-139645880D01*
X161583714Y-139693500D01*
X161536095Y-139741119D01*
X161488476Y-139836357D01*
X161488476Y-139931595D01*
X161536095Y-140074452D01*
X162107523Y-140645880D01*
X161488476Y-140645880D01*
X160583714Y-139645880D02*
X161059904Y-139645880D01*
X161107523Y-140122071D01*
X161059904Y-140074452D01*
X160964666Y-140026833D01*
X160726571Y-140026833D01*
X160631333Y-140074452D01*
X160583714Y-140122071D01*
X160536095Y-140217309D01*
X160536095Y-140455404D01*
X160583714Y-140550642D01*
X160631333Y-140598261D01*
X160726571Y-140645880D01*
X160964666Y-140645880D01*
X161059904Y-140598261D01*
X161107523Y-140550642D01*
X167724057Y-141269980D02*
X168057390Y-140793790D01*
X168295485Y-141269980D02*
X168295485Y-140269980D01*
X167914533Y-140269980D01*
X167819295Y-140317600D01*
X167771676Y-140365219D01*
X167724057Y-140460457D01*
X167724057Y-140603314D01*
X167771676Y-140698552D01*
X167819295Y-140746171D01*
X167914533Y-140793790D01*
X168295485Y-140793790D01*
X167343104Y-140365219D02*
X167295485Y-140317600D01*
X167200247Y-140269980D01*
X166962152Y-140269980D01*
X166866914Y-140317600D01*
X166819295Y-140365219D01*
X166771676Y-140460457D01*
X166771676Y-140555695D01*
X166819295Y-140698552D01*
X167390723Y-141269980D01*
X166771676Y-141269980D01*
X165914533Y-140269980D02*
X166105009Y-140269980D01*
X166200247Y-140317600D01*
X166247866Y-140365219D01*
X166343104Y-140508076D01*
X166390723Y-140698552D01*
X166390723Y-141079504D01*
X166343104Y-141174742D01*
X166295485Y-141222361D01*
X166200247Y-141269980D01*
X166009771Y-141269980D01*
X165914533Y-141222361D01*
X165866914Y-141174742D01*
X165819295Y-141079504D01*
X165819295Y-140841409D01*
X165866914Y-140746171D01*
X165914533Y-140698552D01*
X166009771Y-140650933D01*
X166200247Y-140650933D01*
X166295485Y-140698552D01*
X166343104Y-140746171D01*
X166390723Y-140841409D01*
X205722457Y-140582380D02*
X206055790Y-140106190D01*
X206293885Y-140582380D02*
X206293885Y-139582380D01*
X205912933Y-139582380D01*
X205817695Y-139630000D01*
X205770076Y-139677619D01*
X205722457Y-139772857D01*
X205722457Y-139915714D01*
X205770076Y-140010952D01*
X205817695Y-140058571D01*
X205912933Y-140106190D01*
X206293885Y-140106190D01*
X205341504Y-139677619D02*
X205293885Y-139630000D01*
X205198647Y-139582380D01*
X204960552Y-139582380D01*
X204865314Y-139630000D01*
X204817695Y-139677619D01*
X204770076Y-139772857D01*
X204770076Y-139868095D01*
X204817695Y-140010952D01*
X205389123Y-140582380D01*
X204770076Y-140582380D01*
X204436742Y-139582380D02*
X203770076Y-139582380D01*
X204198647Y-140582380D01*
X92488540Y-71333122D02*
X92012350Y-70999789D01*
X92488540Y-70761694D02*
X91488540Y-70761694D01*
X91488540Y-71142646D01*
X91536160Y-71237884D01*
X91583779Y-71285503D01*
X91679017Y-71333122D01*
X91821874Y-71333122D01*
X91917112Y-71285503D01*
X91964731Y-71237884D01*
X92012350Y-71142646D01*
X92012350Y-70761694D01*
X91583779Y-71714075D02*
X91536160Y-71761694D01*
X91488540Y-71856932D01*
X91488540Y-72095027D01*
X91536160Y-72190265D01*
X91583779Y-72237884D01*
X91679017Y-72285503D01*
X91774255Y-72285503D01*
X91917112Y-72237884D01*
X92488540Y-71666456D01*
X92488540Y-72285503D01*
X91917112Y-72856932D02*
X91869493Y-72761694D01*
X91821874Y-72714075D01*
X91726636Y-72666456D01*
X91679017Y-72666456D01*
X91583779Y-72714075D01*
X91536160Y-72761694D01*
X91488540Y-72856932D01*
X91488540Y-73047408D01*
X91536160Y-73142646D01*
X91583779Y-73190265D01*
X91679017Y-73237884D01*
X91726636Y-73237884D01*
X91821874Y-73190265D01*
X91869493Y-73142646D01*
X91917112Y-73047408D01*
X91917112Y-72856932D01*
X91964731Y-72761694D01*
X92012350Y-72714075D01*
X92107588Y-72666456D01*
X92298064Y-72666456D01*
X92393302Y-72714075D01*
X92440921Y-72761694D01*
X92488540Y-72856932D01*
X92488540Y-73047408D01*
X92440921Y-73142646D01*
X92393302Y-73190265D01*
X92298064Y-73237884D01*
X92107588Y-73237884D01*
X92012350Y-73190265D01*
X91964731Y-73142646D01*
X91917112Y-73047408D01*
X93035380Y-113903333D02*
X92559190Y-113570000D01*
X93035380Y-113331904D02*
X92035380Y-113331904D01*
X92035380Y-113712857D01*
X92083000Y-113808095D01*
X92130619Y-113855714D01*
X92225857Y-113903333D01*
X92368714Y-113903333D01*
X92463952Y-113855714D01*
X92511571Y-113808095D01*
X92559190Y-113712857D01*
X92559190Y-113331904D01*
X92083000Y-114855714D02*
X92035380Y-114760476D01*
X92035380Y-114617619D01*
X92083000Y-114474761D01*
X92178238Y-114379523D01*
X92273476Y-114331904D01*
X92463952Y-114284285D01*
X92606809Y-114284285D01*
X92797285Y-114331904D01*
X92892523Y-114379523D01*
X92987761Y-114474761D01*
X93035380Y-114617619D01*
X93035380Y-114712857D01*
X92987761Y-114855714D01*
X92940142Y-114903333D01*
X92606809Y-114903333D01*
X92606809Y-114712857D01*
X92511571Y-115665238D02*
X92559190Y-115808095D01*
X92606809Y-115855714D01*
X92702047Y-115903333D01*
X92844904Y-115903333D01*
X92940142Y-115855714D01*
X92987761Y-115808095D01*
X93035380Y-115712857D01*
X93035380Y-115331904D01*
X92035380Y-115331904D01*
X92035380Y-115665238D01*
X92083000Y-115760476D01*
X92130619Y-115808095D01*
X92225857Y-115855714D01*
X92321095Y-115855714D01*
X92416333Y-115808095D01*
X92463952Y-115760476D01*
X92511571Y-115665238D01*
X92511571Y-115331904D01*
X93035380Y-116903333D02*
X92559190Y-116570000D01*
X93035380Y-116331904D02*
X92035380Y-116331904D01*
X92035380Y-116712857D01*
X92083000Y-116808095D01*
X92130619Y-116855714D01*
X92225857Y-116903333D01*
X92368714Y-116903333D01*
X92463952Y-116855714D01*
X92511571Y-116808095D01*
X92559190Y-116712857D01*
X92559190Y-116331904D01*
X93035380Y-117855714D02*
X93035380Y-117284285D01*
X93035380Y-117570000D02*
X92035380Y-117570000D01*
X92178238Y-117474761D01*
X92273476Y-117379523D01*
X92321095Y-117284285D01*
X177406133Y-105763961D02*
X177263276Y-105811580D01*
X177025180Y-105811580D01*
X176929942Y-105763961D01*
X176882323Y-105716342D01*
X176834704Y-105621104D01*
X176834704Y-105525866D01*
X176882323Y-105430628D01*
X176929942Y-105383009D01*
X177025180Y-105335390D01*
X177215657Y-105287771D01*
X177310895Y-105240152D01*
X177358514Y-105192533D01*
X177406133Y-105097295D01*
X177406133Y-105002057D01*
X177358514Y-104906819D01*
X177310895Y-104859200D01*
X177215657Y-104811580D01*
X176977561Y-104811580D01*
X176834704Y-104859200D01*
X176501371Y-104811580D02*
X176263276Y-105811580D01*
X176072800Y-105097295D01*
X175882323Y-105811580D01*
X175644228Y-104811580D01*
X174739466Y-105811580D02*
X175310895Y-105811580D01*
X175025180Y-105811580D02*
X175025180Y-104811580D01*
X175120419Y-104954438D01*
X175215657Y-105049676D01*
X175310895Y-105097295D01*
X116179523Y-108045304D02*
X116179523Y-108692923D01*
X116141428Y-108769114D01*
X116103333Y-108807209D01*
X116027142Y-108845304D01*
X115874761Y-108845304D01*
X115798571Y-108807209D01*
X115760476Y-108769114D01*
X115722380Y-108692923D01*
X115722380Y-108045304D01*
X114922380Y-108845304D02*
X115379523Y-108845304D01*
X115150952Y-108845304D02*
X115150952Y-108045304D01*
X115227142Y-108159590D01*
X115303333Y-108235780D01*
X115379523Y-108273876D01*
X119227142Y-104806733D02*
X118846190Y-104806733D01*
X119303333Y-105035304D02*
X119036666Y-104235304D01*
X118770000Y-105035304D01*
X118617619Y-104235304D02*
X118160476Y-104235304D01*
X118389047Y-105035304D02*
X118389047Y-104235304D01*
X117893809Y-105035304D02*
X117893809Y-104501971D01*
X117893809Y-104578161D02*
X117855714Y-104540066D01*
X117779523Y-104501971D01*
X117665238Y-104501971D01*
X117589047Y-104540066D01*
X117550952Y-104616257D01*
X117550952Y-105035304D01*
X117550952Y-104616257D02*
X117512857Y-104540066D01*
X117436666Y-104501971D01*
X117322380Y-104501971D01*
X117246190Y-104540066D01*
X117208095Y-104616257D01*
X117208095Y-105035304D01*
X116522380Y-104997209D02*
X116598571Y-105035304D01*
X116750952Y-105035304D01*
X116827142Y-104997209D01*
X116865238Y-104921019D01*
X116865238Y-104616257D01*
X116827142Y-104540066D01*
X116750952Y-104501971D01*
X116598571Y-104501971D01*
X116522380Y-104540066D01*
X116484285Y-104616257D01*
X116484285Y-104692447D01*
X116865238Y-104768638D01*
X115798571Y-104501971D02*
X115798571Y-105149590D01*
X115836666Y-105225780D01*
X115874761Y-105263876D01*
X115950952Y-105301971D01*
X116065238Y-105301971D01*
X116141428Y-105263876D01*
X115798571Y-104997209D02*
X115874761Y-105035304D01*
X116027142Y-105035304D01*
X116103333Y-104997209D01*
X116141428Y-104959114D01*
X116179523Y-104882923D01*
X116179523Y-104654352D01*
X116141428Y-104578161D01*
X116103333Y-104540066D01*
X116027142Y-104501971D01*
X115874761Y-104501971D01*
X115798571Y-104540066D01*
X115074761Y-105035304D02*
X115074761Y-104616257D01*
X115112857Y-104540066D01*
X115189047Y-104501971D01*
X115341428Y-104501971D01*
X115417619Y-104540066D01*
X115074761Y-104997209D02*
X115150952Y-105035304D01*
X115341428Y-105035304D01*
X115417619Y-104997209D01*
X115455714Y-104921019D01*
X115455714Y-104844828D01*
X115417619Y-104768638D01*
X115341428Y-104730542D01*
X115150952Y-104730542D01*
X115074761Y-104692447D01*
X114770000Y-104235304D02*
X114274761Y-104235304D01*
X114541428Y-104540066D01*
X114427142Y-104540066D01*
X114350952Y-104578161D01*
X114312857Y-104616257D01*
X114274761Y-104692447D01*
X114274761Y-104882923D01*
X114312857Y-104959114D01*
X114350952Y-104997209D01*
X114427142Y-105035304D01*
X114655714Y-105035304D01*
X114731904Y-104997209D01*
X114770000Y-104959114D01*
X113970000Y-104311495D02*
X113931904Y-104273400D01*
X113855714Y-104235304D01*
X113665238Y-104235304D01*
X113589047Y-104273400D01*
X113550952Y-104311495D01*
X113512857Y-104387685D01*
X113512857Y-104463876D01*
X113550952Y-104578161D01*
X114008095Y-105035304D01*
X113512857Y-105035304D01*
X113170000Y-104235304D02*
X113170000Y-104882923D01*
X113131904Y-104959114D01*
X113093809Y-104997209D01*
X113017619Y-105035304D01*
X112865238Y-105035304D01*
X112789047Y-104997209D01*
X112750952Y-104959114D01*
X112712857Y-104882923D01*
X112712857Y-104235304D01*
X111989047Y-104501971D02*
X111989047Y-105035304D01*
X112179523Y-104197209D02*
X112370000Y-104768638D01*
X111874761Y-104768638D01*
D12*
X106396285Y-75501571D02*
X107003428Y-75501571D01*
X107074857Y-75537285D01*
X107110571Y-75573000D01*
X107146285Y-75644428D01*
X107146285Y-75787285D01*
X107110571Y-75858714D01*
X107074857Y-75894428D01*
X107003428Y-75930142D01*
X106396285Y-75930142D01*
X106467714Y-76251571D02*
X106432000Y-76287285D01*
X106396285Y-76358714D01*
X106396285Y-76537285D01*
X106432000Y-76608714D01*
X106467714Y-76644428D01*
X106539142Y-76680142D01*
X106610571Y-76680142D01*
X106717714Y-76644428D01*
X107146285Y-76215857D01*
X107146285Y-76680142D01*
D14*
X106703880Y-84145595D02*
X107513404Y-84145595D01*
X107608642Y-84193214D01*
X107656261Y-84240833D01*
X107703880Y-84336071D01*
X107703880Y-84526547D01*
X107656261Y-84621785D01*
X107608642Y-84669404D01*
X107513404Y-84717023D01*
X106703880Y-84717023D01*
X107703880Y-85764642D02*
X107227690Y-85431309D01*
X107703880Y-85193214D02*
X106703880Y-85193214D01*
X106703880Y-85574166D01*
X106751500Y-85669404D01*
X106799119Y-85717023D01*
X106894357Y-85764642D01*
X107037214Y-85764642D01*
X107132452Y-85717023D01*
X107180071Y-85669404D01*
X107227690Y-85574166D01*
X107227690Y-85193214D01*
X107703880Y-86717023D02*
X107703880Y-86145595D01*
X107703880Y-86431309D02*
X106703880Y-86431309D01*
X106846738Y-86336071D01*
X106941976Y-86240833D01*
X106989595Y-86145595D01*
X109116880Y-84145595D02*
X109926404Y-84145595D01*
X110021642Y-84193214D01*
X110069261Y-84240833D01*
X110116880Y-84336071D01*
X110116880Y-84526547D01*
X110069261Y-84621785D01*
X110021642Y-84669404D01*
X109926404Y-84717023D01*
X109116880Y-84717023D01*
X110116880Y-85764642D02*
X109640690Y-85431309D01*
X110116880Y-85193214D02*
X109116880Y-85193214D01*
X109116880Y-85574166D01*
X109164500Y-85669404D01*
X109212119Y-85717023D01*
X109307357Y-85764642D01*
X109450214Y-85764642D01*
X109545452Y-85717023D01*
X109593071Y-85669404D01*
X109640690Y-85574166D01*
X109640690Y-85193214D01*
X109212119Y-86145595D02*
X109164500Y-86193214D01*
X109116880Y-86288452D01*
X109116880Y-86526547D01*
X109164500Y-86621785D01*
X109212119Y-86669404D01*
X109307357Y-86717023D01*
X109402595Y-86717023D01*
X109545452Y-86669404D01*
X110116880Y-86097976D01*
X110116880Y-86717023D01*
X123626404Y-69619880D02*
X123626404Y-70429404D01*
X123578785Y-70524642D01*
X123531166Y-70572261D01*
X123435928Y-70619880D01*
X123245452Y-70619880D01*
X123150214Y-70572261D01*
X123102595Y-70524642D01*
X123054976Y-70429404D01*
X123054976Y-69619880D01*
X122007357Y-70619880D02*
X122340690Y-70143690D01*
X122578785Y-70619880D02*
X122578785Y-69619880D01*
X122197833Y-69619880D01*
X122102595Y-69667500D01*
X122054976Y-69715119D01*
X122007357Y-69810357D01*
X122007357Y-69953214D01*
X122054976Y-70048452D01*
X122102595Y-70096071D01*
X122197833Y-70143690D01*
X122578785Y-70143690D01*
X121674023Y-69619880D02*
X121054976Y-69619880D01*
X121388309Y-70000833D01*
X121245452Y-70000833D01*
X121150214Y-70048452D01*
X121102595Y-70096071D01*
X121054976Y-70191309D01*
X121054976Y-70429404D01*
X121102595Y-70524642D01*
X121150214Y-70572261D01*
X121245452Y-70619880D01*
X121531166Y-70619880D01*
X121626404Y-70572261D01*
X121674023Y-70524642D01*
X114355404Y-67905380D02*
X114355404Y-68714904D01*
X114307785Y-68810142D01*
X114260166Y-68857761D01*
X114164928Y-68905380D01*
X113974452Y-68905380D01*
X113879214Y-68857761D01*
X113831595Y-68810142D01*
X113783976Y-68714904D01*
X113783976Y-67905380D01*
X112736357Y-68905380D02*
X113069690Y-68429190D01*
X113307785Y-68905380D02*
X113307785Y-67905380D01*
X112926833Y-67905380D01*
X112831595Y-67953000D01*
X112783976Y-68000619D01*
X112736357Y-68095857D01*
X112736357Y-68238714D01*
X112783976Y-68333952D01*
X112831595Y-68381571D01*
X112926833Y-68429190D01*
X113307785Y-68429190D01*
X111879214Y-68238714D02*
X111879214Y-68905380D01*
X112117309Y-67857761D02*
X112355404Y-68572047D01*
X111736357Y-68572047D01*
X93273404Y-67841880D02*
X93273404Y-68651404D01*
X93225785Y-68746642D01*
X93178166Y-68794261D01*
X93082928Y-68841880D01*
X92892452Y-68841880D01*
X92797214Y-68794261D01*
X92749595Y-68746642D01*
X92701976Y-68651404D01*
X92701976Y-67841880D01*
X91654357Y-68841880D02*
X91987690Y-68365690D01*
X92225785Y-68841880D02*
X92225785Y-67841880D01*
X91844833Y-67841880D01*
X91749595Y-67889500D01*
X91701976Y-67937119D01*
X91654357Y-68032357D01*
X91654357Y-68175214D01*
X91701976Y-68270452D01*
X91749595Y-68318071D01*
X91844833Y-68365690D01*
X92225785Y-68365690D01*
X90749595Y-67841880D02*
X91225785Y-67841880D01*
X91273404Y-68318071D01*
X91225785Y-68270452D01*
X91130547Y-68222833D01*
X90892452Y-68222833D01*
X90797214Y-68270452D01*
X90749595Y-68318071D01*
X90701976Y-68413309D01*
X90701976Y-68651404D01*
X90749595Y-68746642D01*
X90797214Y-68794261D01*
X90892452Y-68841880D01*
X91130547Y-68841880D01*
X91225785Y-68794261D01*
X91273404Y-68746642D01*
X110749815Y-73302880D02*
X110749815Y-74112404D01*
X110702196Y-74207642D01*
X110654577Y-74255261D01*
X110559339Y-74302880D01*
X110368862Y-74302880D01*
X110273624Y-74255261D01*
X110226005Y-74207642D01*
X110178386Y-74112404D01*
X110178386Y-73302880D01*
X109749815Y-74255261D02*
X109606958Y-74302880D01*
X109368862Y-74302880D01*
X109273624Y-74255261D01*
X109226005Y-74207642D01*
X109178386Y-74112404D01*
X109178386Y-74017166D01*
X109226005Y-73921928D01*
X109273624Y-73874309D01*
X109368862Y-73826690D01*
X109559339Y-73779071D01*
X109654577Y-73731452D01*
X109702196Y-73683833D01*
X109749815Y-73588595D01*
X109749815Y-73493357D01*
X109702196Y-73398119D01*
X109654577Y-73350500D01*
X109559339Y-73302880D01*
X109321243Y-73302880D01*
X109178386Y-73350500D01*
X108416481Y-73779071D02*
X108273624Y-73826690D01*
X108226005Y-73874309D01*
X108178386Y-73969547D01*
X108178386Y-74112404D01*
X108226005Y-74207642D01*
X108273624Y-74255261D01*
X108368862Y-74302880D01*
X108749815Y-74302880D01*
X108749815Y-73302880D01*
X108416481Y-73302880D01*
X108321243Y-73350500D01*
X108273624Y-73398119D01*
X108226005Y-73493357D01*
X108226005Y-73588595D01*
X108273624Y-73683833D01*
X108321243Y-73731452D01*
X108416481Y-73779071D01*
X108749815Y-73779071D01*
X107226005Y-74302880D02*
X107797434Y-74302880D01*
X107511720Y-74302880D02*
X107511720Y-73302880D01*
X107606958Y-73445738D01*
X107702196Y-73540976D01*
X107797434Y-73588595D01*
X115985040Y-90307956D02*
X116985040Y-90974622D01*
X115985040Y-90974622D02*
X116985040Y-90307956D01*
X116889802Y-91927003D02*
X116937421Y-91879384D01*
X116985040Y-91736527D01*
X116985040Y-91641289D01*
X116937421Y-91498432D01*
X116842183Y-91403194D01*
X116746945Y-91355575D01*
X116556469Y-91307956D01*
X116413612Y-91307956D01*
X116223136Y-91355575D01*
X116127898Y-91403194D01*
X116032660Y-91498432D01*
X115985040Y-91641289D01*
X115985040Y-91736527D01*
X116032660Y-91879384D01*
X116080279Y-91927003D01*
X116985040Y-92879384D02*
X116985040Y-92307956D01*
X116985040Y-92593670D02*
X115985040Y-92593670D01*
X116127898Y-92498432D01*
X116223136Y-92403194D01*
X116270755Y-92307956D01*
X109624880Y-90003476D02*
X110624880Y-90670142D01*
X109624880Y-90670142D02*
X110624880Y-90003476D01*
X110529642Y-91622523D02*
X110577261Y-91574904D01*
X110624880Y-91432047D01*
X110624880Y-91336809D01*
X110577261Y-91193952D01*
X110482023Y-91098714D01*
X110386785Y-91051095D01*
X110196309Y-91003476D01*
X110053452Y-91003476D01*
X109862976Y-91051095D01*
X109767738Y-91098714D01*
X109672500Y-91193952D01*
X109624880Y-91336809D01*
X109624880Y-91432047D01*
X109672500Y-91574904D01*
X109720119Y-91622523D01*
X109720119Y-92003476D02*
X109672500Y-92051095D01*
X109624880Y-92146333D01*
X109624880Y-92384428D01*
X109672500Y-92479666D01*
X109720119Y-92527285D01*
X109815357Y-92574904D01*
X109910595Y-92574904D01*
X110053452Y-92527285D01*
X110624880Y-91955857D01*
X110624880Y-92574904D01*
M02*
