%TF.GenerationSoftware,KiCad,Pcbnew,(6.0.0-rc1-dev-1291-g61b749f0b)*%
%TF.CreationDate,2018-12-05T20:52:08+02:00*%
%TF.ProjectId,TS48_left,54533438-5f6c-4656-9674-2e6b69636164,rev?*%
%TF.SameCoordinates,Original*%
%TF.FileFunction,Soldermask,Top*%
%TF.FilePolarity,Negative*%
%FSLAX46Y46*%
G04 Gerber Fmt 4.6, Leading zero omitted, Abs format (unit mm)*
G04 Created by KiCad (PCBNEW (6.0.0-rc1-dev-1291-g61b749f0b)) date 12/5/2018 8:52:08 PM*
%MOMM*%
%LPD*%
G01*
G04 APERTURE LIST*
%ADD10C,0.100000*%
G04 APERTURE END LIST*
D10*
X90995500Y-142938500D02*
X208153000Y-142938500D01*
X89979500Y-67627500D02*
X89979500Y-141922500D01*
X103886000Y-66611500D02*
X90995500Y-66611500D01*
X114173000Y-66611500D02*
X203390500Y-66611500D01*
X204406500Y-84645500D02*
X204406500Y-67627500D01*
X208153000Y-85661500D02*
X205422500Y-85661500D01*
X209169000Y-103695500D02*
X209169000Y-86677500D01*
X212915500Y-104711500D02*
X210185000Y-104711500D01*
X213931500Y-122872500D02*
X213931500Y-105727500D01*
X212915500Y-123888500D02*
X210185000Y-123888500D01*
X209169000Y-141922500D02*
X209169000Y-124904500D01*
X209169000Y-141922500D02*
G75*
G02X208151731Y-142939769I-1017269J0D01*
G01*
X90995500Y-142938500D02*
G75*
G02X89978231Y-141921231I0J1017269D01*
G01*
X89979500Y-67627500D02*
G75*
G02X90996769Y-66610231I1017269J0D01*
G01*
X114173000Y-66040000D02*
X114173000Y-66611500D01*
X104902000Y-65024000D02*
X113157000Y-65024000D01*
X103886000Y-66040000D02*
X103886000Y-66611500D01*
X103884731Y-66041269D02*
G75*
G02X104902000Y-65024000I1017269J0D01*
G01*
X113155731Y-65022731D02*
G75*
G02X114173000Y-66040000I0J-1017269D01*
G01*
X203389231Y-66610231D02*
G75*
G02X204406500Y-67627500I0J-1017269D01*
G01*
X205422500Y-85661500D02*
G75*
G02X204405231Y-84644231I0J1017269D01*
G01*
X208153000Y-85661500D02*
G75*
G02X209170269Y-86678769I0J-1017269D01*
G01*
X210185000Y-104711500D02*
G75*
G02X209167731Y-103694231I0J1017269D01*
G01*
X212915500Y-104711500D02*
G75*
G02X213932769Y-105728769I0J-1017269D01*
G01*
X209167731Y-124905769D02*
G75*
G02X210185000Y-123888500I1017269J0D01*
G01*
X213931500Y-122872500D02*
G75*
G02X212914231Y-123889769I-1017269J0D01*
G01*
G36*
X199863245Y-138830522D02*
X200059534Y-138869566D01*
X200336885Y-138984449D01*
X200586496Y-139151234D01*
X200798766Y-139363504D01*
X200798768Y-139363507D01*
X200965551Y-139613115D01*
X201080434Y-139890466D01*
X201139000Y-140184899D01*
X201139000Y-140485101D01*
X201080434Y-140779534D01*
X200965551Y-141056885D01*
X200798766Y-141306496D01*
X200586496Y-141518766D01*
X200586493Y-141518768D01*
X200336885Y-141685551D01*
X200059534Y-141800434D01*
X199863245Y-141839478D01*
X199765102Y-141859000D01*
X199464898Y-141859000D01*
X199366755Y-141839478D01*
X199170466Y-141800434D01*
X198893115Y-141685551D01*
X198643507Y-141518768D01*
X198643504Y-141518766D01*
X198431234Y-141306496D01*
X198264449Y-141056885D01*
X198149566Y-140779534D01*
X198091000Y-140485101D01*
X198091000Y-140184899D01*
X198149566Y-139890466D01*
X198264449Y-139613115D01*
X198431232Y-139363507D01*
X198431234Y-139363504D01*
X198643504Y-139151234D01*
X198893115Y-138984449D01*
X199170466Y-138869566D01*
X199366755Y-138830522D01*
X199464898Y-138811000D01*
X199765102Y-138811000D01*
X199863245Y-138830522D01*
X199863245Y-138830522D01*
G37*
G36*
X175987245Y-138830522D02*
X176183534Y-138869566D01*
X176460885Y-138984449D01*
X176710496Y-139151234D01*
X176922766Y-139363504D01*
X176922768Y-139363507D01*
X177089551Y-139613115D01*
X177204434Y-139890466D01*
X177263000Y-140184899D01*
X177263000Y-140485101D01*
X177204434Y-140779534D01*
X177089551Y-141056885D01*
X176922766Y-141306496D01*
X176710496Y-141518766D01*
X176710493Y-141518768D01*
X176460885Y-141685551D01*
X176183534Y-141800434D01*
X175987245Y-141839478D01*
X175889102Y-141859000D01*
X175588898Y-141859000D01*
X175490755Y-141839478D01*
X175294466Y-141800434D01*
X175017115Y-141685551D01*
X174767507Y-141518768D01*
X174767504Y-141518766D01*
X174555234Y-141306496D01*
X174388449Y-141056885D01*
X174273566Y-140779534D01*
X174215000Y-140485101D01*
X174215000Y-140184899D01*
X174273566Y-139890466D01*
X174388449Y-139613115D01*
X174555232Y-139363507D01*
X174555234Y-139363504D01*
X174767504Y-139151234D01*
X175017115Y-138984449D01*
X175294466Y-138869566D01*
X175490755Y-138830522D01*
X175588898Y-138811000D01*
X175889102Y-138811000D01*
X175987245Y-138830522D01*
X175987245Y-138830522D01*
G37*
G36*
X195411974Y-131432724D02*
X195774841Y-131583028D01*
X196101412Y-131801236D01*
X196379139Y-132078963D01*
X196597347Y-132405534D01*
X196747651Y-132768401D01*
X196824275Y-133153618D01*
X196824275Y-133546382D01*
X196747651Y-133931599D01*
X196597347Y-134294466D01*
X196379139Y-134621037D01*
X196101412Y-134898764D01*
X195774841Y-135116972D01*
X195411974Y-135267276D01*
X195026757Y-135343900D01*
X194633993Y-135343900D01*
X194248776Y-135267276D01*
X193885909Y-135116972D01*
X193559338Y-134898764D01*
X193281611Y-134621037D01*
X193063403Y-134294466D01*
X193059306Y-134284576D01*
X193047763Y-134262981D01*
X193032218Y-134244039D01*
X193013275Y-134228494D01*
X192991664Y-134216943D01*
X192968215Y-134209830D01*
X192943829Y-134207428D01*
X192919445Y-134209830D01*
X192843180Y-134225000D01*
X192670819Y-134225000D01*
X192501772Y-134191375D01*
X192342533Y-134125416D01*
X192199217Y-134029655D01*
X192077345Y-133907783D01*
X191981584Y-133764467D01*
X191915625Y-133605228D01*
X191882000Y-133436181D01*
X191882000Y-133263819D01*
X191915625Y-133094772D01*
X191981584Y-132935533D01*
X192077345Y-132792217D01*
X192199217Y-132670345D01*
X192342533Y-132574584D01*
X192501772Y-132508625D01*
X192670819Y-132475000D01*
X192843180Y-132475000D01*
X192919445Y-132490170D01*
X192943830Y-132492572D01*
X192968216Y-132490170D01*
X192991665Y-132483057D01*
X193013276Y-132471506D01*
X193032218Y-132455961D01*
X193047763Y-132437019D01*
X193059306Y-132415424D01*
X193063403Y-132405534D01*
X193281611Y-132078963D01*
X193559338Y-131801236D01*
X193885909Y-131583028D01*
X194248776Y-131432724D01*
X194633993Y-131356100D01*
X195026757Y-131356100D01*
X195411974Y-131432724D01*
X195411974Y-131432724D01*
G37*
G36*
X171591974Y-131432724D02*
X171954841Y-131583028D01*
X172281412Y-131801236D01*
X172559139Y-132078963D01*
X172777347Y-132405534D01*
X172780928Y-132414179D01*
X172792473Y-132435778D01*
X172808019Y-132454720D01*
X172826961Y-132470265D01*
X172848572Y-132481816D01*
X172872021Y-132488929D01*
X172896407Y-132491331D01*
X172920792Y-132488929D01*
X172990819Y-132475000D01*
X173163181Y-132475000D01*
X173332228Y-132508625D01*
X173491467Y-132574584D01*
X173634783Y-132670345D01*
X173756655Y-132792217D01*
X173852416Y-132935533D01*
X173918375Y-133094772D01*
X173952000Y-133263819D01*
X173952000Y-133436181D01*
X173918375Y-133605228D01*
X173852416Y-133764467D01*
X173756655Y-133907783D01*
X173634783Y-134029655D01*
X173491467Y-134125416D01*
X173332228Y-134191375D01*
X173163181Y-134225000D01*
X172990819Y-134225000D01*
X172920792Y-134211071D01*
X172896406Y-134208669D01*
X172872019Y-134211071D01*
X172848570Y-134218184D01*
X172826959Y-134229736D01*
X172808017Y-134245281D01*
X172792472Y-134264223D01*
X172780928Y-134285821D01*
X172777347Y-134294466D01*
X172559139Y-134621037D01*
X172281412Y-134898764D01*
X171954841Y-135116972D01*
X171591974Y-135267276D01*
X171206757Y-135343900D01*
X170813993Y-135343900D01*
X170428776Y-135267276D01*
X170065909Y-135116972D01*
X169739338Y-134898764D01*
X169461611Y-134621037D01*
X169243403Y-134294466D01*
X169093099Y-133931599D01*
X169016475Y-133546382D01*
X169016475Y-133153618D01*
X169093099Y-132768401D01*
X169243403Y-132405534D01*
X169461611Y-132078963D01*
X169739338Y-131801236D01*
X170065909Y-131583028D01*
X170428776Y-131432724D01*
X170813993Y-131356100D01*
X171206757Y-131356100D01*
X171591974Y-131432724D01*
X171591974Y-131432724D01*
G37*
G36*
X188258599Y-131432724D02*
X188621466Y-131583028D01*
X188948037Y-131801236D01*
X189225764Y-132078963D01*
X189443972Y-132405534D01*
X189448069Y-132415424D01*
X189459612Y-132437019D01*
X189475157Y-132455961D01*
X189494100Y-132471506D01*
X189515711Y-132483057D01*
X189539160Y-132490170D01*
X189563546Y-132492572D01*
X189587930Y-132490170D01*
X189664195Y-132475000D01*
X189836556Y-132475000D01*
X190005603Y-132508625D01*
X190164842Y-132574584D01*
X190308158Y-132670345D01*
X190430030Y-132792217D01*
X190525791Y-132935533D01*
X190591750Y-133094772D01*
X190625375Y-133263819D01*
X190625375Y-133436181D01*
X190591750Y-133605228D01*
X190525791Y-133764467D01*
X190430030Y-133907783D01*
X190308158Y-134029655D01*
X190164842Y-134125416D01*
X190005603Y-134191375D01*
X189836556Y-134225000D01*
X189664195Y-134225000D01*
X189587930Y-134209830D01*
X189563545Y-134207428D01*
X189539159Y-134209830D01*
X189515710Y-134216943D01*
X189494099Y-134228494D01*
X189475157Y-134244039D01*
X189459612Y-134262981D01*
X189448069Y-134284576D01*
X189443972Y-134294466D01*
X189225764Y-134621037D01*
X188948037Y-134898764D01*
X188621466Y-135116972D01*
X188258599Y-135267276D01*
X187873382Y-135343900D01*
X187480618Y-135343900D01*
X187095401Y-135267276D01*
X186732534Y-135116972D01*
X186405963Y-134898764D01*
X186128236Y-134621037D01*
X185910028Y-134294466D01*
X185759724Y-133931599D01*
X185683100Y-133546382D01*
X185683100Y-133153618D01*
X185759724Y-132768401D01*
X185910028Y-132405534D01*
X186128236Y-132078963D01*
X186405963Y-131801236D01*
X186732534Y-131583028D01*
X187095401Y-131432724D01*
X187480618Y-131356100D01*
X187873382Y-131356100D01*
X188258599Y-131432724D01*
X188258599Y-131432724D01*
G37*
G36*
X150161974Y-131432724D02*
X150524841Y-131583028D01*
X150851412Y-131801236D01*
X151129139Y-132078963D01*
X151347347Y-132405534D01*
X151350928Y-132414179D01*
X151362473Y-132435778D01*
X151378019Y-132454720D01*
X151396961Y-132470265D01*
X151418572Y-132481816D01*
X151442021Y-132488929D01*
X151466407Y-132491331D01*
X151490792Y-132488929D01*
X151560819Y-132475000D01*
X151733181Y-132475000D01*
X151902228Y-132508625D01*
X152061467Y-132574584D01*
X152204783Y-132670345D01*
X152326655Y-132792217D01*
X152422416Y-132935533D01*
X152488375Y-133094772D01*
X152522000Y-133263819D01*
X152522000Y-133436181D01*
X152488375Y-133605228D01*
X152422416Y-133764467D01*
X152326655Y-133907783D01*
X152204783Y-134029655D01*
X152061467Y-134125416D01*
X151902228Y-134191375D01*
X151733181Y-134225000D01*
X151560819Y-134225000D01*
X151490792Y-134211071D01*
X151466406Y-134208669D01*
X151442019Y-134211071D01*
X151418570Y-134218184D01*
X151396959Y-134229736D01*
X151378017Y-134245281D01*
X151362472Y-134264223D01*
X151350928Y-134285821D01*
X151347347Y-134294466D01*
X151129139Y-134621037D01*
X150851412Y-134898764D01*
X150524841Y-135116972D01*
X150161974Y-135267276D01*
X149776757Y-135343900D01*
X149383993Y-135343900D01*
X148998776Y-135267276D01*
X148635909Y-135116972D01*
X148309338Y-134898764D01*
X148031611Y-134621037D01*
X147813403Y-134294466D01*
X147663099Y-133931599D01*
X147586475Y-133546382D01*
X147586475Y-133153618D01*
X147663099Y-132768401D01*
X147813403Y-132405534D01*
X148031611Y-132078963D01*
X148309338Y-131801236D01*
X148635909Y-131583028D01*
X148998776Y-131432724D01*
X149383993Y-131356100D01*
X149776757Y-131356100D01*
X150161974Y-131432724D01*
X150161974Y-131432724D01*
G37*
G36*
X126351974Y-131432724D02*
X126714841Y-131583028D01*
X127041412Y-131801236D01*
X127319139Y-132078963D01*
X127537347Y-132405534D01*
X127687651Y-132768401D01*
X127764275Y-133153618D01*
X127764275Y-133546382D01*
X127687651Y-133931599D01*
X127537347Y-134294466D01*
X127319139Y-134621037D01*
X127041412Y-134898764D01*
X126714841Y-135116972D01*
X126351974Y-135267276D01*
X125966757Y-135343900D01*
X125573993Y-135343900D01*
X125188776Y-135267276D01*
X124825909Y-135116972D01*
X124499338Y-134898764D01*
X124221611Y-134621037D01*
X124003403Y-134294466D01*
X124000067Y-134286413D01*
X123988527Y-134264822D01*
X123972982Y-134245879D01*
X123954040Y-134230334D01*
X123932430Y-134218782D01*
X123908981Y-134211668D01*
X123884595Y-134209266D01*
X123860206Y-134211668D01*
X123793181Y-134225000D01*
X123620819Y-134225000D01*
X123451772Y-134191375D01*
X123292533Y-134125416D01*
X123149217Y-134029655D01*
X123027345Y-133907783D01*
X122931584Y-133764467D01*
X122865625Y-133605228D01*
X122832000Y-133436181D01*
X122832000Y-133263819D01*
X122865625Y-133094772D01*
X122931584Y-132935533D01*
X123027345Y-132792217D01*
X123149217Y-132670345D01*
X123292533Y-132574584D01*
X123451772Y-132508625D01*
X123620819Y-132475000D01*
X123793181Y-132475000D01*
X123860206Y-132488332D01*
X123884592Y-132490734D01*
X123908979Y-132488332D01*
X123932428Y-132481219D01*
X123954038Y-132469668D01*
X123972981Y-132454122D01*
X123988526Y-132435180D01*
X124000067Y-132413587D01*
X124003403Y-132405534D01*
X124221611Y-132078963D01*
X124499338Y-131801236D01*
X124825909Y-131583028D01*
X125188776Y-131432724D01*
X125573993Y-131356100D01*
X125966757Y-131356100D01*
X126351974Y-131432724D01*
X126351974Y-131432724D01*
G37*
G36*
X119208599Y-131432724D02*
X119571466Y-131583028D01*
X119898037Y-131801236D01*
X120175764Y-132078963D01*
X120393972Y-132405534D01*
X120397308Y-132413587D01*
X120408848Y-132435178D01*
X120424393Y-132454121D01*
X120443335Y-132469666D01*
X120464945Y-132481218D01*
X120488394Y-132488332D01*
X120512780Y-132490734D01*
X120537169Y-132488332D01*
X120604194Y-132475000D01*
X120776556Y-132475000D01*
X120945603Y-132508625D01*
X121104842Y-132574584D01*
X121248158Y-132670345D01*
X121370030Y-132792217D01*
X121465791Y-132935533D01*
X121531750Y-133094772D01*
X121565375Y-133263819D01*
X121565375Y-133436181D01*
X121531750Y-133605228D01*
X121465791Y-133764467D01*
X121370030Y-133907783D01*
X121248158Y-134029655D01*
X121104842Y-134125416D01*
X120945603Y-134191375D01*
X120776556Y-134225000D01*
X120604194Y-134225000D01*
X120537169Y-134211668D01*
X120512783Y-134209266D01*
X120488396Y-134211668D01*
X120464947Y-134218781D01*
X120443337Y-134230332D01*
X120424394Y-134245878D01*
X120408849Y-134264820D01*
X120397308Y-134286413D01*
X120393972Y-134294466D01*
X120175764Y-134621037D01*
X119898037Y-134898764D01*
X119571466Y-135116972D01*
X119208599Y-135267276D01*
X118823382Y-135343900D01*
X118430618Y-135343900D01*
X118045401Y-135267276D01*
X117682534Y-135116972D01*
X117355963Y-134898764D01*
X117078236Y-134621037D01*
X116860028Y-134294466D01*
X116709724Y-133931599D01*
X116633100Y-133546382D01*
X116633100Y-133153618D01*
X116709724Y-132768401D01*
X116860028Y-132405534D01*
X117078236Y-132078963D01*
X117355963Y-131801236D01*
X117682534Y-131583028D01*
X118045401Y-131432724D01*
X118430618Y-131356100D01*
X118823382Y-131356100D01*
X119208599Y-131432724D01*
X119208599Y-131432724D01*
G37*
G36*
X200168599Y-131432724D02*
X200531466Y-131583028D01*
X200858037Y-131801236D01*
X201135764Y-132078963D01*
X201353972Y-132405534D01*
X201504276Y-132768401D01*
X201580900Y-133153618D01*
X201580900Y-133546382D01*
X201504276Y-133931599D01*
X201353972Y-134294466D01*
X201135764Y-134621037D01*
X200858037Y-134898764D01*
X200531466Y-135116972D01*
X200168599Y-135267276D01*
X199783382Y-135343900D01*
X199390618Y-135343900D01*
X199005401Y-135267276D01*
X198642534Y-135116972D01*
X198315963Y-134898764D01*
X198038236Y-134621037D01*
X197820028Y-134294466D01*
X197669724Y-133931599D01*
X197593100Y-133546382D01*
X197593100Y-133153618D01*
X197669724Y-132768401D01*
X197820028Y-132405534D01*
X198038236Y-132078963D01*
X198315963Y-131801236D01*
X198642534Y-131583028D01*
X199005401Y-131432724D01*
X199390618Y-131356100D01*
X199783382Y-131356100D01*
X200168599Y-131432724D01*
X200168599Y-131432724D01*
G37*
G36*
X100158599Y-131432724D02*
X100521466Y-131583028D01*
X100699252Y-131701821D01*
X100720852Y-131713366D01*
X100744301Y-131720479D01*
X100768687Y-131722881D01*
X100793074Y-131720479D01*
X100816523Y-131713366D01*
X100838127Y-131701818D01*
X101015909Y-131583028D01*
X101378776Y-131432724D01*
X101763993Y-131356100D01*
X102156757Y-131356100D01*
X102541974Y-131432724D01*
X102904841Y-131583028D01*
X103231412Y-131801236D01*
X103509139Y-132078963D01*
X103727347Y-132405534D01*
X103842241Y-132682912D01*
X103853786Y-132704512D01*
X103869332Y-132723454D01*
X103888274Y-132739000D01*
X103909885Y-132750551D01*
X103933334Y-132757664D01*
X103957720Y-132760066D01*
X103982106Y-132757664D01*
X104005556Y-132750551D01*
X104027166Y-132739000D01*
X104046108Y-132723454D01*
X104099217Y-132670345D01*
X104242533Y-132574584D01*
X104401772Y-132508625D01*
X104570819Y-132475000D01*
X104743181Y-132475000D01*
X104912228Y-132508625D01*
X105071467Y-132574584D01*
X105214783Y-132670345D01*
X105336655Y-132792217D01*
X105432416Y-132935533D01*
X105498375Y-133094772D01*
X105532000Y-133263819D01*
X105532000Y-133436181D01*
X105498375Y-133605228D01*
X105432416Y-133764467D01*
X105336655Y-133907783D01*
X105214783Y-134029655D01*
X105071467Y-134125416D01*
X104912228Y-134191375D01*
X104743181Y-134225000D01*
X104570819Y-134225000D01*
X104401772Y-134191375D01*
X104242533Y-134125416D01*
X104099217Y-134029655D01*
X104046108Y-133976546D01*
X104027166Y-133961000D01*
X104005555Y-133949449D01*
X103982106Y-133942336D01*
X103957720Y-133939934D01*
X103933334Y-133942336D01*
X103909885Y-133949449D01*
X103888274Y-133961000D01*
X103869332Y-133976546D01*
X103853786Y-133995488D01*
X103842241Y-134017088D01*
X103727347Y-134294466D01*
X103509139Y-134621037D01*
X103231412Y-134898764D01*
X102904841Y-135116972D01*
X102541974Y-135267276D01*
X102156757Y-135343900D01*
X101763993Y-135343900D01*
X101378776Y-135267276D01*
X101015909Y-135116972D01*
X100838123Y-134998179D01*
X100816523Y-134986634D01*
X100793074Y-134979521D01*
X100768688Y-134977119D01*
X100744301Y-134979521D01*
X100720852Y-134986634D01*
X100699248Y-134998182D01*
X100521466Y-135116972D01*
X100158599Y-135267276D01*
X99773382Y-135343900D01*
X99380618Y-135343900D01*
X98995401Y-135267276D01*
X98632534Y-135116972D01*
X98305963Y-134898764D01*
X98028236Y-134621037D01*
X97810028Y-134294466D01*
X97695134Y-134017088D01*
X97683589Y-133995488D01*
X97668043Y-133976546D01*
X97649101Y-133961000D01*
X97627490Y-133949449D01*
X97604041Y-133942336D01*
X97579655Y-133939934D01*
X97555269Y-133942336D01*
X97531819Y-133949449D01*
X97510209Y-133961000D01*
X97491267Y-133976546D01*
X97438158Y-134029655D01*
X97294842Y-134125416D01*
X97135603Y-134191375D01*
X96966556Y-134225000D01*
X96794194Y-134225000D01*
X96625147Y-134191375D01*
X96465908Y-134125416D01*
X96322592Y-134029655D01*
X96200720Y-133907783D01*
X96104959Y-133764467D01*
X96039000Y-133605228D01*
X96005375Y-133436181D01*
X96005375Y-133263819D01*
X96039000Y-133094772D01*
X96104959Y-132935533D01*
X96200720Y-132792217D01*
X96322592Y-132670345D01*
X96465908Y-132574584D01*
X96625147Y-132508625D01*
X96794194Y-132475000D01*
X96966556Y-132475000D01*
X97135603Y-132508625D01*
X97294842Y-132574584D01*
X97438158Y-132670345D01*
X97491267Y-132723454D01*
X97510209Y-132739000D01*
X97531820Y-132750551D01*
X97555269Y-132757664D01*
X97579655Y-132760066D01*
X97604041Y-132757664D01*
X97627490Y-132750551D01*
X97649101Y-132739000D01*
X97668043Y-132723454D01*
X97683589Y-132704512D01*
X97695134Y-132682912D01*
X97810028Y-132405534D01*
X98028236Y-132078963D01*
X98305963Y-131801236D01*
X98632534Y-131583028D01*
X98995401Y-131432724D01*
X99380618Y-131356100D01*
X99773382Y-131356100D01*
X100158599Y-131432724D01*
X100158599Y-131432724D01*
G37*
G36*
X138258599Y-131432724D02*
X138621466Y-131583028D01*
X138948037Y-131801236D01*
X139225764Y-132078963D01*
X139443972Y-132405534D01*
X139594276Y-132768401D01*
X139670900Y-133153618D01*
X139670900Y-133546382D01*
X139594276Y-133931599D01*
X139443972Y-134294466D01*
X139225764Y-134621037D01*
X138948037Y-134898764D01*
X138621466Y-135116972D01*
X138258599Y-135267276D01*
X137873382Y-135343900D01*
X137480618Y-135343900D01*
X137095401Y-135267276D01*
X136732534Y-135116972D01*
X136405963Y-134898764D01*
X136128236Y-134621037D01*
X135910028Y-134294466D01*
X135759724Y-133931599D01*
X135683100Y-133546382D01*
X135683100Y-133153618D01*
X135759724Y-132768401D01*
X135910028Y-132405534D01*
X136128236Y-132078963D01*
X136405963Y-131801236D01*
X136732534Y-131583028D01*
X137095401Y-131432724D01*
X137480618Y-131356100D01*
X137873382Y-131356100D01*
X138258599Y-131432724D01*
X138258599Y-131432724D01*
G37*
G36*
X157308599Y-131432724D02*
X157671466Y-131583028D01*
X157998037Y-131801236D01*
X158275764Y-132078963D01*
X158493972Y-132405534D01*
X158644276Y-132768401D01*
X158720900Y-133153618D01*
X158720900Y-133546382D01*
X158644276Y-133931599D01*
X158493972Y-134294466D01*
X158275764Y-134621037D01*
X157998037Y-134898764D01*
X157671466Y-135116972D01*
X157308599Y-135267276D01*
X156923382Y-135343900D01*
X156530618Y-135343900D01*
X156145401Y-135267276D01*
X155782534Y-135116972D01*
X155455963Y-134898764D01*
X155178236Y-134621037D01*
X154960028Y-134294466D01*
X154956447Y-134285821D01*
X154944902Y-134264222D01*
X154929356Y-134245280D01*
X154910414Y-134229735D01*
X154888803Y-134218184D01*
X154865354Y-134211071D01*
X154840968Y-134208669D01*
X154816583Y-134211071D01*
X154746556Y-134225000D01*
X154574194Y-134225000D01*
X154405147Y-134191375D01*
X154245908Y-134125416D01*
X154102592Y-134029655D01*
X153980720Y-133907783D01*
X153884959Y-133764467D01*
X153819000Y-133605228D01*
X153785375Y-133436181D01*
X153785375Y-133263819D01*
X153819000Y-133094772D01*
X153884959Y-132935533D01*
X153980720Y-132792217D01*
X154102592Y-132670345D01*
X154245908Y-132574584D01*
X154405147Y-132508625D01*
X154574194Y-132475000D01*
X154746556Y-132475000D01*
X154816583Y-132488929D01*
X154840969Y-132491331D01*
X154865356Y-132488929D01*
X154888805Y-132481816D01*
X154910416Y-132470264D01*
X154929358Y-132454719D01*
X154944903Y-132435777D01*
X154956447Y-132414179D01*
X154960028Y-132405534D01*
X155178236Y-132078963D01*
X155455963Y-131801236D01*
X155782534Y-131583028D01*
X156145401Y-131432724D01*
X156530618Y-131356100D01*
X156923382Y-131356100D01*
X157308599Y-131432724D01*
X157308599Y-131432724D01*
G37*
G36*
X178738599Y-131432724D02*
X179101466Y-131583028D01*
X179428037Y-131801236D01*
X179705764Y-132078963D01*
X179923972Y-132405534D01*
X180074276Y-132768401D01*
X180150900Y-133153618D01*
X180150900Y-133546382D01*
X180074276Y-133931599D01*
X179923972Y-134294466D01*
X179705764Y-134621037D01*
X179428037Y-134898764D01*
X179101466Y-135116972D01*
X178738599Y-135267276D01*
X178353382Y-135343900D01*
X177960618Y-135343900D01*
X177575401Y-135267276D01*
X177212534Y-135116972D01*
X176885963Y-134898764D01*
X176608236Y-134621037D01*
X176390028Y-134294466D01*
X176386447Y-134285821D01*
X176374902Y-134264222D01*
X176359356Y-134245280D01*
X176340414Y-134229735D01*
X176318803Y-134218184D01*
X176295354Y-134211071D01*
X176270968Y-134208669D01*
X176246583Y-134211071D01*
X176176556Y-134225000D01*
X176004194Y-134225000D01*
X175835147Y-134191375D01*
X175675908Y-134125416D01*
X175532592Y-134029655D01*
X175410720Y-133907783D01*
X175314959Y-133764467D01*
X175249000Y-133605228D01*
X175215375Y-133436181D01*
X175215375Y-133263819D01*
X175249000Y-133094772D01*
X175314959Y-132935533D01*
X175410720Y-132792217D01*
X175532592Y-132670345D01*
X175675908Y-132574584D01*
X175835147Y-132508625D01*
X176004194Y-132475000D01*
X176176556Y-132475000D01*
X176246583Y-132488929D01*
X176270969Y-132491331D01*
X176295356Y-132488929D01*
X176318805Y-132481816D01*
X176340416Y-132470264D01*
X176359358Y-132454719D01*
X176374903Y-132435777D01*
X176386447Y-132414179D01*
X176390028Y-132405534D01*
X176608236Y-132078963D01*
X176885963Y-131801236D01*
X177212534Y-131583028D01*
X177575401Y-131432724D01*
X177960618Y-131356100D01*
X178353382Y-131356100D01*
X178738599Y-131432724D01*
X178738599Y-131432724D01*
G37*
G36*
X162062228Y-132508625D02*
X162221467Y-132574584D01*
X162364783Y-132670345D01*
X162486655Y-132792217D01*
X162582416Y-132935533D01*
X162648375Y-133094772D01*
X162682000Y-133263819D01*
X162682000Y-133436181D01*
X162648375Y-133605228D01*
X162582416Y-133764467D01*
X162486655Y-133907783D01*
X162364783Y-134029655D01*
X162221467Y-134125416D01*
X162062228Y-134191375D01*
X161893181Y-134225000D01*
X161720819Y-134225000D01*
X161551772Y-134191375D01*
X161392533Y-134125416D01*
X161249217Y-134029655D01*
X161127345Y-133907783D01*
X161031584Y-133764467D01*
X160965625Y-133605228D01*
X160932000Y-133436181D01*
X160932000Y-133263819D01*
X160965625Y-133094772D01*
X161031584Y-132935533D01*
X161127345Y-132792217D01*
X161249217Y-132670345D01*
X161392533Y-132574584D01*
X161551772Y-132508625D01*
X161720819Y-132475000D01*
X161893181Y-132475000D01*
X162062228Y-132508625D01*
X162062228Y-132508625D01*
G37*
G36*
X166185603Y-132508625D02*
X166344842Y-132574584D01*
X166488158Y-132670345D01*
X166610030Y-132792217D01*
X166705791Y-132935533D01*
X166771750Y-133094772D01*
X166805375Y-133263819D01*
X166805375Y-133436181D01*
X166771750Y-133605228D01*
X166705791Y-133764467D01*
X166610030Y-133907783D01*
X166488158Y-134029655D01*
X166344842Y-134125416D01*
X166185603Y-134191375D01*
X166016556Y-134225000D01*
X165844194Y-134225000D01*
X165675147Y-134191375D01*
X165515908Y-134125416D01*
X165372592Y-134029655D01*
X165250720Y-133907783D01*
X165154959Y-133764467D01*
X165089000Y-133605228D01*
X165055375Y-133436181D01*
X165055375Y-133263819D01*
X165089000Y-133094772D01*
X165154959Y-132935533D01*
X165250720Y-132792217D01*
X165372592Y-132670345D01*
X165515908Y-132574584D01*
X165675147Y-132508625D01*
X165844194Y-132475000D01*
X166016556Y-132475000D01*
X166185603Y-132508625D01*
X166185603Y-132508625D01*
G37*
G36*
X131105603Y-132508625D02*
X131264842Y-132574584D01*
X131408158Y-132670345D01*
X131530032Y-132792219D01*
X131619755Y-132926498D01*
X131635300Y-132945440D01*
X131654242Y-132960985D01*
X131675853Y-132972536D01*
X131699302Y-132979649D01*
X131723688Y-132982051D01*
X131748075Y-132979649D01*
X131771524Y-132972536D01*
X131793135Y-132960984D01*
X131812077Y-132945439D01*
X131827622Y-132926497D01*
X131917345Y-132792217D01*
X132039217Y-132670345D01*
X132182533Y-132574584D01*
X132341772Y-132508625D01*
X132510819Y-132475000D01*
X132683181Y-132475000D01*
X132852228Y-132508625D01*
X133011467Y-132574584D01*
X133154783Y-132670345D01*
X133276655Y-132792217D01*
X133372416Y-132935533D01*
X133438375Y-133094772D01*
X133472000Y-133263819D01*
X133472000Y-133436181D01*
X133438375Y-133605228D01*
X133372416Y-133764467D01*
X133276655Y-133907783D01*
X133154783Y-134029655D01*
X133011467Y-134125416D01*
X132852228Y-134191375D01*
X132683181Y-134225000D01*
X132510819Y-134225000D01*
X132341772Y-134191375D01*
X132182533Y-134125416D01*
X132039217Y-134029655D01*
X131917343Y-133907781D01*
X131827620Y-133773502D01*
X131812075Y-133754560D01*
X131793133Y-133739015D01*
X131771522Y-133727464D01*
X131748073Y-133720351D01*
X131723687Y-133717949D01*
X131699300Y-133720351D01*
X131675851Y-133727464D01*
X131654240Y-133739016D01*
X131635298Y-133754561D01*
X131619753Y-133773503D01*
X131530030Y-133907783D01*
X131408158Y-134029655D01*
X131264842Y-134125416D01*
X131105603Y-134191375D01*
X130936556Y-134225000D01*
X130764194Y-134225000D01*
X130595147Y-134191375D01*
X130435908Y-134125416D01*
X130292592Y-134029655D01*
X130170720Y-133907783D01*
X130074959Y-133764467D01*
X130009000Y-133605228D01*
X129975375Y-133436181D01*
X129975375Y-133263819D01*
X130009000Y-133094772D01*
X130074959Y-132935533D01*
X130170720Y-132792217D01*
X130292592Y-132670345D01*
X130435908Y-132574584D01*
X130595147Y-132508625D01*
X130764194Y-132475000D01*
X130936556Y-132475000D01*
X131105603Y-132508625D01*
X131105603Y-132508625D01*
G37*
G36*
X107295603Y-132508625D02*
X107454842Y-132574584D01*
X107598158Y-132670345D01*
X107720030Y-132792217D01*
X107815791Y-132935533D01*
X107881750Y-133094772D01*
X107915375Y-133263819D01*
X107915375Y-133436181D01*
X107881750Y-133605228D01*
X107815791Y-133764467D01*
X107720030Y-133907783D01*
X107598158Y-134029655D01*
X107454842Y-134125416D01*
X107295603Y-134191375D01*
X107126556Y-134225000D01*
X106954194Y-134225000D01*
X106785147Y-134191375D01*
X106625908Y-134125416D01*
X106482592Y-134029655D01*
X106360720Y-133907783D01*
X106264959Y-133764467D01*
X106199000Y-133605228D01*
X106165375Y-133436181D01*
X106165375Y-133263819D01*
X106199000Y-133094772D01*
X106264959Y-132935533D01*
X106360720Y-132792217D01*
X106482592Y-132670345D01*
X106625908Y-132574584D01*
X106785147Y-132508625D01*
X106954194Y-132475000D01*
X107126556Y-132475000D01*
X107295603Y-132508625D01*
X107295603Y-132508625D01*
G37*
G36*
X143012228Y-132508625D02*
X143171467Y-132574584D01*
X143314783Y-132670345D01*
X143436657Y-132792219D01*
X143524755Y-132924066D01*
X143540300Y-132943008D01*
X143559242Y-132958553D01*
X143580853Y-132970104D01*
X143604302Y-132977217D01*
X143628689Y-132979619D01*
X143653075Y-132977217D01*
X143676524Y-132970104D01*
X143698135Y-132958552D01*
X143717077Y-132943007D01*
X143732622Y-132924065D01*
X143820720Y-132792217D01*
X143942592Y-132670345D01*
X144085908Y-132574584D01*
X144245147Y-132508625D01*
X144414194Y-132475000D01*
X144586556Y-132475000D01*
X144755603Y-132508625D01*
X144914842Y-132574584D01*
X145058158Y-132670345D01*
X145180030Y-132792217D01*
X145275791Y-132935533D01*
X145341750Y-133094772D01*
X145375375Y-133263819D01*
X145375375Y-133436181D01*
X145341750Y-133605228D01*
X145275791Y-133764467D01*
X145180030Y-133907783D01*
X145058158Y-134029655D01*
X144914842Y-134125416D01*
X144755603Y-134191375D01*
X144586556Y-134225000D01*
X144414194Y-134225000D01*
X144245147Y-134191375D01*
X144085908Y-134125416D01*
X143942592Y-134029655D01*
X143820720Y-133907783D01*
X143732622Y-133775935D01*
X143717076Y-133756993D01*
X143698134Y-133741447D01*
X143676524Y-133729896D01*
X143653074Y-133722783D01*
X143628688Y-133720381D01*
X143604302Y-133722783D01*
X143580853Y-133729896D01*
X143559242Y-133741447D01*
X143540300Y-133756993D01*
X143524755Y-133775934D01*
X143436657Y-133907781D01*
X143314783Y-134029655D01*
X143171467Y-134125416D01*
X143012228Y-134191375D01*
X142843181Y-134225000D01*
X142670819Y-134225000D01*
X142501772Y-134191375D01*
X142342533Y-134125416D01*
X142199217Y-134029655D01*
X142077345Y-133907783D01*
X141981584Y-133764467D01*
X141915625Y-133605228D01*
X141882000Y-133436181D01*
X141882000Y-133263819D01*
X141915625Y-133094772D01*
X141981584Y-132935533D01*
X142077345Y-132792217D01*
X142199217Y-132670345D01*
X142342533Y-132574584D01*
X142501772Y-132508625D01*
X142670819Y-132475000D01*
X142843181Y-132475000D01*
X143012228Y-132508625D01*
X143012228Y-132508625D01*
G37*
G36*
X204922228Y-132508625D02*
X205081467Y-132574584D01*
X205224783Y-132670345D01*
X205346655Y-132792217D01*
X205442416Y-132935533D01*
X205508375Y-133094772D01*
X205542000Y-133263819D01*
X205542000Y-133436181D01*
X205508375Y-133605228D01*
X205442416Y-133764467D01*
X205346655Y-133907783D01*
X205224783Y-134029655D01*
X205081467Y-134125416D01*
X204922228Y-134191375D01*
X204753181Y-134225000D01*
X204580819Y-134225000D01*
X204411772Y-134191375D01*
X204252533Y-134125416D01*
X204109217Y-134029655D01*
X203987345Y-133907783D01*
X203891584Y-133764467D01*
X203825625Y-133605228D01*
X203792000Y-133436181D01*
X203792000Y-133263819D01*
X203825625Y-133094772D01*
X203891584Y-132935533D01*
X203987345Y-132792217D01*
X204109217Y-132670345D01*
X204252533Y-132574584D01*
X204411772Y-132508625D01*
X204580819Y-132475000D01*
X204753181Y-132475000D01*
X204922228Y-132508625D01*
X204922228Y-132508625D01*
G37*
G36*
X94752228Y-132508625D02*
X94911467Y-132574584D01*
X95054783Y-132670345D01*
X95176655Y-132792217D01*
X95272416Y-132935533D01*
X95338375Y-133094772D01*
X95372000Y-133263819D01*
X95372000Y-133436181D01*
X95338375Y-133605228D01*
X95272416Y-133764467D01*
X95176655Y-133907783D01*
X95054783Y-134029655D01*
X94911467Y-134125416D01*
X94752228Y-134191375D01*
X94583181Y-134225000D01*
X94410819Y-134225000D01*
X94241772Y-134191375D01*
X94082533Y-134125416D01*
X93939217Y-134029655D01*
X93817345Y-133907783D01*
X93721584Y-133764467D01*
X93655625Y-133605228D01*
X93622000Y-133436181D01*
X93622000Y-133263819D01*
X93655625Y-133094772D01*
X93721584Y-132935533D01*
X93817345Y-132792217D01*
X93939217Y-132670345D01*
X94082533Y-132574584D01*
X94241772Y-132508625D01*
X94410819Y-132475000D01*
X94583181Y-132475000D01*
X94752228Y-132508625D01*
X94752228Y-132508625D01*
G37*
G36*
X113802228Y-132508625D02*
X113961467Y-132574584D01*
X114104783Y-132670345D01*
X114226655Y-132792217D01*
X114322416Y-132935533D01*
X114388375Y-133094772D01*
X114422000Y-133263819D01*
X114422000Y-133436181D01*
X114388375Y-133605228D01*
X114322416Y-133764467D01*
X114226655Y-133907783D01*
X114104783Y-134029655D01*
X113961467Y-134125416D01*
X113802228Y-134191375D01*
X113633181Y-134225000D01*
X113460819Y-134225000D01*
X113291772Y-134191375D01*
X113132533Y-134125416D01*
X112989217Y-134029655D01*
X112867345Y-133907783D01*
X112771584Y-133764467D01*
X112705625Y-133605228D01*
X112672000Y-133436181D01*
X112672000Y-133263819D01*
X112705625Y-133094772D01*
X112771584Y-132935533D01*
X112867345Y-132792217D01*
X112989217Y-132670345D01*
X113132533Y-132574584D01*
X113291772Y-132508625D01*
X113460819Y-132475000D01*
X113633181Y-132475000D01*
X113802228Y-132508625D01*
X113802228Y-132508625D01*
G37*
G36*
X182852225Y-132508625D02*
X182852227Y-132508626D01*
X182852228Y-132508626D01*
X182864894Y-132513872D01*
X182869164Y-132515641D01*
X182892613Y-132522754D01*
X182916999Y-132525156D01*
X182941386Y-132522754D01*
X182964836Y-132515641D01*
X182969106Y-132513872D01*
X182981772Y-132508626D01*
X182981773Y-132508626D01*
X182981775Y-132508625D01*
X183150819Y-132475000D01*
X183323181Y-132475000D01*
X183492228Y-132508625D01*
X183651467Y-132574584D01*
X183794783Y-132670345D01*
X183916655Y-132792217D01*
X184012416Y-132935533D01*
X184078375Y-133094772D01*
X184112000Y-133263819D01*
X184112000Y-133436181D01*
X184078375Y-133605228D01*
X184012416Y-133764467D01*
X183916655Y-133907783D01*
X183794783Y-134029655D01*
X183651467Y-134125416D01*
X183492228Y-134191375D01*
X183323181Y-134225000D01*
X183150819Y-134225000D01*
X182981775Y-134191375D01*
X182981773Y-134191374D01*
X182981772Y-134191374D01*
X182964837Y-134184359D01*
X182941387Y-134177246D01*
X182917001Y-134174844D01*
X182892614Y-134177246D01*
X182869163Y-134184359D01*
X182852228Y-134191374D01*
X182852227Y-134191374D01*
X182852225Y-134191375D01*
X182683181Y-134225000D01*
X182510819Y-134225000D01*
X182341772Y-134191375D01*
X182182533Y-134125416D01*
X182039217Y-134029655D01*
X181917345Y-133907783D01*
X181821584Y-133764467D01*
X181755625Y-133605228D01*
X181722000Y-133436181D01*
X181722000Y-133263819D01*
X181755625Y-133094772D01*
X181821584Y-132935533D01*
X181917345Y-132792217D01*
X182039217Y-132670345D01*
X182182533Y-132574584D01*
X182341772Y-132508625D01*
X182510819Y-132475000D01*
X182683181Y-132475000D01*
X182852225Y-132508625D01*
X182852225Y-132508625D01*
G37*
G36*
X200196599Y-123177724D02*
X200559466Y-123328028D01*
X200886037Y-123546236D01*
X201163764Y-123823963D01*
X201381972Y-124150534D01*
X201532276Y-124513401D01*
X201608900Y-124898618D01*
X201608900Y-125291382D01*
X201532276Y-125676599D01*
X201381972Y-126039466D01*
X201163764Y-126366037D01*
X200886037Y-126643764D01*
X200559466Y-126861972D01*
X200196599Y-127012276D01*
X199811382Y-127088900D01*
X199418618Y-127088900D01*
X199033401Y-127012276D01*
X198670534Y-126861972D01*
X198343963Y-126643764D01*
X198066236Y-126366037D01*
X197848028Y-126039466D01*
X197697724Y-125676599D01*
X197621100Y-125291382D01*
X197621100Y-124898618D01*
X197697724Y-124513401D01*
X197848028Y-124150534D01*
X198066236Y-123823963D01*
X198343963Y-123546236D01*
X198670534Y-123328028D01*
X199033401Y-123177724D01*
X199418618Y-123101100D01*
X199811382Y-123101100D01*
X200196599Y-123177724D01*
X200196599Y-123177724D01*
G37*
G36*
X176320599Y-123177724D02*
X176683466Y-123328028D01*
X177010037Y-123546236D01*
X177287764Y-123823963D01*
X177505972Y-124150534D01*
X177656276Y-124513401D01*
X177732900Y-124898618D01*
X177732900Y-125291382D01*
X177656276Y-125676599D01*
X177505972Y-126039466D01*
X177287764Y-126366037D01*
X177010037Y-126643764D01*
X176683466Y-126861972D01*
X176320599Y-127012276D01*
X175935382Y-127088900D01*
X175542618Y-127088900D01*
X175157401Y-127012276D01*
X174794534Y-126861972D01*
X174467963Y-126643764D01*
X174190236Y-126366037D01*
X173972028Y-126039466D01*
X173821724Y-125676599D01*
X173745100Y-125291382D01*
X173745100Y-124898618D01*
X173821724Y-124513401D01*
X173972028Y-124150534D01*
X174190236Y-123823963D01*
X174467963Y-123546236D01*
X174794534Y-123328028D01*
X175157401Y-123177724D01*
X175542618Y-123101100D01*
X175935382Y-123101100D01*
X176320599Y-123177724D01*
X176320599Y-123177724D01*
G37*
G36*
X204931599Y-112382724D02*
X205294466Y-112533028D01*
X205621037Y-112751236D01*
X205898764Y-113028963D01*
X206116972Y-113355534D01*
X206267276Y-113718401D01*
X206343900Y-114103618D01*
X206343900Y-114496382D01*
X206267276Y-114881599D01*
X206116972Y-115244466D01*
X205898764Y-115571037D01*
X205621037Y-115848764D01*
X205294466Y-116066972D01*
X204931599Y-116217276D01*
X204546382Y-116293900D01*
X204153618Y-116293900D01*
X203768401Y-116217276D01*
X203405534Y-116066972D01*
X203078963Y-115848764D01*
X202801236Y-115571037D01*
X202583028Y-115244466D01*
X202432724Y-114881599D01*
X202356100Y-114496382D01*
X202356100Y-114103618D01*
X202432724Y-113718401D01*
X202583028Y-113355534D01*
X202801236Y-113028963D01*
X203078963Y-112751236D01*
X203405534Y-112533028D01*
X203768401Y-112382724D01*
X204153618Y-112306100D01*
X204546382Y-112306100D01*
X204931599Y-112382724D01*
X204931599Y-112382724D01*
G37*
G36*
X185881599Y-112382724D02*
X186244466Y-112533028D01*
X186571037Y-112751236D01*
X186848764Y-113028963D01*
X187066972Y-113355534D01*
X187217276Y-113718401D01*
X187293900Y-114103618D01*
X187293900Y-114496382D01*
X187217276Y-114881599D01*
X187066972Y-115244466D01*
X186848764Y-115571037D01*
X186571037Y-115848764D01*
X186244466Y-116066972D01*
X185881599Y-116217276D01*
X185496382Y-116293900D01*
X185103618Y-116293900D01*
X184718401Y-116217276D01*
X184355534Y-116066972D01*
X184028963Y-115848764D01*
X183751236Y-115571037D01*
X183533028Y-115244466D01*
X183382724Y-114881599D01*
X183306100Y-114496382D01*
X183306100Y-114103618D01*
X183382724Y-113718401D01*
X183533028Y-113355534D01*
X183751236Y-113028963D01*
X184028963Y-112751236D01*
X184355534Y-112533028D01*
X184718401Y-112382724D01*
X185103618Y-112306100D01*
X185496382Y-112306100D01*
X185881599Y-112382724D01*
X185881599Y-112382724D01*
G37*
G36*
X166831599Y-112382724D02*
X167194466Y-112533028D01*
X167521037Y-112751236D01*
X167798764Y-113028963D01*
X168016972Y-113355534D01*
X168167276Y-113718401D01*
X168243900Y-114103618D01*
X168243900Y-114496382D01*
X168167276Y-114881599D01*
X168016972Y-115244466D01*
X167798764Y-115571037D01*
X167521037Y-115848764D01*
X167194466Y-116066972D01*
X166831599Y-116217276D01*
X166446382Y-116293900D01*
X166053618Y-116293900D01*
X165668401Y-116217276D01*
X165305534Y-116066972D01*
X164978963Y-115848764D01*
X164701236Y-115571037D01*
X164483028Y-115244466D01*
X164332724Y-114881599D01*
X164256100Y-114496382D01*
X164256100Y-114103618D01*
X164332724Y-113718401D01*
X164483028Y-113355534D01*
X164701236Y-113028963D01*
X164978963Y-112751236D01*
X165305534Y-112533028D01*
X165668401Y-112382724D01*
X166053618Y-112306100D01*
X166446382Y-112306100D01*
X166831599Y-112382724D01*
X166831599Y-112382724D01*
G37*
G36*
X147781599Y-112382724D02*
X148144466Y-112533028D01*
X148471037Y-112751236D01*
X148748764Y-113028963D01*
X148966972Y-113355534D01*
X149117276Y-113718401D01*
X149193900Y-114103618D01*
X149193900Y-114496382D01*
X149117276Y-114881599D01*
X148966972Y-115244466D01*
X148748764Y-115571037D01*
X148471037Y-115848764D01*
X148144466Y-116066972D01*
X147781599Y-116217276D01*
X147396382Y-116293900D01*
X147003618Y-116293900D01*
X146618401Y-116217276D01*
X146255534Y-116066972D01*
X145928963Y-115848764D01*
X145651236Y-115571037D01*
X145433028Y-115244466D01*
X145282724Y-114881599D01*
X145206100Y-114496382D01*
X145206100Y-114103618D01*
X145282724Y-113718401D01*
X145433028Y-113355534D01*
X145651236Y-113028963D01*
X145928963Y-112751236D01*
X146255534Y-112533028D01*
X146618401Y-112382724D01*
X147003618Y-112306100D01*
X147396382Y-112306100D01*
X147781599Y-112382724D01*
X147781599Y-112382724D01*
G37*
G36*
X128731599Y-112382724D02*
X129094466Y-112533028D01*
X129421037Y-112751236D01*
X129698764Y-113028963D01*
X129916972Y-113355534D01*
X130067276Y-113718401D01*
X130143900Y-114103618D01*
X130143900Y-114496382D01*
X130067276Y-114881599D01*
X129916972Y-115244466D01*
X129698764Y-115571037D01*
X129421037Y-115848764D01*
X129094466Y-116066972D01*
X128731599Y-116217276D01*
X128346382Y-116293900D01*
X127953618Y-116293900D01*
X127568401Y-116217276D01*
X127205534Y-116066972D01*
X126878963Y-115848764D01*
X126601236Y-115571037D01*
X126383028Y-115244466D01*
X126232724Y-114881599D01*
X126156100Y-114496382D01*
X126156100Y-114103618D01*
X126232724Y-113718401D01*
X126383028Y-113355534D01*
X126601236Y-113028963D01*
X126878963Y-112751236D01*
X127205534Y-112533028D01*
X127568401Y-112382724D01*
X127953618Y-112306100D01*
X128346382Y-112306100D01*
X128731599Y-112382724D01*
X128731599Y-112382724D01*
G37*
G36*
X104921599Y-112382724D02*
X105284466Y-112533028D01*
X105611037Y-112751236D01*
X105888764Y-113028963D01*
X106106972Y-113355534D01*
X106257276Y-113718401D01*
X106333900Y-114103618D01*
X106333900Y-114496382D01*
X106257276Y-114881599D01*
X106106972Y-115244466D01*
X105888764Y-115571037D01*
X105611037Y-115848764D01*
X105284466Y-116066972D01*
X104921599Y-116217276D01*
X104536382Y-116293900D01*
X104143618Y-116293900D01*
X103758401Y-116217276D01*
X103395534Y-116066972D01*
X103068963Y-115848764D01*
X102791236Y-115571037D01*
X102573028Y-115244466D01*
X102422724Y-114881599D01*
X102346100Y-114496382D01*
X102346100Y-114103618D01*
X102422724Y-113718401D01*
X102573028Y-113355534D01*
X102791236Y-113028963D01*
X103068963Y-112751236D01*
X103395534Y-112533028D01*
X103758401Y-112382724D01*
X104143618Y-112306100D01*
X104536382Y-112306100D01*
X104921599Y-112382724D01*
X104921599Y-112382724D01*
G37*
G36*
X109675228Y-113458625D02*
X109834467Y-113524584D01*
X109977783Y-113620345D01*
X110099655Y-113742217D01*
X110195416Y-113885533D01*
X110261375Y-114044772D01*
X110295000Y-114213819D01*
X110295000Y-114386181D01*
X110261375Y-114555228D01*
X110195416Y-114714467D01*
X110099655Y-114857783D01*
X109977783Y-114979655D01*
X109834467Y-115075416D01*
X109675228Y-115141375D01*
X109506181Y-115175000D01*
X109333819Y-115175000D01*
X109164772Y-115141375D01*
X109005533Y-115075416D01*
X108862217Y-114979655D01*
X108740345Y-114857783D01*
X108644584Y-114714467D01*
X108578625Y-114555228D01*
X108545000Y-114386181D01*
X108545000Y-114213819D01*
X108578625Y-114044772D01*
X108644584Y-113885533D01*
X108740345Y-113742217D01*
X108862217Y-113620345D01*
X109005533Y-113524584D01*
X109164772Y-113458625D01*
X109333819Y-113425000D01*
X109506181Y-113425000D01*
X109675228Y-113458625D01*
X109675228Y-113458625D01*
G37*
G36*
X123325228Y-113458625D02*
X123484467Y-113524584D01*
X123627783Y-113620345D01*
X123749655Y-113742217D01*
X123845416Y-113885533D01*
X123911375Y-114044772D01*
X123945000Y-114213819D01*
X123945000Y-114386181D01*
X123911375Y-114555228D01*
X123845416Y-114714467D01*
X123749655Y-114857783D01*
X123627783Y-114979655D01*
X123484467Y-115075416D01*
X123325228Y-115141375D01*
X123156181Y-115175000D01*
X122983819Y-115175000D01*
X122814772Y-115141375D01*
X122655533Y-115075416D01*
X122512217Y-114979655D01*
X122390345Y-114857783D01*
X122294584Y-114714467D01*
X122228625Y-114555228D01*
X122195000Y-114386181D01*
X122195000Y-114213819D01*
X122228625Y-114044772D01*
X122294584Y-113885533D01*
X122390345Y-113742217D01*
X122512217Y-113620345D01*
X122655533Y-113524584D01*
X122814772Y-113458625D01*
X122983819Y-113425000D01*
X123156181Y-113425000D01*
X123325228Y-113458625D01*
X123325228Y-113458625D01*
G37*
G36*
X133485228Y-113458625D02*
X133644467Y-113524584D01*
X133787783Y-113620345D01*
X133909655Y-113742217D01*
X134005416Y-113885533D01*
X134071375Y-114044772D01*
X134105000Y-114213819D01*
X134105000Y-114386181D01*
X134071375Y-114555228D01*
X134005416Y-114714467D01*
X133909655Y-114857783D01*
X133787783Y-114979655D01*
X133644467Y-115075416D01*
X133485228Y-115141375D01*
X133316181Y-115175000D01*
X133143819Y-115175000D01*
X132974772Y-115141375D01*
X132815533Y-115075416D01*
X132672217Y-114979655D01*
X132550345Y-114857783D01*
X132454584Y-114714467D01*
X132388625Y-114555228D01*
X132355000Y-114386181D01*
X132355000Y-114213819D01*
X132388625Y-114044772D01*
X132454584Y-113885533D01*
X132550345Y-113742217D01*
X132672217Y-113620345D01*
X132815533Y-113524584D01*
X132974772Y-113458625D01*
X133143819Y-113425000D01*
X133316181Y-113425000D01*
X133485228Y-113458625D01*
X133485228Y-113458625D01*
G37*
G36*
X142375228Y-113458625D02*
X142534467Y-113524584D01*
X142677783Y-113620345D01*
X142799655Y-113742217D01*
X142895416Y-113885533D01*
X142961375Y-114044772D01*
X142995000Y-114213819D01*
X142995000Y-114386181D01*
X142961375Y-114555228D01*
X142895416Y-114714467D01*
X142799655Y-114857783D01*
X142677783Y-114979655D01*
X142534467Y-115075416D01*
X142375228Y-115141375D01*
X142206181Y-115175000D01*
X142033819Y-115175000D01*
X141864772Y-115141375D01*
X141705533Y-115075416D01*
X141562217Y-114979655D01*
X141440345Y-114857783D01*
X141344584Y-114714467D01*
X141278625Y-114555228D01*
X141245000Y-114386181D01*
X141245000Y-114213819D01*
X141278625Y-114044772D01*
X141344584Y-113885533D01*
X141440345Y-113742217D01*
X141562217Y-113620345D01*
X141705533Y-113524584D01*
X141864772Y-113458625D01*
X142033819Y-113425000D01*
X142206181Y-113425000D01*
X142375228Y-113458625D01*
X142375228Y-113458625D01*
G37*
G36*
X152535228Y-113458625D02*
X152694467Y-113524584D01*
X152837783Y-113620345D01*
X152959655Y-113742217D01*
X153055416Y-113885533D01*
X153121375Y-114044772D01*
X153155000Y-114213819D01*
X153155000Y-114386181D01*
X153121375Y-114555228D01*
X153055416Y-114714467D01*
X152959655Y-114857783D01*
X152837783Y-114979655D01*
X152694467Y-115075416D01*
X152535228Y-115141375D01*
X152366181Y-115175000D01*
X152193819Y-115175000D01*
X152024772Y-115141375D01*
X151865533Y-115075416D01*
X151722217Y-114979655D01*
X151600345Y-114857783D01*
X151504584Y-114714467D01*
X151438625Y-114555228D01*
X151405000Y-114386181D01*
X151405000Y-114213819D01*
X151438625Y-114044772D01*
X151504584Y-113885533D01*
X151600345Y-113742217D01*
X151722217Y-113620345D01*
X151865533Y-113524584D01*
X152024772Y-113458625D01*
X152193819Y-113425000D01*
X152366181Y-113425000D01*
X152535228Y-113458625D01*
X152535228Y-113458625D01*
G37*
G36*
X190635228Y-113458625D02*
X190794467Y-113524584D01*
X190937783Y-113620345D01*
X191059655Y-113742217D01*
X191155416Y-113885533D01*
X191221375Y-114044772D01*
X191255000Y-114213819D01*
X191255000Y-114386181D01*
X191221375Y-114555228D01*
X191155416Y-114714467D01*
X191059655Y-114857783D01*
X190937783Y-114979655D01*
X190794467Y-115075416D01*
X190635228Y-115141375D01*
X190466181Y-115175000D01*
X190293819Y-115175000D01*
X190124772Y-115141375D01*
X189965533Y-115075416D01*
X189822217Y-114979655D01*
X189700345Y-114857783D01*
X189604584Y-114714467D01*
X189538625Y-114555228D01*
X189505000Y-114386181D01*
X189505000Y-114213819D01*
X189538625Y-114044772D01*
X189604584Y-113885533D01*
X189700345Y-113742217D01*
X189822217Y-113620345D01*
X189965533Y-113524584D01*
X190124772Y-113458625D01*
X190293819Y-113425000D01*
X190466181Y-113425000D01*
X190635228Y-113458625D01*
X190635228Y-113458625D01*
G37*
G36*
X99515228Y-113458625D02*
X99674467Y-113524584D01*
X99817783Y-113620345D01*
X99939655Y-113742217D01*
X100035416Y-113885533D01*
X100101375Y-114044772D01*
X100135000Y-114213819D01*
X100135000Y-114386181D01*
X100101375Y-114555228D01*
X100035416Y-114714467D01*
X99939655Y-114857783D01*
X99817783Y-114979655D01*
X99674467Y-115075416D01*
X99515228Y-115141375D01*
X99346181Y-115175000D01*
X99173819Y-115175000D01*
X99004772Y-115141375D01*
X98845533Y-115075416D01*
X98702217Y-114979655D01*
X98580345Y-114857783D01*
X98484584Y-114714467D01*
X98418625Y-114555228D01*
X98385000Y-114386181D01*
X98385000Y-114213819D01*
X98418625Y-114044772D01*
X98484584Y-113885533D01*
X98580345Y-113742217D01*
X98702217Y-113620345D01*
X98845533Y-113524584D01*
X99004772Y-113458625D01*
X99173819Y-113425000D01*
X99346181Y-113425000D01*
X99515228Y-113458625D01*
X99515228Y-113458625D01*
G37*
G36*
X171585228Y-113458625D02*
X171744467Y-113524584D01*
X171887783Y-113620345D01*
X172009655Y-113742217D01*
X172105416Y-113885533D01*
X172171375Y-114044772D01*
X172205000Y-114213819D01*
X172205000Y-114386181D01*
X172171375Y-114555228D01*
X172105416Y-114714467D01*
X172009655Y-114857783D01*
X171887783Y-114979655D01*
X171744467Y-115075416D01*
X171585228Y-115141375D01*
X171416181Y-115175000D01*
X171243819Y-115175000D01*
X171074772Y-115141375D01*
X170915533Y-115075416D01*
X170772217Y-114979655D01*
X170650345Y-114857783D01*
X170554584Y-114714467D01*
X170488625Y-114555228D01*
X170455000Y-114386181D01*
X170455000Y-114213819D01*
X170488625Y-114044772D01*
X170554584Y-113885533D01*
X170650345Y-113742217D01*
X170772217Y-113620345D01*
X170915533Y-113524584D01*
X171074772Y-113458625D01*
X171243819Y-113425000D01*
X171416181Y-113425000D01*
X171585228Y-113458625D01*
X171585228Y-113458625D01*
G37*
G36*
X209685228Y-113458625D02*
X209844467Y-113524584D01*
X209987783Y-113620345D01*
X210109655Y-113742217D01*
X210205416Y-113885533D01*
X210271375Y-114044772D01*
X210305000Y-114213819D01*
X210305000Y-114386181D01*
X210271375Y-114555228D01*
X210205416Y-114714467D01*
X210109655Y-114857783D01*
X209987783Y-114979655D01*
X209844467Y-115075416D01*
X209685228Y-115141375D01*
X209516181Y-115175000D01*
X209343819Y-115175000D01*
X209174772Y-115141375D01*
X209015533Y-115075416D01*
X208872217Y-114979655D01*
X208750345Y-114857783D01*
X208654584Y-114714467D01*
X208588625Y-114555228D01*
X208555000Y-114386181D01*
X208555000Y-114213819D01*
X208588625Y-114044772D01*
X208654584Y-113885533D01*
X208750345Y-113742217D01*
X208872217Y-113620345D01*
X209015533Y-113524584D01*
X209174772Y-113458625D01*
X209343819Y-113425000D01*
X209516181Y-113425000D01*
X209685228Y-113458625D01*
X209685228Y-113458625D01*
G37*
G36*
X161425228Y-113458625D02*
X161584467Y-113524584D01*
X161727783Y-113620345D01*
X161849655Y-113742217D01*
X161945416Y-113885533D01*
X162011375Y-114044772D01*
X162045000Y-114213819D01*
X162045000Y-114386181D01*
X162011375Y-114555228D01*
X161945416Y-114714467D01*
X161849655Y-114857783D01*
X161727783Y-114979655D01*
X161584467Y-115075416D01*
X161425228Y-115141375D01*
X161256181Y-115175000D01*
X161083819Y-115175000D01*
X160914772Y-115141375D01*
X160755533Y-115075416D01*
X160612217Y-114979655D01*
X160490345Y-114857783D01*
X160394584Y-114714467D01*
X160328625Y-114555228D01*
X160295000Y-114386181D01*
X160295000Y-114213819D01*
X160328625Y-114044772D01*
X160394584Y-113885533D01*
X160490345Y-113742217D01*
X160612217Y-113620345D01*
X160755533Y-113524584D01*
X160914772Y-113458625D01*
X161083819Y-113425000D01*
X161256181Y-113425000D01*
X161425228Y-113458625D01*
X161425228Y-113458625D01*
G37*
G36*
X180475228Y-113458625D02*
X180634467Y-113524584D01*
X180777783Y-113620345D01*
X180899655Y-113742217D01*
X180995416Y-113885533D01*
X181061375Y-114044772D01*
X181095000Y-114213819D01*
X181095000Y-114386181D01*
X181061375Y-114555228D01*
X180995416Y-114714467D01*
X180899655Y-114857783D01*
X180777783Y-114979655D01*
X180634467Y-115075416D01*
X180475228Y-115141375D01*
X180306181Y-115175000D01*
X180133819Y-115175000D01*
X179964772Y-115141375D01*
X179805533Y-115075416D01*
X179662217Y-114979655D01*
X179540345Y-114857783D01*
X179444584Y-114714467D01*
X179378625Y-114555228D01*
X179345000Y-114386181D01*
X179345000Y-114213819D01*
X179378625Y-114044772D01*
X179444584Y-113885533D01*
X179540345Y-113742217D01*
X179662217Y-113620345D01*
X179805533Y-113524584D01*
X179964772Y-113458625D01*
X180133819Y-113425000D01*
X180306181Y-113425000D01*
X180475228Y-113458625D01*
X180475228Y-113458625D01*
G37*
G36*
X199525228Y-113458625D02*
X199684467Y-113524584D01*
X199827783Y-113620345D01*
X199949655Y-113742217D01*
X200045416Y-113885533D01*
X200111375Y-114044772D01*
X200145000Y-114213819D01*
X200145000Y-114386181D01*
X200111375Y-114555228D01*
X200045416Y-114714467D01*
X199949655Y-114857783D01*
X199827783Y-114979655D01*
X199684467Y-115075416D01*
X199525228Y-115141375D01*
X199356181Y-115175000D01*
X199183819Y-115175000D01*
X199014772Y-115141375D01*
X198855533Y-115075416D01*
X198712217Y-114979655D01*
X198590345Y-114857783D01*
X198494584Y-114714467D01*
X198428625Y-114555228D01*
X198395000Y-114386181D01*
X198395000Y-114213819D01*
X198428625Y-114044772D01*
X198494584Y-113885533D01*
X198590345Y-113742217D01*
X198712217Y-113620345D01*
X198855533Y-113524584D01*
X199014772Y-113458625D01*
X199183819Y-113425000D01*
X199356181Y-113425000D01*
X199525228Y-113458625D01*
X199525228Y-113458625D01*
G37*
G36*
X123971599Y-93332724D02*
X124334466Y-93483028D01*
X124661037Y-93701236D01*
X124938764Y-93978963D01*
X125156972Y-94305534D01*
X125307276Y-94668401D01*
X125383900Y-95053618D01*
X125383900Y-95446382D01*
X125307276Y-95831599D01*
X125156972Y-96194466D01*
X124938764Y-96521037D01*
X124661037Y-96798764D01*
X124334466Y-97016972D01*
X123971599Y-97167276D01*
X123586382Y-97243900D01*
X123193618Y-97243900D01*
X122808401Y-97167276D01*
X122445534Y-97016972D01*
X122118963Y-96798764D01*
X121841236Y-96521037D01*
X121623028Y-96194466D01*
X121472724Y-95831599D01*
X121396100Y-95446382D01*
X121396100Y-95053618D01*
X121472724Y-94668401D01*
X121623028Y-94305534D01*
X121841236Y-93978963D01*
X122118963Y-93701236D01*
X122445534Y-93483028D01*
X122808401Y-93332724D01*
X123193618Y-93256100D01*
X123586382Y-93256100D01*
X123971599Y-93332724D01*
X123971599Y-93332724D01*
G37*
G36*
X102541599Y-93332724D02*
X102904466Y-93483028D01*
X103231037Y-93701236D01*
X103508764Y-93978963D01*
X103726972Y-94305534D01*
X103877276Y-94668401D01*
X103953900Y-95053618D01*
X103953900Y-95446382D01*
X103877276Y-95831599D01*
X103726972Y-96194466D01*
X103508764Y-96521037D01*
X103231037Y-96798764D01*
X102904466Y-97016972D01*
X102541599Y-97167276D01*
X102156382Y-97243900D01*
X101763618Y-97243900D01*
X101378401Y-97167276D01*
X101015534Y-97016972D01*
X100688963Y-96798764D01*
X100411236Y-96521037D01*
X100193028Y-96194466D01*
X100042724Y-95831599D01*
X99966100Y-95446382D01*
X99966100Y-95053618D01*
X100042724Y-94668401D01*
X100193028Y-94305534D01*
X100411236Y-93978963D01*
X100688963Y-93701236D01*
X101015534Y-93483028D01*
X101378401Y-93332724D01*
X101763618Y-93256100D01*
X102156382Y-93256100D01*
X102541599Y-93332724D01*
X102541599Y-93332724D01*
G37*
G36*
X143021599Y-93332724D02*
X143384466Y-93483028D01*
X143711037Y-93701236D01*
X143988764Y-93978963D01*
X144206972Y-94305534D01*
X144357276Y-94668401D01*
X144433900Y-95053618D01*
X144433900Y-95446382D01*
X144357276Y-95831599D01*
X144206972Y-96194466D01*
X143988764Y-96521037D01*
X143711037Y-96798764D01*
X143384466Y-97016972D01*
X143021599Y-97167276D01*
X142636382Y-97243900D01*
X142243618Y-97243900D01*
X141858401Y-97167276D01*
X141495534Y-97016972D01*
X141168963Y-96798764D01*
X140891236Y-96521037D01*
X140673028Y-96194466D01*
X140522724Y-95831599D01*
X140446100Y-95446382D01*
X140446100Y-95053618D01*
X140522724Y-94668401D01*
X140673028Y-94305534D01*
X140891236Y-93978963D01*
X141168963Y-93701236D01*
X141495534Y-93483028D01*
X141858401Y-93332724D01*
X142243618Y-93256100D01*
X142636382Y-93256100D01*
X143021599Y-93332724D01*
X143021599Y-93332724D01*
G37*
G36*
X162071599Y-93332724D02*
X162434466Y-93483028D01*
X162761037Y-93701236D01*
X163038764Y-93978963D01*
X163256972Y-94305534D01*
X163407276Y-94668401D01*
X163483900Y-95053618D01*
X163483900Y-95446382D01*
X163407276Y-95831599D01*
X163256972Y-96194466D01*
X163038764Y-96521037D01*
X162761037Y-96798764D01*
X162434466Y-97016972D01*
X162071599Y-97167276D01*
X161686382Y-97243900D01*
X161293618Y-97243900D01*
X160908401Y-97167276D01*
X160545534Y-97016972D01*
X160218963Y-96798764D01*
X159941236Y-96521037D01*
X159723028Y-96194466D01*
X159572724Y-95831599D01*
X159496100Y-95446382D01*
X159496100Y-95053618D01*
X159572724Y-94668401D01*
X159723028Y-94305534D01*
X159941236Y-93978963D01*
X160218963Y-93701236D01*
X160545534Y-93483028D01*
X160908401Y-93332724D01*
X161293618Y-93256100D01*
X161686382Y-93256100D01*
X162071599Y-93332724D01*
X162071599Y-93332724D01*
G37*
G36*
X200171599Y-93332724D02*
X200534466Y-93483028D01*
X200861037Y-93701236D01*
X201138764Y-93978963D01*
X201356972Y-94305534D01*
X201507276Y-94668401D01*
X201583900Y-95053618D01*
X201583900Y-95446382D01*
X201507276Y-95831599D01*
X201356972Y-96194466D01*
X201138764Y-96521037D01*
X200861037Y-96798764D01*
X200534466Y-97016972D01*
X200171599Y-97167276D01*
X199786382Y-97243900D01*
X199393618Y-97243900D01*
X199008401Y-97167276D01*
X198645534Y-97016972D01*
X198318963Y-96798764D01*
X198041236Y-96521037D01*
X197823028Y-96194466D01*
X197672724Y-95831599D01*
X197596100Y-95446382D01*
X197596100Y-95053618D01*
X197672724Y-94668401D01*
X197823028Y-94305534D01*
X198041236Y-93978963D01*
X198318963Y-93701236D01*
X198645534Y-93483028D01*
X199008401Y-93332724D01*
X199393618Y-93256100D01*
X199786382Y-93256100D01*
X200171599Y-93332724D01*
X200171599Y-93332724D01*
G37*
G36*
X181121599Y-93332724D02*
X181484466Y-93483028D01*
X181811037Y-93701236D01*
X182088764Y-93978963D01*
X182306972Y-94305534D01*
X182457276Y-94668401D01*
X182533900Y-95053618D01*
X182533900Y-95446382D01*
X182457276Y-95831599D01*
X182306972Y-96194466D01*
X182088764Y-96521037D01*
X181811037Y-96798764D01*
X181484466Y-97016972D01*
X181121599Y-97167276D01*
X180736382Y-97243900D01*
X180343618Y-97243900D01*
X179958401Y-97167276D01*
X179595534Y-97016972D01*
X179268963Y-96798764D01*
X178991236Y-96521037D01*
X178773028Y-96194466D01*
X178622724Y-95831599D01*
X178546100Y-95446382D01*
X178546100Y-95053618D01*
X178622724Y-94668401D01*
X178773028Y-94305534D01*
X178991236Y-93978963D01*
X179268963Y-93701236D01*
X179595534Y-93483028D01*
X179958401Y-93332724D01*
X180343618Y-93256100D01*
X180736382Y-93256100D01*
X181121599Y-93332724D01*
X181121599Y-93332724D01*
G37*
G36*
X194765228Y-94408625D02*
X194924467Y-94474584D01*
X195067783Y-94570345D01*
X195189655Y-94692217D01*
X195285416Y-94835533D01*
X195351375Y-94994772D01*
X195385000Y-95163819D01*
X195385000Y-95336181D01*
X195351375Y-95505228D01*
X195285416Y-95664467D01*
X195189655Y-95807783D01*
X195067783Y-95929655D01*
X194924467Y-96025416D01*
X194765228Y-96091375D01*
X194596181Y-96125000D01*
X194423819Y-96125000D01*
X194254772Y-96091375D01*
X194095533Y-96025416D01*
X193952217Y-95929655D01*
X193830345Y-95807783D01*
X193734584Y-95664467D01*
X193668625Y-95505228D01*
X193635000Y-95336181D01*
X193635000Y-95163819D01*
X193668625Y-94994772D01*
X193734584Y-94835533D01*
X193830345Y-94692217D01*
X193952217Y-94570345D01*
X194095533Y-94474584D01*
X194254772Y-94408625D01*
X194423819Y-94375000D01*
X194596181Y-94375000D01*
X194765228Y-94408625D01*
X194765228Y-94408625D01*
G37*
G36*
X97135228Y-94408625D02*
X97294467Y-94474584D01*
X97437783Y-94570345D01*
X97559655Y-94692217D01*
X97655416Y-94835533D01*
X97721375Y-94994772D01*
X97755000Y-95163819D01*
X97755000Y-95336181D01*
X97721375Y-95505228D01*
X97655416Y-95664467D01*
X97559655Y-95807783D01*
X97437783Y-95929655D01*
X97294467Y-96025416D01*
X97135228Y-96091375D01*
X96966181Y-96125000D01*
X96793819Y-96125000D01*
X96624772Y-96091375D01*
X96465533Y-96025416D01*
X96322217Y-95929655D01*
X96200345Y-95807783D01*
X96104584Y-95664467D01*
X96038625Y-95505228D01*
X96005000Y-95336181D01*
X96005000Y-95163819D01*
X96038625Y-94994772D01*
X96104584Y-94835533D01*
X96200345Y-94692217D01*
X96322217Y-94570345D01*
X96465533Y-94474584D01*
X96624772Y-94408625D01*
X96793819Y-94375000D01*
X96966181Y-94375000D01*
X97135228Y-94408625D01*
X97135228Y-94408625D01*
G37*
G36*
X118565228Y-94408625D02*
X118724467Y-94474584D01*
X118867783Y-94570345D01*
X118989655Y-94692217D01*
X119085416Y-94835533D01*
X119151375Y-94994772D01*
X119185000Y-95163819D01*
X119185000Y-95336181D01*
X119151375Y-95505228D01*
X119085416Y-95664467D01*
X118989655Y-95807783D01*
X118867783Y-95929655D01*
X118724467Y-96025416D01*
X118565228Y-96091375D01*
X118396181Y-96125000D01*
X118223819Y-96125000D01*
X118054772Y-96091375D01*
X117895533Y-96025416D01*
X117752217Y-95929655D01*
X117630345Y-95807783D01*
X117534584Y-95664467D01*
X117468625Y-95505228D01*
X117435000Y-95336181D01*
X117435000Y-95163819D01*
X117468625Y-94994772D01*
X117534584Y-94835533D01*
X117630345Y-94692217D01*
X117752217Y-94570345D01*
X117895533Y-94474584D01*
X118054772Y-94408625D01*
X118223819Y-94375000D01*
X118396181Y-94375000D01*
X118565228Y-94408625D01*
X118565228Y-94408625D01*
G37*
G36*
X128725228Y-94408625D02*
X128884467Y-94474584D01*
X129027783Y-94570345D01*
X129149655Y-94692217D01*
X129245416Y-94835533D01*
X129311375Y-94994772D01*
X129345000Y-95163819D01*
X129345000Y-95336181D01*
X129311375Y-95505228D01*
X129245416Y-95664467D01*
X129149655Y-95807783D01*
X129027783Y-95929655D01*
X128884467Y-96025416D01*
X128725228Y-96091375D01*
X128556181Y-96125000D01*
X128383819Y-96125000D01*
X128214772Y-96091375D01*
X128055533Y-96025416D01*
X127912217Y-95929655D01*
X127790345Y-95807783D01*
X127694584Y-95664467D01*
X127628625Y-95505228D01*
X127595000Y-95336181D01*
X127595000Y-95163819D01*
X127628625Y-94994772D01*
X127694584Y-94835533D01*
X127790345Y-94692217D01*
X127912217Y-94570345D01*
X128055533Y-94474584D01*
X128214772Y-94408625D01*
X128383819Y-94375000D01*
X128556181Y-94375000D01*
X128725228Y-94408625D01*
X128725228Y-94408625D01*
G37*
G36*
X107295228Y-94408625D02*
X107454467Y-94474584D01*
X107597783Y-94570345D01*
X107719655Y-94692217D01*
X107815416Y-94835533D01*
X107881375Y-94994772D01*
X107915000Y-95163819D01*
X107915000Y-95336181D01*
X107881375Y-95505228D01*
X107815416Y-95664467D01*
X107719655Y-95807783D01*
X107597783Y-95929655D01*
X107454467Y-96025416D01*
X107295228Y-96091375D01*
X107126181Y-96125000D01*
X106953819Y-96125000D01*
X106784772Y-96091375D01*
X106625533Y-96025416D01*
X106482217Y-95929655D01*
X106360345Y-95807783D01*
X106264584Y-95664467D01*
X106198625Y-95505228D01*
X106165000Y-95336181D01*
X106165000Y-95163819D01*
X106198625Y-94994772D01*
X106264584Y-94835533D01*
X106360345Y-94692217D01*
X106482217Y-94570345D01*
X106625533Y-94474584D01*
X106784772Y-94408625D01*
X106953819Y-94375000D01*
X107126181Y-94375000D01*
X107295228Y-94408625D01*
X107295228Y-94408625D01*
G37*
G36*
X137615228Y-94408625D02*
X137774467Y-94474584D01*
X137917783Y-94570345D01*
X138039655Y-94692217D01*
X138135416Y-94835533D01*
X138201375Y-94994772D01*
X138235000Y-95163819D01*
X138235000Y-95336181D01*
X138201375Y-95505228D01*
X138135416Y-95664467D01*
X138039655Y-95807783D01*
X137917783Y-95929655D01*
X137774467Y-96025416D01*
X137615228Y-96091375D01*
X137446181Y-96125000D01*
X137273819Y-96125000D01*
X137104772Y-96091375D01*
X136945533Y-96025416D01*
X136802217Y-95929655D01*
X136680345Y-95807783D01*
X136584584Y-95664467D01*
X136518625Y-95505228D01*
X136485000Y-95336181D01*
X136485000Y-95163819D01*
X136518625Y-94994772D01*
X136584584Y-94835533D01*
X136680345Y-94692217D01*
X136802217Y-94570345D01*
X136945533Y-94474584D01*
X137104772Y-94408625D01*
X137273819Y-94375000D01*
X137446181Y-94375000D01*
X137615228Y-94408625D01*
X137615228Y-94408625D01*
G37*
G36*
X147775228Y-94408625D02*
X147934467Y-94474584D01*
X148077783Y-94570345D01*
X148199655Y-94692217D01*
X148295416Y-94835533D01*
X148361375Y-94994772D01*
X148395000Y-95163819D01*
X148395000Y-95336181D01*
X148361375Y-95505228D01*
X148295416Y-95664467D01*
X148199655Y-95807783D01*
X148077783Y-95929655D01*
X147934467Y-96025416D01*
X147775228Y-96091375D01*
X147606181Y-96125000D01*
X147433819Y-96125000D01*
X147264772Y-96091375D01*
X147105533Y-96025416D01*
X146962217Y-95929655D01*
X146840345Y-95807783D01*
X146744584Y-95664467D01*
X146678625Y-95505228D01*
X146645000Y-95336181D01*
X146645000Y-95163819D01*
X146678625Y-94994772D01*
X146744584Y-94835533D01*
X146840345Y-94692217D01*
X146962217Y-94570345D01*
X147105533Y-94474584D01*
X147264772Y-94408625D01*
X147433819Y-94375000D01*
X147606181Y-94375000D01*
X147775228Y-94408625D01*
X147775228Y-94408625D01*
G37*
G36*
X156665228Y-94408625D02*
X156824467Y-94474584D01*
X156967783Y-94570345D01*
X157089655Y-94692217D01*
X157185416Y-94835533D01*
X157251375Y-94994772D01*
X157285000Y-95163819D01*
X157285000Y-95336181D01*
X157251375Y-95505228D01*
X157185416Y-95664467D01*
X157089655Y-95807783D01*
X156967783Y-95929655D01*
X156824467Y-96025416D01*
X156665228Y-96091375D01*
X156496181Y-96125000D01*
X156323819Y-96125000D01*
X156154772Y-96091375D01*
X155995533Y-96025416D01*
X155852217Y-95929655D01*
X155730345Y-95807783D01*
X155634584Y-95664467D01*
X155568625Y-95505228D01*
X155535000Y-95336181D01*
X155535000Y-95163819D01*
X155568625Y-94994772D01*
X155634584Y-94835533D01*
X155730345Y-94692217D01*
X155852217Y-94570345D01*
X155995533Y-94474584D01*
X156154772Y-94408625D01*
X156323819Y-94375000D01*
X156496181Y-94375000D01*
X156665228Y-94408625D01*
X156665228Y-94408625D01*
G37*
G36*
X204925228Y-94408625D02*
X205084467Y-94474584D01*
X205227783Y-94570345D01*
X205349655Y-94692217D01*
X205445416Y-94835533D01*
X205511375Y-94994772D01*
X205545000Y-95163819D01*
X205545000Y-95336181D01*
X205511375Y-95505228D01*
X205445416Y-95664467D01*
X205349655Y-95807783D01*
X205227783Y-95929655D01*
X205084467Y-96025416D01*
X204925228Y-96091375D01*
X204756181Y-96125000D01*
X204583819Y-96125000D01*
X204414772Y-96091375D01*
X204255533Y-96025416D01*
X204112217Y-95929655D01*
X203990345Y-95807783D01*
X203894584Y-95664467D01*
X203828625Y-95505228D01*
X203795000Y-95336181D01*
X203795000Y-95163819D01*
X203828625Y-94994772D01*
X203894584Y-94835533D01*
X203990345Y-94692217D01*
X204112217Y-94570345D01*
X204255533Y-94474584D01*
X204414772Y-94408625D01*
X204583819Y-94375000D01*
X204756181Y-94375000D01*
X204925228Y-94408625D01*
X204925228Y-94408625D01*
G37*
G36*
X185875228Y-94408625D02*
X186034467Y-94474584D01*
X186177783Y-94570345D01*
X186299655Y-94692217D01*
X186395416Y-94835533D01*
X186461375Y-94994772D01*
X186495000Y-95163819D01*
X186495000Y-95336181D01*
X186461375Y-95505228D01*
X186395416Y-95664467D01*
X186299655Y-95807783D01*
X186177783Y-95929655D01*
X186034467Y-96025416D01*
X185875228Y-96091375D01*
X185706181Y-96125000D01*
X185533819Y-96125000D01*
X185364772Y-96091375D01*
X185205533Y-96025416D01*
X185062217Y-95929655D01*
X184940345Y-95807783D01*
X184844584Y-95664467D01*
X184778625Y-95505228D01*
X184745000Y-95336181D01*
X184745000Y-95163819D01*
X184778625Y-94994772D01*
X184844584Y-94835533D01*
X184940345Y-94692217D01*
X185062217Y-94570345D01*
X185205533Y-94474584D01*
X185364772Y-94408625D01*
X185533819Y-94375000D01*
X185706181Y-94375000D01*
X185875228Y-94408625D01*
X185875228Y-94408625D01*
G37*
G36*
X166825228Y-94408625D02*
X166984467Y-94474584D01*
X167127783Y-94570345D01*
X167249655Y-94692217D01*
X167345416Y-94835533D01*
X167411375Y-94994772D01*
X167445000Y-95163819D01*
X167445000Y-95336181D01*
X167411375Y-95505228D01*
X167345416Y-95664467D01*
X167249655Y-95807783D01*
X167127783Y-95929655D01*
X166984467Y-96025416D01*
X166825228Y-96091375D01*
X166656181Y-96125000D01*
X166483819Y-96125000D01*
X166314772Y-96091375D01*
X166155533Y-96025416D01*
X166012217Y-95929655D01*
X165890345Y-95807783D01*
X165794584Y-95664467D01*
X165728625Y-95505228D01*
X165695000Y-95336181D01*
X165695000Y-95163819D01*
X165728625Y-94994772D01*
X165794584Y-94835533D01*
X165890345Y-94692217D01*
X166012217Y-94570345D01*
X166155533Y-94474584D01*
X166314772Y-94408625D01*
X166483819Y-94375000D01*
X166656181Y-94375000D01*
X166825228Y-94408625D01*
X166825228Y-94408625D01*
G37*
G36*
X175715228Y-94408625D02*
X175874467Y-94474584D01*
X176017783Y-94570345D01*
X176139655Y-94692217D01*
X176235416Y-94835533D01*
X176301375Y-94994772D01*
X176335000Y-95163819D01*
X176335000Y-95336181D01*
X176301375Y-95505228D01*
X176235416Y-95664467D01*
X176139655Y-95807783D01*
X176017783Y-95929655D01*
X175874467Y-96025416D01*
X175715228Y-96091375D01*
X175546181Y-96125000D01*
X175373819Y-96125000D01*
X175204772Y-96091375D01*
X175045533Y-96025416D01*
X174902217Y-95929655D01*
X174780345Y-95807783D01*
X174684584Y-95664467D01*
X174618625Y-95505228D01*
X174585000Y-95336181D01*
X174585000Y-95163819D01*
X174618625Y-94994772D01*
X174684584Y-94835533D01*
X174780345Y-94692217D01*
X174902217Y-94570345D01*
X175045533Y-94474584D01*
X175204772Y-94408625D01*
X175373819Y-94375000D01*
X175546181Y-94375000D01*
X175715228Y-94408625D01*
X175715228Y-94408625D01*
G37*
G36*
X92317830Y-90815659D02*
X92478055Y-90864263D01*
X92625720Y-90943191D01*
X92755149Y-91049411D01*
X92861369Y-91178840D01*
X92940297Y-91326505D01*
X92988901Y-91486730D01*
X93005312Y-91653360D01*
X92988901Y-91819990D01*
X92940297Y-91980215D01*
X92861369Y-92127880D01*
X92755149Y-92257309D01*
X92625720Y-92363529D01*
X92478055Y-92442457D01*
X92317830Y-92491061D01*
X92192952Y-92503360D01*
X92109448Y-92503360D01*
X91984570Y-92491061D01*
X91824345Y-92442457D01*
X91676680Y-92363529D01*
X91547251Y-92257309D01*
X91441031Y-92127880D01*
X91362103Y-91980215D01*
X91313499Y-91819990D01*
X91297088Y-91653360D01*
X91313499Y-91486730D01*
X91362103Y-91326505D01*
X91441031Y-91178840D01*
X91547251Y-91049411D01*
X91676680Y-90943191D01*
X91824345Y-90864263D01*
X91984570Y-90815659D01*
X92109448Y-90803360D01*
X92192952Y-90803360D01*
X92317830Y-90815659D01*
X92317830Y-90815659D01*
G37*
G36*
X94857830Y-90815659D02*
X95018055Y-90864263D01*
X95165720Y-90943191D01*
X95295149Y-91049411D01*
X95401369Y-91178840D01*
X95480297Y-91326505D01*
X95528901Y-91486730D01*
X95545312Y-91653360D01*
X95528901Y-91819990D01*
X95480297Y-91980215D01*
X95401369Y-92127880D01*
X95295149Y-92257309D01*
X95165720Y-92363529D01*
X95018055Y-92442457D01*
X94857830Y-92491061D01*
X94732952Y-92503360D01*
X94649448Y-92503360D01*
X94524570Y-92491061D01*
X94364345Y-92442457D01*
X94216680Y-92363529D01*
X94087251Y-92257309D01*
X93981031Y-92127880D01*
X93902103Y-91980215D01*
X93853499Y-91819990D01*
X93837088Y-91653360D01*
X93853499Y-91486730D01*
X93902103Y-91326505D01*
X93981031Y-91178840D01*
X94087251Y-91049411D01*
X94216680Y-90943191D01*
X94364345Y-90864263D01*
X94524570Y-90815659D01*
X94649448Y-90803360D01*
X94732952Y-90803360D01*
X94857830Y-90815659D01*
X94857830Y-90815659D01*
G37*
G36*
X92317830Y-88275659D02*
X92478055Y-88324263D01*
X92625720Y-88403191D01*
X92755149Y-88509411D01*
X92861369Y-88638840D01*
X92940297Y-88786505D01*
X92988901Y-88946730D01*
X93005312Y-89113360D01*
X92988901Y-89279990D01*
X92940297Y-89440215D01*
X92861369Y-89587880D01*
X92755149Y-89717309D01*
X92625720Y-89823529D01*
X92478055Y-89902457D01*
X92317830Y-89951061D01*
X92192952Y-89963360D01*
X92109448Y-89963360D01*
X91984570Y-89951061D01*
X91824345Y-89902457D01*
X91676680Y-89823529D01*
X91547251Y-89717309D01*
X91441031Y-89587880D01*
X91362103Y-89440215D01*
X91313499Y-89279990D01*
X91297088Y-89113360D01*
X91313499Y-88946730D01*
X91362103Y-88786505D01*
X91441031Y-88638840D01*
X91547251Y-88509411D01*
X91676680Y-88403191D01*
X91824345Y-88324263D01*
X91984570Y-88275659D01*
X92109448Y-88263360D01*
X92192952Y-88263360D01*
X92317830Y-88275659D01*
X92317830Y-88275659D01*
G37*
G36*
X94857830Y-88275659D02*
X95018055Y-88324263D01*
X95165720Y-88403191D01*
X95295149Y-88509411D01*
X95401369Y-88638840D01*
X95480297Y-88786505D01*
X95528901Y-88946730D01*
X95545312Y-89113360D01*
X95528901Y-89279990D01*
X95480297Y-89440215D01*
X95401369Y-89587880D01*
X95295149Y-89717309D01*
X95165720Y-89823529D01*
X95018055Y-89902457D01*
X94857830Y-89951061D01*
X94732952Y-89963360D01*
X94649448Y-89963360D01*
X94524570Y-89951061D01*
X94364345Y-89902457D01*
X94216680Y-89823529D01*
X94087251Y-89717309D01*
X93981031Y-89587880D01*
X93902103Y-89440215D01*
X93853499Y-89279990D01*
X93837088Y-89113360D01*
X93853499Y-88946730D01*
X93902103Y-88786505D01*
X93981031Y-88638840D01*
X94087251Y-88509411D01*
X94216680Y-88403191D01*
X94364345Y-88324263D01*
X94524570Y-88275659D01*
X94649448Y-88263360D01*
X94732952Y-88263360D01*
X94857830Y-88275659D01*
X94857830Y-88275659D01*
G37*
G36*
X92317830Y-85735659D02*
X92478055Y-85784263D01*
X92625720Y-85863191D01*
X92755149Y-85969411D01*
X92861369Y-86098840D01*
X92940297Y-86246505D01*
X92988901Y-86406730D01*
X93005312Y-86573360D01*
X92988901Y-86739990D01*
X92940297Y-86900215D01*
X92861369Y-87047880D01*
X92755149Y-87177309D01*
X92625720Y-87283529D01*
X92478055Y-87362457D01*
X92317830Y-87411061D01*
X92192952Y-87423360D01*
X92109448Y-87423360D01*
X91984570Y-87411061D01*
X91824345Y-87362457D01*
X91676680Y-87283529D01*
X91547251Y-87177309D01*
X91441031Y-87047880D01*
X91362103Y-86900215D01*
X91313499Y-86739990D01*
X91297088Y-86573360D01*
X91313499Y-86406730D01*
X91362103Y-86246505D01*
X91441031Y-86098840D01*
X91547251Y-85969411D01*
X91676680Y-85863191D01*
X91824345Y-85784263D01*
X91984570Y-85735659D01*
X92109448Y-85723360D01*
X92192952Y-85723360D01*
X92317830Y-85735659D01*
X92317830Y-85735659D01*
G37*
G36*
X95541200Y-87423360D02*
X93841200Y-87423360D01*
X93841200Y-85723360D01*
X95541200Y-85723360D01*
X95541200Y-87423360D01*
X95541200Y-87423360D01*
G37*
G36*
X190004228Y-75358625D02*
X190163467Y-75424584D01*
X190306783Y-75520345D01*
X190428655Y-75642217D01*
X190524416Y-75785533D01*
X190590375Y-75944772D01*
X190624000Y-76113819D01*
X190624000Y-76286181D01*
X190590375Y-76455228D01*
X190524416Y-76614467D01*
X190428655Y-76757783D01*
X190306783Y-76879655D01*
X190163467Y-76975416D01*
X190004228Y-77041375D01*
X189835181Y-77075000D01*
X189662819Y-77075000D01*
X189493772Y-77041375D01*
X189334533Y-76975416D01*
X189191217Y-76879655D01*
X189069345Y-76757783D01*
X189063114Y-76748458D01*
X189047568Y-76729516D01*
X189028626Y-76713971D01*
X189007015Y-76702420D01*
X188983565Y-76695307D01*
X188959179Y-76692906D01*
X188934793Y-76695308D01*
X188911344Y-76702422D01*
X188889733Y-76713973D01*
X188870791Y-76729519D01*
X188855246Y-76748461D01*
X188843695Y-76770072D01*
X188836582Y-76793522D01*
X188834181Y-76817908D01*
X188836583Y-76842294D01*
X188838518Y-76850016D01*
X188850200Y-76968626D01*
X188850200Y-77447215D01*
X188838624Y-77564746D01*
X188792879Y-77715549D01*
X188718592Y-77854528D01*
X188618625Y-77976339D01*
X188618623Y-77976340D01*
X188618622Y-77976342D01*
X188618618Y-77976345D01*
X188496804Y-78076314D01*
X188357828Y-78150599D01*
X188282427Y-78173471D01*
X188207026Y-78196344D01*
X188050200Y-78211790D01*
X187893373Y-78196344D01*
X187817973Y-78173472D01*
X187742571Y-78150599D01*
X187603592Y-78076312D01*
X187481781Y-77976345D01*
X187481780Y-77976343D01*
X187481778Y-77976342D01*
X187381807Y-77854525D01*
X187307522Y-77715549D01*
X187307521Y-77715548D01*
X187284648Y-77640146D01*
X187261776Y-77564746D01*
X187252547Y-77471040D01*
X187250200Y-77447214D01*
X187250200Y-76968625D01*
X187261776Y-76851094D01*
X187307521Y-76700291D01*
X187381806Y-76561315D01*
X187421029Y-76513522D01*
X187481779Y-76439498D01*
X187534316Y-76396382D01*
X187603593Y-76339528D01*
X187742572Y-76265241D01*
X187817973Y-76242369D01*
X187893374Y-76219496D01*
X188050200Y-76204050D01*
X188207027Y-76219496D01*
X188282428Y-76242369D01*
X188357829Y-76265241D01*
X188496808Y-76339528D01*
X188618622Y-76439498D01*
X188679372Y-76513522D01*
X188696699Y-76530849D01*
X188717073Y-76544463D01*
X188739712Y-76553840D01*
X188763746Y-76558621D01*
X188788250Y-76558621D01*
X188812283Y-76553841D01*
X188834922Y-76544463D01*
X188855297Y-76530849D01*
X188872624Y-76513522D01*
X188886238Y-76493148D01*
X188895615Y-76470509D01*
X188900396Y-76446475D01*
X188898596Y-76409837D01*
X188874000Y-76286181D01*
X188874000Y-76113819D01*
X188907625Y-75944772D01*
X188973584Y-75785533D01*
X189069345Y-75642217D01*
X189191217Y-75520345D01*
X189334533Y-75424584D01*
X189493772Y-75358625D01*
X189662819Y-75325000D01*
X189835181Y-75325000D01*
X190004228Y-75358625D01*
X190004228Y-75358625D01*
G37*
G36*
X119210599Y-74282724D02*
X119573466Y-74433028D01*
X119900037Y-74651236D01*
X120177764Y-74928963D01*
X120395972Y-75255534D01*
X120546276Y-75618401D01*
X120622900Y-76003618D01*
X120622900Y-76396382D01*
X120546276Y-76781599D01*
X120395972Y-77144466D01*
X120177764Y-77471037D01*
X119900037Y-77748764D01*
X119573466Y-77966972D01*
X119210599Y-78117276D01*
X118825382Y-78193900D01*
X118432618Y-78193900D01*
X118047401Y-78117276D01*
X117684534Y-77966972D01*
X117357963Y-77748764D01*
X117080236Y-77471037D01*
X116862028Y-77144466D01*
X116711724Y-76781599D01*
X116635100Y-76396382D01*
X116635100Y-76003618D01*
X116711724Y-75618401D01*
X116862028Y-75255534D01*
X117080236Y-74928963D01*
X117357963Y-74651236D01*
X117684534Y-74433028D01*
X118047401Y-74282724D01*
X118432618Y-74206100D01*
X118825382Y-74206100D01*
X119210599Y-74282724D01*
X119210599Y-74282724D01*
G37*
G36*
X195410599Y-74282724D02*
X195773466Y-74433028D01*
X196100037Y-74651236D01*
X196377764Y-74928963D01*
X196595972Y-75255534D01*
X196746276Y-75618401D01*
X196822900Y-76003618D01*
X196822900Y-76396382D01*
X196746276Y-76781599D01*
X196595972Y-77144466D01*
X196377764Y-77471037D01*
X196100037Y-77748764D01*
X195773466Y-77966972D01*
X195410599Y-78117276D01*
X195025382Y-78193900D01*
X194632618Y-78193900D01*
X194247401Y-78117276D01*
X193884534Y-77966972D01*
X193557963Y-77748764D01*
X193280236Y-77471037D01*
X193062028Y-77144466D01*
X192911724Y-76781599D01*
X192835100Y-76396382D01*
X192835100Y-76003618D01*
X192911724Y-75618401D01*
X193062028Y-75255534D01*
X193280236Y-74928963D01*
X193557963Y-74651236D01*
X193884534Y-74433028D01*
X194247401Y-74282724D01*
X194632618Y-74206100D01*
X195025382Y-74206100D01*
X195410599Y-74282724D01*
X195410599Y-74282724D01*
G37*
G36*
X176360599Y-74282724D02*
X176723466Y-74433028D01*
X177050037Y-74651236D01*
X177327764Y-74928963D01*
X177545972Y-75255534D01*
X177696276Y-75618401D01*
X177772900Y-76003618D01*
X177772900Y-76396382D01*
X177696276Y-76781599D01*
X177545972Y-77144466D01*
X177327764Y-77471037D01*
X177050037Y-77748764D01*
X176723466Y-77966972D01*
X176360599Y-78117276D01*
X175975382Y-78193900D01*
X175582618Y-78193900D01*
X175197401Y-78117276D01*
X174834534Y-77966972D01*
X174507963Y-77748764D01*
X174230236Y-77471037D01*
X174012028Y-77144466D01*
X173861724Y-76781599D01*
X173785100Y-76396382D01*
X173785100Y-76003618D01*
X173861724Y-75618401D01*
X174012028Y-75255534D01*
X174230236Y-74928963D01*
X174507963Y-74651236D01*
X174834534Y-74433028D01*
X175197401Y-74282724D01*
X175582618Y-74206100D01*
X175975382Y-74206100D01*
X176360599Y-74282724D01*
X176360599Y-74282724D01*
G37*
G36*
X157310599Y-74282724D02*
X157673466Y-74433028D01*
X158000037Y-74651236D01*
X158277764Y-74928963D01*
X158495972Y-75255534D01*
X158646276Y-75618401D01*
X158722900Y-76003618D01*
X158722900Y-76396382D01*
X158646276Y-76781599D01*
X158495972Y-77144466D01*
X158277764Y-77471037D01*
X158000037Y-77748764D01*
X157673466Y-77966972D01*
X157310599Y-78117276D01*
X156925382Y-78193900D01*
X156532618Y-78193900D01*
X156147401Y-78117276D01*
X155784534Y-77966972D01*
X155457963Y-77748764D01*
X155180236Y-77471037D01*
X154962028Y-77144466D01*
X154811724Y-76781599D01*
X154735100Y-76396382D01*
X154735100Y-76003618D01*
X154811724Y-75618401D01*
X154962028Y-75255534D01*
X155180236Y-74928963D01*
X155457963Y-74651236D01*
X155784534Y-74433028D01*
X156147401Y-74282724D01*
X156532618Y-74206100D01*
X156925382Y-74206100D01*
X157310599Y-74282724D01*
X157310599Y-74282724D01*
G37*
G36*
X138260599Y-74282724D02*
X138623466Y-74433028D01*
X138950037Y-74651236D01*
X139227764Y-74928963D01*
X139445972Y-75255534D01*
X139596276Y-75618401D01*
X139672900Y-76003618D01*
X139672900Y-76396382D01*
X139596276Y-76781599D01*
X139445972Y-77144466D01*
X139227764Y-77471037D01*
X138950037Y-77748764D01*
X138623466Y-77966972D01*
X138260599Y-78117276D01*
X137875382Y-78193900D01*
X137482618Y-78193900D01*
X137097401Y-78117276D01*
X136734534Y-77966972D01*
X136407963Y-77748764D01*
X136130236Y-77471037D01*
X135912028Y-77144466D01*
X135761724Y-76781599D01*
X135685100Y-76396382D01*
X135685100Y-76003618D01*
X135761724Y-75618401D01*
X135912028Y-75255534D01*
X136130236Y-74928963D01*
X136407963Y-74651236D01*
X136734534Y-74433028D01*
X137097401Y-74282724D01*
X137482618Y-74206100D01*
X137875382Y-74206100D01*
X138260599Y-74282724D01*
X138260599Y-74282724D01*
G37*
G36*
X100160599Y-74282724D02*
X100523466Y-74433028D01*
X100850037Y-74651236D01*
X101127764Y-74928963D01*
X101345972Y-75255534D01*
X101496276Y-75618401D01*
X101572900Y-76003618D01*
X101572900Y-76396382D01*
X101496276Y-76781599D01*
X101345972Y-77144466D01*
X101127764Y-77471037D01*
X100850037Y-77748764D01*
X100523466Y-77966972D01*
X100160599Y-78117276D01*
X99775382Y-78193900D01*
X99382618Y-78193900D01*
X98997401Y-78117276D01*
X98634534Y-77966972D01*
X98307963Y-77748764D01*
X98030236Y-77471037D01*
X97812028Y-77144466D01*
X97661724Y-76781599D01*
X97585100Y-76396382D01*
X97585100Y-76003618D01*
X97661724Y-75618401D01*
X97812028Y-75255534D01*
X98030236Y-74928963D01*
X98307963Y-74651236D01*
X98634534Y-74433028D01*
X98997401Y-74282724D01*
X99382618Y-74206100D01*
X99775382Y-74206100D01*
X100160599Y-74282724D01*
X100160599Y-74282724D01*
G37*
G36*
X183607027Y-75119496D02*
X183682428Y-75142369D01*
X183757829Y-75165241D01*
X183896808Y-75239528D01*
X184018622Y-75339498D01*
X184118592Y-75461312D01*
X184192879Y-75600291D01*
X184205597Y-75642217D01*
X184238624Y-75751093D01*
X184250200Y-75868628D01*
X184250200Y-76347213D01*
X184238624Y-76464747D01*
X184223828Y-76513522D01*
X184192879Y-76615549D01*
X184118592Y-76754528D01*
X184018625Y-76876339D01*
X184018623Y-76876340D01*
X184018622Y-76876342D01*
X183927259Y-76951320D01*
X183896804Y-76976314D01*
X183757828Y-77050599D01*
X183682427Y-77073471D01*
X183607026Y-77096344D01*
X183450200Y-77111790D01*
X183293373Y-77096344D01*
X183217972Y-77073471D01*
X183142571Y-77050599D01*
X183003592Y-76976312D01*
X182881781Y-76876345D01*
X182881780Y-76876343D01*
X182881778Y-76876342D01*
X182781807Y-76754525D01*
X182781806Y-76754524D01*
X182707521Y-76615548D01*
X182663524Y-76470509D01*
X182661776Y-76464746D01*
X182650200Y-76347212D01*
X182650200Y-75868627D01*
X182661776Y-75751093D01*
X182694803Y-75642217D01*
X182707521Y-75600291D01*
X182781806Y-75461315D01*
X182881781Y-75339496D01*
X183003593Y-75239528D01*
X183142572Y-75165241D01*
X183217973Y-75142369D01*
X183293374Y-75119496D01*
X183450200Y-75104050D01*
X183607027Y-75119496D01*
X183607027Y-75119496D01*
G37*
G36*
X200164228Y-75358625D02*
X200323467Y-75424584D01*
X200466783Y-75520345D01*
X200588655Y-75642217D01*
X200684416Y-75785533D01*
X200750375Y-75944772D01*
X200784000Y-76113819D01*
X200784000Y-76286181D01*
X200750375Y-76455228D01*
X200684416Y-76614467D01*
X200588655Y-76757783D01*
X200466783Y-76879655D01*
X200323467Y-76975416D01*
X200164228Y-77041375D01*
X199995181Y-77075000D01*
X199822819Y-77075000D01*
X199653772Y-77041375D01*
X199494533Y-76975416D01*
X199351217Y-76879655D01*
X199229345Y-76757783D01*
X199133584Y-76614467D01*
X199067625Y-76455228D01*
X199034000Y-76286181D01*
X199034000Y-76113819D01*
X199067625Y-75944772D01*
X199133584Y-75785533D01*
X199229345Y-75642217D01*
X199351217Y-75520345D01*
X199494533Y-75424584D01*
X199653772Y-75358625D01*
X199822819Y-75325000D01*
X199995181Y-75325000D01*
X200164228Y-75358625D01*
X200164228Y-75358625D01*
G37*
G36*
X94754228Y-75358625D02*
X94913467Y-75424584D01*
X95056783Y-75520345D01*
X95178655Y-75642217D01*
X95274416Y-75785533D01*
X95340375Y-75944772D01*
X95374000Y-76113819D01*
X95374000Y-76286181D01*
X95340375Y-76455228D01*
X95274416Y-76614467D01*
X95178655Y-76757783D01*
X95056783Y-76879655D01*
X94913467Y-76975416D01*
X94754228Y-77041375D01*
X94585181Y-77075000D01*
X94412819Y-77075000D01*
X94243772Y-77041375D01*
X94084533Y-76975416D01*
X93941217Y-76879655D01*
X93819345Y-76757783D01*
X93723584Y-76614467D01*
X93657625Y-76455228D01*
X93624000Y-76286181D01*
X93624000Y-76113819D01*
X93657625Y-75944772D01*
X93723584Y-75785533D01*
X93819345Y-75642217D01*
X93941217Y-75520345D01*
X94084533Y-75424584D01*
X94243772Y-75358625D01*
X94412819Y-75325000D01*
X94585181Y-75325000D01*
X94754228Y-75358625D01*
X94754228Y-75358625D01*
G37*
G36*
X104914228Y-75358625D02*
X105073467Y-75424584D01*
X105216783Y-75520345D01*
X105338655Y-75642217D01*
X105434416Y-75785533D01*
X105500375Y-75944772D01*
X105534000Y-76113819D01*
X105534000Y-76286181D01*
X105500375Y-76455228D01*
X105434416Y-76614467D01*
X105338655Y-76757783D01*
X105216783Y-76879655D01*
X105073467Y-76975416D01*
X104914228Y-77041375D01*
X104745181Y-77075000D01*
X104572819Y-77075000D01*
X104403772Y-77041375D01*
X104244533Y-76975416D01*
X104101217Y-76879655D01*
X103979345Y-76757783D01*
X103883584Y-76614467D01*
X103817625Y-76455228D01*
X103784000Y-76286181D01*
X103784000Y-76113819D01*
X103817625Y-75944772D01*
X103883584Y-75785533D01*
X103979345Y-75642217D01*
X104101217Y-75520345D01*
X104244533Y-75424584D01*
X104403772Y-75358625D01*
X104572819Y-75325000D01*
X104745181Y-75325000D01*
X104914228Y-75358625D01*
X104914228Y-75358625D01*
G37*
G36*
X113804228Y-75358625D02*
X113963467Y-75424584D01*
X114106783Y-75520345D01*
X114228655Y-75642217D01*
X114324416Y-75785533D01*
X114390375Y-75944772D01*
X114424000Y-76113819D01*
X114424000Y-76286181D01*
X114390375Y-76455228D01*
X114324416Y-76614467D01*
X114228655Y-76757783D01*
X114106783Y-76879655D01*
X113963467Y-76975416D01*
X113804228Y-77041375D01*
X113635181Y-77075000D01*
X113462819Y-77075000D01*
X113293772Y-77041375D01*
X113134533Y-76975416D01*
X112991217Y-76879655D01*
X112869345Y-76757783D01*
X112773584Y-76614467D01*
X112707625Y-76455228D01*
X112674000Y-76286181D01*
X112674000Y-76113819D01*
X112707625Y-75944772D01*
X112773584Y-75785533D01*
X112869345Y-75642217D01*
X112991217Y-75520345D01*
X113134533Y-75424584D01*
X113293772Y-75358625D01*
X113462819Y-75325000D01*
X113635181Y-75325000D01*
X113804228Y-75358625D01*
X113804228Y-75358625D01*
G37*
G36*
X123964228Y-75358625D02*
X124123467Y-75424584D01*
X124266783Y-75520345D01*
X124388655Y-75642217D01*
X124484416Y-75785533D01*
X124550375Y-75944772D01*
X124584000Y-76113819D01*
X124584000Y-76286181D01*
X124550375Y-76455228D01*
X124484416Y-76614467D01*
X124388655Y-76757783D01*
X124266783Y-76879655D01*
X124123467Y-76975416D01*
X123964228Y-77041375D01*
X123795181Y-77075000D01*
X123622819Y-77075000D01*
X123453772Y-77041375D01*
X123294533Y-76975416D01*
X123151217Y-76879655D01*
X123029345Y-76757783D01*
X122933584Y-76614467D01*
X122867625Y-76455228D01*
X122834000Y-76286181D01*
X122834000Y-76113819D01*
X122867625Y-75944772D01*
X122933584Y-75785533D01*
X123029345Y-75642217D01*
X123151217Y-75520345D01*
X123294533Y-75424584D01*
X123453772Y-75358625D01*
X123622819Y-75325000D01*
X123795181Y-75325000D01*
X123964228Y-75358625D01*
X123964228Y-75358625D01*
G37*
G36*
X143014228Y-75358625D02*
X143173467Y-75424584D01*
X143316783Y-75520345D01*
X143438655Y-75642217D01*
X143534416Y-75785533D01*
X143600375Y-75944772D01*
X143634000Y-76113819D01*
X143634000Y-76286181D01*
X143600375Y-76455228D01*
X143534416Y-76614467D01*
X143438655Y-76757783D01*
X143316783Y-76879655D01*
X143173467Y-76975416D01*
X143014228Y-77041375D01*
X142845181Y-77075000D01*
X142672819Y-77075000D01*
X142503772Y-77041375D01*
X142344533Y-76975416D01*
X142201217Y-76879655D01*
X142079345Y-76757783D01*
X141983584Y-76614467D01*
X141917625Y-76455228D01*
X141884000Y-76286181D01*
X141884000Y-76113819D01*
X141917625Y-75944772D01*
X141983584Y-75785533D01*
X142079345Y-75642217D01*
X142201217Y-75520345D01*
X142344533Y-75424584D01*
X142503772Y-75358625D01*
X142672819Y-75325000D01*
X142845181Y-75325000D01*
X143014228Y-75358625D01*
X143014228Y-75358625D01*
G37*
G36*
X151904228Y-75358625D02*
X152063467Y-75424584D01*
X152206783Y-75520345D01*
X152328655Y-75642217D01*
X152424416Y-75785533D01*
X152490375Y-75944772D01*
X152524000Y-76113819D01*
X152524000Y-76286181D01*
X152490375Y-76455228D01*
X152424416Y-76614467D01*
X152328655Y-76757783D01*
X152206783Y-76879655D01*
X152063467Y-76975416D01*
X151904228Y-77041375D01*
X151735181Y-77075000D01*
X151562819Y-77075000D01*
X151393772Y-77041375D01*
X151234533Y-76975416D01*
X151091217Y-76879655D01*
X150969345Y-76757783D01*
X150873584Y-76614467D01*
X150807625Y-76455228D01*
X150774000Y-76286181D01*
X150774000Y-76113819D01*
X150807625Y-75944772D01*
X150873584Y-75785533D01*
X150969345Y-75642217D01*
X151091217Y-75520345D01*
X151234533Y-75424584D01*
X151393772Y-75358625D01*
X151562819Y-75325000D01*
X151735181Y-75325000D01*
X151904228Y-75358625D01*
X151904228Y-75358625D01*
G37*
G36*
X162064228Y-75358625D02*
X162223467Y-75424584D01*
X162366783Y-75520345D01*
X162488655Y-75642217D01*
X162584416Y-75785533D01*
X162650375Y-75944772D01*
X162684000Y-76113819D01*
X162684000Y-76286181D01*
X162650375Y-76455228D01*
X162584416Y-76614467D01*
X162488655Y-76757783D01*
X162366783Y-76879655D01*
X162223467Y-76975416D01*
X162064228Y-77041375D01*
X161895181Y-77075000D01*
X161722819Y-77075000D01*
X161553772Y-77041375D01*
X161394533Y-76975416D01*
X161251217Y-76879655D01*
X161129345Y-76757783D01*
X161033584Y-76614467D01*
X160967625Y-76455228D01*
X160934000Y-76286181D01*
X160934000Y-76113819D01*
X160967625Y-75944772D01*
X161033584Y-75785533D01*
X161129345Y-75642217D01*
X161251217Y-75520345D01*
X161394533Y-75424584D01*
X161553772Y-75358625D01*
X161722819Y-75325000D01*
X161895181Y-75325000D01*
X162064228Y-75358625D01*
X162064228Y-75358625D01*
G37*
G36*
X170954228Y-75358625D02*
X171113467Y-75424584D01*
X171256783Y-75520345D01*
X171378655Y-75642217D01*
X171474416Y-75785533D01*
X171540375Y-75944772D01*
X171574000Y-76113819D01*
X171574000Y-76286181D01*
X171540375Y-76455228D01*
X171474416Y-76614467D01*
X171378655Y-76757783D01*
X171256783Y-76879655D01*
X171113467Y-76975416D01*
X170954228Y-77041375D01*
X170785181Y-77075000D01*
X170612819Y-77075000D01*
X170443772Y-77041375D01*
X170284533Y-76975416D01*
X170141217Y-76879655D01*
X170019345Y-76757783D01*
X169923584Y-76614467D01*
X169857625Y-76455228D01*
X169824000Y-76286181D01*
X169824000Y-76113819D01*
X169857625Y-75944772D01*
X169923584Y-75785533D01*
X170019345Y-75642217D01*
X170141217Y-75520345D01*
X170284533Y-75424584D01*
X170443772Y-75358625D01*
X170612819Y-75325000D01*
X170785181Y-75325000D01*
X170954228Y-75358625D01*
X170954228Y-75358625D01*
G37*
G36*
X181114228Y-75358625D02*
X181273467Y-75424584D01*
X181416783Y-75520345D01*
X181538655Y-75642217D01*
X181634416Y-75785533D01*
X181700375Y-75944772D01*
X181734000Y-76113819D01*
X181734000Y-76286181D01*
X181700375Y-76455228D01*
X181634416Y-76614467D01*
X181538655Y-76757783D01*
X181416783Y-76879655D01*
X181273467Y-76975416D01*
X181114228Y-77041375D01*
X180945181Y-77075000D01*
X180772819Y-77075000D01*
X180603772Y-77041375D01*
X180444533Y-76975416D01*
X180301217Y-76879655D01*
X180179345Y-76757783D01*
X180083584Y-76614467D01*
X180017625Y-76455228D01*
X179984000Y-76286181D01*
X179984000Y-76113819D01*
X180017625Y-75944772D01*
X180083584Y-75785533D01*
X180179345Y-75642217D01*
X180301217Y-75520345D01*
X180444533Y-75424584D01*
X180603772Y-75358625D01*
X180772819Y-75325000D01*
X180945181Y-75325000D01*
X181114228Y-75358625D01*
X181114228Y-75358625D01*
G37*
G36*
X132854228Y-75358625D02*
X133013467Y-75424584D01*
X133156783Y-75520345D01*
X133278655Y-75642217D01*
X133374416Y-75785533D01*
X133440375Y-75944772D01*
X133474000Y-76113819D01*
X133474000Y-76286181D01*
X133440375Y-76455228D01*
X133374416Y-76614467D01*
X133278655Y-76757783D01*
X133156783Y-76879655D01*
X133013467Y-76975416D01*
X132854228Y-77041375D01*
X132685181Y-77075000D01*
X132512819Y-77075000D01*
X132343772Y-77041375D01*
X132184533Y-76975416D01*
X132041217Y-76879655D01*
X131919345Y-76757783D01*
X131823584Y-76614467D01*
X131757625Y-76455228D01*
X131724000Y-76286181D01*
X131724000Y-76113819D01*
X131757625Y-75944772D01*
X131823584Y-75785533D01*
X131919345Y-75642217D01*
X132041217Y-75520345D01*
X132184533Y-75424584D01*
X132343772Y-75358625D01*
X132512819Y-75325000D01*
X132685181Y-75325000D01*
X132854228Y-75358625D01*
X132854228Y-75358625D01*
G37*
G36*
X185866876Y-74123292D02*
X185939668Y-74153443D01*
X186005189Y-74197223D01*
X186060897Y-74252931D01*
X186104677Y-74318452D01*
X186134828Y-74391244D01*
X186150200Y-74468524D01*
X186150200Y-74547316D01*
X186134828Y-74624596D01*
X186104677Y-74697388D01*
X186060897Y-74762909D01*
X186005189Y-74818617D01*
X185939668Y-74862397D01*
X185866876Y-74892548D01*
X185789597Y-74907920D01*
X185710803Y-74907920D01*
X185633524Y-74892548D01*
X185560732Y-74862397D01*
X185495211Y-74818617D01*
X185439503Y-74762909D01*
X185395723Y-74697388D01*
X185365572Y-74624596D01*
X185350200Y-74547316D01*
X185350200Y-74468524D01*
X185365572Y-74391244D01*
X185395723Y-74318452D01*
X185439503Y-74252931D01*
X185495211Y-74197223D01*
X185560732Y-74153443D01*
X185633524Y-74123292D01*
X185710803Y-74107920D01*
X185789597Y-74107920D01*
X185866876Y-74123292D01*
X185866876Y-74123292D01*
G37*
G36*
X183607027Y-71119496D02*
X183682427Y-71142368D01*
X183757829Y-71165241D01*
X183896808Y-71239528D01*
X184018622Y-71339498D01*
X184118592Y-71461312D01*
X184192879Y-71600291D01*
X184238624Y-71751094D01*
X184250200Y-71868626D01*
X184250200Y-72347215D01*
X184238624Y-72464746D01*
X184192879Y-72615549D01*
X184118592Y-72754528D01*
X184018625Y-72876339D01*
X184018623Y-72876340D01*
X184018622Y-72876342D01*
X184018618Y-72876345D01*
X183896804Y-72976314D01*
X183757828Y-73050599D01*
X183682427Y-73073471D01*
X183607026Y-73096344D01*
X183450200Y-73111790D01*
X183293373Y-73096344D01*
X183217973Y-73073472D01*
X183142571Y-73050599D01*
X183003592Y-72976312D01*
X182881781Y-72876345D01*
X182881780Y-72876343D01*
X182881778Y-72876342D01*
X182781807Y-72754525D01*
X182707522Y-72615549D01*
X182707521Y-72615548D01*
X182684649Y-72540147D01*
X182661776Y-72464746D01*
X182650200Y-72347212D01*
X182650200Y-71868627D01*
X182661776Y-71751093D01*
X182707521Y-71600292D01*
X182707521Y-71600291D01*
X182781806Y-71461315D01*
X182881781Y-71339496D01*
X183003593Y-71239528D01*
X183142572Y-71165241D01*
X183217974Y-71142368D01*
X183293374Y-71119496D01*
X183450200Y-71104050D01*
X183607027Y-71119496D01*
X183607027Y-71119496D01*
G37*
G36*
X104789734Y-69288034D02*
X104883987Y-69316625D01*
X104924783Y-69338431D01*
X104970849Y-69363054D01*
X105046984Y-69425536D01*
X105046985Y-69425538D01*
X105046987Y-69425539D01*
X105088234Y-69475800D01*
X105109466Y-69501671D01*
X105115407Y-69512786D01*
X105155895Y-69588532D01*
X105184486Y-69682785D01*
X105191720Y-69756236D01*
X105191720Y-70905364D01*
X105184486Y-70978815D01*
X105155895Y-71073068D01*
X105139334Y-71104050D01*
X105109466Y-71159929D01*
X105046984Y-71236064D01*
X104970849Y-71298546D01*
X104930417Y-71320157D01*
X104883988Y-71344975D01*
X104789735Y-71373566D01*
X104691720Y-71383219D01*
X104593706Y-71373566D01*
X104499453Y-71344975D01*
X104453024Y-71320157D01*
X104412592Y-71298546D01*
X104336457Y-71236064D01*
X104273975Y-71159929D01*
X104244107Y-71104050D01*
X104227546Y-71073068D01*
X104198955Y-70978815D01*
X104191721Y-70905364D01*
X104191720Y-69756237D01*
X104198954Y-69682786D01*
X104227545Y-69588533D01*
X104268033Y-69512786D01*
X104273974Y-69501671D01*
X104336456Y-69425536D01*
X104336458Y-69425535D01*
X104336459Y-69425533D01*
X104412590Y-69363055D01*
X104412589Y-69363055D01*
X104412591Y-69363054D01*
X104453023Y-69341443D01*
X104499452Y-69316625D01*
X104593705Y-69288034D01*
X104691720Y-69278381D01*
X104789734Y-69288034D01*
X104789734Y-69288034D01*
G37*
G36*
X113429734Y-69288034D02*
X113523987Y-69316625D01*
X113564783Y-69338431D01*
X113610849Y-69363054D01*
X113686984Y-69425536D01*
X113686985Y-69425538D01*
X113686987Y-69425539D01*
X113728234Y-69475800D01*
X113749466Y-69501671D01*
X113755407Y-69512786D01*
X113795895Y-69588532D01*
X113824486Y-69682785D01*
X113831720Y-69756236D01*
X113831720Y-70905364D01*
X113824486Y-70978815D01*
X113795895Y-71073068D01*
X113779334Y-71104050D01*
X113749466Y-71159929D01*
X113686984Y-71236064D01*
X113610849Y-71298546D01*
X113570417Y-71320157D01*
X113523988Y-71344975D01*
X113429735Y-71373566D01*
X113331720Y-71383219D01*
X113233706Y-71373566D01*
X113139453Y-71344975D01*
X113093024Y-71320157D01*
X113052592Y-71298546D01*
X112976457Y-71236064D01*
X112913975Y-71159929D01*
X112884107Y-71104050D01*
X112867546Y-71073068D01*
X112838955Y-70978815D01*
X112831721Y-70905364D01*
X112831720Y-69756237D01*
X112838954Y-69682786D01*
X112867545Y-69588533D01*
X112908033Y-69512786D01*
X112913974Y-69501671D01*
X112976456Y-69425536D01*
X112976458Y-69425535D01*
X112976459Y-69425533D01*
X113052590Y-69363055D01*
X113052589Y-69363055D01*
X113052591Y-69363054D01*
X113093023Y-69341443D01*
X113139452Y-69316625D01*
X113233705Y-69288034D01*
X113331720Y-69278381D01*
X113429734Y-69288034D01*
X113429734Y-69288034D01*
G37*
G36*
X106216519Y-69488289D02*
X106248833Y-69501674D01*
X106275661Y-69512786D01*
X106275662Y-69512787D01*
X106275665Y-69512788D01*
X106328896Y-69548356D01*
X106374164Y-69593624D01*
X106409732Y-69646855D01*
X106434231Y-69706001D01*
X106446720Y-69768790D01*
X106446720Y-69832810D01*
X106434231Y-69895599D01*
X106409732Y-69954745D01*
X106374164Y-70007976D01*
X106328896Y-70053244D01*
X106275665Y-70088812D01*
X106275662Y-70088813D01*
X106275661Y-70088814D01*
X106262263Y-70094363D01*
X106216519Y-70113311D01*
X106153730Y-70125800D01*
X106089710Y-70125800D01*
X106026921Y-70113311D01*
X105981177Y-70094363D01*
X105967779Y-70088814D01*
X105967778Y-70088813D01*
X105967775Y-70088812D01*
X105914544Y-70053244D01*
X105869276Y-70007976D01*
X105833708Y-69954745D01*
X105809209Y-69895599D01*
X105796720Y-69832810D01*
X105796720Y-69768790D01*
X105809209Y-69706001D01*
X105833708Y-69646855D01*
X105869276Y-69593624D01*
X105914544Y-69548356D01*
X105967775Y-69512788D01*
X105967778Y-69512787D01*
X105967779Y-69512786D01*
X105994607Y-69501674D01*
X106026921Y-69488289D01*
X106089710Y-69475800D01*
X106153730Y-69475800D01*
X106216519Y-69488289D01*
X106216519Y-69488289D01*
G37*
G36*
X111996519Y-69488289D02*
X112028833Y-69501674D01*
X112055661Y-69512786D01*
X112055662Y-69512787D01*
X112055665Y-69512788D01*
X112108896Y-69548356D01*
X112154164Y-69593624D01*
X112189732Y-69646855D01*
X112214231Y-69706001D01*
X112226720Y-69768790D01*
X112226720Y-69832810D01*
X112214231Y-69895599D01*
X112189732Y-69954745D01*
X112154164Y-70007976D01*
X112108896Y-70053244D01*
X112055665Y-70088812D01*
X112055662Y-70088813D01*
X112055661Y-70088814D01*
X112042263Y-70094363D01*
X111996519Y-70113311D01*
X111933730Y-70125800D01*
X111869710Y-70125800D01*
X111806921Y-70113311D01*
X111761177Y-70094363D01*
X111747779Y-70088814D01*
X111747778Y-70088813D01*
X111747775Y-70088812D01*
X111694544Y-70053244D01*
X111649276Y-70007976D01*
X111613708Y-69954745D01*
X111589209Y-69895599D01*
X111576720Y-69832810D01*
X111576720Y-69768790D01*
X111589209Y-69706001D01*
X111613708Y-69646855D01*
X111649276Y-69593624D01*
X111694544Y-69548356D01*
X111747775Y-69512788D01*
X111747778Y-69512787D01*
X111747779Y-69512786D01*
X111774607Y-69501674D01*
X111806921Y-69488289D01*
X111869710Y-69475800D01*
X111933730Y-69475800D01*
X111996519Y-69488289D01*
X111996519Y-69488289D01*
G37*
G36*
X183607027Y-68119496D02*
X183682428Y-68142369D01*
X183757829Y-68165241D01*
X183896808Y-68239528D01*
X184018622Y-68339498D01*
X184118592Y-68461312D01*
X184192879Y-68600291D01*
X184192879Y-68600292D01*
X184238624Y-68751093D01*
X184250200Y-68868628D01*
X184250200Y-69347213D01*
X184238624Y-69464747D01*
X184224051Y-69512788D01*
X184192879Y-69615549D01*
X184118592Y-69754528D01*
X184018625Y-69876339D01*
X184018623Y-69876340D01*
X184018622Y-69876342D01*
X183995154Y-69895601D01*
X183896804Y-69976314D01*
X183757828Y-70050599D01*
X183749108Y-70053244D01*
X183607026Y-70096344D01*
X183450200Y-70111790D01*
X183293373Y-70096344D01*
X183151291Y-70053244D01*
X183142571Y-70050599D01*
X183003592Y-69976312D01*
X182881781Y-69876345D01*
X182881780Y-69876343D01*
X182881778Y-69876342D01*
X182781807Y-69754525D01*
X182743461Y-69682786D01*
X182707521Y-69615548D01*
X182672977Y-69501670D01*
X182661776Y-69464746D01*
X182650200Y-69347212D01*
X182650200Y-68868627D01*
X182661776Y-68751093D01*
X182707521Y-68600292D01*
X182707521Y-68600291D01*
X182781806Y-68461315D01*
X182881781Y-68339496D01*
X183003593Y-68239528D01*
X183142572Y-68165241D01*
X183217973Y-68142369D01*
X183293374Y-68119496D01*
X183450200Y-68104050D01*
X183607027Y-68119496D01*
X183607027Y-68119496D01*
G37*
G36*
X185866876Y-67123292D02*
X185939668Y-67153443D01*
X186005189Y-67197223D01*
X186060897Y-67252931D01*
X186104677Y-67318452D01*
X186134828Y-67391244D01*
X186150200Y-67468524D01*
X186150200Y-67547316D01*
X186134828Y-67624596D01*
X186104677Y-67697388D01*
X186060897Y-67762909D01*
X186005189Y-67818617D01*
X185939668Y-67862397D01*
X185866876Y-67892548D01*
X185789597Y-67907920D01*
X185710803Y-67907920D01*
X185633524Y-67892548D01*
X185560732Y-67862397D01*
X185495211Y-67818617D01*
X185439503Y-67762909D01*
X185395723Y-67697388D01*
X185365572Y-67624596D01*
X185350200Y-67547316D01*
X185350200Y-67468524D01*
X185365572Y-67391244D01*
X185395723Y-67318452D01*
X185439503Y-67252931D01*
X185495211Y-67197223D01*
X185560732Y-67153443D01*
X185633524Y-67123292D01*
X185710803Y-67107920D01*
X185789597Y-67107920D01*
X185866876Y-67123292D01*
X185866876Y-67123292D01*
G37*
G36*
X113429734Y-65358034D02*
X113523987Y-65386625D01*
X113564783Y-65408431D01*
X113610849Y-65433054D01*
X113686984Y-65495536D01*
X113686985Y-65495538D01*
X113686987Y-65495539D01*
X113733845Y-65552637D01*
X113749466Y-65571671D01*
X113771077Y-65612103D01*
X113795895Y-65658532D01*
X113824486Y-65752785D01*
X113831720Y-65826236D01*
X113831720Y-66475364D01*
X113824486Y-66548815D01*
X113795895Y-66643068D01*
X113771077Y-66689497D01*
X113749466Y-66729929D01*
X113686984Y-66806064D01*
X113610849Y-66868546D01*
X113570417Y-66890157D01*
X113523988Y-66914975D01*
X113429735Y-66943566D01*
X113331720Y-66953219D01*
X113233706Y-66943566D01*
X113139453Y-66914975D01*
X113093024Y-66890157D01*
X113052592Y-66868546D01*
X112976457Y-66806064D01*
X112913975Y-66729929D01*
X112900109Y-66703988D01*
X112867544Y-66643065D01*
X112838954Y-66548815D01*
X112831720Y-66475364D01*
X112831720Y-65826237D01*
X112838954Y-65752786D01*
X112867545Y-65658533D01*
X112889351Y-65617737D01*
X112913974Y-65571671D01*
X112976456Y-65495536D01*
X112976458Y-65495535D01*
X112976459Y-65495533D01*
X113052590Y-65433055D01*
X113052589Y-65433055D01*
X113052591Y-65433054D01*
X113093023Y-65411443D01*
X113139452Y-65386625D01*
X113233705Y-65358034D01*
X113331720Y-65348381D01*
X113429734Y-65358034D01*
X113429734Y-65358034D01*
G37*
G36*
X104789734Y-65358034D02*
X104883987Y-65386625D01*
X104924783Y-65408431D01*
X104970849Y-65433054D01*
X105046984Y-65495536D01*
X105046985Y-65495538D01*
X105046987Y-65495539D01*
X105093845Y-65552637D01*
X105109466Y-65571671D01*
X105131077Y-65612103D01*
X105155895Y-65658532D01*
X105184486Y-65752785D01*
X105191720Y-65826236D01*
X105191720Y-66475364D01*
X105184486Y-66548815D01*
X105155895Y-66643068D01*
X105131077Y-66689497D01*
X105109466Y-66729929D01*
X105046984Y-66806064D01*
X104970849Y-66868546D01*
X104930417Y-66890157D01*
X104883988Y-66914975D01*
X104789735Y-66943566D01*
X104691720Y-66953219D01*
X104593706Y-66943566D01*
X104499453Y-66914975D01*
X104453024Y-66890157D01*
X104412592Y-66868546D01*
X104336457Y-66806064D01*
X104273975Y-66729929D01*
X104260109Y-66703988D01*
X104227544Y-66643065D01*
X104198954Y-66548815D01*
X104191720Y-66475364D01*
X104191720Y-65826237D01*
X104198954Y-65752786D01*
X104227545Y-65658533D01*
X104249351Y-65617737D01*
X104273974Y-65571671D01*
X104336456Y-65495536D01*
X104336458Y-65495535D01*
X104336459Y-65495533D01*
X104412590Y-65433055D01*
X104412589Y-65433055D01*
X104412591Y-65433054D01*
X104453023Y-65411443D01*
X104499452Y-65386625D01*
X104593705Y-65358034D01*
X104691720Y-65348381D01*
X104789734Y-65358034D01*
X104789734Y-65358034D01*
G37*
M02*
